<?xml version="1.0" encoding="UTF-8"?>
<svg xmlns="http://www.w3.org/2000/svg" xmlns:xlink="http://www.w3.org/1999/xlink" width="684pt" height="216pt" viewBox="0 0 684 216" version="1.1">
<defs>
<clipPath id="clip1">
  <path d="M 132 158 L 147 158 L 147 162 L 132 162 Z M 132 158 "/>
</clipPath>
<clipPath id="clip2">
  <path d="M 145 61 L 501 61 L 501 162 L 145 162 Z M 145 61 "/>
</clipPath>
<clipPath id="clip3">
  <path d="M 145 54 L 526 54 L 526 162 L 145 162 Z M 145 54 "/>
</clipPath>
<clipPath id="clip4">
  <path d="M 147 118 L 302 118 L 302 162 L 147 162 Z M 147 118 "/>
</clipPath>
<clipPath id="clip5">
  <path d="M 147 100 L 365 100 L 365 162 L 147 162 Z M 147 100 "/>
</clipPath>
<clipPath id="clip6">
  <path d="M 147 85 L 417 85 L 417 162 L 147 162 Z M 147 85 "/>
</clipPath>
<clipPath id="clip7">
  <path d="M 147 64 L 490 64 L 490 162 L 147 162 Z M 147 64 "/>
</clipPath>
<clipPath id="clip8">
  <path d="M 300 129 L 417 129 L 417 162 L 300 162 Z M 300 129 "/>
</clipPath>
<clipPath id="clip9">
  <path d="M 300 108 L 490 108 L 490 162 L 300 162 Z M 300 108 "/>
</clipPath>
<clipPath id="clip10">
  <path d="M 300 143 L 366 143 L 366 162 L 300 162 Z M 300 143 "/>
</clipPath>
<clipPath id="clip11">
  <path d="M 363 126 L 490 126 L 490 162 L 363 162 Z M 363 126 "/>
</clipPath>
<clipPath id="clip12">
  <path d="M 365 148 L 415 148 L 415 162 L 365 162 Z M 365 148 "/>
</clipPath>
<clipPath id="clip13">
  <path d="M 414 140 L 490 140 L 490 162 L 414 162 Z M 414 140 "/>
</clipPath>
<clipPath id="clip14">
  <path d="M 415 152 L 451 152 L 451 162 L 415 162 Z M 415 152 "/>
</clipPath>
<clipPath id="clip15">
  <path d="M 447 150 L 490 150 L 490 162 L 447 162 Z M 447 150 "/>
</clipPath>
<clipPath id="clip16">
  <path d="M 488 151 L 526 151 L 526 162 L 488 162 Z M 488 151 "/>
</clipPath>
</defs>
<g id="surface845">
<path style=" stroke:none;fill-rule:nonzero;fill:rgb(10.980392%,52.54902%,93.333333%);fill-opacity:1;" d="M 133.199219 162 L 133.359375 161.773438 L 133.527344 161.550781 L 133.699219 161.339844 L 133.878906 161.136719 L 134.066406 160.9375 L 134.253906 160.75 L 134.453125 160.566406 L 134.652344 160.390625 L 134.863281 160.226562 L 135.078125 160.066406 L 135.296875 159.914062 L 135.523438 159.773438 L 135.753906 159.636719 L 135.988281 159.507812 L 136.230469 159.390625 L 136.476562 159.28125 L 136.726562 159.179688 L 136.984375 159.085938 L 137.242188 159 L 137.503906 158.925781 L 137.769531 158.859375 L 138.039062 158.804688 L 138.308594 158.757812 L 138.582031 158.71875 L 138.855469 158.691406 L 139.132812 158.675781 L 139.40625 158.667969 L 139.683594 158.667969 L 139.960938 158.679688 L 140.234375 158.699219 L 140.507812 158.730469 L 140.78125 158.769531 L 141.050781 158.820312 L 141.320312 158.878906 L 141.582031 158.949219 L 141.84375 159.027344 L 142.101562 159.113281 L 142.355469 159.210938 L 142.605469 159.316406 L 142.847656 159.429688 L 143.089844 159.550781 L 143.324219 159.679688 L 143.554688 159.816406 L 143.777344 159.964844 L 143.996094 160.117188 L 144.207031 160.28125 L 144.414062 160.449219 L 144.613281 160.625 L 144.808594 160.8125 L 144.996094 161.003906 L 145.179688 161.203125 L 145.355469 161.410156 L 145.527344 161.625 L 145.691406 161.847656 L 145.800781 162 L 144.898438 162 L 144.808594 161.882812 L 144.667969 161.710938 L 144.519531 161.546875 L 144.367188 161.390625 L 144.210938 161.234375 L 144.050781 161.089844 L 143.882812 160.949219 L 143.710938 160.8125 L 143.535156 160.683594 L 143.351562 160.558594 L 143.164062 160.441406 L 142.972656 160.328125 L 142.777344 160.222656 L 142.578125 160.125 L 142.371094 160.03125 L 142.160156 159.945312 L 141.949219 159.863281 L 141.730469 159.789062 L 141.507812 159.722656 L 141.285156 159.664062 L 141.058594 159.609375 L 140.828125 159.566406 L 140.597656 159.527344 L 140.363281 159.496094 L 140.128906 159.472656 L 139.894531 159.457031 L 139.65625 159.449219 L 139.421875 159.445312 L 139.183594 159.453125 L 138.949219 159.464844 L 138.714844 159.488281 L 138.480469 159.515625 L 138.246094 159.550781 L 138.015625 159.59375 L 137.789062 159.644531 L 137.5625 159.703125 L 137.34375 159.765625 L 137.125 159.839844 L 136.910156 159.917969 L 136.699219 160 L 136.492188 160.09375 L 136.289062 160.191406 L 136.089844 160.292969 L 135.898438 160.402344 L 135.707031 160.519531 L 135.523438 160.640625 L 135.347656 160.769531 L 135.171875 160.902344 L 135.003906 161.042969 L 134.839844 161.1875 L 134.683594 161.335938 L 134.53125 161.496094 L 134.382812 161.65625 L 134.238281 161.824219 L 134.101562 162 Z M 133.199219 162 "/>
<g clip-path="url(#clip1)" clip-rule="nonzero">
<path style="fill:none;stroke-width:0.75;stroke-linecap:round;stroke-linejoin:round;stroke:rgb(10.980392%,52.54902%,93.333333%);stroke-opacity:1;stroke-miterlimit:10;" d="M 133.199219 162 L 133.359375 161.773438 L 133.527344 161.550781 L 133.699219 161.339844 L 133.878906 161.136719 L 134.066406 160.9375 L 134.253906 160.75 L 134.453125 160.566406 L 134.652344 160.390625 L 134.863281 160.226562 L 135.078125 160.066406 L 135.296875 159.914062 L 135.523438 159.773438 L 135.753906 159.636719 L 135.988281 159.507812 L 136.230469 159.390625 L 136.476562 159.28125 L 136.726562 159.179688 L 136.984375 159.085938 L 137.242188 159 L 137.503906 158.925781 L 137.769531 158.859375 L 138.039062 158.804688 L 138.308594 158.757812 L 138.582031 158.71875 L 138.855469 158.691406 L 139.132812 158.675781 L 139.40625 158.667969 L 139.683594 158.667969 L 139.960938 158.679688 L 140.234375 158.699219 L 140.507812 158.730469 L 140.78125 158.769531 L 141.050781 158.820312 L 141.320312 158.878906 L 141.582031 158.949219 L 141.84375 159.027344 L 142.101562 159.113281 L 142.355469 159.210938 L 142.605469 159.316406 L 142.847656 159.429688 L 143.089844 159.550781 L 143.324219 159.679688 L 143.554688 159.816406 L 143.777344 159.964844 L 143.996094 160.117188 L 144.207031 160.28125 L 144.414062 160.449219 L 144.613281 160.625 L 144.808594 160.8125 L 144.996094 161.003906 L 145.179688 161.203125 L 145.355469 161.410156 L 145.527344 161.625 L 145.691406 161.847656 L 145.800781 162 L 144.898438 162 L 144.808594 161.882812 L 144.667969 161.710938 L 144.519531 161.546875 L 144.367188 161.390625 L 144.210938 161.234375 L 144.050781 161.089844 L 143.882812 160.949219 L 143.710938 160.8125 L 143.535156 160.683594 L 143.351562 160.558594 L 143.164062 160.441406 L 142.972656 160.328125 L 142.777344 160.222656 L 142.578125 160.125 L 142.371094 160.03125 L 142.160156 159.945312 L 141.949219 159.863281 L 141.730469 159.789062 L 141.507812 159.722656 L 141.285156 159.664062 L 141.058594 159.609375 L 140.828125 159.566406 L 140.597656 159.527344 L 140.363281 159.496094 L 140.128906 159.472656 L 139.894531 159.457031 L 139.65625 159.449219 L 139.421875 159.445312 L 139.183594 159.453125 L 138.949219 159.464844 L 138.714844 159.488281 L 138.480469 159.515625 L 138.246094 159.550781 L 138.015625 159.59375 L 137.789062 159.644531 L 137.5625 159.703125 L 137.34375 159.765625 L 137.125 159.839844 L 136.910156 159.917969 L 136.699219 160 L 136.492188 160.09375 L 136.289062 160.191406 L 136.089844 160.292969 L 135.898438 160.402344 L 135.707031 160.519531 L 135.523438 160.640625 L 135.347656 160.769531 L 135.171875 160.902344 L 135.003906 161.042969 L 134.839844 161.1875 L 134.683594 161.335938 L 134.53125 161.496094 L 134.382812 161.65625 L 134.238281 161.824219 L 134.101562 162 Z M 133.199219 162 "/>
</g>
<path style=" stroke:none;fill-rule:nonzero;fill:rgb(87.45098%,19.607843%,22.352941%);fill-opacity:1;" d="M 145.800781 162 L 150.339844 155.125 L 155.039062 148.492188 L 159.902344 142.09375 L 164.933594 135.925781 L 170.128906 129.984375 L 175.492188 124.273438 L 181.023438 118.789062 L 186.726562 113.527344 L 192.589844 108.5 L 198.621094 103.699219 L 204.8125 99.136719 L 211.160156 94.808594 L 217.660156 90.722656 L 224.3125 86.886719 L 231.105469 83.300781 L 238.03125 79.96875 L 245.085938 76.898438 L 252.261719 74.09375 L 259.546875 71.5625 L 266.933594 69.300781 L 274.40625 67.320312 L 281.960938 65.621094 L 289.582031 64.210938 L 297.261719 63.085938 L 304.980469 62.253906 L 312.730469 61.714844 L 320.5 61.46875 L 328.269531 61.515625 L 336.035156 61.859375 L 343.777344 62.496094 L 351.484375 63.425781 L 359.144531 64.644531 L 366.746094 66.152344 L 374.273438 67.945312 L 381.722656 70.019531 L 389.074219 72.367188 L 396.324219 74.992188 L 403.460938 77.886719 L 410.472656 81.042969 L 417.359375 84.457031 L 424.105469 88.128906 L 430.707031 92.046875 L 437.15625 96.214844 L 443.453125 100.617188 L 449.59375 105.261719 L 455.566406 110.136719 L 461.378906 115.242188 L 467.023438 120.578125 L 472.5 126.136719 L 477.808594 131.925781 L 482.949219 137.941406 L 487.925781 144.183594 L 492.734375 150.660156 L 497.378906 157.371094 L 500.398438 162 L 498.601562 162 L 495.609375 157.40625 L 491.011719 150.746094 L 486.25 144.320312 L 481.328125 138.125 L 476.238281 132.160156 L 470.984375 126.417969 L 465.5625 120.898438 L 459.976562 115.605469 L 454.222656 110.539062 L 448.308594 105.703125 L 442.230469 101.09375 L 436 96.722656 L 429.613281 92.589844 L 423.078125 88.703125 L 416.402344 85.058594 L 409.585938 81.671875 L 402.644531 78.539062 L 395.582031 75.667969 L 388.40625 73.066406 L 381.125 70.730469 L 373.753906 68.675781 L 366.300781 66.898438 L 358.777344 65.402344 L 351.195312 64.191406 L 343.566406 63.269531 L 335.902344 62.636719 L 328.21875 62.296875 L 320.527344 62.25 L 312.835938 62.492188 L 305.164062 63.027344 L 297.523438 63.855469 L 289.921875 64.96875 L 282.378906 66.371094 L 274.902344 68.054688 L 267.503906 70.019531 L 260.191406 72.261719 L 252.980469 74.777344 L 245.878906 77.558594 L 238.894531 80.605469 L 232.039062 83.910156 L 225.316406 87.46875 L 218.730469 91.277344 L 212.296875 95.332031 L 206.011719 99.625 L 199.882812 104.152344 L 193.914062 108.914062 L 188.109375 113.90625 L 182.46875 119.121094 L 176.992188 124.566406 L 171.683594 130.234375 L 166.539062 136.128906 L 161.558594 142.246094 L 156.746094 148.597656 L 152.09375 155.179688 L 147.601562 162 Z M 145.800781 162 "/>
<g clip-path="url(#clip2)" clip-rule="nonzero">
<path style="fill:none;stroke-width:0.75;stroke-linecap:round;stroke-linejoin:round;stroke:rgb(87.45098%,19.607843%,22.352941%);stroke-opacity:1;stroke-miterlimit:10;" d="M 145.800781 162 L 150.339844 155.125 L 155.039062 148.492188 L 159.902344 142.09375 L 164.933594 135.925781 L 170.128906 129.984375 L 175.492188 124.273438 L 181.023438 118.789062 L 186.726562 113.527344 L 192.589844 108.5 L 198.621094 103.699219 L 204.8125 99.136719 L 211.160156 94.808594 L 217.660156 90.722656 L 224.3125 86.886719 L 231.105469 83.300781 L 238.03125 79.96875 L 245.085938 76.898438 L 252.261719 74.09375 L 259.546875 71.5625 L 266.933594 69.300781 L 274.40625 67.320312 L 281.960938 65.621094 L 289.582031 64.210938 L 297.261719 63.085938 L 304.980469 62.253906 L 312.730469 61.714844 L 320.5 61.46875 L 328.269531 61.515625 L 336.035156 61.859375 L 343.777344 62.496094 L 351.484375 63.425781 L 359.144531 64.644531 L 366.746094 66.152344 L 374.273438 67.945312 L 381.722656 70.019531 L 389.074219 72.367188 L 396.324219 74.992188 L 403.460938 77.886719 L 410.472656 81.042969 L 417.359375 84.457031 L 424.105469 88.128906 L 430.707031 92.046875 L 437.15625 96.214844 L 443.453125 100.617188 L 449.59375 105.261719 L 455.566406 110.136719 L 461.378906 115.242188 L 467.023438 120.578125 L 472.5 126.136719 L 477.808594 131.925781 L 482.949219 137.941406 L 487.925781 144.183594 L 492.734375 150.660156 L 497.378906 157.371094 L 500.398438 162 L 498.601562 162 L 495.609375 157.40625 L 491.011719 150.746094 L 486.25 144.320312 L 481.328125 138.125 L 476.238281 132.160156 L 470.984375 126.417969 L 465.5625 120.898438 L 459.976562 115.605469 L 454.222656 110.539062 L 448.308594 105.703125 L 442.230469 101.09375 L 436 96.722656 L 429.613281 92.589844 L 423.078125 88.703125 L 416.402344 85.058594 L 409.585938 81.671875 L 402.644531 78.539062 L 395.582031 75.667969 L 388.40625 73.066406 L 381.125 70.730469 L 373.753906 68.675781 L 366.300781 66.898438 L 358.777344 65.402344 L 351.195312 64.191406 L 343.566406 63.269531 L 335.902344 62.636719 L 328.21875 62.296875 L 320.527344 62.25 L 312.835938 62.492188 L 305.164062 63.027344 L 297.523438 63.855469 L 289.921875 64.96875 L 282.378906 66.371094 L 274.902344 68.054688 L 267.503906 70.019531 L 260.191406 72.261719 L 252.980469 74.777344 L 245.878906 77.558594 L 238.894531 80.605469 L 232.039062 83.910156 L 225.316406 87.46875 L 218.730469 91.277344 L 212.296875 95.332031 L 206.011719 99.625 L 199.882812 104.152344 L 193.914062 108.914062 L 188.109375 113.90625 L 182.46875 119.121094 L 176.992188 124.566406 L 171.683594 130.234375 L 166.539062 136.128906 L 161.558594 142.246094 L 156.746094 148.597656 L 152.09375 155.179688 L 147.601562 162 Z M 145.800781 162 "/>
</g>
<path style=" stroke:none;fill-rule:nonzero;fill:rgb(92.156863%,17.254902%,17.647059%);fill-opacity:1;" d="M 145.800781 162 L 150.660156 154.632812 L 155.695312 147.527344 L 160.90625 140.671875 L 166.292969 134.0625 L 171.859375 127.699219 L 177.601562 121.578125 L 183.527344 115.699219 L 189.632812 110.066406 L 195.914062 104.675781 L 202.375 99.535156 L 209.003906 94.644531 L 215.804688 90.007812 L 222.769531 85.632812 L 229.890625 81.519531 L 237.167969 77.679688 L 244.585938 74.109375 L 252.144531 70.820312 L 259.828125 67.816406 L 267.628906 65.101562 L 275.539062 62.679688 L 283.546875 60.558594 L 291.636719 58.738281 L 299.800781 57.226562 L 308.023438 56.019531 L 316.292969 55.128906 L 324.59375 54.550781 L 332.914062 54.289062 L 341.238281 54.339844 L 349.554688 54.707031 L 357.847656 55.390625 L 366.101562 56.386719 L 374.304688 57.691406 L 382.445312 59.304688 L 390.511719 61.226562 L 398.488281 63.449219 L 406.363281 65.964844 L 414.128906 68.777344 L 421.769531 71.878906 L 429.285156 75.257812 L 436.65625 78.917969 L 443.882812 82.851562 L 450.953125 87.050781 L 457.863281 91.515625 L 464.605469 96.234375 L 471.179688 101.207031 L 477.582031 106.433594 L 483.804688 111.902344 L 489.851562 117.617188 L 495.71875 123.574219 L 501.402344 129.777344 L 506.910156 136.222656 L 512.238281 142.910156 L 517.386719 149.847656 L 522.367188 157.042969 L 525.601562 162 L 523.800781 162 L 520.597656 157.078125 L 515.667969 149.9375 L 510.5625 143.050781 L 505.285156 136.410156 L 499.832031 130.011719 L 494.199219 123.855469 L 488.390625 117.9375 L 482.402344 112.265625 L 476.238281 106.835938 L 469.898438 101.648438 L 463.386719 96.710938 L 456.703125 92.023438 L 449.859375 87.59375 L 442.855469 83.425781 L 435.699219 79.523438 L 428.394531 75.886719 L 420.957031 72.53125 L 413.382812 69.453125 L 405.691406 66.664062 L 397.890625 64.160156 L 389.992188 61.957031 L 382.003906 60.050781 L 373.941406 58.449219 L 365.8125 57.148438 L 357.636719 56.164062 L 349.421875 55.484375 L 341.1875 55.121094 L 332.941406 55.066406 L 324.699219 55.328125 L 316.476562 55.902344 L 308.285156 56.789062 L 300.140625 57.984375 L 292.054688 59.488281 L 284.042969 61.292969 L 276.109375 63.398438 L 268.273438 65.804688 L 260.546875 68.5 L 252.933594 71.480469 L 245.449219 74.746094 L 238.101562 78.289062 L 230.894531 82.105469 L 223.839844 86.1875 L 216.941406 90.53125 L 210.207031 95.132812 L 203.636719 99.988281 L 197.242188 105.09375 L 191.015625 110.441406 L 184.972656 116.035156 L 179.101562 121.871094 L 173.410156 127.949219 L 167.898438 134.265625 L 162.5625 140.824219 L 157.402344 147.632812 L 152.414062 154.6875 L 147.601562 162 Z M 145.800781 162 "/>
<g clip-path="url(#clip3)" clip-rule="nonzero">
<path style="fill:none;stroke-width:0.75;stroke-linecap:round;stroke-linejoin:round;stroke:rgb(92.156863%,17.254902%,17.647059%);stroke-opacity:1;stroke-miterlimit:10;" d="M 145.800781 162 L 150.660156 154.632812 L 155.695312 147.527344 L 160.90625 140.671875 L 166.292969 134.0625 L 171.859375 127.699219 L 177.601562 121.578125 L 183.527344 115.699219 L 189.632812 110.066406 L 195.914062 104.675781 L 202.375 99.535156 L 209.003906 94.644531 L 215.804688 90.007812 L 222.769531 85.632812 L 229.890625 81.519531 L 237.167969 77.679688 L 244.585938 74.109375 L 252.144531 70.820312 L 259.828125 67.816406 L 267.628906 65.101562 L 275.539062 62.679688 L 283.546875 60.558594 L 291.636719 58.738281 L 299.800781 57.226562 L 308.023438 56.019531 L 316.292969 55.128906 L 324.59375 54.550781 L 332.914062 54.289062 L 341.238281 54.339844 L 349.554688 54.707031 L 357.847656 55.390625 L 366.101562 56.386719 L 374.304688 57.691406 L 382.445312 59.304688 L 390.511719 61.226562 L 398.488281 63.449219 L 406.363281 65.964844 L 414.128906 68.777344 L 421.769531 71.878906 L 429.285156 75.257812 L 436.65625 78.917969 L 443.882812 82.851562 L 450.953125 87.050781 L 457.863281 91.515625 L 464.605469 96.234375 L 471.179688 101.207031 L 477.582031 106.433594 L 483.804688 111.902344 L 489.851562 117.617188 L 495.71875 123.574219 L 501.402344 129.777344 L 506.910156 136.222656 L 512.238281 142.910156 L 517.386719 149.847656 L 522.367188 157.042969 L 525.601562 162 L 523.800781 162 L 520.597656 157.078125 L 515.667969 149.9375 L 510.5625 143.050781 L 505.285156 136.410156 L 499.832031 130.011719 L 494.199219 123.855469 L 488.390625 117.9375 L 482.402344 112.265625 L 476.238281 106.835938 L 469.898438 101.648438 L 463.386719 96.710938 L 456.703125 92.023438 L 449.859375 87.59375 L 442.855469 83.425781 L 435.699219 79.523438 L 428.394531 75.886719 L 420.957031 72.53125 L 413.382812 69.453125 L 405.691406 66.664062 L 397.890625 64.160156 L 389.992188 61.957031 L 382.003906 60.050781 L 373.941406 58.449219 L 365.8125 57.148438 L 357.636719 56.164062 L 349.421875 55.484375 L 341.1875 55.121094 L 332.941406 55.066406 L 324.699219 55.328125 L 316.476562 55.902344 L 308.285156 56.789062 L 300.140625 57.984375 L 292.054688 59.488281 L 284.042969 61.292969 L 276.109375 63.398438 L 268.273438 65.804688 L 260.546875 68.5 L 252.933594 71.480469 L 245.449219 74.746094 L 238.101562 78.289062 L 230.894531 82.105469 L 223.839844 86.1875 L 216.941406 90.53125 L 210.207031 95.132812 L 203.636719 99.988281 L 197.242188 105.09375 L 191.015625 110.441406 L 184.972656 116.035156 L 179.101562 121.871094 L 173.410156 127.949219 L 167.898438 134.265625 L 162.5625 140.824219 L 157.402344 147.632812 L 152.414062 154.6875 L 147.601562 162 Z M 145.800781 162 "/>
</g>
<path style=" stroke:none;fill-rule:nonzero;fill:rgb(42.745098%,38.431373%,63.529412%);fill-opacity:1;" d="M 147.601562 162 L 149.570312 159.019531 L 151.609375 156.140625 L 153.722656 153.367188 L 155.902344 150.691406 L 158.160156 148.117188 L 160.488281 145.640625 L 162.886719 143.257812 L 165.363281 140.980469 L 167.90625 138.796875 L 170.523438 136.714844 L 173.210938 134.738281 L 175.964844 132.859375 L 178.789062 131.089844 L 181.675781 129.425781 L 184.621094 127.871094 L 187.628906 126.425781 L 190.691406 125.09375 L 193.804688 123.878906 L 196.96875 122.777344 L 200.171875 121.800781 L 203.417969 120.941406 L 206.695312 120.203125 L 210.003906 119.589844 L 213.335938 119.105469 L 216.6875 118.742188 L 220.050781 118.507812 L 223.421875 118.402344 L 226.792969 118.421875 L 230.164062 118.570312 L 233.523438 118.847656 L 236.867188 119.25 L 240.195312 119.78125 L 243.492188 120.433594 L 246.761719 121.210938 L 249.992188 122.109375 L 253.183594 123.128906 L 256.328125 124.265625 L 259.425781 125.523438 L 262.472656 126.890625 L 265.457031 128.371094 L 268.386719 129.964844 L 271.25 131.664062 L 274.050781 133.46875 L 276.785156 135.378906 L 279.449219 137.394531 L 282.042969 139.507812 L 284.5625 141.722656 L 287.015625 144.035156 L 289.390625 146.449219 L 291.695312 148.957031 L 293.925781 151.566406 L 296.085938 154.273438 L 298.171875 157.082031 L 300.1875 159.992188 L 301.5 162 L 300.601562 162 L 299.304688 160.027344 L 297.3125 157.171875 L 295.25 154.410156 L 293.113281 151.753906 L 290.910156 149.191406 L 288.632812 146.726562 L 286.285156 144.355469 L 283.863281 142.085938 L 281.371094 139.910156 L 278.808594 137.835938 L 276.175781 135.855469 L 273.472656 133.980469 L 270.707031 132.207031 L 267.875 130.539062 L 264.980469 128.972656 L 262.027344 127.519531 L 259.019531 126.175781 L 255.957031 124.941406 L 252.847656 123.824219 L 249.695312 122.824219 L 246.5 121.941406 L 243.269531 121.175781 L 240.011719 120.535156 L 236.726562 120.015625 L 233.417969 119.621094 L 230.097656 119.347656 L 226.769531 119.203125 L 223.433594 119.183594 L 220.101562 119.289062 L 216.777344 119.515625 L 213.464844 119.871094 L 210.171875 120.351562 L 206.90625 120.953125 L 203.664062 121.675781 L 200.457031 122.519531 L 197.289062 123.480469 L 194.164062 124.558594 L 191.085938 125.753906 L 188.0625 127.0625 L 185.089844 128.480469 L 182.175781 130.007812 L 179.324219 131.644531 L 176.535156 133.382812 L 173.8125 135.226562 L 171.15625 137.167969 L 168.570312 139.214844 L 166.054688 141.355469 L 163.609375 143.59375 L 161.234375 145.933594 L 158.933594 148.363281 L 156.707031 150.894531 L 154.550781 153.523438 L 152.464844 156.246094 L 150.445312 159.070312 L 148.5 162 Z M 147.601562 162 "/>
<g clip-path="url(#clip4)" clip-rule="nonzero">
<path style="fill:none;stroke-width:0.75;stroke-linecap:round;stroke-linejoin:round;stroke:rgb(42.745098%,38.431373%,63.529412%);stroke-opacity:1;stroke-miterlimit:10;" d="M 147.601562 162 L 149.570312 159.019531 L 151.609375 156.140625 L 153.722656 153.367188 L 155.902344 150.691406 L 158.160156 148.117188 L 160.488281 145.640625 L 162.886719 143.257812 L 165.363281 140.980469 L 167.90625 138.796875 L 170.523438 136.714844 L 173.210938 134.738281 L 175.964844 132.859375 L 178.789062 131.089844 L 181.675781 129.425781 L 184.621094 127.871094 L 187.628906 126.425781 L 190.691406 125.09375 L 193.804688 123.878906 L 196.96875 122.777344 L 200.171875 121.800781 L 203.417969 120.941406 L 206.695312 120.203125 L 210.003906 119.589844 L 213.335938 119.105469 L 216.6875 118.742188 L 220.050781 118.507812 L 223.421875 118.402344 L 226.792969 118.421875 L 230.164062 118.570312 L 233.523438 118.847656 L 236.867188 119.25 L 240.195312 119.78125 L 243.492188 120.433594 L 246.761719 121.210938 L 249.992188 122.109375 L 253.183594 123.128906 L 256.328125 124.265625 L 259.425781 125.523438 L 262.472656 126.890625 L 265.457031 128.371094 L 268.386719 129.964844 L 271.25 131.664062 L 274.050781 133.46875 L 276.785156 135.378906 L 279.449219 137.394531 L 282.042969 139.507812 L 284.5625 141.722656 L 287.015625 144.035156 L 289.390625 146.449219 L 291.695312 148.957031 L 293.925781 151.566406 L 296.085938 154.273438 L 298.171875 157.082031 L 300.1875 159.992188 L 301.5 162 L 300.601562 162 L 299.304688 160.027344 L 297.3125 157.171875 L 295.25 154.410156 L 293.113281 151.753906 L 290.910156 149.191406 L 288.632812 146.726562 L 286.285156 144.355469 L 283.863281 142.085938 L 281.371094 139.910156 L 278.808594 137.835938 L 276.175781 135.855469 L 273.472656 133.980469 L 270.707031 132.207031 L 267.875 130.539062 L 264.980469 128.972656 L 262.027344 127.519531 L 259.019531 126.175781 L 255.957031 124.941406 L 252.847656 123.824219 L 249.695312 122.824219 L 246.5 121.941406 L 243.269531 121.175781 L 240.011719 120.535156 L 236.726562 120.015625 L 233.417969 119.621094 L 230.097656 119.347656 L 226.769531 119.203125 L 223.433594 119.183594 L 220.101562 119.289062 L 216.777344 119.515625 L 213.464844 119.871094 L 210.171875 120.351562 L 206.90625 120.953125 L 203.664062 121.675781 L 200.457031 122.519531 L 197.289062 123.480469 L 194.164062 124.558594 L 191.085938 125.753906 L 188.0625 127.0625 L 185.089844 128.480469 L 182.175781 130.007812 L 179.324219 131.644531 L 176.535156 133.382812 L 173.8125 135.226562 L 171.15625 137.167969 L 168.570312 139.214844 L 166.054688 141.355469 L 163.609375 143.59375 L 161.234375 145.933594 L 158.933594 148.363281 L 156.707031 150.894531 L 154.550781 153.523438 L 152.464844 156.246094 L 150.445312 159.070312 L 148.5 162 Z M 147.601562 162 "/>
</g>
<path style=" stroke:none;fill-rule:nonzero;fill:rgb(56.862745%,32.54902%,50.588235%);fill-opacity:1;" d="M 147.601562 162 L 150.375 157.792969 L 153.25 153.730469 L 156.226562 149.8125 L 159.300781 146.035156 L 162.480469 142.398438 L 165.761719 138.902344 L 169.144531 135.542969 L 172.632812 132.324219 L 176.21875 129.242188 L 179.910156 126.304688 L 183.695312 123.511719 L 187.578125 120.863281 L 191.554688 118.363281 L 195.625 116.011719 L 199.777344 113.816406 L 204.015625 111.777344 L 208.332031 109.898438 L 212.71875 108.179688 L 217.175781 106.628906 L 221.691406 105.246094 L 226.265625 104.03125 L 230.886719 102.992188 L 235.546875 102.128906 L 240.246094 101.441406 L 244.96875 100.929688 L 249.707031 100.601562 L 254.460938 100.449219 L 259.214844 100.480469 L 263.960938 100.691406 L 268.699219 101.078125 L 273.410156 101.648438 L 278.097656 102.394531 L 282.746094 103.316406 L 287.351562 104.414062 L 291.90625 105.683594 L 296.40625 107.125 L 300.839844 108.730469 L 305.203125 110.5 L 309.496094 112.433594 L 313.707031 114.527344 L 317.832031 116.773438 L 321.871094 119.171875 L 325.816406 121.722656 L 329.667969 124.417969 L 333.421875 127.261719 L 337.078125 130.246094 L 340.632812 133.371094 L 344.085938 136.636719 L 347.433594 140.042969 L 350.679688 143.585938 L 353.824219 147.269531 L 356.867188 151.09375 L 359.8125 155.058594 L 362.652344 159.167969 L 364.5 162 L 363.601562 162 L 361.769531 159.203125 L 358.949219 155.144531 L 356.03125 151.230469 L 353.015625 147.457031 L 349.894531 143.820312 L 346.675781 140.320312 L 343.355469 136.960938 L 339.929688 133.734375 L 336.40625 130.648438 L 332.78125 127.703125 L 329.058594 124.894531 L 325.238281 122.234375 L 321.324219 119.714844 L 317.320312 117.347656 L 313.226562 115.128906 L 309.050781 113.0625 L 304.796875 111.15625 L 300.46875 109.40625 L 296.070312 107.820312 L 291.609375 106.398438 L 287.09375 105.144531 L 282.523438 104.0625 L 277.914062 103.152344 L 273.269531 102.414062 L 268.59375 101.851562 L 263.894531 101.46875 L 259.1875 101.261719 L 254.472656 101.230469 L 249.761719 101.378906 L 245.058594 101.707031 L 240.375 102.207031 L 235.71875 102.886719 L 231.09375 103.742188 L 226.511719 104.769531 L 221.976562 105.964844 L 217.5 107.332031 L 213.078125 108.863281 L 208.726562 110.558594 L 204.449219 112.414062 L 200.246094 114.425781 L 196.125 116.59375 L 192.089844 118.914062 L 188.148438 121.382812 L 184.296875 124 L 180.539062 126.757812 L 176.882812 129.660156 L 173.324219 132.699219 L 169.867188 135.878906 L 166.511719 139.195312 L 163.257812 142.648438 L 160.105469 146.238281 L 157.054688 149.964844 L 154.105469 153.835938 L 151.253906 157.84375 L 148.5 162 Z M 147.601562 162 "/>
<g clip-path="url(#clip5)" clip-rule="nonzero">
<path style="fill:none;stroke-width:0.75;stroke-linecap:round;stroke-linejoin:round;stroke:rgb(56.862745%,32.54902%,50.588235%);stroke-opacity:1;stroke-miterlimit:10;" d="M 147.601562 162 L 150.375 157.792969 L 153.25 153.730469 L 156.226562 149.8125 L 159.300781 146.035156 L 162.480469 142.398438 L 165.761719 138.902344 L 169.144531 135.542969 L 172.632812 132.324219 L 176.21875 129.242188 L 179.910156 126.304688 L 183.695312 123.511719 L 187.578125 120.863281 L 191.554688 118.363281 L 195.625 116.011719 L 199.777344 113.816406 L 204.015625 111.777344 L 208.332031 109.898438 L 212.71875 108.179688 L 217.175781 106.628906 L 221.691406 105.246094 L 226.265625 104.03125 L 230.886719 102.992188 L 235.546875 102.128906 L 240.246094 101.441406 L 244.96875 100.929688 L 249.707031 100.601562 L 254.460938 100.449219 L 259.214844 100.480469 L 263.960938 100.691406 L 268.699219 101.078125 L 273.410156 101.648438 L 278.097656 102.394531 L 282.746094 103.316406 L 287.351562 104.414062 L 291.90625 105.683594 L 296.40625 107.125 L 300.839844 108.730469 L 305.203125 110.5 L 309.496094 112.433594 L 313.707031 114.527344 L 317.832031 116.773438 L 321.871094 119.171875 L 325.816406 121.722656 L 329.667969 124.417969 L 333.421875 127.261719 L 337.078125 130.246094 L 340.632812 133.371094 L 344.085938 136.636719 L 347.433594 140.042969 L 350.679688 143.585938 L 353.824219 147.269531 L 356.867188 151.09375 L 359.8125 155.058594 L 362.652344 159.167969 L 364.5 162 L 363.601562 162 L 361.769531 159.203125 L 358.949219 155.144531 L 356.03125 151.230469 L 353.015625 147.457031 L 349.894531 143.820312 L 346.675781 140.320312 L 343.355469 136.960938 L 339.929688 133.734375 L 336.40625 130.648438 L 332.78125 127.703125 L 329.058594 124.894531 L 325.238281 122.234375 L 321.324219 119.714844 L 317.320312 117.347656 L 313.226562 115.128906 L 309.050781 113.0625 L 304.796875 111.15625 L 300.46875 109.40625 L 296.070312 107.820312 L 291.609375 106.398438 L 287.09375 105.144531 L 282.523438 104.0625 L 277.914062 103.152344 L 273.269531 102.414062 L 268.59375 101.851562 L 263.894531 101.46875 L 259.1875 101.261719 L 254.472656 101.230469 L 249.761719 101.378906 L 245.058594 101.707031 L 240.375 102.207031 L 235.71875 102.886719 L 231.09375 103.742188 L 226.511719 104.769531 L 221.976562 105.964844 L 217.5 107.332031 L 213.078125 108.863281 L 208.726562 110.558594 L 204.449219 112.414062 L 200.246094 114.425781 L 196.125 116.59375 L 192.089844 118.914062 L 188.148438 121.382812 L 184.296875 124 L 180.539062 126.757812 L 176.882812 129.660156 L 173.324219 132.699219 L 169.867188 135.878906 L 166.511719 139.195312 L 163.257812 142.648438 L 160.105469 146.238281 L 157.054688 149.964844 L 154.105469 153.835938 L 151.253906 157.84375 L 148.5 162 Z M 147.601562 162 "/>
</g>
<path style=" stroke:none;fill-rule:nonzero;fill:rgb(68.627451%,27.843137%,40%);fill-opacity:1;" d="M 147.601562 162 L 151.03125 156.792969 L 154.589844 151.765625 L 158.265625 146.917969 L 162.070312 142.246094 L 166 137.746094 L 170.058594 133.417969 L 174.242188 129.257812 L 178.554688 125.273438 L 182.988281 121.464844 L 187.550781 117.828125 L 192.234375 114.371094 L 197.035156 111.09375 L 201.953125 107.996094 L 206.980469 105.089844 L 212.121094 102.371094 L 217.359375 99.847656 L 222.695312 97.523438 L 228.121094 95.398438 L 233.632812 93.480469 L 239.21875 91.765625 L 244.871094 90.265625 L 250.585938 88.980469 L 256.351562 87.910156 L 262.15625 87.058594 L 267.996094 86.425781 L 273.859375 86.019531 L 279.734375 85.832031 L 285.609375 85.867188 L 291.484375 86.128906 L 297.339844 86.609375 L 303.167969 87.316406 L 308.960938 88.238281 L 314.710938 89.382812 L 320.40625 90.738281 L 326.039062 92.308594 L 331.597656 94.089844 L 337.082031 96.078125 L 342.480469 98.269531 L 347.785156 100.664062 L 352.992188 103.25 L 358.09375 106.03125 L 363.085938 109 L 367.964844 112.15625 L 372.730469 115.492188 L 377.371094 119.011719 L 381.890625 122.707031 L 386.285156 126.574219 L 390.554688 130.617188 L 394.699219 134.828125 L 398.714844 139.214844 L 402.601562 143.769531 L 406.363281 148.5 L 410 153.40625 L 413.515625 158.492188 L 415.800781 162 L 414.898438 162 L 412.632812 158.53125 L 409.140625 153.496094 L 405.527344 148.640625 L 401.789062 143.957031 L 397.925781 139.449219 L 393.9375 135.105469 L 389.824219 130.9375 L 385.585938 126.9375 L 381.21875 123.109375 L 376.730469 119.453125 L 372.117188 115.96875 L 367.386719 112.667969 L 362.539062 109.542969 L 357.582031 106.605469 L 352.511719 103.851562 L 347.339844 101.289062 L 342.070312 98.921875 L 336.710938 96.753906 L 331.265625 94.785156 L 325.742188 93.023438 L 320.144531 91.46875 L 314.488281 90.125 L 308.777344 88.996094 L 303.023438 88.082031 L 297.234375 87.382812 L 291.417969 86.90625 L 285.585938 86.648438 L 279.746094 86.613281 L 273.910156 86.796875 L 268.085938 87.203125 L 262.289062 87.824219 L 256.519531 88.667969 L 250.792969 89.726562 L 245.117188 91 L 239.503906 92.488281 L 233.953125 94.179688 L 228.480469 96.082031 L 223.089844 98.183594 L 217.789062 100.484375 L 212.585938 102.984375 L 207.484375 105.671875 L 202.488281 108.550781 L 197.601562 111.613281 L 192.832031 114.859375 L 188.183594 118.28125 L 183.652344 121.878906 L 179.246094 125.652344 L 174.964844 129.59375 L 170.808594 133.710938 L 166.777344 137.992188 L 162.875 142.445312 L 159.09375 147.070312 L 155.441406 151.871094 L 151.910156 156.84375 L 148.5 162 Z M 147.601562 162 "/>
<g clip-path="url(#clip6)" clip-rule="nonzero">
<path style="fill:none;stroke-width:0.75;stroke-linecap:round;stroke-linejoin:round;stroke:rgb(68.627451%,27.843137%,40%);stroke-opacity:1;stroke-miterlimit:10;" d="M 147.601562 162 L 151.03125 156.792969 L 154.589844 151.765625 L 158.265625 146.917969 L 162.070312 142.246094 L 166 137.746094 L 170.058594 133.417969 L 174.242188 129.257812 L 178.554688 125.273438 L 182.988281 121.464844 L 187.550781 117.828125 L 192.234375 114.371094 L 197.035156 111.09375 L 201.953125 107.996094 L 206.980469 105.089844 L 212.121094 102.371094 L 217.359375 99.847656 L 222.695312 97.523438 L 228.121094 95.398438 L 233.632812 93.480469 L 239.21875 91.765625 L 244.871094 90.265625 L 250.585938 88.980469 L 256.351562 87.910156 L 262.15625 87.058594 L 267.996094 86.425781 L 273.859375 86.019531 L 279.734375 85.832031 L 285.609375 85.867188 L 291.484375 86.128906 L 297.339844 86.609375 L 303.167969 87.316406 L 308.960938 88.238281 L 314.710938 89.382812 L 320.40625 90.738281 L 326.039062 92.308594 L 331.597656 94.089844 L 337.082031 96.078125 L 342.480469 98.269531 L 347.785156 100.664062 L 352.992188 103.25 L 358.09375 106.03125 L 363.085938 109 L 367.964844 112.15625 L 372.730469 115.492188 L 377.371094 119.011719 L 381.890625 122.707031 L 386.285156 126.574219 L 390.554688 130.617188 L 394.699219 134.828125 L 398.714844 139.214844 L 402.601562 143.769531 L 406.363281 148.5 L 410 153.40625 L 413.515625 158.492188 L 415.800781 162 L 414.898438 162 L 412.632812 158.53125 L 409.140625 153.496094 L 405.527344 148.640625 L 401.789062 143.957031 L 397.925781 139.449219 L 393.9375 135.105469 L 389.824219 130.9375 L 385.585938 126.9375 L 381.21875 123.109375 L 376.730469 119.453125 L 372.117188 115.96875 L 367.386719 112.667969 L 362.539062 109.542969 L 357.582031 106.605469 L 352.511719 103.851562 L 347.339844 101.289062 L 342.070312 98.921875 L 336.710938 96.753906 L 331.265625 94.785156 L 325.742188 93.023438 L 320.144531 91.46875 L 314.488281 90.125 L 308.777344 88.996094 L 303.023438 88.082031 L 297.234375 87.382812 L 291.417969 86.90625 L 285.585938 86.648438 L 279.746094 86.613281 L 273.910156 86.796875 L 268.085938 87.203125 L 262.289062 87.824219 L 256.519531 88.667969 L 250.792969 89.726562 L 245.117188 91 L 239.503906 92.488281 L 233.953125 94.179688 L 228.480469 96.082031 L 223.089844 98.183594 L 217.789062 100.484375 L 212.585938 102.984375 L 207.484375 105.671875 L 202.488281 108.550781 L 197.601562 111.613281 L 192.832031 114.859375 L 188.183594 118.28125 L 183.652344 121.878906 L 179.246094 125.652344 L 174.964844 129.59375 L 170.808594 133.710938 L 166.777344 137.992188 L 162.875 142.445312 L 159.09375 147.070312 L 155.441406 151.871094 L 151.910156 156.84375 L 148.5 162 Z M 147.601562 162 "/>
</g>
<path style=" stroke:none;fill-rule:nonzero;fill:rgb(85.098039%,20.392157%,24.705882%);fill-opacity:1;" d="M 147.601562 162 L 151.976562 155.351562 L 156.511719 148.941406 L 161.203125 142.753906 L 166.050781 136.789062 L 171.0625 131.046875 L 176.238281 125.523438 L 181.574219 120.21875 L 187.070312 115.136719 L 192.726562 110.273438 L 198.542969 105.632812 L 204.515625 101.21875 L 210.636719 97.035156 L 216.910156 93.089844 L 223.320312 89.378906 L 229.871094 85.910156 L 236.554688 82.691406 L 243.359375 79.722656 L 250.277344 77.011719 L 257.304688 74.558594 L 264.425781 72.375 L 271.636719 70.460938 L 278.921875 68.820312 L 286.273438 67.453125 L 293.679688 66.367188 L 301.125 65.5625 L 308.597656 65.039062 L 316.089844 64.800781 L 323.585938 64.847656 L 331.074219 65.179688 L 338.542969 65.796875 L 345.976562 66.695312 L 353.363281 67.875 L 360.695312 69.332031 L 367.957031 71.0625 L 375.136719 73.070312 L 382.230469 75.339844 L 389.222656 77.878906 L 396.105469 80.675781 L 402.871094 83.726562 L 409.507812 87.03125 L 416.015625 90.578125 L 422.382812 94.367188 L 428.605469 98.394531 L 434.675781 102.652344 L 440.597656 107.140625 L 446.359375 111.855469 L 451.964844 116.792969 L 457.410156 121.949219 L 462.691406 127.328125 L 467.8125 132.921875 L 472.769531 138.738281 L 477.566406 144.773438 L 482.207031 151.035156 L 486.6875 157.527344 L 489.601562 162 L 488.699219 162 L 485.800781 157.5625 L 481.34375 151.125 L 476.730469 144.914062 L 471.957031 138.925781 L 467.027344 133.15625 L 461.933594 127.605469 L 456.679688 122.273438 L 451.261719 117.15625 L 445.6875 112.257812 L 439.957031 107.582031 L 434.066406 103.128906 L 428.027344 98.90625 L 421.835938 94.910156 L 415.503906 91.152344 L 409.03125 87.632812 L 402.425781 84.355469 L 395.695312 81.328125 L 388.851562 78.554688 L 381.894531 76.039062 L 374.839844 73.78125 L 367.695312 71.792969 L 360.472656 70.074219 L 353.179688 68.628906 L 345.832031 67.460938 L 338.4375 66.570312 L 331.007812 65.957031 L 323.5625 65.628906 L 316.105469 65.582031 L 308.652344 65.820312 L 301.214844 66.335938 L 293.808594 67.136719 L 286.445312 68.210938 L 279.132812 69.566406 L 271.882812 71.195312 L 264.710938 73.09375 L 257.628906 75.261719 L 250.636719 77.691406 L 243.753906 80.382812 L 236.984375 83.328125 L 230.339844 86.519531 L 223.824219 89.960938 L 217.445312 93.640625 L 211.207031 97.558594 L 205.113281 101.707031 L 199.175781 106.085938 L 193.390625 110.6875 L 187.761719 115.511719 L 182.292969 120.554688 L 176.988281 125.816406 L 171.839844 131.296875 L 166.855469 136.992188 L 162.03125 142.90625 L 157.363281 149.042969 L 152.855469 155.40625 L 148.5 162 Z M 147.601562 162 "/>
<g clip-path="url(#clip7)" clip-rule="nonzero">
<path style="fill:none;stroke-width:0.75;stroke-linecap:round;stroke-linejoin:round;stroke:rgb(85.098039%,20.392157%,24.705882%);stroke-opacity:1;stroke-miterlimit:10;" d="M 147.601562 162 L 151.976562 155.351562 L 156.511719 148.941406 L 161.203125 142.753906 L 166.050781 136.789062 L 171.0625 131.046875 L 176.238281 125.523438 L 181.574219 120.21875 L 187.070312 115.136719 L 192.726562 110.273438 L 198.542969 105.632812 L 204.515625 101.21875 L 210.636719 97.035156 L 216.910156 93.089844 L 223.320312 89.378906 L 229.871094 85.910156 L 236.554688 82.691406 L 243.359375 79.722656 L 250.277344 77.011719 L 257.304688 74.558594 L 264.425781 72.375 L 271.636719 70.460938 L 278.921875 68.820312 L 286.273438 67.453125 L 293.679688 66.367188 L 301.125 65.5625 L 308.597656 65.039062 L 316.089844 64.800781 L 323.585938 64.847656 L 331.074219 65.179688 L 338.542969 65.796875 L 345.976562 66.695312 L 353.363281 67.875 L 360.695312 69.332031 L 367.957031 71.0625 L 375.136719 73.070312 L 382.230469 75.339844 L 389.222656 77.878906 L 396.105469 80.675781 L 402.871094 83.726562 L 409.507812 87.03125 L 416.015625 90.578125 L 422.382812 94.367188 L 428.605469 98.394531 L 434.675781 102.652344 L 440.597656 107.140625 L 446.359375 111.855469 L 451.964844 116.792969 L 457.410156 121.949219 L 462.691406 127.328125 L 467.8125 132.921875 L 472.769531 138.738281 L 477.566406 144.773438 L 482.207031 151.035156 L 486.6875 157.527344 L 489.601562 162 L 488.699219 162 L 485.800781 157.5625 L 481.34375 151.125 L 476.730469 144.914062 L 471.957031 138.925781 L 467.027344 133.15625 L 461.933594 127.605469 L 456.679688 122.273438 L 451.261719 117.15625 L 445.6875 112.257812 L 439.957031 107.582031 L 434.066406 103.128906 L 428.027344 98.90625 L 421.835938 94.910156 L 415.503906 91.152344 L 409.03125 87.632812 L 402.425781 84.355469 L 395.695312 81.328125 L 388.851562 78.554688 L 381.894531 76.039062 L 374.839844 73.78125 L 367.695312 71.792969 L 360.472656 70.074219 L 353.179688 68.628906 L 345.832031 67.460938 L 338.4375 66.570312 L 331.007812 65.957031 L 323.5625 65.628906 L 316.105469 65.582031 L 308.652344 65.820312 L 301.214844 66.335938 L 293.808594 67.136719 L 286.445312 68.210938 L 279.132812 69.566406 L 271.882812 71.195312 L 264.710938 73.09375 L 257.628906 75.261719 L 250.636719 77.691406 L 243.753906 80.382812 L 236.984375 83.328125 L 230.339844 86.519531 L 223.824219 89.960938 L 217.445312 93.640625 L 211.207031 97.558594 L 205.113281 101.707031 L 199.175781 106.085938 L 193.390625 110.6875 L 187.761719 115.511719 L 182.292969 120.554688 L 176.988281 125.816406 L 171.839844 131.296875 L 166.855469 136.992188 L 162.03125 142.90625 L 157.363281 149.042969 L 152.855469 155.40625 L 148.5 162 Z M 147.601562 162 "/>
</g>
<path style=" stroke:none;fill-rule:nonzero;fill:rgb(33.72549%,42.352941%,71.764706%);fill-opacity:1;" d="M 300.601562 162 L 302.074219 159.773438 L 303.601562 157.625 L 305.179688 155.550781 L 306.816406 153.550781 L 308.503906 151.628906 L 310.246094 149.777344 L 312.042969 148 L 313.894531 146.296875 L 315.800781 144.667969 L 317.761719 143.113281 L 319.769531 141.632812 L 321.832031 140.230469 L 323.945312 138.90625 L 326.105469 137.664062 L 328.3125 136.503906 L 330.5625 135.421875 L 332.855469 134.429688 L 335.1875 133.519531 L 337.554688 132.699219 L 339.953125 131.96875 L 342.382812 131.324219 L 344.835938 130.777344 L 347.3125 130.316406 L 349.804688 129.953125 L 352.3125 129.683594 L 354.832031 129.507812 L 357.355469 129.429688 L 359.878906 129.445312 L 362.402344 129.558594 L 364.917969 129.761719 L 367.421875 130.0625 L 369.910156 130.460938 L 372.378906 130.949219 L 374.824219 131.527344 L 377.246094 132.199219 L 379.632812 132.960938 L 381.988281 133.8125 L 384.308594 134.75 L 386.585938 135.769531 L 388.820312 136.878906 L 391.011719 138.066406 L 393.15625 139.335938 L 395.253906 140.6875 L 397.300781 142.113281 L 399.292969 143.617188 L 401.234375 145.195312 L 403.125 146.851562 L 404.957031 148.578125 L 406.734375 150.382812 L 408.460938 152.257812 L 410.128906 154.203125 L 411.746094 156.226562 L 413.308594 158.324219 L 414.820312 160.5 L 415.800781 162 L 414.898438 162 L 413.933594 160.535156 L 412.449219 158.414062 L 410.910156 156.367188 L 409.320312 154.390625 L 407.675781 152.488281 L 405.976562 150.660156 L 404.226562 148.902344 L 402.421875 147.214844 L 400.5625 145.601562 L 398.652344 144.058594 L 396.6875 142.589844 L 394.675781 141.195312 L 392.613281 139.878906 L 390.5 138.640625 L 388.34375 137.480469 L 386.140625 136.398438 L 383.898438 135.402344 L 381.617188 134.488281 L 379.296875 133.65625 L 376.945312 132.914062 L 374.566406 132.257812 L 372.15625 131.691406 L 369.726562 131.214844 L 367.277344 130.828125 L 364.8125 130.535156 L 362.335938 130.335938 L 359.855469 130.226562 L 357.367188 130.210938 L 354.882812 130.289062 L 352.40625 130.457031 L 349.9375 130.722656 L 347.480469 131.078125 L 345.042969 131.523438 L 342.628906 132.0625 L 340.238281 132.6875 L 337.875 133.402344 L 335.546875 134.203125 L 333.25 135.089844 L 330.996094 136.0625 L 328.78125 137.113281 L 326.609375 138.246094 L 324.480469 139.460938 L 322.402344 140.753906 L 320.371094 142.121094 L 318.390625 143.5625 L 316.464844 145.082031 L 314.585938 146.671875 L 312.765625 148.335938 L 310.996094 150.070312 L 309.28125 151.875 L 307.617188 153.753906 L 306.011719 155.707031 L 304.453125 157.726562 L 302.953125 159.828125 L 301.5 162 Z M 300.601562 162 "/>
<g clip-path="url(#clip8)" clip-rule="nonzero">
<path style="fill:none;stroke-width:0.75;stroke-linecap:round;stroke-linejoin:round;stroke:rgb(33.72549%,42.352941%,71.764706%);stroke-opacity:1;stroke-miterlimit:10;" d="M 300.601562 162 L 302.074219 159.773438 L 303.601562 157.625 L 305.179688 155.550781 L 306.816406 153.550781 L 308.503906 151.628906 L 310.246094 149.777344 L 312.042969 148 L 313.894531 146.296875 L 315.800781 144.667969 L 317.761719 143.113281 L 319.769531 141.632812 L 321.832031 140.230469 L 323.945312 138.90625 L 326.105469 137.664062 L 328.3125 136.503906 L 330.5625 135.421875 L 332.855469 134.429688 L 335.1875 133.519531 L 337.554688 132.699219 L 339.953125 131.96875 L 342.382812 131.324219 L 344.835938 130.777344 L 347.3125 130.316406 L 349.804688 129.953125 L 352.3125 129.683594 L 354.832031 129.507812 L 357.355469 129.429688 L 359.878906 129.445312 L 362.402344 129.558594 L 364.917969 129.761719 L 367.421875 130.0625 L 369.910156 130.460938 L 372.378906 130.949219 L 374.824219 131.527344 L 377.246094 132.199219 L 379.632812 132.960938 L 381.988281 133.8125 L 384.308594 134.75 L 386.585938 135.769531 L 388.820312 136.878906 L 391.011719 138.066406 L 393.15625 139.335938 L 395.253906 140.6875 L 397.300781 142.113281 L 399.292969 143.617188 L 401.234375 145.195312 L 403.125 146.851562 L 404.957031 148.578125 L 406.734375 150.382812 L 408.460938 152.257812 L 410.128906 154.203125 L 411.746094 156.226562 L 413.308594 158.324219 L 414.820312 160.5 L 415.800781 162 L 414.898438 162 L 413.933594 160.535156 L 412.449219 158.414062 L 410.910156 156.367188 L 409.320312 154.390625 L 407.675781 152.488281 L 405.976562 150.660156 L 404.226562 148.902344 L 402.421875 147.214844 L 400.5625 145.601562 L 398.652344 144.058594 L 396.6875 142.589844 L 394.675781 141.195312 L 392.613281 139.878906 L 390.5 138.640625 L 388.34375 137.480469 L 386.140625 136.398438 L 383.898438 135.402344 L 381.617188 134.488281 L 379.296875 133.65625 L 376.945312 132.914062 L 374.566406 132.257812 L 372.15625 131.691406 L 369.726562 131.214844 L 367.277344 130.828125 L 364.8125 130.535156 L 362.335938 130.335938 L 359.855469 130.226562 L 357.367188 130.210938 L 354.882812 130.289062 L 352.40625 130.457031 L 349.9375 130.722656 L 347.480469 131.078125 L 345.042969 131.523438 L 342.628906 132.0625 L 340.238281 132.6875 L 337.875 133.402344 L 335.546875 134.203125 L 333.25 135.089844 L 330.996094 136.0625 L 328.78125 137.113281 L 326.609375 138.246094 L 324.480469 139.460938 L 322.402344 140.753906 L 320.371094 142.121094 L 318.390625 143.5625 L 316.464844 145.082031 L 314.585938 146.671875 L 312.765625 148.335938 L 310.996094 150.070312 L 309.28125 151.875 L 307.617188 153.753906 L 306.011719 155.707031 L 304.453125 157.726562 L 302.953125 159.828125 L 301.5 162 Z M 300.601562 162 "/>
</g>
<path style=" stroke:none;fill-rule:nonzero;fill:rgb(50.196078%,35.294118%,56.470588%);fill-opacity:1;" d="M 300.601562 162 L 303.019531 158.335938 L 305.523438 154.796875 L 308.117188 151.386719 L 310.796875 148.097656 L 313.566406 144.929688 L 316.425781 141.886719 L 319.375 138.960938 L 322.414062 136.15625 L 325.539062 133.476562 L 328.753906 130.917969 L 332.050781 128.484375 L 335.4375 126.175781 L 338.902344 124 L 342.445312 121.953125 L 346.066406 120.039062 L 349.757812 118.265625 L 353.519531 116.628906 L 357.34375 115.132812 L 361.226562 113.78125 L 365.164062 112.578125 L 369.148438 111.519531 L 373.171875 110.613281 L 377.234375 109.863281 L 381.328125 109.261719 L 385.441406 108.820312 L 389.574219 108.53125 L 393.714844 108.398438 L 397.855469 108.425781 L 401.996094 108.609375 L 406.121094 108.949219 L 410.226562 109.445312 L 414.3125 110.09375 L 418.363281 110.898438 L 422.375 111.851562 L 426.34375 112.957031 L 430.265625 114.210938 L 434.128906 115.609375 L 437.929688 117.152344 L 441.671875 118.835938 L 445.339844 120.65625 L 448.933594 122.613281 L 452.453125 124.703125 L 455.890625 126.925781 L 459.25 129.273438 L 462.519531 131.75 L 465.703125 134.347656 L 468.800781 137.070312 L 471.808594 139.914062 L 474.730469 142.878906 L 477.558594 145.964844 L 480.300781 149.171875 L 482.949219 152.5 L 485.515625 155.953125 L 487.992188 159.53125 L 489.601562 162 L 488.699219 162 L 487.105469 159.570312 L 484.652344 156.042969 L 482.113281 152.640625 L 479.488281 149.359375 L 476.773438 146.199219 L 473.972656 143.15625 L 471.078125 140.234375 L 468.101562 137.433594 L 465.03125 134.75 L 461.878906 132.1875 L 458.636719 129.75 L 455.3125 127.433594 L 451.90625 125.246094 L 448.421875 123.1875 L 444.859375 121.257812 L 441.226562 119.464844 L 437.523438 117.804688 L 433.757812 116.285156 L 429.929688 114.90625 L 426.046875 113.671875 L 422.117188 112.582031 L 418.140625 111.640625 L 414.128906 110.851562 L 410.085938 110.210938 L 406.015625 109.722656 L 401.929688 109.386719 L 397.828125 109.207031 L 393.726562 109.179688 L 389.625 109.308594 L 385.535156 109.59375 L 381.457031 110.03125 L 377.40625 110.621094 L 373.382812 111.363281 L 369.394531 112.253906 L 365.449219 113.296875 L 361.550781 114.484375 L 357.703125 115.816406 L 353.914062 117.289062 L 350.191406 118.902344 L 346.535156 120.652344 L 342.949219 122.535156 L 339.4375 124.550781 L 336.003906 126.699219 L 332.652344 128.972656 L 329.382812 131.367188 L 326.203125 133.890625 L 323.105469 136.53125 L 320.097656 139.296875 L 317.175781 142.179688 L 314.34375 145.179688 L 311.601562 148.300781 L 308.945312 151.539062 L 306.378906 154.902344 L 303.894531 158.386719 L 301.5 162 Z M 300.601562 162 "/>
<g clip-path="url(#clip9)" clip-rule="nonzero">
<path style="fill:none;stroke-width:0.75;stroke-linecap:round;stroke-linejoin:round;stroke:rgb(50.196078%,35.294118%,56.470588%);stroke-opacity:1;stroke-miterlimit:10;" d="M 300.601562 162 L 303.019531 158.335938 L 305.523438 154.796875 L 308.117188 151.386719 L 310.796875 148.097656 L 313.566406 144.929688 L 316.425781 141.886719 L 319.375 138.960938 L 322.414062 136.15625 L 325.539062 133.476562 L 328.753906 130.917969 L 332.050781 128.484375 L 335.4375 126.175781 L 338.902344 124 L 342.445312 121.953125 L 346.066406 120.039062 L 349.757812 118.265625 L 353.519531 116.628906 L 357.34375 115.132812 L 361.226562 113.78125 L 365.164062 112.578125 L 369.148438 111.519531 L 373.171875 110.613281 L 377.234375 109.863281 L 381.328125 109.261719 L 385.441406 108.820312 L 389.574219 108.53125 L 393.714844 108.398438 L 397.855469 108.425781 L 401.996094 108.609375 L 406.121094 108.949219 L 410.226562 109.445312 L 414.3125 110.09375 L 418.363281 110.898438 L 422.375 111.851562 L 426.34375 112.957031 L 430.265625 114.210938 L 434.128906 115.609375 L 437.929688 117.152344 L 441.671875 118.835938 L 445.339844 120.65625 L 448.933594 122.613281 L 452.453125 124.703125 L 455.890625 126.925781 L 459.25 129.273438 L 462.519531 131.75 L 465.703125 134.347656 L 468.800781 137.070312 L 471.808594 139.914062 L 474.730469 142.878906 L 477.558594 145.964844 L 480.300781 149.171875 L 482.949219 152.5 L 485.515625 155.953125 L 487.992188 159.53125 L 489.601562 162 L 488.699219 162 L 487.105469 159.570312 L 484.652344 156.042969 L 482.113281 152.640625 L 479.488281 149.359375 L 476.773438 146.199219 L 473.972656 143.15625 L 471.078125 140.234375 L 468.101562 137.433594 L 465.03125 134.75 L 461.878906 132.1875 L 458.636719 129.75 L 455.3125 127.433594 L 451.90625 125.246094 L 448.421875 123.1875 L 444.859375 121.257812 L 441.226562 119.464844 L 437.523438 117.804688 L 433.757812 116.285156 L 429.929688 114.90625 L 426.046875 113.671875 L 422.117188 112.582031 L 418.140625 111.640625 L 414.128906 110.851562 L 410.085938 110.210938 L 406.015625 109.722656 L 401.929688 109.386719 L 397.828125 109.207031 L 393.726562 109.179688 L 389.625 109.308594 L 385.535156 109.59375 L 381.457031 110.03125 L 377.40625 110.621094 L 373.382812 111.363281 L 369.394531 112.253906 L 365.449219 113.296875 L 361.550781 114.484375 L 357.703125 115.816406 L 353.914062 117.289062 L 350.191406 118.902344 L 346.535156 120.652344 L 342.949219 122.535156 L 339.4375 124.550781 L 336.003906 126.699219 L 332.652344 128.972656 L 329.382812 131.367188 L 326.203125 133.890625 L 323.105469 136.53125 L 320.097656 139.296875 L 317.175781 142.179688 L 314.34375 145.179688 L 311.601562 148.300781 L 308.945312 151.539062 L 306.378906 154.902344 L 303.894531 158.386719 L 301.5 162 Z M 300.601562 162 "/>
</g>
<path style=" stroke:none;fill-rule:nonzero;fill:rgb(22.352941%,47.45098%,82.352941%);fill-opacity:1;" d="M 300.601562 162 L 301.429688 160.773438 L 302.289062 159.585938 L 303.175781 158.445312 L 304.097656 157.34375 L 305.046875 156.285156 L 306.027344 155.261719 L 307.035156 154.285156 L 308.078125 153.34375 L 309.152344 152.445312 L 310.253906 151.589844 L 311.382812 150.773438 L 312.542969 150 L 313.730469 149.273438 L 314.949219 148.585938 L 316.1875 147.945312 L 317.453125 147.351562 L 318.742188 146.804688 L 320.054688 146.300781 L 321.386719 145.851562 L 322.734375 145.445312 L 324.101562 145.09375 L 325.480469 144.789062 L 326.875 144.539062 L 328.277344 144.335938 L 329.6875 144.1875 L 331.105469 144.09375 L 332.523438 144.046875 L 333.945312 144.058594 L 335.363281 144.117188 L 336.777344 144.230469 L 338.1875 144.398438 L 339.585938 144.617188 L 340.976562 144.882812 L 342.351562 145.203125 L 343.710938 145.574219 L 345.054688 145.996094 L 346.382812 146.464844 L 347.683594 146.980469 L 348.96875 147.542969 L 350.226562 148.152344 L 351.457031 148.808594 L 352.664062 149.507812 L 353.84375 150.253906 L 354.992188 151.039062 L 356.117188 151.867188 L 357.207031 152.738281 L 358.269531 153.652344 L 359.300781 154.601562 L 360.300781 155.597656 L 361.273438 156.628906 L 362.210938 157.703125 L 363.121094 158.820312 L 364 159.976562 L 364.847656 161.171875 L 365.398438 162 L 363.601562 162 L 363.078125 161.210938 L 362.277344 160.0625 L 361.445312 158.957031 L 360.589844 157.890625 L 359.699219 156.863281 L 358.785156 155.875 L 357.839844 154.925781 L 356.867188 154.011719 L 355.863281 153.140625 L 354.832031 152.308594 L 353.773438 151.515625 L 352.683594 150.761719 L 351.570312 150.050781 L 350.433594 149.382812 L 349.269531 148.753906 L 348.078125 148.171875 L 346.871094 147.632812 L 345.636719 147.136719 L 344.386719 146.691406 L 343.117188 146.289062 L 341.832031 145.933594 L 340.53125 145.628906 L 339.222656 145.371094 L 337.898438 145.164062 L 336.570312 145.003906 L 335.230469 144.894531 L 333.890625 144.835938 L 332.550781 144.828125 L 331.210938 144.871094 L 329.871094 144.960938 L 328.539062 145.105469 L 327.214844 145.296875 L 325.898438 145.539062 L 324.597656 145.828125 L 323.304688 146.167969 L 322.03125 146.550781 L 320.773438 146.984375 L 319.535156 147.464844 L 318.316406 147.988281 L 317.121094 148.558594 L 315.949219 149.171875 L 314.800781 149.824219 L 313.679688 150.523438 L 312.585938 151.261719 L 311.515625 152.042969 L 310.476562 152.863281 L 309.464844 153.71875 L 308.480469 154.617188 L 307.523438 155.554688 L 306.597656 156.53125 L 305.703125 157.546875 L 304.835938 158.601562 L 303.996094 159.691406 L 303.183594 160.824219 L 302.398438 162 Z M 300.601562 162 "/>
<g clip-path="url(#clip10)" clip-rule="nonzero">
<path style="fill:none;stroke-width:0.75;stroke-linecap:round;stroke-linejoin:round;stroke:rgb(22.352941%,47.45098%,82.352941%);stroke-opacity:1;stroke-miterlimit:10;" d="M 300.601562 162 L 301.429688 160.773438 L 302.289062 159.585938 L 303.175781 158.445312 L 304.097656 157.34375 L 305.046875 156.285156 L 306.027344 155.261719 L 307.035156 154.285156 L 308.078125 153.34375 L 309.152344 152.445312 L 310.253906 151.589844 L 311.382812 150.773438 L 312.542969 150 L 313.730469 149.273438 L 314.949219 148.585938 L 316.1875 147.945312 L 317.453125 147.351562 L 318.742188 146.804688 L 320.054688 146.300781 L 321.386719 145.851562 L 322.734375 145.445312 L 324.101562 145.09375 L 325.480469 144.789062 L 326.875 144.539062 L 328.277344 144.335938 L 329.6875 144.1875 L 331.105469 144.09375 L 332.523438 144.046875 L 333.945312 144.058594 L 335.363281 144.117188 L 336.777344 144.230469 L 338.1875 144.398438 L 339.585938 144.617188 L 340.976562 144.882812 L 342.351562 145.203125 L 343.710938 145.574219 L 345.054688 145.996094 L 346.382812 146.464844 L 347.683594 146.980469 L 348.96875 147.542969 L 350.226562 148.152344 L 351.457031 148.808594 L 352.664062 149.507812 L 353.84375 150.253906 L 354.992188 151.039062 L 356.117188 151.867188 L 357.207031 152.738281 L 358.269531 153.652344 L 359.300781 154.601562 L 360.300781 155.597656 L 361.273438 156.628906 L 362.210938 157.703125 L 363.121094 158.820312 L 364 159.976562 L 364.847656 161.171875 L 365.398438 162 L 363.601562 162 L 363.078125 161.210938 L 362.277344 160.0625 L 361.445312 158.957031 L 360.589844 157.890625 L 359.699219 156.863281 L 358.785156 155.875 L 357.839844 154.925781 L 356.867188 154.011719 L 355.863281 153.140625 L 354.832031 152.308594 L 353.773438 151.515625 L 352.683594 150.761719 L 351.570312 150.050781 L 350.433594 149.382812 L 349.269531 148.753906 L 348.078125 148.171875 L 346.871094 147.632812 L 345.636719 147.136719 L 344.386719 146.691406 L 343.117188 146.289062 L 341.832031 145.933594 L 340.53125 145.628906 L 339.222656 145.371094 L 337.898438 145.164062 L 336.570312 145.003906 L 335.230469 144.894531 L 333.890625 144.835938 L 332.550781 144.828125 L 331.210938 144.871094 L 329.871094 144.960938 L 328.539062 145.105469 L 327.214844 145.296875 L 325.898438 145.539062 L 324.597656 145.828125 L 323.304688 146.167969 L 322.03125 146.550781 L 320.773438 146.984375 L 319.535156 147.464844 L 318.316406 147.988281 L 317.121094 148.558594 L 315.949219 149.171875 L 314.800781 149.824219 L 313.679688 150.523438 L 312.585938 151.261719 L 311.515625 152.042969 L 310.476562 152.863281 L 309.464844 153.71875 L 308.480469 154.617188 L 307.523438 155.554688 L 306.597656 156.53125 L 305.703125 157.546875 L 304.835938 158.601562 L 303.996094 159.691406 L 303.183594 160.824219 L 302.398438 162 Z M 300.601562 162 "/>
</g>
<path style=" stroke:none;fill-rule:nonzero;fill:rgb(36.470588%,41.568627%,69.411765%);fill-opacity:1;" d="M 363.601562 162 L 365.210938 159.578125 L 366.882812 157.246094 L 368.609375 154.992188 L 370.398438 152.820312 L 372.246094 150.730469 L 374.152344 148.71875 L 376.117188 146.789062 L 378.140625 144.9375 L 380.226562 143.164062 L 382.367188 141.476562 L 384.570312 139.867188 L 386.824219 138.347656 L 389.132812 136.90625 L 391.496094 135.558594 L 393.910156 134.292969 L 396.371094 133.121094 L 398.878906 132.042969 L 401.429688 131.054688 L 404.015625 130.160156 L 406.640625 129.367188 L 409.296875 128.667969 L 411.980469 128.070312 L 414.691406 127.574219 L 417.417969 127.179688 L 420.160156 126.886719 L 422.914062 126.695312 L 425.675781 126.609375 L 428.4375 126.625 L 431.195312 126.746094 L 433.945312 126.972656 L 436.6875 127.296875 L 439.40625 127.726562 L 442.109375 128.257812 L 444.785156 128.890625 L 447.429688 129.617188 L 450.042969 130.445312 L 452.617188 131.371094 L 455.15625 132.386719 L 457.648438 133.5 L 460.09375 134.703125 L 462.488281 135.996094 L 464.835938 137.375 L 467.128906 138.839844 L 469.367188 140.390625 L 471.546875 142.027344 L 473.667969 143.742188 L 475.734375 145.539062 L 477.738281 147.417969 L 479.6875 149.375 L 481.574219 151.414062 L 483.398438 153.53125 L 485.167969 155.726562 L 486.875 158.007812 L 488.527344 160.371094 L 489.601562 162 L 487.800781 162 L 486.757812 160.40625 L 485.152344 158.097656 L 483.492188 155.867188 L 481.777344 153.714844 L 480 151.644531 L 478.167969 149.652344 L 476.277344 147.738281 L 474.332031 145.902344 L 472.324219 144.144531 L 470.261719 142.464844 L 468.144531 140.867188 L 465.96875 139.351562 L 463.742188 137.917969 L 461.464844 136.566406 L 459.136719 135.304688 L 456.757812 134.128906 L 454.339844 133.042969 L 451.875 132.046875 L 449.371094 131.140625 L 446.835938 130.332031 L 444.265625 129.617188 L 441.664062 129.003906 L 439.042969 128.484375 L 436.398438 128.0625 L 433.738281 127.742188 L 431.066406 127.523438 L 428.386719 127.40625 L 425.703125 127.390625 L 423.019531 127.472656 L 420.34375 127.660156 L 417.679688 127.945312 L 415.03125 128.332031 L 412.398438 128.820312 L 409.792969 129.402344 L 407.210938 130.085938 L 404.664062 130.863281 L 402.148438 131.738281 L 399.671875 132.703125 L 397.234375 133.757812 L 394.84375 134.90625 L 392.5 136.140625 L 390.203125 137.460938 L 387.960938 138.867188 L 385.769531 140.355469 L 383.632812 141.929688 L 381.550781 143.582031 L 379.527344 145.3125 L 377.558594 147.121094 L 375.648438 149.011719 L 373.796875 150.976562 L 372.003906 153.023438 L 370.269531 155.148438 L 368.589844 157.347656 L 366.964844 159.632812 L 365.398438 162 Z M 363.601562 162 "/>
<g clip-path="url(#clip11)" clip-rule="nonzero">
<path style="fill:none;stroke-width:0.75;stroke-linecap:round;stroke-linejoin:round;stroke:rgb(36.470588%,41.568627%,69.411765%);stroke-opacity:1;stroke-miterlimit:10;" d="M 363.601562 162 L 365.210938 159.578125 L 366.882812 157.246094 L 368.609375 154.992188 L 370.398438 152.820312 L 372.246094 150.730469 L 374.152344 148.71875 L 376.117188 146.789062 L 378.140625 144.9375 L 380.226562 143.164062 L 382.367188 141.476562 L 384.570312 139.867188 L 386.824219 138.347656 L 389.132812 136.90625 L 391.496094 135.558594 L 393.910156 134.292969 L 396.371094 133.121094 L 398.878906 132.042969 L 401.429688 131.054688 L 404.015625 130.160156 L 406.640625 129.367188 L 409.296875 128.667969 L 411.980469 128.070312 L 414.691406 127.574219 L 417.417969 127.179688 L 420.160156 126.886719 L 422.914062 126.695312 L 425.675781 126.609375 L 428.4375 126.625 L 431.195312 126.746094 L 433.945312 126.972656 L 436.6875 127.296875 L 439.40625 127.726562 L 442.109375 128.257812 L 444.785156 128.890625 L 447.429688 129.617188 L 450.042969 130.445312 L 452.617188 131.371094 L 455.15625 132.386719 L 457.648438 133.5 L 460.09375 134.703125 L 462.488281 135.996094 L 464.835938 137.375 L 467.128906 138.839844 L 469.367188 140.390625 L 471.546875 142.027344 L 473.667969 143.742188 L 475.734375 145.539062 L 477.738281 147.417969 L 479.6875 149.375 L 481.574219 151.414062 L 483.398438 153.53125 L 485.167969 155.726562 L 486.875 158.007812 L 488.527344 160.371094 L 489.601562 162 L 487.800781 162 L 486.757812 160.40625 L 485.152344 158.097656 L 483.492188 155.867188 L 481.777344 153.714844 L 480 151.644531 L 478.167969 149.652344 L 476.277344 147.738281 L 474.332031 145.902344 L 472.324219 144.144531 L 470.261719 142.464844 L 468.144531 140.867188 L 465.96875 139.351562 L 463.742188 137.917969 L 461.464844 136.566406 L 459.136719 135.304688 L 456.757812 134.128906 L 454.339844 133.042969 L 451.875 132.046875 L 449.371094 131.140625 L 446.835938 130.332031 L 444.265625 129.617188 L 441.664062 129.003906 L 439.042969 128.484375 L 436.398438 128.0625 L 433.738281 127.742188 L 431.066406 127.523438 L 428.386719 127.40625 L 425.703125 127.390625 L 423.019531 127.472656 L 420.34375 127.660156 L 417.679688 127.945312 L 415.03125 128.332031 L 412.398438 128.820312 L 409.792969 129.402344 L 407.210938 130.085938 L 404.664062 130.863281 L 402.148438 131.738281 L 399.671875 132.703125 L 397.234375 133.757812 L 394.84375 134.90625 L 392.5 136.140625 L 390.203125 137.460938 L 387.960938 138.867188 L 385.769531 140.355469 L 383.632812 141.929688 L 381.550781 143.582031 L 379.527344 145.3125 L 377.558594 147.121094 L 375.648438 149.011719 L 373.796875 150.976562 L 372.003906 153.023438 L 370.269531 155.148438 L 368.589844 157.347656 L 366.964844 159.632812 L 365.398438 162 Z M 363.601562 162 "/>
</g>
<path style=" stroke:none;fill-rule:nonzero;fill:rgb(18.823529%,49.019608%,85.490196%);fill-opacity:1;" d="M 365.398438 162 L 366.023438 161.089844 L 366.667969 160.207031 L 367.332031 159.359375 L 368.023438 158.542969 L 368.734375 157.753906 L 369.46875 156.996094 L 370.226562 156.269531 L 371.007812 155.570312 L 371.8125 154.902344 L 372.640625 154.265625 L 373.488281 153.660156 L 374.359375 153.085938 L 375.25 152.546875 L 376.160156 152.035156 L 377.089844 151.558594 L 378.039062 151.117188 L 379.007812 150.710938 L 379.992188 150.339844 L 380.988281 150.003906 L 382 149.703125 L 383.027344 149.441406 L 384.0625 149.214844 L 385.105469 149.027344 L 386.160156 148.878906 L 387.214844 148.769531 L 388.277344 148.695312 L 389.34375 148.664062 L 390.410156 148.671875 L 391.472656 148.714844 L 392.535156 148.800781 L 393.589844 148.925781 L 394.640625 149.085938 L 395.683594 149.285156 L 396.714844 149.523438 L 397.734375 149.796875 L 398.742188 150.109375 L 399.734375 150.457031 L 400.714844 150.84375 L 401.675781 151.261719 L 402.617188 151.714844 L 403.542969 152.199219 L 404.449219 152.71875 L 405.332031 153.273438 L 406.195312 153.859375 L 407.035156 154.472656 L 407.855469 155.121094 L 408.652344 155.796875 L 409.425781 156.503906 L 410.175781 157.242188 L 410.902344 158.011719 L 411.609375 158.808594 L 412.289062 159.636719 L 412.949219 160.496094 L 413.585938 161.386719 L 414 162 L 412.199219 162 L 411.816406 161.421875 L 411.226562 160.582031 L 410.617188 159.773438 L 409.984375 158.996094 L 409.332031 158.242188 L 408.660156 157.519531 L 407.964844 156.828125 L 407.25 156.160156 L 406.511719 155.523438 L 405.753906 154.914062 L 404.972656 154.335938 L 404.175781 153.785156 L 403.355469 153.265625 L 402.519531 152.773438 L 401.660156 152.316406 L 400.789062 151.890625 L 399.898438 151.496094 L 398.992188 151.132812 L 398.074219 150.804688 L 397.140625 150.511719 L 396.195312 150.253906 L 395.238281 150.03125 L 394.273438 149.839844 L 393.300781 149.6875 L 392.324219 149.574219 L 391.339844 149.492188 L 390.355469 149.449219 L 389.371094 149.445312 L 388.382812 149.476562 L 387.402344 149.542969 L 386.421875 149.648438 L 385.445312 149.789062 L 384.480469 149.964844 L 383.519531 150.175781 L 382.570312 150.421875 L 381.636719 150.707031 L 380.710938 151.023438 L 379.800781 151.371094 L 378.90625 151.753906 L 378.023438 152.171875 L 377.164062 152.621094 L 376.320312 153.097656 L 375.496094 153.609375 L 374.6875 154.148438 L 373.902344 154.71875 L 373.136719 155.316406 L 372.394531 155.945312 L 371.671875 156.601562 L 370.96875 157.289062 L 370.289062 158 L 369.628906 158.742188 L 368.988281 159.515625 L 368.371094 160.3125 L 367.777344 161.140625 L 367.199219 162 Z M 365.398438 162 "/>
<g clip-path="url(#clip12)" clip-rule="nonzero">
<path style="fill:none;stroke-width:0.75;stroke-linecap:round;stroke-linejoin:round;stroke:rgb(18.823529%,49.019608%,85.490196%);stroke-opacity:1;stroke-miterlimit:10;" d="M 365.398438 162 L 366.023438 161.089844 L 366.667969 160.207031 L 367.332031 159.359375 L 368.023438 158.542969 L 368.734375 157.753906 L 369.46875 156.996094 L 370.226562 156.269531 L 371.007812 155.570312 L 371.8125 154.902344 L 372.640625 154.265625 L 373.488281 153.660156 L 374.359375 153.085938 L 375.25 152.546875 L 376.160156 152.035156 L 377.089844 151.558594 L 378.039062 151.117188 L 379.007812 150.710938 L 379.992188 150.339844 L 380.988281 150.003906 L 382 149.703125 L 383.027344 149.441406 L 384.0625 149.214844 L 385.105469 149.027344 L 386.160156 148.878906 L 387.214844 148.769531 L 388.277344 148.695312 L 389.34375 148.664062 L 390.410156 148.671875 L 391.472656 148.714844 L 392.535156 148.800781 L 393.589844 148.925781 L 394.640625 149.085938 L 395.683594 149.285156 L 396.714844 149.523438 L 397.734375 149.796875 L 398.742188 150.109375 L 399.734375 150.457031 L 400.714844 150.84375 L 401.675781 151.261719 L 402.617188 151.714844 L 403.542969 152.199219 L 404.449219 152.71875 L 405.332031 153.273438 L 406.195312 153.859375 L 407.035156 154.472656 L 407.855469 155.121094 L 408.652344 155.796875 L 409.425781 156.503906 L 410.175781 157.242188 L 410.902344 158.011719 L 411.609375 158.808594 L 412.289062 159.636719 L 412.949219 160.496094 L 413.585938 161.386719 L 414 162 L 412.199219 162 L 411.816406 161.421875 L 411.226562 160.582031 L 410.617188 159.773438 L 409.984375 158.996094 L 409.332031 158.242188 L 408.660156 157.519531 L 407.964844 156.828125 L 407.25 156.160156 L 406.511719 155.523438 L 405.753906 154.914062 L 404.972656 154.335938 L 404.175781 153.785156 L 403.355469 153.265625 L 402.519531 152.773438 L 401.660156 152.316406 L 400.789062 151.890625 L 399.898438 151.496094 L 398.992188 151.132812 L 398.074219 150.804688 L 397.140625 150.511719 L 396.195312 150.253906 L 395.238281 150.03125 L 394.273438 149.839844 L 393.300781 149.6875 L 392.324219 149.574219 L 391.339844 149.492188 L 390.355469 149.449219 L 389.371094 149.445312 L 388.382812 149.476562 L 387.402344 149.542969 L 386.421875 149.648438 L 385.445312 149.789062 L 384.480469 149.964844 L 383.519531 150.175781 L 382.570312 150.421875 L 381.636719 150.707031 L 380.710938 151.023438 L 379.800781 151.371094 L 378.90625 151.753906 L 378.023438 152.171875 L 377.164062 152.621094 L 376.320312 153.097656 L 375.496094 153.609375 L 374.6875 154.148438 L 373.902344 154.71875 L 373.136719 155.316406 L 372.394531 155.945312 L 371.671875 156.601562 L 370.96875 157.289062 L 370.289062 158 L 369.628906 158.742188 L 368.988281 159.515625 L 368.371094 160.3125 L 367.777344 161.140625 L 367.199219 162 Z M 365.398438 162 "/>
</g>
<path style=" stroke:none;fill-rule:nonzero;fill:rgb(24.705882%,46.27451%,80.392157%);fill-opacity:1;" d="M 414.898438 162 L 415.855469 160.5625 L 416.847656 159.175781 L 417.871094 157.835938 L 418.929688 156.546875 L 420.023438 155.304688 L 421.15625 154.109375 L 422.320312 152.960938 L 423.519531 151.859375 L 424.757812 150.808594 L 426.027344 149.804688 L 427.332031 148.851562 L 428.667969 147.945312 L 430.039062 147.089844 L 431.4375 146.289062 L 432.871094 145.539062 L 434.328125 144.839844 L 435.816406 144.199219 L 437.328125 143.613281 L 438.863281 143.082031 L 440.417969 142.609375 L 441.992188 142.195312 L 443.582031 141.839844 L 445.1875 141.542969 L 446.808594 141.308594 L 448.433594 141.132812 L 450.066406 141.023438 L 451.703125 140.96875 L 453.339844 140.980469 L 454.976562 141.050781 L 456.605469 141.1875 L 458.230469 141.378906 L 459.84375 141.636719 L 461.445312 141.949219 L 463.03125 142.324219 L 464.597656 142.757812 L 466.148438 143.25 L 467.675781 143.800781 L 469.179688 144.40625 L 470.65625 145.066406 L 472.105469 145.78125 L 473.527344 146.546875 L 474.917969 147.367188 L 476.277344 148.238281 L 477.605469 149.160156 L 478.898438 150.132812 L 480.15625 151.152344 L 481.378906 152.21875 L 482.570312 153.335938 L 483.722656 154.5 L 484.839844 155.707031 L 485.925781 156.96875 L 486.972656 158.273438 L 487.984375 159.628906 L 488.964844 161.03125 L 489.601562 162 L 488.699219 162 L 488.078125 161.066406 L 487.125 159.714844 L 486.136719 158.410156 L 485.113281 157.152344 L 484.054688 155.941406 L 482.964844 154.777344 L 481.839844 153.65625 L 480.679688 152.582031 L 479.484375 151.554688 L 478.253906 150.570312 L 476.992188 149.636719 L 475.699219 148.75 L 474.371094 147.910156 L 473.015625 147.121094 L 471.628906 146.382812 L 470.210938 145.695312 L 468.769531 145.058594 L 467.304688 144.476562 L 465.8125 143.945312 L 464.300781 143.472656 L 462.769531 143.054688 L 461.222656 142.695312 L 459.660156 142.390625 L 458.085938 142.144531 L 456.5 141.957031 L 454.910156 141.828125 L 453.3125 141.761719 L 451.714844 141.75 L 450.117188 141.800781 L 448.523438 141.910156 L 446.9375 142.078125 L 445.359375 142.304688 L 443.792969 142.585938 L 442.238281 142.929688 L 440.703125 143.328125 L 439.183594 143.785156 L 437.6875 144.292969 L 436.210938 144.859375 L 434.761719 145.476562 L 433.335938 146.148438 L 431.941406 146.871094 L 430.574219 147.644531 L 429.238281 148.464844 L 427.933594 149.335938 L 426.660156 150.257812 L 425.417969 151.222656 L 424.214844 152.238281 L 423.042969 153.296875 L 421.90625 154.402344 L 420.800781 155.550781 L 419.734375 156.75 L 418.699219 157.992188 L 417.699219 159.277344 L 416.734375 160.617188 L 415.800781 162 Z M 414.898438 162 "/>
<g clip-path="url(#clip13)" clip-rule="nonzero">
<path style="fill:none;stroke-width:0.75;stroke-linecap:round;stroke-linejoin:round;stroke:rgb(24.705882%,46.27451%,80.392157%);stroke-opacity:1;stroke-miterlimit:10;" d="M 414.898438 162 L 415.855469 160.5625 L 416.847656 159.175781 L 417.871094 157.835938 L 418.929688 156.546875 L 420.023438 155.304688 L 421.15625 154.109375 L 422.320312 152.960938 L 423.519531 151.859375 L 424.757812 150.808594 L 426.027344 149.804688 L 427.332031 148.851562 L 428.667969 147.945312 L 430.039062 147.089844 L 431.4375 146.289062 L 432.871094 145.539062 L 434.328125 144.839844 L 435.816406 144.199219 L 437.328125 143.613281 L 438.863281 143.082031 L 440.417969 142.609375 L 441.992188 142.195312 L 443.582031 141.839844 L 445.1875 141.542969 L 446.808594 141.308594 L 448.433594 141.132812 L 450.066406 141.023438 L 451.703125 140.96875 L 453.339844 140.980469 L 454.976562 141.050781 L 456.605469 141.1875 L 458.230469 141.378906 L 459.84375 141.636719 L 461.445312 141.949219 L 463.03125 142.324219 L 464.597656 142.757812 L 466.148438 143.25 L 467.675781 143.800781 L 469.179688 144.40625 L 470.65625 145.066406 L 472.105469 145.78125 L 473.527344 146.546875 L 474.917969 147.367188 L 476.277344 148.238281 L 477.605469 149.160156 L 478.898438 150.132812 L 480.15625 151.152344 L 481.378906 152.21875 L 482.570312 153.335938 L 483.722656 154.5 L 484.839844 155.707031 L 485.925781 156.96875 L 486.972656 158.273438 L 487.984375 159.628906 L 488.964844 161.03125 L 489.601562 162 L 488.699219 162 L 488.078125 161.066406 L 487.125 159.714844 L 486.136719 158.410156 L 485.113281 157.152344 L 484.054688 155.941406 L 482.964844 154.777344 L 481.839844 153.65625 L 480.679688 152.582031 L 479.484375 151.554688 L 478.253906 150.570312 L 476.992188 149.636719 L 475.699219 148.75 L 474.371094 147.910156 L 473.015625 147.121094 L 471.628906 146.382812 L 470.210938 145.695312 L 468.769531 145.058594 L 467.304688 144.476562 L 465.8125 143.945312 L 464.300781 143.472656 L 462.769531 143.054688 L 461.222656 142.695312 L 459.660156 142.390625 L 458.085938 142.144531 L 456.5 141.957031 L 454.910156 141.828125 L 453.3125 141.761719 L 451.714844 141.75 L 450.117188 141.800781 L 448.523438 141.910156 L 446.9375 142.078125 L 445.359375 142.304688 L 443.792969 142.585938 L 442.238281 142.929688 L 440.703125 143.328125 L 439.183594 143.785156 L 437.6875 144.292969 L 436.210938 144.859375 L 434.761719 145.476562 L 433.335938 146.148438 L 431.941406 146.871094 L 430.574219 147.644531 L 429.238281 148.464844 L 427.933594 149.335938 L 426.660156 150.257812 L 425.417969 151.222656 L 424.214844 152.238281 L 423.042969 153.296875 L 421.90625 154.402344 L 420.800781 155.550781 L 419.734375 156.75 L 418.699219 157.992188 L 417.699219 159.277344 L 416.734375 160.617188 L 415.800781 162 Z M 414.898438 162 "/>
</g>
<path style=" stroke:none;fill-rule:nonzero;fill:rgb(15.686275%,50.196078%,88.627451%);fill-opacity:1;" d="M 415.800781 162 L 416.238281 161.367188 L 416.691406 160.757812 L 417.160156 160.171875 L 417.644531 159.605469 L 418.144531 159.058594 L 418.664062 158.535156 L 419.199219 158.03125 L 419.746094 157.546875 L 420.3125 157.085938 L 420.894531 156.644531 L 421.492188 156.226562 L 422.105469 155.828125 L 422.730469 155.453125 L 423.371094 155.101562 L 424.027344 154.773438 L 424.695312 154.464844 L 425.375 154.183594 L 426.066406 153.925781 L 426.769531 153.695312 L 427.484375 153.488281 L 428.203125 153.304688 L 428.933594 153.148438 L 429.667969 153.019531 L 430.40625 152.917969 L 431.152344 152.839844 L 431.898438 152.789062 L 432.648438 152.765625 L 433.398438 152.773438 L 434.148438 152.804688 L 434.894531 152.863281 L 435.636719 152.949219 L 436.375 153.058594 L 437.109375 153.199219 L 437.835938 153.363281 L 438.554688 153.550781 L 439.261719 153.769531 L 439.960938 154.007812 L 440.652344 154.273438 L 441.328125 154.566406 L 441.992188 154.878906 L 442.640625 155.214844 L 443.277344 155.574219 L 443.902344 155.957031 L 444.507812 156.363281 L 445.101562 156.789062 L 445.675781 157.238281 L 446.238281 157.707031 L 446.78125 158.195312 L 447.308594 158.707031 L 447.820312 159.238281 L 448.316406 159.789062 L 448.796875 160.363281 L 449.261719 160.957031 L 449.707031 161.574219 L 450 162 L 448.199219 162 L 447.9375 161.609375 L 447.539062 161.046875 L 447.125 160.503906 L 446.695312 159.976562 L 446.25 159.472656 L 445.792969 158.984375 L 445.320312 158.515625 L 444.832031 158.070312 L 444.332031 157.640625 L 443.816406 157.230469 L 443.285156 156.839844 L 442.742188 156.46875 L 442.1875 156.117188 L 441.617188 155.789062 L 441.035156 155.480469 L 440.441406 155.195312 L 439.835938 154.929688 L 439.21875 154.683594 L 438.59375 154.464844 L 437.957031 154.265625 L 437.316406 154.09375 L 436.667969 153.941406 L 436.011719 153.816406 L 435.347656 153.710938 L 434.683594 153.632812 L 434.015625 153.582031 L 433.347656 153.550781 L 432.675781 153.546875 L 432.003906 153.570312 L 431.335938 153.613281 L 430.671875 153.683594 L 430.007812 153.777344 L 429.351562 153.898438 L 428.699219 154.039062 L 428.054688 154.207031 L 427.414062 154.398438 L 426.785156 154.609375 L 426.167969 154.84375 L 425.558594 155.101562 L 424.960938 155.382812 L 424.375 155.683594 L 423.800781 156.007812 L 423.238281 156.351562 L 422.691406 156.714844 L 422.15625 157.097656 L 421.636719 157.5 L 421.132812 157.925781 L 420.640625 158.367188 L 420.164062 158.828125 L 419.699219 159.308594 L 419.25 159.808594 L 418.816406 160.328125 L 418.398438 160.863281 L 417.992188 161.421875 L 417.601562 162 Z M 415.800781 162 "/>
<g clip-path="url(#clip14)" clip-rule="nonzero">
<path style="fill:none;stroke-width:0.75;stroke-linecap:round;stroke-linejoin:round;stroke:rgb(15.686275%,50.196078%,88.627451%);stroke-opacity:1;stroke-miterlimit:10;" d="M 415.800781 162 L 416.238281 161.367188 L 416.691406 160.757812 L 417.160156 160.171875 L 417.644531 159.605469 L 418.144531 159.058594 L 418.664062 158.535156 L 419.199219 158.03125 L 419.746094 157.546875 L 420.3125 157.085938 L 420.894531 156.644531 L 421.492188 156.226562 L 422.105469 155.828125 L 422.730469 155.453125 L 423.371094 155.101562 L 424.027344 154.773438 L 424.695312 154.464844 L 425.375 154.183594 L 426.066406 153.925781 L 426.769531 153.695312 L 427.484375 153.488281 L 428.203125 153.304688 L 428.933594 153.148438 L 429.667969 153.019531 L 430.40625 152.917969 L 431.152344 152.839844 L 431.898438 152.789062 L 432.648438 152.765625 L 433.398438 152.773438 L 434.148438 152.804688 L 434.894531 152.863281 L 435.636719 152.949219 L 436.375 153.058594 L 437.109375 153.199219 L 437.835938 153.363281 L 438.554688 153.550781 L 439.261719 153.769531 L 439.960938 154.007812 L 440.652344 154.273438 L 441.328125 154.566406 L 441.992188 154.878906 L 442.640625 155.214844 L 443.277344 155.574219 L 443.902344 155.957031 L 444.507812 156.363281 L 445.101562 156.789062 L 445.675781 157.238281 L 446.238281 157.707031 L 446.78125 158.195312 L 447.308594 158.707031 L 447.820312 159.238281 L 448.316406 159.789062 L 448.796875 160.363281 L 449.261719 160.957031 L 449.707031 161.574219 L 450 162 L 448.199219 162 L 447.9375 161.609375 L 447.539062 161.046875 L 447.125 160.503906 L 446.695312 159.976562 L 446.25 159.472656 L 445.792969 158.984375 L 445.320312 158.515625 L 444.832031 158.070312 L 444.332031 157.640625 L 443.816406 157.230469 L 443.285156 156.839844 L 442.742188 156.46875 L 442.1875 156.117188 L 441.617188 155.789062 L 441.035156 155.480469 L 440.441406 155.195312 L 439.835938 154.929688 L 439.21875 154.683594 L 438.59375 154.464844 L 437.957031 154.265625 L 437.316406 154.09375 L 436.667969 153.941406 L 436.011719 153.816406 L 435.347656 153.710938 L 434.683594 153.632812 L 434.015625 153.582031 L 433.347656 153.550781 L 432.675781 153.546875 L 432.003906 153.570312 L 431.335938 153.613281 L 430.671875 153.683594 L 430.007812 153.777344 L 429.351562 153.898438 L 428.699219 154.039062 L 428.054688 154.207031 L 427.414062 154.398438 L 426.785156 154.609375 L 426.167969 154.84375 L 425.558594 155.101562 L 424.960938 155.382812 L 424.375 155.683594 L 423.800781 156.007812 L 423.238281 156.351562 L 422.691406 156.714844 L 422.15625 157.097656 L 421.636719 157.5 L 421.132812 157.925781 L 420.640625 158.367188 L 420.164062 158.828125 L 419.699219 159.308594 L 419.25 159.808594 L 418.816406 160.328125 L 418.398438 160.863281 L 417.992188 161.421875 L 417.601562 162 Z M 415.800781 162 "/>
</g>
<path style=" stroke:none;fill-rule:nonzero;fill:rgb(17.254902%,49.411765%,87.058824%);fill-opacity:1;" d="M 448.199219 162 L 448.730469 161.226562 L 449.277344 160.484375 L 449.847656 159.765625 L 450.433594 159.074219 L 451.039062 158.40625 L 451.667969 157.765625 L 452.3125 157.148438 L 452.976562 156.558594 L 453.664062 155.996094 L 454.367188 155.457031 L 455.089844 154.945312 L 455.832031 154.457031 L 456.589844 154 L 457.367188 153.570312 L 458.160156 153.167969 L 458.96875 152.792969 L 459.792969 152.449219 L 460.628906 152.132812 L 461.480469 151.847656 L 462.34375 151.59375 L 463.214844 151.371094 L 464.097656 151.183594 L 464.988281 151.023438 L 465.882812 150.898438 L 466.785156 150.804688 L 467.6875 150.742188 L 468.597656 150.714844 L 469.503906 150.722656 L 470.410156 150.761719 L 471.3125 150.832031 L 472.214844 150.9375 L 473.109375 151.074219 L 473.996094 151.242188 L 474.875 151.441406 L 475.742188 151.675781 L 476.601562 151.9375 L 477.449219 152.234375 L 478.28125 152.558594 L 479.101562 152.914062 L 479.90625 153.296875 L 480.691406 153.707031 L 481.464844 154.148438 L 482.214844 154.617188 L 482.953125 155.109375 L 483.667969 155.632812 L 484.367188 156.179688 L 485.042969 156.75 L 485.703125 157.351562 L 486.34375 157.976562 L 486.960938 158.625 L 487.5625 159.300781 L 488.144531 160 L 488.703125 160.726562 L 489.246094 161.480469 L 489.601562 162 L 487.800781 162 L 487.476562 161.515625 L 486.984375 160.816406 L 486.46875 160.136719 L 485.941406 159.484375 L 485.390625 158.859375 L 484.824219 158.253906 L 484.242188 157.671875 L 483.640625 157.113281 L 483.019531 156.582031 L 482.382812 156.070312 L 481.730469 155.585938 L 481.058594 155.125 L 480.371094 154.691406 L 479.667969 154.28125 L 478.949219 153.898438 L 478.214844 153.542969 L 477.464844 153.210938 L 476.707031 152.910156 L 475.933594 152.636719 L 475.148438 152.390625 L 474.355469 152.171875 L 473.550781 151.984375 L 472.742188 151.828125 L 471.925781 151.699219 L 471.105469 151.605469 L 470.277344 151.539062 L 469.453125 151.5 L 468.621094 151.496094 L 467.792969 151.523438 L 466.96875 151.578125 L 466.144531 151.664062 L 465.328125 151.78125 L 464.515625 151.929688 L 463.710938 152.109375 L 462.914062 152.316406 L 462.125 152.550781 L 461.347656 152.816406 L 460.582031 153.109375 L 459.832031 153.429688 L 459.09375 153.777344 L 458.371094 154.152344 L 457.660156 154.554688 L 456.96875 154.980469 L 456.289062 155.433594 L 455.628906 155.910156 L 454.988281 156.410156 L 454.363281 156.9375 L 453.753906 157.484375 L 453.164062 158.058594 L 452.59375 158.65625 L 452.039062 159.277344 L 451.503906 159.921875 L 450.984375 160.589844 L 450.484375 161.28125 L 450 162 Z M 448.199219 162 "/>
<g clip-path="url(#clip15)" clip-rule="nonzero">
<path style="fill:none;stroke-width:0.75;stroke-linecap:round;stroke-linejoin:round;stroke:rgb(17.254902%,49.411765%,87.058824%);stroke-opacity:1;stroke-miterlimit:10;" d="M 448.199219 162 L 448.730469 161.226562 L 449.277344 160.484375 L 449.847656 159.765625 L 450.433594 159.074219 L 451.039062 158.40625 L 451.667969 157.765625 L 452.3125 157.148438 L 452.976562 156.558594 L 453.664062 155.996094 L 454.367188 155.457031 L 455.089844 154.945312 L 455.832031 154.457031 L 456.589844 154 L 457.367188 153.570312 L 458.160156 153.167969 L 458.96875 152.792969 L 459.792969 152.449219 L 460.628906 152.132812 L 461.480469 151.847656 L 462.34375 151.59375 L 463.214844 151.371094 L 464.097656 151.183594 L 464.988281 151.023438 L 465.882812 150.898438 L 466.785156 150.804688 L 467.6875 150.742188 L 468.597656 150.714844 L 469.503906 150.722656 L 470.410156 150.761719 L 471.3125 150.832031 L 472.214844 150.9375 L 473.109375 151.074219 L 473.996094 151.242188 L 474.875 151.441406 L 475.742188 151.675781 L 476.601562 151.9375 L 477.449219 152.234375 L 478.28125 152.558594 L 479.101562 152.914062 L 479.90625 153.296875 L 480.691406 153.707031 L 481.464844 154.148438 L 482.214844 154.617188 L 482.953125 155.109375 L 483.667969 155.632812 L 484.367188 156.179688 L 485.042969 156.75 L 485.703125 157.351562 L 486.34375 157.976562 L 486.960938 158.625 L 487.5625 159.300781 L 488.144531 160 L 488.703125 160.726562 L 489.246094 161.480469 L 489.601562 162 L 487.800781 162 L 487.476562 161.515625 L 486.984375 160.816406 L 486.46875 160.136719 L 485.941406 159.484375 L 485.390625 158.859375 L 484.824219 158.253906 L 484.242188 157.671875 L 483.640625 157.113281 L 483.019531 156.582031 L 482.382812 156.070312 L 481.730469 155.585938 L 481.058594 155.125 L 480.371094 154.691406 L 479.667969 154.28125 L 478.949219 153.898438 L 478.214844 153.542969 L 477.464844 153.210938 L 476.707031 152.910156 L 475.933594 152.636719 L 475.148438 152.390625 L 474.355469 152.171875 L 473.550781 151.984375 L 472.742188 151.828125 L 471.925781 151.699219 L 471.105469 151.605469 L 470.277344 151.539062 L 469.453125 151.5 L 468.621094 151.496094 L 467.792969 151.523438 L 466.96875 151.578125 L 466.144531 151.664062 L 465.328125 151.78125 L 464.515625 151.929688 L 463.710938 152.109375 L 462.914062 152.316406 L 462.125 152.550781 L 461.347656 152.816406 L 460.582031 153.109375 L 459.832031 153.429688 L 459.09375 153.777344 L 458.371094 154.152344 L 457.660156 154.554688 L 456.96875 154.980469 L 456.289062 155.433594 L 455.628906 155.910156 L 454.988281 156.410156 L 454.363281 156.9375 L 453.753906 157.484375 L 453.164062 158.058594 L 452.59375 158.65625 L 452.039062 159.277344 L 451.503906 159.921875 L 450.984375 160.589844 L 450.484375 161.28125 L 450 162 Z M 448.199219 162 "/>
</g>
<path style=" stroke:none;fill-rule:nonzero;fill:rgb(16.470588%,49.803922%,87.843137%);fill-opacity:1;" d="M 488.699219 162 L 489.160156 161.316406 L 489.636719 160.65625 L 490.132812 160.019531 L 490.640625 159.40625 L 491.167969 158.816406 L 491.714844 158.246094 L 492.277344 157.699219 L 492.855469 157.175781 L 493.449219 156.675781 L 494.0625 156.199219 L 494.691406 155.746094 L 495.335938 155.316406 L 495.996094 154.910156 L 496.671875 154.527344 L 497.359375 154.171875 L 498.0625 153.839844 L 498.78125 153.535156 L 499.507812 153.253906 L 500.246094 153.003906 L 500.996094 152.777344 L 501.757812 152.582031 L 502.523438 152.410156 L 503.296875 152.269531 L 504.078125 152.160156 L 504.859375 152.078125 L 505.648438 152.023438 L 506.4375 152 L 507.226562 152.003906 L 508.011719 152.039062 L 508.800781 152.101562 L 509.582031 152.191406 L 510.359375 152.3125 L 511.132812 152.464844 L 511.894531 152.640625 L 512.652344 152.847656 L 513.398438 153.082031 L 514.132812 153.34375 L 514.859375 153.632812 L 515.570312 153.945312 L 516.269531 154.285156 L 516.953125 154.652344 L 517.625 155.039062 L 518.28125 155.453125 L 518.917969 155.894531 L 519.542969 156.355469 L 520.148438 156.839844 L 520.738281 157.347656 L 521.3125 157.878906 L 521.867188 158.433594 L 522.40625 159.007812 L 522.929688 159.605469 L 523.433594 160.226562 L 523.921875 160.871094 L 524.394531 161.539062 L 524.699219 162 L 523.800781 162 L 523.507812 161.574219 L 523.0625 160.960938 L 522.597656 160.367188 L 522.117188 159.792969 L 521.621094 159.242188 L 521.109375 158.710938 L 520.582031 158.199219 L 520.035156 157.710938 L 519.476562 157.242188 L 518.898438 156.796875 L 518.308594 156.371094 L 517.699219 155.964844 L 517.078125 155.582031 L 516.441406 155.222656 L 515.789062 154.886719 L 515.125 154.574219 L 514.449219 154.285156 L 513.761719 154.019531 L 513.0625 153.777344 L 512.355469 153.5625 L 511.636719 153.371094 L 510.910156 153.207031 L 510.175781 153.070312 L 509.4375 152.957031 L 508.695312 152.871094 L 507.949219 152.816406 L 507.199219 152.78125 L 506.449219 152.777344 L 505.699219 152.800781 L 504.953125 152.851562 L 504.207031 152.925781 L 503.46875 153.03125 L 502.730469 153.160156 L 502.003906 153.316406 L 501.28125 153.496094 L 500.570312 153.703125 L 499.867188 153.9375 L 499.175781 154.195312 L 498.496094 154.476562 L 497.828125 154.78125 L 497.171875 155.109375 L 496.53125 155.460938 L 495.902344 155.835938 L 495.292969 156.234375 L 494.695312 156.652344 L 494.113281 157.09375 L 493.546875 157.554688 L 492.996094 158.035156 L 492.464844 158.539062 L 491.945312 159.0625 L 491.445312 159.609375 L 490.960938 160.175781 L 490.492188 160.761719 L 490.039062 161.371094 L 489.601562 162 Z M 488.699219 162 "/>
<g clip-path="url(#clip16)" clip-rule="nonzero">
<path style="fill:none;stroke-width:0.75;stroke-linecap:round;stroke-linejoin:round;stroke:rgb(16.470588%,49.803922%,87.843137%);stroke-opacity:1;stroke-miterlimit:10;" d="M 488.699219 162 L 489.160156 161.316406 L 489.636719 160.65625 L 490.132812 160.019531 L 490.640625 159.40625 L 491.167969 158.816406 L 491.714844 158.246094 L 492.277344 157.699219 L 492.855469 157.175781 L 493.449219 156.675781 L 494.0625 156.199219 L 494.691406 155.746094 L 495.335938 155.316406 L 495.996094 154.910156 L 496.671875 154.527344 L 497.359375 154.171875 L 498.0625 153.839844 L 498.78125 153.535156 L 499.507812 153.253906 L 500.246094 153.003906 L 500.996094 152.777344 L 501.757812 152.582031 L 502.523438 152.410156 L 503.296875 152.269531 L 504.078125 152.160156 L 504.859375 152.078125 L 505.648438 152.023438 L 506.4375 152 L 507.226562 152.003906 L 508.011719 152.039062 L 508.800781 152.101562 L 509.582031 152.191406 L 510.359375 152.3125 L 511.132812 152.464844 L 511.894531 152.640625 L 512.652344 152.847656 L 513.398438 153.082031 L 514.132812 153.34375 L 514.859375 153.632812 L 515.570312 153.945312 L 516.269531 154.285156 L 516.953125 154.652344 L 517.625 155.039062 L 518.28125 155.453125 L 518.917969 155.894531 L 519.542969 156.355469 L 520.148438 156.839844 L 520.738281 157.347656 L 521.3125 157.878906 L 521.867188 158.433594 L 522.40625 159.007812 L 522.929688 159.605469 L 523.433594 160.226562 L 523.921875 160.871094 L 524.394531 161.539062 L 524.699219 162 L 523.800781 162 L 523.507812 161.574219 L 523.0625 160.960938 L 522.597656 160.367188 L 522.117188 159.792969 L 521.621094 159.242188 L 521.109375 158.710938 L 520.582031 158.199219 L 520.035156 157.710938 L 519.476562 157.242188 L 518.898438 156.796875 L 518.308594 156.371094 L 517.699219 155.964844 L 517.078125 155.582031 L 516.441406 155.222656 L 515.789062 154.886719 L 515.125 154.574219 L 514.449219 154.285156 L 513.761719 154.019531 L 513.0625 153.777344 L 512.355469 153.5625 L 511.636719 153.371094 L 510.910156 153.207031 L 510.175781 153.070312 L 509.4375 152.957031 L 508.695312 152.871094 L 507.949219 152.816406 L 507.199219 152.78125 L 506.449219 152.777344 L 505.699219 152.800781 L 504.953125 152.851562 L 504.207031 152.925781 L 503.46875 153.03125 L 502.730469 153.160156 L 502.003906 153.316406 L 501.28125 153.496094 L 500.570312 153.703125 L 499.867188 153.9375 L 499.175781 154.195312 L 498.496094 154.476562 L 497.828125 154.78125 L 497.171875 155.109375 L 496.53125 155.460938 L 495.902344 155.835938 L 495.292969 156.234375 L 494.695312 156.652344 L 494.113281 157.09375 L 493.546875 157.554688 L 492.996094 158.035156 L 492.464844 158.539062 L 491.945312 159.0625 L 491.445312 159.609375 L 490.960938 160.175781 L 490.492188 160.761719 L 490.039062 161.371094 L 489.601562 162 Z M 488.699219 162 "/>
</g>
</g>
</svg>
