<?xml version="1.0" encoding="UTF-8"?>
<svg xmlns="http://www.w3.org/2000/svg" xmlns:xlink="http://www.w3.org/1999/xlink" width="684pt" height="432pt" viewBox="0 0 684 432" version="1.1">
<defs>
<clipPath id="clip1">
  <path d="M 561 200 L 576 200 L 576 207 L 561 207 Z M 561 200 "/>
</clipPath>
<clipPath id="clip2">
  <path d="M 108 206 L 576 206 L 576 208 L 108 208 Z M 108 206 "/>
</clipPath>
</defs>
<g id="surface810">
<path style=" stroke:none;fill-rule:evenodd;fill:rgb(74.509804%,74.509804%,74.509804%);fill-opacity:1;" d="M 574.460938 56.347656 L 574.460938 57.601562 L 574.03125 57.601562 L 574.03125 56.347656 L 572.789062 56.347656 L 572.789062 55.917969 L 574.03125 55.917969 L 574.03125 54.664062 L 574.460938 54.664062 L 574.460938 55.917969 L 575.703125 55.917969 L 575.703125 56.347656 Z M 574.460938 56.347656 "/>
<path style=" stroke:none;fill-rule:evenodd;fill:rgb(74.509804%,74.509804%,74.509804%);fill-opacity:1;" d="M 574.460938 358.21875 L 574.460938 359.472656 L 574.03125 359.472656 L 574.03125 358.21875 L 572.789062 358.21875 L 572.789062 357.789062 L 574.03125 357.789062 L 574.03125 356.539062 L 574.460938 356.539062 L 574.460938 357.789062 L 575.703125 357.789062 L 575.703125 358.21875 Z M 574.460938 358.21875 "/>
<path style=" stroke:none;fill-rule:evenodd;fill:rgb(21.568627%,65.490196%,85.882353%);fill-opacity:1;" d="M 349.019531 206.148438 L 365.867188 206.148438 L 365.867188 200.480469 L 349.019531 200.480469 Z M 349.019531 206.148438 "/>
<path style=" stroke:none;fill-rule:evenodd;fill:rgb(21.568627%,65.490196%,85.882353%);fill-opacity:1;" d="M 308.773438 206.148438 L 325.621094 206.148438 L 325.621094 200.480469 L 308.773438 200.480469 Z M 308.773438 206.148438 "/>
<path style=" stroke:none;fill-rule:evenodd;fill:rgb(21.568627%,65.490196%,85.882353%);fill-opacity:1;" d="M 317.195312 198.78125 L 334.042969 198.78125 L 334.042969 193.113281 L 317.195312 193.113281 Z M 317.195312 198.78125 "/>
<path style=" stroke:none;fill-rule:evenodd;fill:rgb(21.568627%,65.490196%,85.882353%);fill-opacity:1;" d="M 304.09375 191.410156 L 320.941406 191.410156 L 320.941406 185.742188 L 304.09375 185.742188 Z M 304.09375 191.410156 "/>
<path style=" stroke:none;fill-rule:evenodd;fill:rgb(21.568627%,65.490196%,85.882353%);fill-opacity:1;" d="M 154.332031 206.148438 L 171.179688 206.148438 L 171.179688 200.480469 L 154.332031 200.480469 Z M 154.332031 206.148438 "/>
<path style=" stroke:none;fill-rule:evenodd;fill:rgb(21.568627%,65.490196%,85.882353%);fill-opacity:1;" d="M 254.484375 206.148438 L 271.332031 206.148438 L 271.332031 200.480469 L 254.484375 200.480469 Z M 254.484375 206.148438 "/>
<path style=" stroke:none;fill-rule:evenodd;fill:rgb(21.568627%,65.490196%,85.882353%);fill-opacity:1;" d="M 243.253906 198.78125 L 260.101562 198.78125 L 260.101562 193.113281 L 243.253906 193.113281 Z M 243.253906 198.78125 "/>
<path style=" stroke:none;fill-rule:evenodd;fill:rgb(21.568627%,65.490196%,85.882353%);fill-opacity:1;" d="M 302.6875 184.039062 L 319.535156 184.039062 L 319.535156 178.371094 L 302.6875 178.371094 Z M 302.6875 184.039062 "/>
<path style=" stroke:none;fill-rule:evenodd;fill:rgb(21.568627%,65.490196%,85.882353%);fill-opacity:1;" d="M 312.984375 176.667969 L 329.832031 176.667969 L 329.832031 171 L 312.984375 171 Z M 312.984375 176.667969 "/>
<path style=" stroke:none;fill-rule:evenodd;fill:rgb(21.568627%,65.490196%,85.882353%);fill-opacity:1;" d="M 337.320312 191.410156 L 354.167969 191.410156 L 354.167969 185.742188 L 337.320312 185.742188 Z M 337.320312 191.410156 "/>
<path style=" stroke:none;fill-rule:evenodd;fill:rgb(21.568627%,65.490196%,85.882353%);fill-opacity:1;" d="M 320.003906 169.300781 L 336.851562 169.300781 L 336.851562 163.632812 L 320.003906 163.632812 Z M 320.003906 169.300781 "/>
<path style=" stroke:none;fill-rule:evenodd;fill:rgb(21.568627%,65.490196%,85.882353%);fill-opacity:1;" d="M 319.535156 161.929688 L 336.382812 161.929688 L 336.382812 156.261719 L 319.535156 156.261719 Z M 319.535156 161.929688 "/>
<path style=" stroke:none;fill-rule:evenodd;fill:rgb(21.568627%,65.490196%,85.882353%);fill-opacity:1;" d="M 327.960938 154.558594 L 344.808594 154.558594 L 344.808594 148.890625 L 327.960938 148.890625 Z M 327.960938 154.558594 "/>
<path style=" stroke:none;fill-rule:evenodd;fill:rgb(21.568627%,65.490196%,85.882353%);fill-opacity:1;" d="M 321.40625 147.1875 L 338.253906 147.1875 L 338.253906 141.519531 L 321.40625 141.519531 Z M 321.40625 147.1875 "/>
<path style=" stroke:none;fill-rule:evenodd;fill:rgb(21.568627%,65.490196%,85.882353%);fill-opacity:1;" d="M 355.570312 198.78125 L 372.417969 198.78125 L 372.417969 193.113281 L 355.570312 193.113281 Z M 355.570312 198.78125 "/>
<path style=" stroke:none;fill-rule:evenodd;fill:rgb(21.568627%,65.490196%,85.882353%);fill-opacity:1;" d="M 312.046875 139.820312 L 328.894531 139.820312 L 328.894531 134.152344 L 312.046875 134.152344 Z M 312.046875 139.820312 "/>
<path style=" stroke:none;fill-rule:evenodd;fill:rgb(21.568627%,65.490196%,85.882353%);fill-opacity:1;" d="M 287.710938 198.78125 L 304.558594 198.78125 L 304.558594 193.113281 L 287.710938 193.113281 Z M 287.710938 198.78125 "/>
<path style=" stroke:none;fill-rule:evenodd;fill:rgb(21.568627%,65.490196%,85.882353%);fill-opacity:1;" d="M 461.808594 206.148438 L 478.65625 206.148438 L 478.65625 200.480469 L 461.808594 200.480469 Z M 461.808594 206.148438 "/>
<path style=" stroke:none;fill-rule:evenodd;fill:rgb(21.568627%,65.490196%,85.882353%);fill-opacity:1;" d="M 255.886719 191.410156 L 272.734375 191.410156 L 272.734375 185.742188 L 255.886719 185.742188 Z M 255.886719 191.410156 "/>
<path style=" stroke:none;fill-rule:evenodd;fill:rgb(21.568627%,65.490196%,85.882353%);fill-opacity:1;" d="M 142.632812 198.78125 L 159.480469 198.78125 L 159.480469 193.113281 L 142.632812 193.113281 Z M 142.632812 198.78125 "/>
<path style=" stroke:none;fill-rule:evenodd;fill:rgb(21.568627%,65.490196%,85.882353%);fill-opacity:1;" d="M 381.3125 206.148438 L 398.160156 206.148438 L 398.160156 200.480469 L 381.3125 200.480469 Z M 381.3125 206.148438 "/>
<path style=" stroke:none;fill-rule:evenodd;fill:rgb(21.568627%,65.490196%,85.882353%);fill-opacity:1;" d="M 271.332031 184.039062 L 288.179688 184.039062 L 288.179688 178.371094 L 271.332031 178.371094 Z M 271.332031 184.039062 "/>
<path style=" stroke:none;fill-rule:evenodd;fill:rgb(21.568627%,65.490196%,85.882353%);fill-opacity:1;" d="M 370.078125 191.410156 L 386.925781 191.410156 L 386.925781 185.742188 L 370.078125 185.742188 Z M 370.078125 191.410156 "/>
<path style=" stroke:none;fill-rule:evenodd;fill:rgb(21.568627%,65.490196%,85.882353%);fill-opacity:1;" d="M 258.226562 176.667969 L 275.074219 176.667969 L 275.074219 171 L 258.226562 171 Z M 258.226562 176.667969 "/>
<path style=" stroke:none;fill-rule:evenodd;fill:rgb(21.568627%,65.490196%,85.882353%);fill-opacity:1;" d="M 293.796875 154.558594 L 310.644531 154.558594 L 310.644531 148.890625 L 293.796875 148.890625 Z M 293.796875 154.558594 "/>
<path style=" stroke:none;fill-rule:evenodd;fill:rgb(21.568627%,65.490196%,85.882353%);fill-opacity:1;" d="M 312.515625 132.449219 L 329.363281 132.449219 L 329.363281 126.78125 L 312.515625 126.78125 Z M 312.515625 132.449219 "/>
<path style=" stroke:none;fill-rule:evenodd;fill:rgb(21.568627%,65.490196%,85.882353%);fill-opacity:1;" d="M 345.277344 184.039062 L 362.125 184.039062 L 362.125 178.371094 L 345.277344 178.371094 Z M 345.277344 184.039062 "/>
<path style=" stroke:none;fill-rule:evenodd;fill:rgb(21.568627%,65.490196%,85.882353%);fill-opacity:1;" d="M 311.578125 125.078125 L 328.425781 125.078125 L 328.425781 119.410156 L 311.578125 119.410156 Z M 311.578125 125.078125 "/>
<path style=" stroke:none;fill-rule:evenodd;fill:rgb(21.568627%,65.490196%,85.882353%);fill-opacity:1;" d="M 348.550781 176.667969 L 365.398438 176.667969 L 365.398438 171 L 348.550781 171 Z M 348.550781 176.667969 "/>
<path style=" stroke:none;fill-rule:evenodd;fill:rgb(21.568627%,65.490196%,85.882353%);fill-opacity:1;" d="M 318.132812 117.707031 L 334.980469 117.707031 L 334.980469 112.039062 L 318.132812 112.039062 Z M 318.132812 117.707031 "/>
<path style=" stroke:none;fill-rule:evenodd;fill:rgb(21.568627%,65.490196%,85.882353%);fill-opacity:1;" d="M 305.496094 110.339844 L 322.34375 110.339844 L 322.34375 104.671875 L 305.496094 104.671875 Z M 305.496094 110.339844 "/>
<path style=" stroke:none;fill-rule:evenodd;fill:rgb(21.568627%,65.490196%,85.882353%);fill-opacity:1;" d="M 292.859375 169.300781 L 309.707031 169.300781 L 309.707031 163.632812 L 292.859375 163.632812 Z M 292.859375 169.300781 "/>
<path style=" stroke:none;fill-rule:evenodd;fill:rgb(21.568627%,65.490196%,85.882353%);fill-opacity:1;" d="M 314.386719 102.96875 L 331.234375 102.96875 L 331.234375 97.300781 L 314.386719 97.300781 Z M 314.386719 102.96875 "/>
<path style=" stroke:none;fill-rule:evenodd;fill:rgb(21.568627%,65.490196%,85.882353%);fill-opacity:1;" d="M 337.789062 110.339844 L 354.636719 110.339844 L 354.636719 104.671875 L 337.789062 104.671875 Z M 337.789062 110.339844 "/>
<path style=" stroke:none;fill-rule:evenodd;fill:rgb(21.568627%,65.490196%,85.882353%);fill-opacity:1;" d="M 262.90625 169.300781 L 279.753906 169.300781 L 279.753906 163.632812 L 262.90625 163.632812 Z M 262.90625 169.300781 "/>
<path style=" stroke:none;fill-rule:evenodd;fill:rgb(21.568627%,65.490196%,85.882353%);fill-opacity:1;" d="M 332.640625 95.597656 L 349.488281 95.597656 L 349.488281 89.929688 L 332.640625 89.929688 Z M 332.640625 95.597656 "/>
<path style=" stroke:none;fill-rule:evenodd;fill:rgb(21.568627%,65.490196%,85.882353%);fill-opacity:1;" d="M 343.871094 139.820312 L 360.71875 139.820312 L 360.71875 134.152344 L 343.871094 134.152344 Z M 343.871094 139.820312 "/>
<path style=" stroke:none;fill-rule:evenodd;fill:rgb(21.568627%,65.490196%,85.882353%);fill-opacity:1;" d="M 322.34375 88.226562 L 339.191406 88.226562 L 339.191406 82.558594 L 322.34375 82.558594 Z M 322.34375 88.226562 "/>
<path style=" stroke:none;fill-rule:evenodd;fill:rgb(21.568627%,65.490196%,85.882353%);fill-opacity:1;" d="M 329.363281 80.859375 L 346.210938 80.859375 L 346.210938 75.191406 L 329.363281 75.191406 Z M 329.363281 80.859375 "/>
<path style=" stroke:none;fill-rule:evenodd;fill:rgb(21.568627%,65.490196%,85.882353%);fill-opacity:1;" d="M 331.234375 73.488281 L 348.082031 73.488281 L 348.082031 67.820312 L 331.234375 67.820312 Z M 331.234375 73.488281 "/>
<path style=" stroke:none;fill-rule:evenodd;fill:rgb(21.568627%,65.490196%,85.882353%);fill-opacity:1;" d="M 331.703125 66.117188 L 348.550781 66.117188 L 348.550781 60.449219 L 331.703125 60.449219 Z M 331.703125 66.117188 "/>
<path style=" stroke:none;fill-rule:evenodd;fill:rgb(21.568627%,65.490196%,85.882353%);fill-opacity:1;" d="M 160.882812 191.410156 L 177.730469 191.410156 L 177.730469 185.742188 L 160.882812 185.742188 Z M 160.882812 191.410156 "/>
<path style=" stroke:none;fill-rule:evenodd;fill:rgb(21.568627%,65.490196%,85.882353%);fill-opacity:1;" d="M 341.53125 132.449219 L 358.378906 132.449219 L 358.378906 126.78125 L 341.53125 126.78125 Z M 341.53125 132.449219 "/>
<path style=" stroke:none;fill-rule:evenodd;fill:rgb(21.568627%,65.490196%,85.882353%);fill-opacity:1;" d="M 293.328125 147.1875 L 310.175781 147.1875 L 310.175781 141.519531 L 293.328125 141.519531 Z M 293.328125 147.1875 "/>
<path style=" stroke:none;fill-rule:evenodd;fill:rgb(21.568627%,65.490196%,85.882353%);fill-opacity:1;" d="M 281.160156 206.148438 L 298.007812 206.148438 L 298.007812 200.480469 L 281.160156 200.480469 Z M 281.160156 206.148438 "/>
<path style=" stroke:none;fill-rule:evenodd;fill:rgb(21.568627%,65.490196%,85.882353%);fill-opacity:1;" d="M 291.457031 161.929688 L 308.304688 161.929688 L 308.304688 156.261719 L 291.457031 156.261719 Z M 291.457031 161.929688 "/>
<path style=" stroke:none;fill-rule:evenodd;fill:rgb(21.568627%,65.490196%,85.882353%);fill-opacity:1;" d="M 291.925781 95.597656 L 308.773438 95.597656 L 308.773438 89.929688 L 291.925781 89.929688 Z M 291.925781 95.597656 "/>
<path style=" stroke:none;fill-rule:evenodd;fill:rgb(21.568627%,65.490196%,85.882353%);fill-opacity:1;" d="M 276.011719 139.820312 L 292.859375 139.820312 L 292.859375 134.152344 L 276.011719 134.152344 Z M 276.011719 139.820312 "/>
<path style=" stroke:none;fill-rule:evenodd;fill:rgb(21.568627%,65.490196%,85.882353%);fill-opacity:1;" d="M 304.558594 73.488281 L 321.40625 73.488281 L 321.40625 67.820312 L 304.558594 67.820312 Z M 304.558594 73.488281 "/>
<path style=" stroke:none;fill-rule:evenodd;fill:rgb(21.568627%,65.490196%,85.882353%);fill-opacity:1;" d="M 338.257812 125.078125 L 355.105469 125.078125 L 355.105469 119.410156 L 338.257812 119.410156 Z M 338.257812 125.078125 "/>
<path style=" stroke:none;fill-rule:evenodd;fill:rgb(21.568627%,65.490196%,85.882353%);fill-opacity:1;" d="M 288.648438 117.707031 L 305.496094 117.707031 L 305.496094 112.039062 L 288.648438 112.039062 Z M 288.648438 117.707031 "/>
<path style=" stroke:none;fill-rule:evenodd;fill:rgb(21.568627%,65.490196%,85.882353%);fill-opacity:1;" d="M 363.058594 169.300781 L 379.90625 169.300781 L 379.90625 163.632812 L 363.058594 163.632812 Z M 363.058594 169.300781 "/>
<path style=" stroke:none;fill-rule:evenodd;fill:rgb(21.568627%,65.490196%,85.882353%);fill-opacity:1;" d="M 361.65625 161.929688 L 378.503906 161.929688 L 378.503906 156.261719 L 361.65625 156.261719 Z M 361.65625 161.929688 "/>
<path style=" stroke:none;fill-rule:evenodd;fill:rgb(21.568627%,65.490196%,85.882353%);fill-opacity:1;" d="M 374.761719 184.039062 L 391.609375 184.039062 L 391.609375 178.371094 L 374.761719 178.371094 Z M 374.761719 184.039062 "/>
<path style=" stroke:none;fill-rule:evenodd;fill:rgb(21.568627%,65.490196%,85.882353%);fill-opacity:1;" d="M 358.378906 154.558594 L 375.226562 154.558594 L 375.226562 148.890625 L 358.378906 148.890625 Z M 358.378906 154.558594 "/>
<path style=" stroke:none;fill-rule:evenodd;fill:rgb(21.568627%,65.490196%,85.882353%);fill-opacity:1;" d="M 305.027344 66.117188 L 321.875 66.117188 L 321.875 60.449219 L 305.027344 60.449219 Z M 305.027344 66.117188 "/>
<path style=" stroke:none;fill-rule:evenodd;fill:rgb(21.568627%,65.490196%,85.882353%);fill-opacity:1;" d="M 275.542969 132.449219 L 292.390625 132.449219 L 292.390625 126.78125 L 275.542969 126.78125 Z M 275.542969 132.449219 "/>
<path style=" stroke:none;fill-rule:evenodd;fill:rgb(21.568627%,65.490196%,85.882353%);fill-opacity:1;" d="M 270.394531 125.078125 L 287.242188 125.078125 L 287.242188 119.410156 L 270.394531 119.410156 Z M 270.394531 125.078125 "/>
<path style=" stroke:none;fill-rule:evenodd;fill:rgb(21.568627%,65.490196%,85.882353%);fill-opacity:1;" d="M 342.9375 102.96875 L 359.785156 102.96875 L 359.785156 97.300781 L 342.9375 97.300781 Z M 342.9375 102.96875 "/>
<path style=" stroke:none;fill-rule:evenodd;fill:rgb(21.568627%,65.490196%,85.882353%);fill-opacity:1;" d="M 419.6875 206.148438 L 436.535156 206.148438 L 436.535156 200.480469 L 419.6875 200.480469 Z M 419.6875 206.148438 "/>
<path style=" stroke:none;fill-rule:evenodd;fill:rgb(21.568627%,65.490196%,85.882353%);fill-opacity:1;" d="M 143.101562 184.039062 L 159.949219 184.039062 L 159.949219 178.371094 L 143.101562 178.371094 Z M 143.101562 184.039062 "/>
<path style=" stroke:none;fill-rule:evenodd;fill:rgb(21.568627%,65.490196%,85.882353%);fill-opacity:1;" d="M 253.546875 161.929688 L 270.394531 161.929688 L 270.394531 156.261719 L 253.546875 156.261719 Z M 253.546875 161.929688 "/>
<path style=" stroke:none;fill-rule:evenodd;fill:rgb(21.568627%,65.490196%,85.882353%);fill-opacity:1;" d="M 237.167969 184.039062 L 254.015625 184.039062 L 254.015625 178.371094 L 237.167969 178.371094 Z M 237.167969 184.039062 "/>
<path style=" stroke:none;fill-rule:evenodd;fill:rgb(21.568627%,65.490196%,85.882353%);fill-opacity:1;" d="M 345.742188 117.707031 L 362.589844 117.707031 L 362.589844 112.039062 L 345.742188 112.039062 Z M 345.742188 117.707031 "/>
<path style=" stroke:none;fill-rule:evenodd;fill:rgb(21.568627%,65.490196%,85.882353%);fill-opacity:1;" d="M 241.378906 154.558594 L 258.226562 154.558594 L 258.226562 148.890625 L 241.378906 148.890625 Z M 241.378906 154.558594 "/>
<path style=" stroke:none;fill-rule:evenodd;fill:rgb(21.568627%,65.490196%,85.882353%);fill-opacity:1;" d="M 296.605469 80.859375 L 313.453125 80.859375 L 313.453125 75.191406 L 296.605469 75.191406 Z M 296.605469 80.859375 "/>
<path style=" stroke:none;fill-rule:evenodd;fill:rgb(21.568627%,65.490196%,85.882353%);fill-opacity:1;" d="M 373.824219 147.1875 L 390.671875 147.1875 L 390.671875 141.519531 L 373.824219 141.519531 Z M 373.824219 147.1875 "/>
<path style=" stroke:none;fill-rule:evenodd;fill:rgb(21.568627%,65.490196%,85.882353%);fill-opacity:1;" d="M 284.902344 176.667969 L 301.75 176.667969 L 301.75 171 L 284.902344 171 Z M 284.902344 176.667969 "/>
<path style=" stroke:none;fill-rule:evenodd;fill:rgb(21.568627%,65.490196%,85.882353%);fill-opacity:1;" d="M 287.242188 102.96875 L 304.089844 102.96875 L 304.089844 97.300781 L 287.242188 97.300781 Z M 287.242188 102.96875 "/>
<path style=" stroke:none;fill-rule:evenodd;fill:rgb(21.568627%,65.490196%,85.882353%);fill-opacity:1;" d="M 349.488281 88.226562 L 366.335938 88.226562 L 366.335938 82.558594 L 349.488281 82.558594 Z M 349.488281 88.226562 "/>
<path style=" stroke:none;fill-rule:evenodd;fill:rgb(21.568627%,65.490196%,85.882353%);fill-opacity:1;" d="M 369.613281 132.449219 L 386.460938 132.449219 L 386.460938 126.78125 L 369.613281 126.78125 Z M 369.613281 132.449219 "/>
<path style=" stroke:none;fill-rule:evenodd;fill:rgb(21.568627%,65.490196%,85.882353%);fill-opacity:1;" d="M 269.460938 110.339844 L 286.308594 110.339844 L 286.308594 104.671875 L 269.460938 104.671875 Z M 269.460938 110.339844 "/>
<path style=" stroke:none;fill-rule:evenodd;fill:rgb(21.568627%,65.490196%,85.882353%);fill-opacity:1;" d="M 281.628906 88.226562 L 298.476562 88.226562 L 298.476562 82.558594 L 281.628906 82.558594 Z M 281.628906 88.226562 "/>
<path style=" stroke:none;fill-rule:evenodd;fill:rgb(21.568627%,65.490196%,85.882353%);fill-opacity:1;" d="M 159.949219 176.667969 L 176.796875 176.667969 L 176.796875 171 L 159.949219 171 Z M 159.949219 176.667969 "/>
<g clip-path="url(#clip1)" clip-rule="nonzero">
<path style=" stroke:none;fill-rule:evenodd;fill:rgb(21.568627%,65.490196%,85.882353%);fill-opacity:1;" d="M 561.492188 206.148438 L 578.339844 206.148438 L 578.339844 200.480469 L 561.492188 200.480469 Z M 561.492188 206.148438 "/>
</g>
<path style=" stroke:none;fill-rule:evenodd;fill:rgb(21.568627%,65.490196%,85.882353%);fill-opacity:1;" d="M 384.121094 198.78125 L 400.96875 198.78125 L 400.96875 193.113281 L 384.121094 193.113281 Z M 384.121094 198.78125 "/>
<path style=" stroke:none;fill-rule:evenodd;fill:rgb(21.568627%,65.490196%,85.882353%);fill-opacity:1;" d="M 272.734375 73.488281 L 289.582031 73.488281 L 289.582031 67.820312 L 272.734375 67.820312 Z M 272.734375 73.488281 "/>
<path style=" stroke:none;fill-rule:evenodd;fill:rgb(21.568627%,65.490196%,85.882353%);fill-opacity:1;" d="M 422.964844 198.78125 L 439.8125 198.78125 L 439.8125 193.113281 L 422.964844 193.113281 Z M 422.964844 198.78125 "/>
<path style=" stroke:none;fill-rule:evenodd;fill:rgb(21.568627%,65.490196%,85.882353%);fill-opacity:1;" d="M 213.769531 206.148438 L 230.617188 206.148438 L 230.617188 200.480469 L 213.769531 200.480469 Z M 213.769531 206.148438 "/>
<path style=" stroke:none;fill-rule:evenodd;fill:rgb(21.568627%,65.490196%,85.882353%);fill-opacity:1;" d="M 399.097656 191.410156 L 415.945312 191.410156 L 415.945312 185.742188 L 399.097656 185.742188 Z M 399.097656 191.410156 "/>
<path style=" stroke:none;fill-rule:evenodd;fill:rgb(49.411765%,80.392157%,73.333333%);fill-opacity:1;" d="M 450.109375 213.519531 L 466.957031 213.519531 L 466.957031 207.851562 L 450.109375 207.851562 Z M 450.109375 213.519531 "/>
<path style=" stroke:none;fill-rule:evenodd;fill:rgb(49.411765%,80.392157%,73.333333%);fill-opacity:1;" d="M 343.871094 213.519531 L 360.71875 213.519531 L 360.71875 207.851562 L 343.871094 207.851562 Z M 343.871094 213.519531 "/>
<path style=" stroke:none;fill-rule:evenodd;fill:rgb(49.411765%,80.392157%,73.333333%);fill-opacity:1;" d="M 362.59375 220.890625 L 379.441406 220.890625 L 379.441406 215.222656 L 362.59375 215.222656 Z M 362.59375 220.890625 "/>
<path style=" stroke:none;fill-rule:evenodd;fill:rgb(49.411765%,80.392157%,73.333333%);fill-opacity:1;" d="M 426.707031 220.890625 L 443.554688 220.890625 L 443.554688 215.222656 L 426.707031 215.222656 Z M 426.707031 220.890625 "/>
<path style=" stroke:none;fill-rule:evenodd;fill:rgb(49.411765%,80.392157%,73.333333%);fill-opacity:1;" d="M 355.105469 228.261719 L 371.953125 228.261719 L 371.953125 222.59375 L 355.105469 222.59375 Z M 355.105469 228.261719 "/>
<path style=" stroke:none;fill-rule:evenodd;fill:rgb(49.411765%,80.392157%,73.333333%);fill-opacity:1;" d="M 363.058594 235.628906 L 379.90625 235.628906 L 379.90625 229.960938 L 363.058594 229.960938 Z M 363.058594 235.628906 "/>
<path style=" stroke:none;fill-rule:evenodd;fill:rgb(49.411765%,80.392157%,73.333333%);fill-opacity:1;" d="M 365.867188 243 L 382.714844 243 L 382.714844 237.332031 L 365.867188 237.332031 Z M 365.867188 243 "/>
<path style=" stroke:none;fill-rule:evenodd;fill:rgb(49.411765%,80.392157%,73.333333%);fill-opacity:1;" d="M 313.453125 213.519531 L 330.300781 213.519531 L 330.300781 207.851562 L 313.453125 207.851562 Z M 313.453125 213.519531 "/>
<path style=" stroke:none;fill-rule:evenodd;fill:rgb(49.411765%,80.392157%,73.333333%);fill-opacity:1;" d="M 348.550781 250.371094 L 365.398438 250.371094 L 365.398438 244.703125 L 348.550781 244.703125 Z M 348.550781 250.371094 "/>
<path style=" stroke:none;fill-rule:evenodd;fill:rgb(49.411765%,80.392157%,73.333333%);fill-opacity:1;" d="M 399.5625 213.519531 L 416.410156 213.519531 L 416.410156 207.851562 L 399.5625 207.851562 Z M 399.5625 213.519531 "/>
<path style=" stroke:none;fill-rule:evenodd;fill:rgb(49.411765%,80.392157%,73.333333%);fill-opacity:1;" d="M 334.042969 220.890625 L 350.890625 220.890625 L 350.890625 215.222656 L 334.042969 215.222656 Z M 334.042969 220.890625 "/>
<path style=" stroke:none;fill-rule:evenodd;fill:rgb(49.411765%,80.392157%,73.333333%);fill-opacity:1;" d="M 356.507812 257.738281 L 373.355469 257.738281 L 373.355469 252.070312 L 356.507812 252.070312 Z M 356.507812 257.738281 "/>
<path style=" stroke:none;fill-rule:evenodd;fill:rgb(49.411765%,80.392157%,73.333333%);fill-opacity:1;" d="M 425.773438 228.261719 L 442.621094 228.261719 L 442.621094 222.59375 L 425.773438 222.59375 Z M 425.773438 228.261719 "/>
<path style=" stroke:none;fill-rule:evenodd;fill:rgb(49.411765%,80.392157%,73.333333%);fill-opacity:1;" d="M 383.183594 228.261719 L 400.03125 228.261719 L 400.03125 222.59375 L 383.183594 222.59375 Z M 383.183594 228.261719 "/>
<path style=" stroke:none;fill-rule:evenodd;fill:rgb(49.411765%,80.392157%,73.333333%);fill-opacity:1;" d="M 324.214844 228.261719 L 341.0625 228.261719 L 341.0625 222.59375 L 324.214844 222.59375 Z M 324.214844 228.261719 "/>
<path style=" stroke:none;fill-rule:evenodd;fill:rgb(49.411765%,80.392157%,73.333333%);fill-opacity:1;" d="M 303.15625 220.890625 L 320.003906 220.890625 L 320.003906 215.222656 L 303.15625 215.222656 Z M 303.15625 220.890625 "/>
<path style=" stroke:none;fill-rule:evenodd;fill:rgb(49.411765%,80.392157%,73.333333%);fill-opacity:1;" d="M 410.796875 235.628906 L 427.644531 235.628906 L 427.644531 229.960938 L 410.796875 229.960938 Z M 410.796875 235.628906 "/>
<path style=" stroke:none;fill-rule:evenodd;fill:rgb(49.411765%,80.392157%,73.333333%);fill-opacity:1;" d="M 347.617188 265.109375 L 364.464844 265.109375 L 364.464844 259.441406 L 347.617188 259.441406 Z M 347.617188 265.109375 "/>
<path style=" stroke:none;fill-rule:evenodd;fill:rgb(49.411765%,80.392157%,73.333333%);fill-opacity:1;" d="M 351.828125 272.480469 L 368.675781 272.480469 L 368.675781 266.8125 L 351.828125 266.8125 Z M 351.828125 272.480469 "/>
<path style=" stroke:none;fill-rule:evenodd;fill:rgb(49.411765%,80.392157%,73.333333%);fill-opacity:1;" d="M 371.015625 213.519531 L 387.863281 213.519531 L 387.863281 207.851562 L 371.015625 207.851562 Z M 371.015625 213.519531 "/>
<path style=" stroke:none;fill-rule:evenodd;fill:rgb(49.411765%,80.392157%,73.333333%);fill-opacity:1;" d="M 421.558594 243 L 438.40625 243 L 438.40625 237.332031 L 421.558594 237.332031 Z M 421.558594 243 "/>
<path style=" stroke:none;fill-rule:evenodd;fill:rgb(49.411765%,80.392157%,73.333333%);fill-opacity:1;" d="M 355.570312 279.851562 L 372.417969 279.851562 L 372.417969 274.183594 L 355.570312 274.183594 Z M 355.570312 279.851562 "/>
<path style=" stroke:none;fill-rule:evenodd;fill:rgb(49.411765%,80.392157%,73.333333%);fill-opacity:1;" d="M 287.242188 228.261719 L 304.089844 228.261719 L 304.089844 222.59375 L 287.242188 222.59375 Z M 287.242188 228.261719 "/>
<path style=" stroke:none;fill-rule:evenodd;fill:rgb(49.411765%,80.392157%,73.333333%);fill-opacity:1;" d="M 336.851562 243 L 353.699219 243 L 353.699219 237.332031 L 336.851562 237.332031 Z M 336.851562 243 "/>
<path style=" stroke:none;fill-rule:evenodd;fill:rgb(49.411765%,80.392157%,73.333333%);fill-opacity:1;" d="M 535.753906 213.519531 L 552.601562 213.519531 L 552.601562 207.851562 L 535.753906 207.851562 Z M 535.753906 213.519531 "/>
<path style=" stroke:none;fill-rule:evenodd;fill:rgb(49.411765%,80.392157%,73.333333%);fill-opacity:1;" d="M 382.714844 250.371094 L 399.5625 250.371094 L 399.5625 244.703125 L 382.714844 244.703125 Z M 382.714844 250.371094 "/>
<path style=" stroke:none;fill-rule:evenodd;fill:rgb(49.411765%,80.392157%,73.333333%);fill-opacity:1;" d="M 352.296875 287.21875 L 369.144531 287.21875 L 369.144531 281.550781 L 352.296875 281.550781 Z M 352.296875 287.21875 "/>
<path style=" stroke:none;fill-rule:evenodd;fill:rgb(49.411765%,80.392157%,73.333333%);fill-opacity:1;" d="M 350.425781 294.589844 L 367.273438 294.589844 L 367.273438 288.921875 L 350.425781 288.921875 Z M 350.425781 294.589844 "/>
<path style=" stroke:none;fill-rule:evenodd;fill:rgb(49.411765%,80.392157%,73.333333%);fill-opacity:1;" d="M 331.703125 235.628906 L 348.550781 235.628906 L 348.550781 229.960938 L 331.703125 229.960938 Z M 331.703125 235.628906 "/>
<path style=" stroke:none;fill-rule:evenodd;fill:rgb(49.411765%,80.392157%,73.333333%);fill-opacity:1;" d="M 349.957031 301.960938 L 366.804688 301.960938 L 366.804688 296.292969 L 349.957031 296.292969 Z M 349.957031 301.960938 "/>
<path style=" stroke:none;fill-rule:evenodd;fill:rgb(49.411765%,80.392157%,73.333333%);fill-opacity:1;" d="M 418.753906 250.371094 L 435.601562 250.371094 L 435.601562 244.703125 L 418.753906 244.703125 Z M 418.753906 250.371094 "/>
<path style=" stroke:none;fill-rule:evenodd;fill:rgb(49.411765%,80.392157%,73.333333%);fill-opacity:1;" d="M 419.21875 257.738281 L 436.066406 257.738281 L 436.066406 252.070312 L 419.21875 252.070312 Z M 419.21875 257.738281 "/>
<path style=" stroke:none;fill-rule:evenodd;fill:rgb(49.411765%,80.392157%,73.333333%);fill-opacity:1;" d="M 476.316406 220.890625 L 493.164062 220.890625 L 493.164062 215.222656 L 476.316406 215.222656 Z M 476.316406 220.890625 "/>
<path style=" stroke:none;fill-rule:evenodd;fill:rgb(49.411765%,80.392157%,73.333333%);fill-opacity:1;" d="M 368.207031 309.332031 L 385.054688 309.332031 L 385.054688 303.664062 L 368.207031 303.664062 Z M 368.207031 309.332031 "/>
<path style=" stroke:none;fill-rule:evenodd;fill:rgb(49.411765%,80.392157%,73.333333%);fill-opacity:1;" d="M 401.902344 265.109375 L 418.75 265.109375 L 418.75 259.441406 L 401.902344 259.441406 Z M 401.902344 265.109375 "/>
<path style=" stroke:none;fill-rule:evenodd;fill:rgb(49.411765%,80.392157%,73.333333%);fill-opacity:1;" d="M 354.167969 316.699219 L 371.015625 316.699219 L 371.015625 311.03125 L 354.167969 311.03125 Z M 354.167969 316.699219 "/>
<path style=" stroke:none;fill-rule:evenodd;fill:rgb(49.411765%,80.392157%,73.333333%);fill-opacity:1;" d="M 371.953125 324.070312 L 388.800781 324.070312 L 388.800781 318.402344 L 371.953125 318.402344 Z M 371.953125 324.070312 "/>
<path style=" stroke:none;fill-rule:evenodd;fill:rgb(49.411765%,80.392157%,73.333333%);fill-opacity:1;" d="M 319.535156 250.371094 L 336.382812 250.371094 L 336.382812 244.703125 L 319.535156 244.703125 Z M 319.535156 250.371094 "/>
<path style=" stroke:none;fill-rule:evenodd;fill:rgb(49.411765%,80.392157%,73.333333%);fill-opacity:1;" d="M 318.601562 257.738281 L 335.449219 257.738281 L 335.449219 252.070312 L 318.601562 252.070312 Z M 318.601562 257.738281 "/>
<path style=" stroke:none;fill-rule:evenodd;fill:rgb(49.411765%,80.392157%,73.333333%);fill-opacity:1;" d="M 340.128906 309.332031 L 356.976562 309.332031 L 356.976562 303.664062 L 340.128906 303.664062 Z M 340.128906 309.332031 "/>
<path style=" stroke:none;fill-rule:evenodd;fill:rgb(49.411765%,80.392157%,73.333333%);fill-opacity:1;" d="M 213.769531 213.519531 L 230.617188 213.519531 L 230.617188 207.851562 L 213.769531 207.851562 Z M 213.769531 213.519531 "/>
<path style=" stroke:none;fill-rule:evenodd;fill:rgb(49.411765%,80.392157%,73.333333%);fill-opacity:1;" d="M 352.765625 331.441406 L 369.613281 331.441406 L 369.613281 325.773438 L 352.765625 325.773438 Z M 352.765625 331.441406 "/>
<path style=" stroke:none;fill-rule:evenodd;fill:rgb(49.411765%,80.392157%,73.333333%);fill-opacity:1;" d="M 332.640625 324.070312 L 349.488281 324.070312 L 349.488281 318.402344 L 332.640625 318.402344 Z M 332.640625 324.070312 "/>
<path style=" stroke:none;fill-rule:evenodd;fill:rgb(49.411765%,80.392157%,73.333333%);fill-opacity:1;" d="M 358.847656 338.8125 L 375.695312 338.8125 L 375.695312 333.144531 L 358.847656 333.144531 Z M 358.847656 338.8125 "/>
<path style=" stroke:none;fill-rule:evenodd;fill:rgb(49.411765%,80.392157%,73.333333%);fill-opacity:1;" d="M 359.316406 346.179688 L 376.164062 346.179688 L 376.164062 340.511719 L 359.316406 340.511719 Z M 359.316406 346.179688 "/>
<path style=" stroke:none;fill-rule:evenodd;fill:rgb(49.411765%,80.392157%,73.333333%);fill-opacity:1;" d="M 356.039062 353.550781 L 372.886719 353.550781 L 372.886719 347.882812 L 356.039062 347.882812 Z M 356.039062 353.550781 "/>
<path style=" stroke:none;fill-rule:evenodd;fill:rgb(49.411765%,80.392157%,73.333333%);fill-opacity:1;" d="M 396.757812 220.890625 L 413.605469 220.890625 L 413.605469 215.222656 L 396.757812 215.222656 Z M 396.757812 220.890625 "/>
<path style=" stroke:none;fill-rule:evenodd;fill:rgb(49.411765%,80.392157%,73.333333%);fill-opacity:1;" d="M 330.769531 338.8125 L 347.617188 338.8125 L 347.617188 333.144531 L 330.769531 333.144531 Z M 330.769531 338.8125 "/>
<path style=" stroke:none;fill-rule:evenodd;fill:rgb(49.411765%,80.392157%,73.333333%);fill-opacity:1;" d="M 392.074219 257.738281 L 408.921875 257.738281 L 408.921875 252.070312 L 392.074219 252.070312 Z M 392.074219 257.738281 "/>
<path style=" stroke:none;fill-rule:evenodd;fill:rgb(49.411765%,80.392157%,73.333333%);fill-opacity:1;" d="M 473.976562 228.261719 L 490.824219 228.261719 L 490.824219 222.59375 L 473.976562 222.59375 Z M 473.976562 228.261719 "/>
<path style=" stroke:none;fill-rule:evenodd;fill:rgb(49.411765%,80.392157%,73.333333%);fill-opacity:1;" d="M 439.34375 235.628906 L 456.191406 235.628906 L 456.191406 229.960938 L 439.34375 229.960938 Z M 439.34375 235.628906 "/>
<path style=" stroke:none;fill-rule:evenodd;fill:rgb(49.411765%,80.392157%,73.333333%);fill-opacity:1;" d="M 377.101562 294.589844 L 393.949219 294.589844 L 393.949219 288.921875 L 377.101562 288.921875 Z M 377.101562 294.589844 "/>
<path style=" stroke:none;fill-rule:evenodd;fill:rgb(49.411765%,80.392157%,73.333333%);fill-opacity:1;" d="M 481.464844 213.519531 L 498.3125 213.519531 L 498.3125 207.851562 L 481.464844 207.851562 Z M 481.464844 213.519531 "/>
<path style=" stroke:none;fill-rule:evenodd;fill:rgb(49.411765%,80.392157%,73.333333%);fill-opacity:1;" d="M 400.03125 272.480469 L 416.878906 272.480469 L 416.878906 266.8125 L 400.03125 266.8125 Z M 400.03125 272.480469 "/>
<path style=" stroke:none;fill-rule:evenodd;fill:rgb(49.411765%,80.392157%,73.333333%);fill-opacity:1;" d="M 375.226562 265.109375 L 392.074219 265.109375 L 392.074219 259.441406 L 375.226562 259.441406 Z M 375.226562 265.109375 "/>
<path style=" stroke:none;fill-rule:evenodd;fill:rgb(49.411765%,80.392157%,73.333333%);fill-opacity:1;" d="M 398.160156 279.851562 L 415.007812 279.851562 L 415.007812 274.183594 L 398.160156 274.183594 Z M 398.160156 279.851562 "/>
<path style=" stroke:none;fill-rule:evenodd;fill:rgb(49.411765%,80.392157%,73.333333%);fill-opacity:1;" d="M 539.496094 220.890625 L 556.34375 220.890625 L 556.34375 215.222656 L 539.496094 215.222656 Z M 539.496094 220.890625 "/>
<path style=" stroke:none;fill-rule:evenodd;fill:rgb(49.411765%,80.392157%,73.333333%);fill-opacity:1;" d="M 387.863281 287.21875 L 404.710938 287.21875 L 404.710938 281.550781 L 387.863281 281.550781 Z M 387.863281 287.21875 "/>
<path style=" stroke:none;fill-rule:evenodd;fill:rgb(49.411765%,80.392157%,73.333333%);fill-opacity:1;" d="M 298.007812 235.628906 L 314.855469 235.628906 L 314.855469 229.960938 L 298.007812 229.960938 Z M 298.007812 235.628906 "/>
<path style=" stroke:none;fill-rule:evenodd;fill:rgb(49.411765%,80.392157%,73.333333%);fill-opacity:1;" d="M 387.394531 301.960938 L 404.242188 301.960938 L 404.242188 296.292969 L 387.394531 296.292969 Z M 387.394531 301.960938 "/>
<path style=" stroke:none;fill-rule:evenodd;fill:rgb(49.411765%,80.392157%,73.333333%);fill-opacity:1;" d="M 380.84375 316.699219 L 397.691406 316.699219 L 397.691406 311.03125 L 380.84375 311.03125 Z M 380.84375 316.699219 "/>
<path style=" stroke:none;fill-rule:evenodd;fill:rgb(49.411765%,80.392157%,73.333333%);fill-opacity:1;" d="M 405.648438 294.589844 L 422.496094 294.589844 L 422.496094 288.921875 L 405.648438 288.921875 Z M 405.648438 294.589844 "/>
<path style=" stroke:none;fill-rule:evenodd;fill:rgb(49.411765%,80.392157%,73.333333%);fill-opacity:1;" d="M 393.949219 243 L 410.796875 243 L 410.796875 237.332031 L 393.949219 237.332031 Z M 393.949219 243 "/>
<path style=" stroke:none;fill-rule:evenodd;fill:rgb(49.411765%,80.392157%,73.333333%);fill-opacity:1;" d="M 444.023438 265.109375 L 460.871094 265.109375 L 460.871094 259.441406 L 444.023438 259.441406 Z M 444.023438 265.109375 "/>
<path style=" stroke:none;fill-rule:evenodd;fill:rgb(49.411765%,80.392157%,73.333333%);fill-opacity:1;" d="M 160.882812 213.519531 L 177.730469 213.519531 L 177.730469 207.851562 L 160.882812 207.851562 Z M 160.882812 213.519531 "/>
<path style=" stroke:none;fill-rule:evenodd;fill:rgb(49.411765%,80.392157%,73.333333%);fill-opacity:1;" d="M 407.050781 309.332031 L 423.898438 309.332031 L 423.898438 303.664062 L 407.050781 303.664062 Z M 407.050781 309.332031 "/>
<path style=" stroke:none;fill-rule:evenodd;fill:rgb(49.411765%,80.392157%,73.333333%);fill-opacity:1;" d="M 411.730469 316.699219 L 428.578125 316.699219 L 428.578125 311.03125 L 411.730469 311.03125 Z M 411.730469 316.699219 "/>
<path style=" stroke:none;fill-rule:evenodd;fill:rgb(49.411765%,80.392157%,73.333333%);fill-opacity:1;" d="M 391.609375 331.441406 L 408.457031 331.441406 L 408.457031 325.773438 L 391.609375 325.773438 Z M 391.609375 331.441406 "/>
<path style=" stroke:none;fill-rule:evenodd;fill:rgb(49.411765%,80.392157%,73.333333%);fill-opacity:1;" d="M 321.40625 272.480469 L 338.253906 272.480469 L 338.253906 266.8125 L 321.40625 266.8125 Z M 321.40625 272.480469 "/>
<path style=" stroke:none;fill-rule:evenodd;fill:rgb(49.411765%,80.392157%,73.333333%);fill-opacity:1;" d="M 327.960938 279.851562 L 344.808594 279.851562 L 344.808594 274.183594 L 327.960938 274.183594 Z M 327.960938 279.851562 "/>
<path style=" stroke:none;fill-rule:evenodd;fill:rgb(49.411765%,80.392157%,73.333333%);fill-opacity:1;" d="M 282.5625 213.519531 L 299.410156 213.519531 L 299.410156 207.851562 L 282.5625 207.851562 Z M 282.5625 213.519531 "/>
<path style=" stroke:none;fill-rule:evenodd;fill:rgb(49.411765%,80.392157%,73.333333%);fill-opacity:1;" d="M 385.523438 338.8125 L 402.371094 338.8125 L 402.371094 333.144531 L 385.523438 333.144531 Z M 385.523438 338.8125 "/>
<path style=" stroke:none;fill-rule:evenodd;fill:rgb(49.411765%,80.392157%,73.333333%);fill-opacity:1;" d="M 449.640625 243 L 466.488281 243 L 466.488281 237.332031 L 449.640625 237.332031 Z M 449.640625 243 "/>
<path style=" stroke:none;fill-rule:evenodd;fill:rgb(49.411765%,80.392157%,73.333333%);fill-opacity:1;" d="M 403.777344 324.070312 L 420.625 324.070312 L 420.625 318.402344 L 403.777344 318.402344 Z M 403.777344 324.070312 "/>
<path style=" stroke:none;fill-rule:evenodd;fill:rgb(49.411765%,80.392157%,73.333333%);fill-opacity:1;" d="M 409.390625 346.179688 L 426.238281 346.179688 L 426.238281 340.511719 L 409.390625 340.511719 Z M 409.390625 346.179688 "/>
<g clip-path="url(#clip2)" clip-rule="nonzero">
<path style="fill:none;stroke-width:0.75;stroke-linecap:round;stroke-linejoin:round;stroke:rgb(74.509804%,74.509804%,74.509804%);stroke-opacity:1;stroke-miterlimit:10;" d="M 108 207 L 576 207 "/>
</g>
</g>
</svg>
