<?xml version="1.0" encoding="UTF-8"?>
<svg xmlns="http://www.w3.org/2000/svg" xmlns:xlink="http://www.w3.org/1999/xlink" width="684pt" height="432pt" viewBox="0 0 684 432" version="1.1">
<defs>
<clipPath id="clip1">
  <path d="M 561 207 L 576 207 L 576 214 L 561 214 Z M 561 207 "/>
</clipPath>
<clipPath id="clip2">
  <path d="M 108 206 L 576 206 L 576 208 L 108 208 Z M 108 206 "/>
</clipPath>
</defs>
<g id="surface825">
<path style=" stroke:none;fill-rule:evenodd;fill:rgb(74.509804%,74.509804%,74.509804%);fill-opacity:1;" d="M 574.460938 56.347656 L 574.460938 57.601562 L 574.03125 57.601562 L 574.03125 56.347656 L 572.789062 56.347656 L 572.789062 55.917969 L 574.03125 55.917969 L 574.03125 54.664062 L 574.460938 54.664062 L 574.460938 55.917969 L 575.703125 55.917969 L 575.703125 56.347656 Z M 574.460938 56.347656 "/>
<path style=" stroke:none;fill-rule:evenodd;fill:rgb(74.509804%,74.509804%,74.509804%);fill-opacity:1;" d="M 574.460938 358.21875 L 574.460938 359.472656 L 574.03125 359.472656 L 574.03125 358.21875 L 572.789062 358.21875 L 572.789062 357.789062 L 574.03125 357.789062 L 574.03125 356.539062 L 574.460938 356.539062 L 574.460938 357.789062 L 575.703125 357.789062 L 575.703125 358.21875 Z M 574.460938 358.21875 "/>
<path style=" stroke:none;fill-rule:evenodd;fill:rgb(49.411765%,80.392157%,73.333333%);fill-opacity:1;" d="M 353.230469 206.148438 L 370.078125 206.148438 L 370.078125 200.480469 L 353.230469 200.480469 Z M 353.230469 206.148438 "/>
<path style=" stroke:none;fill-rule:evenodd;fill:rgb(49.411765%,80.392157%,73.333333%);fill-opacity:1;" d="M 371.484375 198.78125 L 388.332031 198.78125 L 388.332031 193.113281 L 371.484375 193.113281 Z M 371.484375 198.78125 "/>
<path style=" stroke:none;fill-rule:evenodd;fill:rgb(49.411765%,80.392157%,73.333333%);fill-opacity:1;" d="M 426.707031 206.148438 L 443.554688 206.148438 L 443.554688 200.480469 L 426.707031 200.480469 Z M 426.707031 206.148438 "/>
<path style=" stroke:none;fill-rule:evenodd;fill:rgb(49.411765%,80.392157%,73.333333%);fill-opacity:1;" d="M 287.242188 206.148438 L 304.089844 206.148438 L 304.089844 200.480469 L 287.242188 200.480469 Z M 287.242188 206.148438 "/>
<path style=" stroke:none;fill-rule:evenodd;fill:rgb(49.411765%,80.392157%,73.333333%);fill-opacity:1;" d="M 160.882812 206.148438 L 177.730469 206.148438 L 177.730469 200.480469 L 160.882812 200.480469 Z M 160.882812 206.148438 "/>
<path style=" stroke:none;fill-rule:evenodd;fill:rgb(49.411765%,80.392157%,73.333333%);fill-opacity:1;" d="M 387.863281 206.148438 L 404.710938 206.148438 L 404.710938 200.480469 L 387.863281 200.480469 Z M 387.863281 206.148438 "/>
<path style=" stroke:none;fill-rule:evenodd;fill:rgb(49.411765%,80.392157%,73.333333%);fill-opacity:1;" d="M 449.640625 198.78125 L 466.488281 198.78125 L 466.488281 193.113281 L 449.640625 193.113281 Z M 449.640625 198.78125 "/>
<path style=" stroke:none;fill-rule:evenodd;fill:rgb(49.411765%,80.392157%,73.333333%);fill-opacity:1;" d="M 319.535156 206.148438 L 336.382812 206.148438 L 336.382812 200.480469 L 319.535156 200.480469 Z M 319.535156 206.148438 "/>
<path style=" stroke:none;fill-rule:evenodd;fill:rgb(49.411765%,80.392157%,73.333333%);fill-opacity:1;" d="M 330.769531 198.78125 L 347.617188 198.78125 L 347.617188 193.113281 L 330.769531 193.113281 Z M 330.769531 198.78125 "/>
<path style=" stroke:none;fill-rule:evenodd;fill:rgb(49.411765%,80.392157%,73.333333%);fill-opacity:1;" d="M 354.636719 191.410156 L 371.484375 191.410156 L 371.484375 185.742188 L 354.636719 185.742188 Z M 354.636719 191.410156 "/>
<path style=" stroke:none;fill-rule:evenodd;fill:rgb(49.411765%,80.392157%,73.333333%);fill-opacity:1;" d="M 382.714844 191.410156 L 399.5625 191.410156 L 399.5625 185.742188 L 382.714844 185.742188 Z M 382.714844 191.410156 "/>
<path style=" stroke:none;fill-rule:evenodd;fill:rgb(49.411765%,80.392157%,73.333333%);fill-opacity:1;" d="M 336.851562 184.039062 L 353.699219 184.039062 L 353.699219 178.371094 L 336.851562 178.371094 Z M 336.851562 184.039062 "/>
<path style=" stroke:none;fill-rule:evenodd;fill:rgb(49.411765%,80.392157%,73.333333%);fill-opacity:1;" d="M 403.777344 198.78125 L 420.625 198.78125 L 420.625 193.113281 L 403.777344 193.113281 Z M 403.777344 198.78125 "/>
<path style=" stroke:none;fill-rule:evenodd;fill:rgb(49.411765%,80.392157%,73.333333%);fill-opacity:1;" d="M 371.953125 184.039062 L 388.800781 184.039062 L 388.800781 178.371094 L 371.953125 178.371094 Z M 371.953125 184.039062 "/>
<path style=" stroke:none;fill-rule:evenodd;fill:rgb(49.411765%,80.392157%,73.333333%);fill-opacity:1;" d="M 372.421875 176.667969 L 389.269531 176.667969 L 389.269531 171 L 372.421875 171 Z M 372.421875 176.667969 "/>
<path style=" stroke:none;fill-rule:evenodd;fill:rgb(49.411765%,80.392157%,73.333333%);fill-opacity:1;" d="M 340.597656 176.667969 L 357.445312 176.667969 L 357.445312 171 L 340.597656 171 Z M 340.597656 176.667969 "/>
<path style=" stroke:none;fill-rule:evenodd;fill:rgb(49.411765%,80.392157%,73.333333%);fill-opacity:1;" d="M 473.976562 206.148438 L 490.824219 206.148438 L 490.824219 200.480469 L 473.976562 200.480469 Z M 473.976562 206.148438 "/>
<path style=" stroke:none;fill-rule:evenodd;fill:rgb(49.411765%,80.392157%,73.333333%);fill-opacity:1;" d="M 375.226562 169.300781 L 392.074219 169.300781 L 392.074219 163.632812 L 375.226562 163.632812 Z M 375.226562 169.300781 "/>
<path style=" stroke:none;fill-rule:evenodd;fill:rgb(49.411765%,80.392157%,73.333333%);fill-opacity:1;" d="M 327.960938 191.410156 L 344.808594 191.410156 L 344.808594 185.742188 L 327.960938 185.742188 Z M 327.960938 191.410156 "/>
<path style=" stroke:none;fill-rule:evenodd;fill:rgb(49.411765%,80.392157%,73.333333%);fill-opacity:1;" d="M 363.527344 161.929688 L 380.375 161.929688 L 380.375 156.261719 L 363.527344 156.261719 Z M 363.527344 161.929688 "/>
<path style=" stroke:none;fill-rule:evenodd;fill:rgb(49.411765%,80.392157%,73.333333%);fill-opacity:1;" d="M 355.570312 154.558594 L 372.417969 154.558594 L 372.417969 148.890625 L 355.570312 148.890625 Z M 355.570312 154.558594 "/>
<path style=" stroke:none;fill-rule:evenodd;fill:rgb(49.411765%,80.392157%,73.333333%);fill-opacity:1;" d="M 366.804688 147.1875 L 383.652344 147.1875 L 383.652344 141.519531 L 366.804688 141.519531 Z M 366.804688 147.1875 "/>
<path style=" stroke:none;fill-rule:evenodd;fill:rgb(49.411765%,80.392157%,73.333333%);fill-opacity:1;" d="M 383.183594 154.558594 L 400.03125 154.558594 L 400.03125 148.890625 L 383.183594 148.890625 Z M 383.183594 154.558594 "/>
<path style=" stroke:none;fill-rule:evenodd;fill:rgb(49.411765%,80.392157%,73.333333%);fill-opacity:1;" d="M 378.503906 139.820312 L 395.351562 139.820312 L 395.351562 134.152344 L 378.503906 134.152344 Z M 378.503906 139.820312 "/>
<path style=" stroke:none;fill-rule:evenodd;fill:rgb(49.411765%,80.392157%,73.333333%);fill-opacity:1;" d="M 368.207031 132.449219 L 385.054688 132.449219 L 385.054688 126.78125 L 368.207031 126.78125 Z M 368.207031 132.449219 "/>
<path style=" stroke:none;fill-rule:evenodd;fill:rgb(49.411765%,80.392157%,73.333333%);fill-opacity:1;" d="M 321.40625 169.300781 L 338.253906 169.300781 L 338.253906 163.632812 L 321.40625 163.632812 Z M 321.40625 169.300781 "/>
<path style=" stroke:none;fill-rule:evenodd;fill:rgb(49.411765%,80.392157%,73.333333%);fill-opacity:1;" d="M 282.5625 198.78125 L 299.410156 198.78125 L 299.410156 193.113281 L 282.5625 193.113281 Z M 282.5625 198.78125 "/>
<path style=" stroke:none;fill-rule:evenodd;fill:rgb(49.411765%,80.392157%,73.333333%);fill-opacity:1;" d="M 380.84375 125.078125 L 397.691406 125.078125 L 397.691406 119.410156 L 380.84375 119.410156 Z M 380.84375 125.078125 "/>
<path style=" stroke:none;fill-rule:evenodd;fill:rgb(49.411765%,80.392157%,73.333333%);fill-opacity:1;" d="M 356.507812 117.707031 L 373.355469 117.707031 L 373.355469 112.039062 L 356.507812 112.039062 Z M 356.507812 117.707031 "/>
<path style=" stroke:none;fill-rule:evenodd;fill:rgb(49.411765%,80.392157%,73.333333%);fill-opacity:1;" d="M 409.390625 191.410156 L 426.238281 191.410156 L 426.238281 185.742188 L 409.390625 185.742188 Z M 409.390625 191.410156 "/>
<path style=" stroke:none;fill-rule:evenodd;fill:rgb(49.411765%,80.392157%,73.333333%);fill-opacity:1;" d="M 352.296875 125.078125 L 369.144531 125.078125 L 369.144531 119.410156 L 352.296875 119.410156 Z M 352.296875 125.078125 "/>
<path style=" stroke:none;fill-rule:evenodd;fill:rgb(49.411765%,80.392157%,73.333333%);fill-opacity:1;" d="M 352.765625 110.339844 L 369.613281 110.339844 L 369.613281 104.671875 L 352.765625 104.671875 Z M 352.765625 110.339844 "/>
<path style=" stroke:none;fill-rule:evenodd;fill:rgb(49.411765%,80.392157%,73.333333%);fill-opacity:1;" d="M 324.214844 161.929688 L 341.0625 161.929688 L 341.0625 156.261719 L 324.214844 156.261719 Z M 324.214844 161.929688 "/>
<path style=" stroke:none;fill-rule:evenodd;fill:rgb(49.411765%,80.392157%,73.333333%);fill-opacity:1;" d="M 348.085938 169.300781 L 364.933594 169.300781 L 364.933594 163.632812 L 348.085938 163.632812 Z M 348.085938 169.300781 "/>
<path style=" stroke:none;fill-rule:evenodd;fill:rgb(49.411765%,80.392157%,73.333333%);fill-opacity:1;" d="M 343.871094 139.820312 L 360.71875 139.820312 L 360.71875 134.152344 L 343.871094 134.152344 Z M 343.871094 139.820312 "/>
<path style=" stroke:none;fill-rule:evenodd;fill:rgb(49.411765%,80.392157%,73.333333%);fill-opacity:1;" d="M 419.21875 184.039062 L 436.066406 184.039062 L 436.066406 178.371094 L 419.21875 178.371094 Z M 419.21875 184.039062 "/>
<path style=" stroke:none;fill-rule:evenodd;fill:rgb(49.411765%,80.392157%,73.333333%);fill-opacity:1;" d="M 374.761719 102.96875 L 391.609375 102.96875 L 391.609375 97.300781 L 374.761719 97.300781 Z M 374.761719 102.96875 "/>
<path style=" stroke:none;fill-rule:evenodd;fill:rgb(49.411765%,80.392157%,73.333333%);fill-opacity:1;" d="M 400.03125 176.667969 L 416.878906 176.667969 L 416.878906 171 L 400.03125 171 Z M 400.03125 176.667969 "/>
<path style=" stroke:none;fill-rule:evenodd;fill:rgb(49.411765%,80.392157%,73.333333%);fill-opacity:1;" d="M 450.109375 191.410156 L 466.957031 191.410156 L 466.957031 185.742188 L 450.109375 185.742188 Z M 450.109375 191.410156 "/>
<path style=" stroke:none;fill-rule:evenodd;fill:rgb(49.411765%,80.392157%,73.333333%);fill-opacity:1;" d="M 313.453125 176.667969 L 330.300781 176.667969 L 330.300781 171 L 313.453125 171 Z M 313.453125 176.667969 "/>
<path style=" stroke:none;fill-rule:evenodd;fill:rgb(49.411765%,80.392157%,73.333333%);fill-opacity:1;" d="M 348.550781 95.597656 L 365.398438 95.597656 L 365.398438 89.929688 L 348.550781 89.929688 Z M 348.550781 95.597656 "/>
<path style=" stroke:none;fill-rule:evenodd;fill:rgb(49.411765%,80.392157%,73.333333%);fill-opacity:1;" d="M 481.464844 198.78125 L 498.3125 198.78125 L 498.3125 193.113281 L 481.464844 193.113281 Z M 481.464844 198.78125 "/>
<path style=" stroke:none;fill-rule:evenodd;fill:rgb(49.411765%,80.392157%,73.333333%);fill-opacity:1;" d="M 353.699219 88.226562 L 370.546875 88.226562 L 370.546875 82.558594 L 353.699219 82.558594 Z M 353.699219 88.226562 "/>
<path style=" stroke:none;fill-rule:evenodd;fill:rgb(49.411765%,80.392157%,73.333333%);fill-opacity:1;" d="M 535.753906 206.148438 L 552.601562 206.148438 L 552.601562 200.480469 L 535.753906 200.480469 Z M 535.753906 206.148438 "/>
<path style=" stroke:none;fill-rule:evenodd;fill:rgb(49.411765%,80.392157%,73.333333%);fill-opacity:1;" d="M 332.640625 147.1875 L 349.488281 147.1875 L 349.488281 141.519531 L 332.640625 141.519531 Z M 332.640625 147.1875 "/>
<path style=" stroke:none;fill-rule:evenodd;fill:rgb(49.411765%,80.392157%,73.333333%);fill-opacity:1;" d="M 368.675781 80.859375 L 385.523438 80.859375 L 385.523438 75.191406 L 368.675781 75.191406 Z M 368.675781 80.859375 "/>
<path style=" stroke:none;fill-rule:evenodd;fill:rgb(49.411765%,80.392157%,73.333333%);fill-opacity:1;" d="M 342.46875 102.96875 L 359.316406 102.96875 L 359.316406 97.300781 L 342.46875 97.300781 Z M 342.46875 102.96875 "/>
<path style=" stroke:none;fill-rule:evenodd;fill:rgb(49.411765%,80.392157%,73.333333%);fill-opacity:1;" d="M 381.78125 110.339844 L 398.628906 110.339844 L 398.628906 104.671875 L 381.78125 104.671875 Z M 381.78125 110.339844 "/>
<path style=" stroke:none;fill-rule:evenodd;fill:rgb(49.411765%,80.392157%,73.333333%);fill-opacity:1;" d="M 303.15625 184.039062 L 320.003906 184.039062 L 320.003906 178.371094 L 303.15625 178.371094 Z M 303.15625 184.039062 "/>
<path style=" stroke:none;fill-rule:evenodd;fill:rgb(49.411765%,80.392157%,73.333333%);fill-opacity:1;" d="M 375.695312 95.597656 L 392.542969 95.597656 L 392.542969 89.929688 L 375.695312 89.929688 Z M 375.695312 95.597656 "/>
<path style=" stroke:none;fill-rule:evenodd;fill:rgb(49.411765%,80.392157%,73.333333%);fill-opacity:1;" d="M 367.273438 73.488281 L 384.121094 73.488281 L 384.121094 67.820312 L 367.273438 67.820312 Z M 367.273438 73.488281 "/>
<path style=" stroke:none;fill-rule:evenodd;fill:rgb(49.411765%,80.392157%,73.333333%);fill-opacity:1;" d="M 350.890625 66.117188 L 367.738281 66.117188 L 367.738281 60.449219 L 350.890625 60.449219 Z M 350.890625 66.117188 "/>
<path style=" stroke:none;fill-rule:evenodd;fill:rgb(49.411765%,80.392157%,73.333333%);fill-opacity:1;" d="M 398.160156 161.929688 L 415.007812 161.929688 L 415.007812 156.261719 L 398.160156 156.261719 Z M 398.160156 161.929688 "/>
<path style=" stroke:none;fill-rule:evenodd;fill:rgb(49.411765%,80.392157%,73.333333%);fill-opacity:1;" d="M 337.789062 132.449219 L 354.636719 132.449219 L 354.636719 126.78125 L 337.789062 126.78125 Z M 337.789062 132.449219 "/>
<path style=" stroke:none;fill-rule:evenodd;fill:rgb(49.411765%,80.392157%,73.333333%);fill-opacity:1;" d="M 421.558594 169.300781 L 438.40625 169.300781 L 438.40625 163.632812 L 421.558594 163.632812 Z M 421.558594 169.300781 "/>
<path style=" stroke:none;fill-rule:evenodd;fill:rgb(49.411765%,80.392157%,73.333333%);fill-opacity:1;" d="M 444.023438 176.667969 L 460.871094 176.667969 L 460.871094 171 L 444.023438 171 Z M 444.023438 176.667969 "/>
<path style=" stroke:none;fill-rule:evenodd;fill:rgb(49.411765%,80.392157%,73.333333%);fill-opacity:1;" d="M 439.34375 161.929688 L 456.191406 161.929688 L 456.191406 156.261719 L 439.34375 156.261719 Z M 439.34375 161.929688 "/>
<path style=" stroke:none;fill-rule:evenodd;fill:rgb(49.411765%,80.392157%,73.333333%);fill-opacity:1;" d="M 385.523438 117.707031 L 402.371094 117.707031 L 402.371094 112.039062 L 385.523438 112.039062 Z M 385.523438 117.707031 "/>
<path style=" stroke:none;fill-rule:evenodd;fill:rgb(49.411765%,80.392157%,73.333333%);fill-opacity:1;" d="M 331.703125 80.859375 L 348.550781 80.859375 L 348.550781 75.191406 L 331.703125 75.191406 Z M 331.703125 80.859375 "/>
<path style=" stroke:none;fill-rule:evenodd;fill:rgb(49.411765%,80.392157%,73.333333%);fill-opacity:1;" d="M 407.050781 147.1875 L 423.898438 147.1875 L 423.898438 141.519531 L 407.050781 141.519531 Z M 407.050781 147.1875 "/>
<path style=" stroke:none;fill-rule:evenodd;fill:rgb(49.411765%,80.392157%,73.333333%);fill-opacity:1;" d="M 539.496094 198.78125 L 556.34375 198.78125 L 556.34375 193.113281 L 539.496094 193.113281 Z M 539.496094 198.78125 "/>
<path style=" stroke:none;fill-rule:evenodd;fill:rgb(49.411765%,80.392157%,73.333333%);fill-opacity:1;" d="M 339.191406 73.488281 L 356.039062 73.488281 L 356.039062 67.820312 L 339.191406 67.820312 Z M 339.191406 73.488281 "/>
<path style=" stroke:none;fill-rule:evenodd;fill:rgb(49.411765%,80.392157%,73.333333%);fill-opacity:1;" d="M 410.796875 154.558594 L 427.644531 154.558594 L 427.644531 148.890625 L 410.796875 148.890625 Z M 410.796875 154.558594 "/>
<path style=" stroke:none;fill-rule:evenodd;fill:rgb(49.411765%,80.392157%,73.333333%);fill-opacity:1;" d="M 425.773438 139.820312 L 442.621094 139.820312 L 442.621094 134.152344 L 425.773438 134.152344 Z M 425.773438 139.820312 "/>
<path style=" stroke:none;fill-rule:evenodd;fill:rgb(49.411765%,80.392157%,73.333333%);fill-opacity:1;" d="M 411.730469 132.449219 L 428.578125 132.449219 L 428.578125 126.78125 L 411.730469 126.78125 Z M 411.730469 132.449219 "/>
<path style=" stroke:none;fill-rule:evenodd;fill:rgb(49.411765%,80.392157%,73.333333%);fill-opacity:1;" d="M 298.007812 191.410156 L 314.855469 191.410156 L 314.855469 185.742188 L 298.007812 185.742188 Z M 298.007812 191.410156 "/>
<path style=" stroke:none;fill-rule:evenodd;fill:rgb(49.411765%,80.392157%,73.333333%);fill-opacity:1;" d="M 405.648438 102.96875 L 422.496094 102.96875 L 422.496094 97.300781 L 405.648438 97.300781 Z M 405.648438 102.96875 "/>
<path style=" stroke:none;fill-rule:evenodd;fill:rgb(49.411765%,80.392157%,73.333333%);fill-opacity:1;" d="M 392.074219 88.226562 L 408.921875 88.226562 L 408.921875 82.558594 L 392.074219 82.558594 Z M 392.074219 88.226562 "/>
<path style=" stroke:none;fill-rule:evenodd;fill:rgb(49.411765%,80.392157%,73.333333%);fill-opacity:1;" d="M 476.316406 184.039062 L 493.164062 184.039062 L 493.164062 178.371094 L 476.316406 178.371094 Z M 476.316406 184.039062 "/>
<path style=" stroke:none;fill-rule:evenodd;fill:rgb(49.411765%,80.392157%,73.333333%);fill-opacity:1;" d="M 399.5625 80.859375 L 416.410156 80.859375 L 416.410156 75.191406 L 399.5625 75.191406 Z M 399.5625 80.859375 "/>
<path style=" stroke:none;fill-rule:evenodd;fill:rgb(49.411765%,80.392157%,73.333333%);fill-opacity:1;" d="M 213.769531 206.148438 L 230.617188 206.148438 L 230.617188 200.480469 L 213.769531 200.480469 Z M 213.769531 206.148438 "/>
<path style=" stroke:none;fill-rule:evenodd;fill:rgb(49.411765%,80.392157%,73.333333%);fill-opacity:1;" d="M 396.757812 73.488281 L 413.605469 73.488281 L 413.605469 67.820312 L 396.757812 67.820312 Z M 396.757812 73.488281 "/>
<path style=" stroke:none;fill-rule:evenodd;fill:rgb(49.411765%,80.392157%,73.333333%);fill-opacity:1;" d="M 387.394531 66.117188 L 404.242188 66.117188 L 404.242188 60.449219 L 387.394531 60.449219 Z M 387.394531 66.117188 "/>
<path style=" stroke:none;fill-rule:evenodd;fill:rgb(49.411765%,80.392157%,73.333333%);fill-opacity:1;" d="M 418.753906 125.078125 L 435.601562 125.078125 L 435.601562 119.410156 L 418.753906 119.410156 Z M 418.753906 125.078125 "/>
<path style=" stroke:none;fill-rule:evenodd;fill:rgb(49.411765%,80.392157%,73.333333%);fill-opacity:1;" d="M 318.601562 154.558594 L 335.449219 154.558594 L 335.449219 148.890625 L 318.601562 148.890625 Z M 318.601562 154.558594 "/>
<path style=" stroke:none;fill-rule:evenodd;fill:rgb(21.568627%,65.490196%,85.882353%);fill-opacity:1;" d="M 295.667969 213.519531 L 312.515625 213.519531 L 312.515625 207.851562 L 295.667969 207.851562 Z M 295.667969 213.519531 "/>
<path style=" stroke:none;fill-rule:evenodd;fill:rgb(21.568627%,65.490196%,85.882353%);fill-opacity:1;" d="M 290.519531 220.890625 L 307.367188 220.890625 L 307.367188 215.222656 L 290.519531 215.222656 Z M 290.519531 220.890625 "/>
<path style=" stroke:none;fill-rule:evenodd;fill:rgb(21.568627%,65.490196%,85.882353%);fill-opacity:1;" d="M 294.265625 228.261719 L 311.113281 228.261719 L 311.113281 222.59375 L 294.265625 222.59375 Z M 294.265625 228.261719 "/>
<path style=" stroke:none;fill-rule:evenodd;fill:rgb(21.568627%,65.490196%,85.882353%);fill-opacity:1;" d="M 310.644531 235.628906 L 327.492188 235.628906 L 327.492188 229.960938 L 310.644531 229.960938 Z M 310.644531 235.628906 "/>
<path style=" stroke:none;fill-rule:evenodd;fill:rgb(21.568627%,65.490196%,85.882353%);fill-opacity:1;" d="M 298.945312 243 L 315.792969 243 L 315.792969 237.332031 L 298.945312 237.332031 Z M 298.945312 243 "/>
<path style=" stroke:none;fill-rule:evenodd;fill:rgb(21.568627%,65.490196%,85.882353%);fill-opacity:1;" d="M 276.011719 235.628906 L 292.859375 235.628906 L 292.859375 229.960938 L 276.011719 229.960938 Z M 276.011719 235.628906 "/>
<path style=" stroke:none;fill-rule:evenodd;fill:rgb(21.568627%,65.490196%,85.882353%);fill-opacity:1;" d="M 287.242188 250.371094 L 304.089844 250.371094 L 304.089844 244.703125 L 287.242188 244.703125 Z M 287.242188 250.371094 "/>
<path style=" stroke:none;fill-rule:evenodd;fill:rgb(21.568627%,65.490196%,85.882353%);fill-opacity:1;" d="M 243.253906 213.519531 L 260.101562 213.519531 L 260.101562 207.851562 L 243.253906 207.851562 Z M 243.253906 213.519531 "/>
<path style=" stroke:none;fill-rule:evenodd;fill:rgb(21.568627%,65.490196%,85.882353%);fill-opacity:1;" d="M 341.53125 213.519531 L 358.378906 213.519531 L 358.378906 207.851562 L 341.53125 207.851562 Z M 341.53125 213.519531 "/>
<path style=" stroke:none;fill-rule:evenodd;fill:rgb(21.568627%,65.490196%,85.882353%);fill-opacity:1;" d="M 336.382812 220.890625 L 353.230469 220.890625 L 353.230469 215.222656 L 336.382812 215.222656 Z M 336.382812 220.890625 "/>
<path style=" stroke:none;fill-rule:evenodd;fill:rgb(21.568627%,65.490196%,85.882353%);fill-opacity:1;" d="M 317.664062 250.371094 L 334.511719 250.371094 L 334.511719 244.703125 L 317.664062 244.703125 Z M 317.664062 250.371094 "/>
<path style=" stroke:none;fill-rule:evenodd;fill:rgb(21.568627%,65.490196%,85.882353%);fill-opacity:1;" d="M 399.097656 213.519531 L 415.945312 213.519531 L 415.945312 207.851562 L 399.097656 207.851562 Z M 399.097656 213.519531 "/>
<path style=" stroke:none;fill-rule:evenodd;fill:rgb(21.568627%,65.490196%,85.882353%);fill-opacity:1;" d="M 154.332031 213.519531 L 171.179688 213.519531 L 171.179688 207.851562 L 154.332031 207.851562 Z M 154.332031 213.519531 "/>
<path style=" stroke:none;fill-rule:evenodd;fill:rgb(21.568627%,65.490196%,85.882353%);fill-opacity:1;" d="M 321.875 228.261719 L 338.722656 228.261719 L 338.722656 222.59375 L 321.875 222.59375 Z M 321.875 228.261719 "/>
<g clip-path="url(#clip1)" clip-rule="nonzero">
<path style=" stroke:none;fill-rule:evenodd;fill:rgb(21.568627%,65.490196%,85.882353%);fill-opacity:1;" d="M 561.492188 213.519531 L 578.339844 213.519531 L 578.339844 207.851562 L 561.492188 207.851562 Z M 561.492188 213.519531 "/>
</g>
<path style=" stroke:none;fill-rule:evenodd;fill:rgb(21.568627%,65.490196%,85.882353%);fill-opacity:1;" d="M 373.824219 220.890625 L 390.671875 220.890625 L 390.671875 215.222656 L 373.824219 215.222656 Z M 373.824219 220.890625 "/>
<path style=" stroke:none;fill-rule:evenodd;fill:rgb(21.568627%,65.490196%,85.882353%);fill-opacity:1;" d="M 312.984375 257.738281 L 329.832031 257.738281 L 329.832031 252.070312 L 312.984375 252.070312 Z M 312.984375 257.738281 "/>
<path style=" stroke:none;fill-rule:evenodd;fill:rgb(21.568627%,65.490196%,85.882353%);fill-opacity:1;" d="M 337.320312 235.628906 L 354.167969 235.628906 L 354.167969 229.960938 L 337.320312 229.960938 Z M 337.320312 235.628906 "/>
<path style=" stroke:none;fill-rule:evenodd;fill:rgb(21.568627%,65.490196%,85.882353%);fill-opacity:1;" d="M 304.558594 265.109375 L 321.40625 265.109375 L 321.40625 259.441406 L 304.558594 259.441406 Z M 304.558594 265.109375 "/>
<path style=" stroke:none;fill-rule:evenodd;fill:rgb(21.568627%,65.490196%,85.882353%);fill-opacity:1;" d="M 297.539062 272.480469 L 314.386719 272.480469 L 314.386719 266.8125 L 297.539062 266.8125 Z M 297.539062 272.480469 "/>
<path style=" stroke:none;fill-rule:evenodd;fill:rgb(21.568627%,65.490196%,85.882353%);fill-opacity:1;" d="M 345.277344 243 L 362.125 243 L 362.125 237.332031 L 345.277344 237.332031 Z M 345.277344 243 "/>
<path style=" stroke:none;fill-rule:evenodd;fill:rgb(21.568627%,65.490196%,85.882353%);fill-opacity:1;" d="M 331.234375 265.109375 L 348.082031 265.109375 L 348.082031 259.441406 L 331.234375 259.441406 Z M 331.234375 265.109375 "/>
<path style=" stroke:none;fill-rule:evenodd;fill:rgb(21.568627%,65.490196%,85.882353%);fill-opacity:1;" d="M 293.796875 279.851562 L 310.644531 279.851562 L 310.644531 274.183594 L 293.796875 274.183594 Z M 293.796875 279.851562 "/>
<path style=" stroke:none;fill-rule:evenodd;fill:rgb(21.568627%,65.490196%,85.882353%);fill-opacity:1;" d="M 315.792969 287.21875 L 332.640625 287.21875 L 332.640625 281.550781 L 315.792969 281.550781 Z M 315.792969 287.21875 "/>
<path style=" stroke:none;fill-rule:evenodd;fill:rgb(21.568627%,65.490196%,85.882353%);fill-opacity:1;" d="M 319.535156 294.589844 L 336.382812 294.589844 L 336.382812 288.921875 L 319.535156 288.921875 Z M 319.535156 294.589844 "/>
<path style=" stroke:none;fill-rule:evenodd;fill:rgb(21.568627%,65.490196%,85.882353%);fill-opacity:1;" d="M 343.871094 257.738281 L 360.71875 257.738281 L 360.71875 252.070312 L 343.871094 252.070312 Z M 343.871094 257.738281 "/>
<path style=" stroke:none;fill-rule:evenodd;fill:rgb(21.568627%,65.490196%,85.882353%);fill-opacity:1;" d="M 271.332031 243 L 288.179688 243 L 288.179688 237.332031 L 271.332031 237.332031 Z M 271.332031 243 "/>
<path style=" stroke:none;fill-rule:evenodd;fill:rgb(21.568627%,65.490196%,85.882353%);fill-opacity:1;" d="M 269.460938 257.738281 L 286.308594 257.738281 L 286.308594 252.070312 L 269.460938 252.070312 Z M 269.460938 257.738281 "/>
<path style=" stroke:none;fill-rule:evenodd;fill:rgb(21.568627%,65.490196%,85.882353%);fill-opacity:1;" d="M 374.761719 228.261719 L 391.609375 228.261719 L 391.609375 222.59375 L 374.761719 222.59375 Z M 374.761719 228.261719 "/>
<path style=" stroke:none;fill-rule:evenodd;fill:rgb(21.568627%,65.490196%,85.882353%);fill-opacity:1;" d="M 237.167969 220.890625 L 254.015625 220.890625 L 254.015625 215.222656 L 237.167969 215.222656 Z M 237.167969 220.890625 "/>
<path style=" stroke:none;fill-rule:evenodd;fill:rgb(21.568627%,65.490196%,85.882353%);fill-opacity:1;" d="M 213.769531 213.519531 L 230.617188 213.519531 L 230.617188 207.851562 L 213.769531 207.851562 Z M 213.769531 213.519531 "/>
<path style=" stroke:none;fill-rule:evenodd;fill:rgb(21.568627%,65.490196%,85.882353%);fill-opacity:1;" d="M 272.734375 265.109375 L 289.582031 265.109375 L 289.582031 259.441406 L 272.734375 259.441406 Z M 272.734375 265.109375 "/>
<path style=" stroke:none;fill-rule:evenodd;fill:rgb(21.568627%,65.490196%,85.882353%);fill-opacity:1;" d="M 253.546875 228.261719 L 270.394531 228.261719 L 270.394531 222.59375 L 253.546875 222.59375 Z M 253.546875 228.261719 "/>
<path style=" stroke:none;fill-rule:evenodd;fill:rgb(21.568627%,65.490196%,85.882353%);fill-opacity:1;" d="M 327.023438 272.480469 L 343.871094 272.480469 L 343.871094 266.8125 L 327.023438 266.8125 Z M 327.023438 272.480469 "/>
<path style=" stroke:none;fill-rule:evenodd;fill:rgb(21.568627%,65.490196%,85.882353%);fill-opacity:1;" d="M 142.632812 220.890625 L 159.480469 220.890625 L 159.480469 215.222656 L 142.632812 215.222656 Z M 142.632812 220.890625 "/>
<path style=" stroke:none;fill-rule:evenodd;fill:rgb(21.568627%,65.490196%,85.882353%);fill-opacity:1;" d="M 358.378906 250.371094 L 375.226562 250.371094 L 375.226562 244.703125 L 358.378906 244.703125 Z M 358.378906 250.371094 "/>
<path style=" stroke:none;fill-rule:evenodd;fill:rgb(21.568627%,65.490196%,85.882353%);fill-opacity:1;" d="M 288.648438 287.21875 L 305.496094 287.21875 L 305.496094 281.550781 L 288.648438 281.550781 Z M 288.648438 287.21875 "/>
<path style=" stroke:none;fill-rule:evenodd;fill:rgb(21.568627%,65.490196%,85.882353%);fill-opacity:1;" d="M 338.722656 279.851562 L 355.570312 279.851562 L 355.570312 274.183594 L 338.722656 274.183594 Z M 338.722656 279.851562 "/>
<path style=" stroke:none;fill-rule:evenodd;fill:rgb(21.568627%,65.490196%,85.882353%);fill-opacity:1;" d="M 323.746094 301.960938 L 340.59375 301.960938 L 340.59375 296.292969 L 323.746094 296.292969 Z M 323.746094 301.960938 "/>
<path style=" stroke:none;fill-rule:evenodd;fill:rgb(21.568627%,65.490196%,85.882353%);fill-opacity:1;" d="M 318.132812 309.332031 L 334.980469 309.332031 L 334.980469 303.664062 L 318.132812 303.664062 Z M 318.132812 309.332031 "/>
<path style=" stroke:none;fill-rule:evenodd;fill:rgb(21.568627%,65.490196%,85.882353%);fill-opacity:1;" d="M 317.195312 316.699219 L 334.042969 316.699219 L 334.042969 311.03125 L 317.195312 311.03125 Z M 317.195312 316.699219 "/>
<path style=" stroke:none;fill-rule:evenodd;fill:rgb(21.568627%,65.490196%,85.882353%);fill-opacity:1;" d="M 304.09375 324.070312 L 320.941406 324.070312 L 320.941406 318.402344 L 304.09375 318.402344 Z M 304.09375 324.070312 "/>
<path style=" stroke:none;fill-rule:evenodd;fill:rgb(21.568627%,65.490196%,85.882353%);fill-opacity:1;" d="M 361.65625 265.109375 L 378.503906 265.109375 L 378.503906 259.441406 L 361.65625 259.441406 Z M 361.65625 265.109375 "/>
<path style=" stroke:none;fill-rule:evenodd;fill:rgb(21.568627%,65.490196%,85.882353%);fill-opacity:1;" d="M 333.574219 324.070312 L 350.421875 324.070312 L 350.421875 318.402344 L 333.574219 318.402344 Z M 333.574219 324.070312 "/>
<path style=" stroke:none;fill-rule:evenodd;fill:rgb(21.568627%,65.490196%,85.882353%);fill-opacity:1;" d="M 303.625 331.441406 L 320.472656 331.441406 L 320.472656 325.773438 L 303.625 325.773438 Z M 303.625 331.441406 "/>
<path style=" stroke:none;fill-rule:evenodd;fill:rgb(21.568627%,65.490196%,85.882353%);fill-opacity:1;" d="M 275.542969 294.589844 L 292.390625 294.589844 L 292.390625 288.921875 L 275.542969 288.921875 Z M 275.542969 294.589844 "/>
<path style=" stroke:none;fill-rule:evenodd;fill:rgb(21.568627%,65.490196%,85.882353%);fill-opacity:1;" d="M 285.371094 301.960938 L 302.21875 301.960938 L 302.21875 296.292969 L 285.371094 296.292969 Z M 285.371094 301.960938 "/>
<path style=" stroke:none;fill-rule:evenodd;fill:rgb(21.568627%,65.490196%,85.882353%);fill-opacity:1;" d="M 326.089844 338.8125 L 342.9375 338.8125 L 342.9375 333.144531 L 326.089844 333.144531 Z M 326.089844 338.8125 "/>
<path style=" stroke:none;fill-rule:evenodd;fill:rgb(21.568627%,65.490196%,85.882353%);fill-opacity:1;" d="M 308.773438 346.179688 L 325.621094 346.179688 L 325.621094 340.511719 L 308.773438 340.511719 Z M 308.773438 346.179688 "/>
<path style=" stroke:none;fill-rule:evenodd;fill:rgb(21.568627%,65.490196%,85.882353%);fill-opacity:1;" d="M 340.597656 331.441406 L 357.445312 331.441406 L 357.445312 325.773438 L 340.597656 325.773438 Z M 340.597656 331.441406 "/>
<path style=" stroke:none;fill-rule:evenodd;fill:rgb(21.568627%,65.490196%,85.882353%);fill-opacity:1;" d="M 310.175781 353.550781 L 327.023438 353.550781 L 327.023438 347.882812 L 310.175781 347.882812 Z M 310.175781 353.550781 "/>
<path style=" stroke:none;fill-rule:evenodd;fill:rgb(21.568627%,65.490196%,85.882353%);fill-opacity:1;" d="M 258.226562 250.371094 L 275.074219 250.371094 L 275.074219 244.703125 L 258.226562 244.703125 Z M 258.226562 250.371094 "/>
<path style=" stroke:none;fill-rule:evenodd;fill:rgb(21.568627%,65.490196%,85.882353%);fill-opacity:1;" d="M 287.710938 309.332031 L 304.558594 309.332031 L 304.558594 303.664062 L 287.710938 303.664062 Z M 287.710938 309.332031 "/>
<path style=" stroke:none;fill-rule:evenodd;fill:rgb(21.568627%,65.490196%,85.882353%);fill-opacity:1;" d="M 381.3125 235.628906 L 398.160156 235.628906 L 398.160156 229.960938 L 381.3125 229.960938 Z M 381.3125 235.628906 "/>
<path style=" stroke:none;fill-rule:evenodd;fill:rgb(21.568627%,65.490196%,85.882353%);fill-opacity:1;" d="M 291.925781 338.8125 L 308.773438 338.8125 L 308.773438 333.144531 L 291.925781 333.144531 Z M 291.925781 338.8125 "/>
<path style=" stroke:none;fill-rule:evenodd;fill:rgb(21.568627%,65.490196%,85.882353%);fill-opacity:1;" d="M 384.121094 243 L 400.96875 243 L 400.96875 237.332031 L 384.121094 237.332031 Z M 384.121094 243 "/>
<path style=" stroke:none;fill-rule:evenodd;fill:rgb(21.568627%,65.490196%,85.882353%);fill-opacity:1;" d="M 345.742188 287.21875 L 362.589844 287.21875 L 362.589844 281.550781 L 345.742188 281.550781 Z M 345.742188 287.21875 "/>
<path style=" stroke:none;fill-rule:evenodd;fill:rgb(21.568627%,65.490196%,85.882353%);fill-opacity:1;" d="M 419.6875 220.890625 L 436.535156 220.890625 L 436.535156 215.222656 L 419.6875 215.222656 Z M 419.6875 220.890625 "/>
<path style=" stroke:none;fill-rule:evenodd;fill:rgb(21.568627%,65.490196%,85.882353%);fill-opacity:1;" d="M 241.378906 235.628906 L 258.226562 235.628906 L 258.226562 229.960938 L 241.378906 229.960938 Z M 241.378906 235.628906 "/>
<path style=" stroke:none;fill-rule:evenodd;fill:rgb(21.568627%,65.490196%,85.882353%);fill-opacity:1;" d="M 342.9375 346.179688 L 359.785156 346.179688 L 359.785156 340.511719 L 342.9375 340.511719 Z M 342.9375 346.179688 "/>
<path style=" stroke:none;fill-rule:evenodd;fill:rgb(21.568627%,65.490196%,85.882353%);fill-opacity:1;" d="M 337.789062 353.550781 L 354.636719 353.550781 L 354.636719 347.882812 L 337.789062 347.882812 Z M 337.789062 353.550781 "/>
<path style=" stroke:none;fill-rule:evenodd;fill:rgb(21.568627%,65.490196%,85.882353%);fill-opacity:1;" d="M 370.078125 213.519531 L 386.925781 213.519531 L 386.925781 207.851562 L 370.078125 207.851562 Z M 370.078125 213.519531 "/>
<path style=" stroke:none;fill-rule:evenodd;fill:rgb(21.568627%,65.490196%,85.882353%);fill-opacity:1;" d="M 281.160156 316.699219 L 298.007812 316.699219 L 298.007812 311.03125 L 281.160156 311.03125 Z M 281.160156 316.699219 "/>
<path style=" stroke:none;fill-rule:evenodd;fill:rgb(21.568627%,65.490196%,85.882353%);fill-opacity:1;" d="M 355.570312 272.480469 L 372.417969 272.480469 L 372.417969 266.8125 L 355.570312 266.8125 Z M 355.570312 272.480469 "/>
<path style=" stroke:none;fill-rule:evenodd;fill:rgb(21.568627%,65.490196%,85.882353%);fill-opacity:1;" d="M 348.550781 294.589844 L 365.398438 294.589844 L 365.398438 288.921875 L 348.550781 288.921875 Z M 348.550781 294.589844 "/>
<path style=" stroke:none;fill-rule:evenodd;fill:rgb(21.568627%,65.490196%,85.882353%);fill-opacity:1;" d="M 369.613281 279.851562 L 386.460938 279.851562 L 386.460938 274.183594 L 369.613281 274.183594 Z M 369.613281 279.851562 "/>
<path style=" stroke:none;fill-rule:evenodd;fill:rgb(21.568627%,65.490196%,85.882353%);fill-opacity:1;" d="M 280.222656 346.179688 L 297.070312 346.179688 L 297.070312 340.511719 L 280.222656 340.511719 Z M 280.222656 346.179688 "/>
<path style=" stroke:none;fill-rule:evenodd;fill:rgb(21.568627%,65.490196%,85.882353%);fill-opacity:1;" d="M 159.949219 228.261719 L 176.796875 228.261719 L 176.796875 222.59375 L 159.949219 222.59375 Z M 159.949219 228.261719 "/>
<path style=" stroke:none;fill-rule:evenodd;fill:rgb(21.568627%,65.490196%,85.882353%);fill-opacity:1;" d="M 281.628906 353.550781 L 298.476562 353.550781 L 298.476562 347.882812 L 281.628906 347.882812 Z M 281.628906 353.550781 "/>
<path style=" stroke:none;fill-rule:evenodd;fill:rgb(21.568627%,65.490196%,85.882353%);fill-opacity:1;" d="M 160.882812 235.628906 L 177.730469 235.628906 L 177.730469 229.960938 L 160.882812 229.960938 Z M 160.882812 235.628906 "/>
<path style=" stroke:none;fill-rule:evenodd;fill:rgb(21.568627%,65.490196%,85.882353%);fill-opacity:1;" d="M 270.394531 272.480469 L 287.242188 272.480469 L 287.242188 266.8125 L 270.394531 266.8125 Z M 270.394531 272.480469 "/>
<path style=" stroke:none;fill-rule:evenodd;fill:rgb(21.568627%,65.490196%,85.882353%);fill-opacity:1;" d="M 351.828125 301.960938 L 368.675781 301.960938 L 368.675781 296.292969 L 351.828125 296.292969 Z M 351.828125 301.960938 "/>
<path style=" stroke:none;fill-rule:evenodd;fill:rgb(21.568627%,65.490196%,85.882353%);fill-opacity:1;" d="M 422.964844 228.261719 L 439.8125 228.261719 L 439.8125 222.59375 L 422.964844 222.59375 Z M 422.964844 228.261719 "/>
<path style=" stroke:none;fill-rule:evenodd;fill:rgb(21.568627%,65.490196%,85.882353%);fill-opacity:1;" d="M 255.886719 279.851562 L 272.734375 279.851562 L 272.734375 274.183594 L 255.886719 274.183594 Z M 255.886719 279.851562 "/>
<path style=" stroke:none;fill-rule:evenodd;fill:rgb(21.568627%,65.490196%,85.882353%);fill-opacity:1;" d="M 143.101562 243 L 159.949219 243 L 159.949219 237.332031 L 143.101562 237.332031 Z M 143.101562 243 "/>
<path style=" stroke:none;fill-rule:evenodd;fill:rgb(21.568627%,65.490196%,85.882353%);fill-opacity:1;" d="M 363.058594 309.332031 L 379.90625 309.332031 L 379.90625 303.664062 L 363.058594 303.664062 Z M 363.058594 309.332031 "/>
<path style=" stroke:none;fill-rule:evenodd;fill:rgb(21.568627%,65.490196%,85.882353%);fill-opacity:1;" d="M 349.488281 316.699219 L 366.335938 316.699219 L 366.335938 311.03125 L 349.488281 311.03125 Z M 349.488281 316.699219 "/>
<path style=" stroke:none;fill-rule:evenodd;fill:rgb(21.568627%,65.490196%,85.882353%);fill-opacity:1;" d="M 262.90625 324.070312 L 279.753906 324.070312 L 279.753906 318.402344 L 262.90625 318.402344 Z M 262.90625 324.070312 "/>
<path style=" stroke:none;fill-rule:evenodd;fill:rgb(21.568627%,65.490196%,85.882353%);fill-opacity:1;" d="M 254.484375 287.21875 L 271.332031 287.21875 L 271.332031 281.550781 L 254.484375 281.550781 Z M 254.484375 287.21875 "/>
<path style=" stroke:none;fill-rule:evenodd;fill:rgb(21.568627%,65.490196%,85.882353%);fill-opacity:1;" d="M 461.808594 213.519531 L 478.65625 213.519531 L 478.65625 207.851562 L 461.808594 207.851562 Z M 461.808594 213.519531 "/>
<g clip-path="url(#clip2)" clip-rule="nonzero">
<path style="fill:none;stroke-width:0.75;stroke-linecap:round;stroke-linejoin:round;stroke:rgb(74.509804%,74.509804%,74.509804%);stroke-opacity:1;stroke-miterlimit:10;" d="M 108 207 L 576 207 "/>
</g>
</g>
</svg>
