<?xml version="1.0" encoding="UTF-8"?>
<svg xmlns="http://www.w3.org/2000/svg" xmlns:xlink="http://www.w3.org/1999/xlink" width="684pt" height="432pt" viewBox="0 0 684 432" version="1.1">
<defs>
<clipPath id="clip1">
  <path d="M 561 354 L 576 354 L 576 360 L 561 360 Z M 561 354 "/>
</clipPath>
<clipPath id="clip2">
  <path d="M 108 359 L 576 359 L 576 360 L 108 360 Z M 108 359 "/>
</clipPath>
</defs>
<g id="surface790">
<path style=" stroke:none;fill-rule:evenodd;fill:rgb(74.509804%,74.509804%,74.509804%);fill-opacity:1;" d="M 574.460938 56.347656 L 574.460938 57.601562 L 574.03125 57.601562 L 574.03125 56.347656 L 572.789062 56.347656 L 572.789062 55.917969 L 574.03125 55.917969 L 574.03125 54.664062 L 574.460938 54.664062 L 574.460938 55.917969 L 575.703125 55.917969 L 575.703125 56.347656 Z M 574.460938 56.347656 "/>
<path style=" stroke:none;fill-rule:evenodd;fill:rgb(49.411765%,80.392157%,73.333333%);fill-opacity:1;" d="M 332.640625 360 L 349.488281 360 L 349.488281 354.332031 L 332.640625 354.332031 Z M 332.640625 360 "/>
<path style=" stroke:none;fill-rule:evenodd;fill:rgb(21.568627%,65.490196%,85.882353%);fill-opacity:1;" d="M 333.574219 352.628906 L 350.421875 352.628906 L 350.421875 346.960938 L 333.574219 346.960938 Z M 333.574219 352.628906 "/>
<path style=" stroke:none;fill-rule:evenodd;fill:rgb(49.411765%,80.392157%,73.333333%);fill-opacity:1;" d="M 241.378906 360 L 258.226562 360 L 258.226562 354.332031 L 241.378906 354.332031 Z M 241.378906 360 "/>
<path style=" stroke:none;fill-rule:evenodd;fill:rgb(49.411765%,80.392157%,73.333333%);fill-opacity:1;" d="M 282.5625 360 L 299.410156 360 L 299.410156 354.332031 L 282.5625 354.332031 Z M 282.5625 360 "/>
<path style=" stroke:none;fill-rule:evenodd;fill:rgb(49.411765%,80.392157%,73.333333%);fill-opacity:1;" d="M 366.804688 360 L 383.652344 360 L 383.652344 354.332031 L 366.804688 354.332031 Z M 366.804688 360 "/>
<path style=" stroke:none;fill-rule:evenodd;fill:rgb(49.411765%,80.392157%,73.333333%);fill-opacity:1;" d="M 312.046875 345.261719 L 328.894531 345.261719 L 328.894531 339.59375 L 312.046875 339.59375 Z M 312.046875 345.261719 "/>
<path style=" stroke:none;fill-rule:evenodd;fill:rgb(21.568627%,65.490196%,85.882353%);fill-opacity:1;" d="M 368.207031 352.628906 L 385.054688 352.628906 L 385.054688 346.960938 L 368.207031 346.960938 Z M 368.207031 352.628906 "/>
<path style=" stroke:none;fill-rule:evenodd;fill:rgb(49.411765%,80.392157%,73.333333%);fill-opacity:1;" d="M 213.769531 360 L 230.617188 360 L 230.617188 354.332031 L 213.769531 354.332031 Z M 213.769531 360 "/>
<path style=" stroke:none;fill-rule:evenodd;fill:rgb(21.568627%,65.490196%,85.882353%);fill-opacity:1;" d="M 303.15625 352.628906 L 320.003906 352.628906 L 320.003906 346.960938 L 303.15625 346.960938 Z M 303.15625 352.628906 "/>
<path style=" stroke:none;fill-rule:evenodd;fill:rgb(49.411765%,80.392157%,73.333333%);fill-opacity:1;" d="M 341.53125 345.261719 L 358.378906 345.261719 L 358.378906 339.59375 L 341.53125 339.59375 Z M 341.53125 345.261719 "/>
<path style=" stroke:none;fill-rule:evenodd;fill:rgb(21.568627%,65.490196%,85.882353%);fill-opacity:1;" d="M 347.617188 337.890625 L 364.464844 337.890625 L 364.464844 332.222656 L 347.617188 332.222656 Z M 347.617188 337.890625 "/>
<path style=" stroke:none;fill-rule:evenodd;fill:rgb(49.411765%,80.392157%,73.333333%);fill-opacity:1;" d="M 353.699219 330.519531 L 370.546875 330.519531 L 370.546875 324.851562 L 353.699219 324.851562 Z M 353.699219 330.519531 "/>
<path style=" stroke:none;fill-rule:evenodd;fill:rgb(21.568627%,65.490196%,85.882353%);fill-opacity:1;" d="M 354.167969 323.148438 L 371.015625 323.148438 L 371.015625 317.480469 L 354.167969 317.480469 Z M 354.167969 323.148438 "/>
<path style=" stroke:none;fill-rule:evenodd;fill:rgb(21.568627%,65.490196%,85.882353%);fill-opacity:1;" d="M 291.457031 337.890625 L 308.304688 337.890625 L 308.304688 332.222656 L 291.457031 332.222656 Z M 291.457031 337.890625 "/>
<path style=" stroke:none;fill-rule:evenodd;fill:rgb(49.411765%,80.392157%,73.333333%);fill-opacity:1;" d="M 439.34375 360 L 456.191406 360 L 456.191406 354.332031 L 439.34375 354.332031 Z M 439.34375 360 "/>
<path style=" stroke:none;fill-rule:evenodd;fill:rgb(21.568627%,65.490196%,85.882353%);fill-opacity:1;" d="M 450.109375 352.628906 L 466.957031 352.628906 L 466.957031 346.960938 L 450.109375 346.960938 Z M 450.109375 352.628906 "/>
<path style=" stroke:none;fill-rule:evenodd;fill:rgb(49.411765%,80.392157%,73.333333%);fill-opacity:1;" d="M 342.46875 315.78125 L 359.316406 315.78125 L 359.316406 310.113281 L 342.46875 310.113281 Z M 342.46875 315.78125 "/>
<path style=" stroke:none;fill-rule:evenodd;fill:rgb(21.568627%,65.490196%,85.882353%);fill-opacity:1;" d="M 351.828125 308.410156 L 368.675781 308.410156 L 368.675781 302.742188 L 351.828125 302.742188 Z M 351.828125 308.410156 "/>
<path style=" stroke:none;fill-rule:evenodd;fill:rgb(49.411765%,80.392157%,73.333333%);fill-opacity:1;" d="M 343.402344 301.039062 L 360.25 301.039062 L 360.25 295.371094 L 343.402344 295.371094 Z M 343.402344 301.039062 "/>
<path style=" stroke:none;fill-rule:evenodd;fill:rgb(21.568627%,65.490196%,85.882353%);fill-opacity:1;" d="M 350.890625 293.667969 L 367.738281 293.667969 L 367.738281 288 L 350.890625 288 Z M 350.890625 293.667969 "/>
<path style=" stroke:none;fill-rule:evenodd;fill:rgb(49.411765%,80.392157%,73.333333%);fill-opacity:1;" d="M 296.605469 330.519531 L 313.453125 330.519531 L 313.453125 324.851562 L 296.605469 324.851562 Z M 296.605469 330.519531 "/>
<path style=" stroke:none;fill-rule:evenodd;fill:rgb(49.411765%,80.392157%,73.333333%);fill-opacity:1;" d="M 345.277344 286.300781 L 362.125 286.300781 L 362.125 280.632812 L 345.277344 280.632812 Z M 345.277344 286.300781 "/>
<path style=" stroke:none;fill-rule:evenodd;fill:rgb(21.568627%,65.490196%,85.882353%);fill-opacity:1;" d="M 340.128906 278.929688 L 356.976562 278.929688 L 356.976562 273.261719 L 340.128906 273.261719 Z M 340.128906 278.929688 "/>
<path style=" stroke:none;fill-rule:evenodd;fill:rgb(49.411765%,80.392157%,73.333333%);fill-opacity:1;" d="M 339.191406 271.558594 L 356.039062 271.558594 L 356.039062 265.890625 L 339.191406 265.890625 Z M 339.191406 271.558594 "/>
<path style=" stroke:none;fill-rule:evenodd;fill:rgb(21.568627%,65.490196%,85.882353%);fill-opacity:1;" d="M 304.558594 323.148438 L 321.40625 323.148438 L 321.40625 317.480469 L 304.558594 317.480469 Z M 304.558594 323.148438 "/>
<path style=" stroke:none;fill-rule:evenodd;fill:rgb(21.568627%,65.490196%,85.882353%);fill-opacity:1;" d="M 258.226562 352.628906 L 275.074219 352.628906 L 275.074219 346.960938 L 258.226562 346.960938 Z M 258.226562 352.628906 "/>
<path style=" stroke:none;fill-rule:evenodd;fill:rgb(21.568627%,65.490196%,85.882353%);fill-opacity:1;" d="M 345.742188 264.1875 L 362.589844 264.1875 L 362.589844 258.519531 L 345.742188 258.519531 Z M 345.742188 264.1875 "/>
<path style=" stroke:none;fill-rule:evenodd;fill:rgb(21.568627%,65.490196%,85.882353%);fill-opacity:1;" d="M 319.535156 337.890625 L 336.382812 337.890625 L 336.382812 332.222656 L 319.535156 332.222656 Z M 319.535156 337.890625 "/>
<path style=" stroke:none;fill-rule:evenodd;fill:rgb(49.411765%,80.392157%,73.333333%);fill-opacity:1;" d="M 343.871094 256.820312 L 360.71875 256.820312 L 360.71875 251.152344 L 343.871094 251.152344 Z M 343.871094 256.820312 "/>
<path style=" stroke:none;fill-rule:evenodd;fill:rgb(21.568627%,65.490196%,85.882353%);fill-opacity:1;" d="M 345.277344 249.449219 L 362.125 249.449219 L 362.125 243.78125 L 345.277344 243.78125 Z M 345.277344 249.449219 "/>
<path style=" stroke:none;fill-rule:evenodd;fill:rgb(49.411765%,80.392157%,73.333333%);fill-opacity:1;" d="M 353.230469 242.078125 L 370.078125 242.078125 L 370.078125 236.410156 L 353.230469 236.410156 Z M 353.230469 242.078125 "/>
<path style=" stroke:none;fill-rule:evenodd;fill:rgb(21.568627%,65.490196%,85.882353%);fill-opacity:1;" d="M 352.765625 234.707031 L 369.613281 234.707031 L 369.613281 229.039062 L 352.765625 229.039062 Z M 352.765625 234.707031 "/>
<path style=" stroke:none;fill-rule:evenodd;fill:rgb(49.411765%,80.392157%,73.333333%);fill-opacity:1;" d="M 337.789062 227.339844 L 354.636719 227.339844 L 354.636719 221.671875 L 337.789062 221.671875 Z M 337.789062 227.339844 "/>
<path style=" stroke:none;fill-rule:evenodd;fill:rgb(21.568627%,65.490196%,85.882353%);fill-opacity:1;" d="M 322.34375 308.410156 L 339.191406 308.410156 L 339.191406 302.742188 L 322.34375 302.742188 Z M 322.34375 308.410156 "/>
<path style=" stroke:none;fill-rule:evenodd;fill:rgb(21.568627%,65.490196%,85.882353%);fill-opacity:1;" d="M 317.664062 293.667969 L 334.511719 293.667969 L 334.511719 288 L 317.664062 288 Z M 317.664062 293.667969 "/>
<path style=" stroke:none;fill-rule:evenodd;fill:rgb(49.411765%,80.392157%,73.333333%);fill-opacity:1;" d="M 314.386719 315.78125 L 331.234375 315.78125 L 331.234375 310.113281 L 314.386719 310.113281 Z M 314.386719 315.78125 "/>
<path style=" stroke:none;fill-rule:evenodd;fill:rgb(49.411765%,80.392157%,73.333333%);fill-opacity:1;" d="M 313.921875 301.039062 L 330.769531 301.039062 L 330.769531 295.371094 L 313.921875 295.371094 Z M 313.921875 301.039062 "/>
<path style=" stroke:none;fill-rule:evenodd;fill:rgb(49.411765%,80.392157%,73.333333%);fill-opacity:1;" d="M 305.496094 286.300781 L 322.34375 286.300781 L 322.34375 280.632812 L 305.496094 280.632812 Z M 305.496094 286.300781 "/>
<path style=" stroke:none;fill-rule:evenodd;fill:rgb(21.568627%,65.490196%,85.882353%);fill-opacity:1;" d="M 334.042969 219.96875 L 350.890625 219.96875 L 350.890625 214.300781 L 334.042969 214.300781 Z M 334.042969 219.96875 "/>
<path style=" stroke:none;fill-rule:evenodd;fill:rgb(49.411765%,80.392157%,73.333333%);fill-opacity:1;" d="M 284.902344 345.261719 L 301.75 345.261719 L 301.75 339.59375 L 284.902344 339.59375 Z M 284.902344 345.261719 "/>
<path style=" stroke:none;fill-rule:evenodd;fill:rgb(49.411765%,80.392157%,73.333333%);fill-opacity:1;" d="M 370.078125 345.261719 L 386.925781 345.261719 L 386.925781 339.59375 L 370.078125 339.59375 Z M 370.078125 345.261719 "/>
<path style=" stroke:none;fill-rule:evenodd;fill:rgb(49.411765%,80.392157%,73.333333%);fill-opacity:1;" d="M 444.023438 345.261719 L 460.871094 345.261719 L 460.871094 339.59375 L 444.023438 339.59375 Z M 444.023438 345.261719 "/>
<path style=" stroke:none;fill-rule:evenodd;fill:rgb(49.411765%,80.392157%,73.333333%);fill-opacity:1;" d="M 331.703125 212.597656 L 348.550781 212.597656 L 348.550781 206.929688 L 331.703125 206.929688 Z M 331.703125 212.597656 "/>
<path style=" stroke:none;fill-rule:evenodd;fill:rgb(21.568627%,65.490196%,85.882353%);fill-opacity:1;" d="M 391.609375 337.890625 L 408.457031 337.890625 L 408.457031 332.222656 L 391.609375 332.222656 Z M 391.609375 337.890625 "/>
<path style=" stroke:none;fill-rule:evenodd;fill:rgb(49.411765%,80.392157%,73.333333%);fill-opacity:1;" d="M 287.242188 315.78125 L 304.089844 315.78125 L 304.089844 310.113281 L 287.242188 310.113281 Z M 287.242188 315.78125 "/>
<path style=" stroke:none;fill-rule:evenodd;fill:rgb(49.411765%,80.392157%,73.333333%);fill-opacity:1;" d="M 321.40625 242.078125 L 338.253906 242.078125 L 338.253906 236.410156 L 321.40625 236.410156 Z M 321.40625 242.078125 "/>
<path style=" stroke:none;fill-rule:evenodd;fill:rgb(21.568627%,65.490196%,85.882353%);fill-opacity:1;" d="M 355.570312 205.226562 L 372.417969 205.226562 L 372.417969 199.558594 L 355.570312 199.558594 Z M 355.570312 205.226562 "/>
<path style=" stroke:none;fill-rule:evenodd;fill:rgb(21.568627%,65.490196%,85.882353%);fill-opacity:1;" d="M 298.007812 278.929688 L 314.855469 278.929688 L 314.855469 273.261719 L 298.007812 273.261719 Z M 298.007812 278.929688 "/>
<path style=" stroke:none;fill-rule:evenodd;fill:rgb(49.411765%,80.392157%,73.333333%);fill-opacity:1;" d="M 375.695312 315.78125 L 392.542969 315.78125 L 392.542969 310.113281 L 375.695312 310.113281 Z M 375.695312 315.78125 "/>
<path style=" stroke:none;fill-rule:evenodd;fill:rgb(21.568627%,65.490196%,85.882353%);fill-opacity:1;" d="M 421.558594 352.628906 L 438.40625 352.628906 L 438.40625 346.960938 L 421.558594 346.960938 Z M 421.558594 352.628906 "/>
<path style=" stroke:none;fill-rule:evenodd;fill:rgb(49.411765%,80.392157%,73.333333%);fill-opacity:1;" d="M 381.3125 330.519531 L 398.160156 330.519531 L 398.160156 324.851562 L 381.3125 324.851562 Z M 381.3125 330.519531 "/>
<path style=" stroke:none;fill-rule:evenodd;fill:rgb(49.411765%,80.392157%,73.333333%);fill-opacity:1;" d="M 298.476562 271.558594 L 315.324219 271.558594 L 315.324219 265.890625 L 298.476562 265.890625 Z M 298.476562 271.558594 "/>
<path style=" stroke:none;fill-rule:evenodd;fill:rgb(49.411765%,80.392157%,73.333333%);fill-opacity:1;" d="M 349.488281 197.859375 L 366.335938 197.859375 L 366.335938 192.191406 L 349.488281 192.191406 Z M 349.488281 197.859375 "/>
<path style=" stroke:none;fill-rule:evenodd;fill:rgb(21.568627%,65.490196%,85.882353%);fill-opacity:1;" d="M 288.648438 308.410156 L 305.496094 308.410156 L 305.496094 302.742188 L 288.648438 302.742188 Z M 288.648438 308.410156 "/>
<path style=" stroke:none;fill-rule:evenodd;fill:rgb(21.568627%,65.490196%,85.882353%);fill-opacity:1;" d="M 320.941406 234.707031 L 337.789062 234.707031 L 337.789062 229.039062 L 320.941406 229.039062 Z M 320.941406 234.707031 "/>
<path style=" stroke:none;fill-rule:evenodd;fill:rgb(21.568627%,65.490196%,85.882353%);fill-opacity:1;" d="M 418.753906 337.890625 L 435.601562 337.890625 L 435.601562 332.222656 L 418.753906 332.222656 Z M 418.753906 337.890625 "/>
<path style=" stroke:none;fill-rule:evenodd;fill:rgb(21.568627%,65.490196%,85.882353%);fill-opacity:1;" d="M 315.792969 264.1875 L 332.640625 264.1875 L 332.640625 258.519531 L 315.792969 258.519531 Z M 315.792969 264.1875 "/>
<path style=" stroke:none;fill-rule:evenodd;fill:rgb(21.568627%,65.490196%,85.882353%);fill-opacity:1;" d="M 321.875 205.226562 L 338.722656 205.226562 L 338.722656 199.558594 L 321.875 199.558594 Z M 321.875 205.226562 "/>
<path style=" stroke:none;fill-rule:evenodd;fill:rgb(49.411765%,80.392157%,73.333333%);fill-opacity:1;" d="M 359.316406 212.597656 L 376.164062 212.597656 L 376.164062 206.929688 L 359.316406 206.929688 Z M 359.316406 212.597656 "/>
<path style=" stroke:none;fill-rule:evenodd;fill:rgb(21.568627%,65.490196%,85.882353%);fill-opacity:1;" d="M 336.851562 190.488281 L 353.699219 190.488281 L 353.699219 184.820312 L 336.851562 184.820312 Z M 336.851562 190.488281 "/>
<path style=" stroke:none;fill-rule:evenodd;fill:rgb(49.411765%,80.392157%,73.333333%);fill-opacity:1;" d="M 160.882812 360 L 177.730469 360 L 177.730469 354.332031 L 160.882812 354.332031 Z M 160.882812 360 "/>
<path style=" stroke:none;fill-rule:evenodd;fill:rgb(49.411765%,80.392157%,73.333333%);fill-opacity:1;" d="M 338.257812 183.117188 L 355.105469 183.117188 L 355.105469 177.449219 L 338.257812 177.449219 Z M 338.257812 183.117188 "/>
<path style=" stroke:none;fill-rule:evenodd;fill:rgb(49.411765%,80.392157%,73.333333%);fill-opacity:1;" d="M 321.40625 197.859375 L 338.253906 197.859375 L 338.253906 192.191406 L 321.40625 192.191406 Z M 321.40625 197.859375 "/>
<path style=" stroke:none;fill-rule:evenodd;fill:rgb(21.568627%,65.490196%,85.882353%);fill-opacity:1;" d="M 361.65625 219.96875 L 378.503906 219.96875 L 378.503906 214.300781 L 361.65625 214.300781 Z M 361.65625 219.96875 "/>
<path style=" stroke:none;fill-rule:evenodd;fill:rgb(21.568627%,65.490196%,85.882353%);fill-opacity:1;" d="M 363.058594 175.746094 L 379.90625 175.746094 L 379.90625 170.078125 L 363.058594 170.078125 Z M 363.058594 175.746094 "/>
<path style=" stroke:none;fill-rule:evenodd;fill:rgb(49.411765%,80.392157%,73.333333%);fill-opacity:1;" d="M 399.097656 360 L 415.945312 360 L 415.945312 354.332031 L 399.097656 354.332031 Z M 399.097656 360 "/>
<path style=" stroke:none;fill-rule:evenodd;fill:rgb(49.411765%,80.392157%,73.333333%);fill-opacity:1;" d="M 237.167969 345.261719 L 254.015625 345.261719 L 254.015625 339.59375 L 237.167969 339.59375 Z M 237.167969 345.261719 "/>
<path style=" stroke:none;fill-rule:evenodd;fill:rgb(21.568627%,65.490196%,85.882353%);fill-opacity:1;" d="M 330.300781 175.746094 L 347.148438 175.746094 L 347.148438 170.078125 L 330.300781 170.078125 Z M 330.300781 175.746094 "/>
<path style=" stroke:none;fill-rule:evenodd;fill:rgb(21.568627%,65.490196%,85.882353%);fill-opacity:1;" d="M 318.132812 249.449219 L 334.980469 249.449219 L 334.980469 243.78125 L 318.132812 243.78125 Z M 318.132812 249.449219 "/>
<path style=" stroke:none;fill-rule:evenodd;fill:rgb(49.411765%,80.392157%,73.333333%);fill-opacity:1;" d="M 281.628906 301.039062 L 298.476562 301.039062 L 298.476562 295.371094 L 281.628906 295.371094 Z M 281.628906 301.039062 "/>
<path style=" stroke:none;fill-rule:evenodd;fill:rgb(49.411765%,80.392157%,73.333333%);fill-opacity:1;" d="M 308.773438 256.820312 L 325.621094 256.820312 L 325.621094 251.152344 L 308.773438 251.152344 Z M 308.773438 256.820312 "/>
<path style=" stroke:none;fill-rule:evenodd;fill:rgb(49.411765%,80.392157%,73.333333%);fill-opacity:1;" d="M 399.5625 345.261719 L 416.410156 345.261719 L 416.410156 339.59375 L 399.5625 339.59375 Z M 399.5625 345.261719 "/>
<path style=" stroke:none;fill-rule:evenodd;fill:rgb(21.568627%,65.490196%,85.882353%);fill-opacity:1;" d="M 253.546875 337.890625 L 270.394531 337.890625 L 270.394531 332.222656 L 253.546875 332.222656 Z M 253.546875 337.890625 "/>
<path style=" stroke:none;fill-rule:evenodd;fill:rgb(49.411765%,80.392157%,73.333333%);fill-opacity:1;" d="M 291.925781 242.078125 L 308.773438 242.078125 L 308.773438 236.410156 L 291.925781 236.410156 Z M 291.925781 242.078125 "/>
<path style=" stroke:none;fill-rule:evenodd;fill:rgb(49.411765%,80.392157%,73.333333%);fill-opacity:1;" d="M 371.015625 301.039062 L 387.863281 301.039062 L 387.863281 295.371094 L 371.015625 295.371094 Z M 371.015625 301.039062 "/>
<path style=" stroke:none;fill-rule:evenodd;fill:rgb(49.411765%,80.392157%,73.333333%);fill-opacity:1;" d="M 358.847656 168.378906 L 375.695312 168.378906 L 375.695312 162.710938 L 358.847656 162.710938 Z M 358.847656 168.378906 "/>
<path style=" stroke:none;fill-rule:evenodd;fill:rgb(21.568627%,65.490196%,85.882353%);fill-opacity:1;" d="M 334.042969 161.007812 L 350.890625 161.007812 L 350.890625 155.339844 L 334.042969 155.339844 Z M 334.042969 161.007812 "/>
<path style=" stroke:none;fill-rule:evenodd;fill:rgb(49.411765%,80.392157%,73.333333%);fill-opacity:1;" d="M 329.363281 168.378906 L 346.210938 168.378906 L 346.210938 162.710938 L 329.363281 162.710938 Z M 329.363281 168.378906 "/>
<path style=" stroke:none;fill-rule:evenodd;fill:rgb(21.568627%,65.490196%,85.882353%);fill-opacity:1;" d="M 280.222656 293.667969 L 297.070312 293.667969 L 297.070312 288 L 280.222656 288 Z M 280.222656 293.667969 "/>
<path style=" stroke:none;fill-rule:evenodd;fill:rgb(21.568627%,65.490196%,85.882353%);fill-opacity:1;" d="M 387.394531 323.148438 L 404.242188 323.148438 L 404.242188 317.480469 L 387.394531 317.480469 Z M 387.394531 323.148438 "/>
<path style=" stroke:none;fill-rule:evenodd;fill:rgb(21.568627%,65.490196%,85.882353%);fill-opacity:1;" d="M 281.160156 264.1875 L 298.007812 264.1875 L 298.007812 258.519531 L 281.160156 258.519531 Z M 281.160156 264.1875 "/>
<path style=" stroke:none;fill-rule:evenodd;fill:rgb(21.568627%,65.490196%,85.882353%);fill-opacity:1;" d="M 378.503906 308.410156 L 395.351562 308.410156 L 395.351562 302.742188 L 378.503906 302.742188 Z M 378.503906 308.410156 "/>
<g clip-path="url(#clip1)" clip-rule="nonzero">
<path style=" stroke:none;fill-rule:evenodd;fill:rgb(49.411765%,80.392157%,73.333333%);fill-opacity:1;" d="M 561.492188 360 L 578.339844 360 L 578.339844 354.332031 L 561.492188 354.332031 Z M 561.492188 360 "/>
</g>
<path style=" stroke:none;fill-rule:evenodd;fill:rgb(21.568627%,65.490196%,85.882353%);fill-opacity:1;" d="M 535.753906 352.628906 L 552.601562 352.628906 L 552.601562 346.960938 L 535.753906 346.960938 Z M 535.753906 352.628906 "/>
<path style=" stroke:none;fill-rule:evenodd;fill:rgb(49.411765%,80.392157%,73.333333%);fill-opacity:1;" d="M 269.460938 330.519531 L 286.308594 330.519531 L 286.308594 324.851562 L 269.460938 324.851562 Z M 269.460938 330.519531 "/>
<path style=" stroke:none;fill-rule:evenodd;fill:rgb(49.411765%,80.392157%,73.333333%);fill-opacity:1;" d="M 351.828125 153.636719 L 368.675781 153.636719 L 368.675781 147.96875 L 351.828125 147.96875 Z M 351.828125 153.636719 "/>
<path style=" stroke:none;fill-rule:evenodd;fill:rgb(49.411765%,80.392157%,73.333333%);fill-opacity:1;" d="M 318.601562 153.636719 L 335.449219 153.636719 L 335.449219 147.96875 L 318.601562 147.96875 Z M 318.601562 153.636719 "/>
<path style=" stroke:none;fill-rule:evenodd;fill:rgb(21.568627%,65.490196%,85.882353%);fill-opacity:1;" d="M 275.542969 323.148438 L 292.390625 323.148438 L 292.390625 317.480469 L 275.542969 317.480469 Z M 275.542969 323.148438 "/>
<path style=" stroke:none;fill-rule:evenodd;fill:rgb(21.568627%,65.490196%,85.882353%);fill-opacity:1;" d="M 369.144531 278.929688 L 385.992188 278.929688 L 385.992188 273.261719 L 369.144531 273.261719 Z M 369.144531 278.929688 "/>
<path style=" stroke:none;fill-rule:evenodd;fill:rgb(21.568627%,65.490196%,85.882353%);fill-opacity:1;" d="M 461.808594 337.890625 L 478.65625 337.890625 L 478.65625 332.222656 L 461.808594 332.222656 Z M 461.808594 337.890625 "/>
<path style=" stroke:none;fill-rule:evenodd;fill:rgb(49.411765%,80.392157%,73.333333%);fill-opacity:1;" d="M 368.675781 271.558594 L 385.523438 271.558594 L 385.523438 265.890625 L 368.675781 265.890625 Z M 368.675781 271.558594 "/>
<path style=" stroke:none;fill-rule:evenodd;fill:rgb(21.568627%,65.490196%,85.882353%);fill-opacity:1;" d="M 392.074219 293.667969 L 408.921875 293.667969 L 408.921875 288 L 392.074219 288 Z M 392.074219 293.667969 "/>
<path style=" stroke:none;fill-rule:evenodd;fill:rgb(21.568627%,65.490196%,85.882353%);fill-opacity:1;" d="M 356.039062 146.269531 L 372.886719 146.269531 L 372.886719 140.601562 L 356.039062 140.601562 Z M 356.039062 146.269531 "/>
<path style=" stroke:none;fill-rule:evenodd;fill:rgb(49.411765%,80.392157%,73.333333%);fill-opacity:1;" d="M 375.226562 286.300781 L 392.074219 286.300781 L 392.074219 280.632812 L 375.226562 280.632812 Z M 375.226562 286.300781 "/>
<path style=" stroke:none;fill-rule:evenodd;fill:rgb(49.411765%,80.392157%,73.333333%);fill-opacity:1;" d="M 338.722656 138.898438 L 355.570312 138.898438 L 355.570312 133.230469 L 338.722656 133.230469 Z M 338.722656 138.898438 "/>
<path style=" stroke:none;fill-rule:evenodd;fill:rgb(21.568627%,65.490196%,85.882353%);fill-opacity:1;" d="M 312.984375 146.269531 L 329.832031 146.269531 L 329.832031 140.601562 L 312.984375 140.601562 Z M 312.984375 146.269531 "/>
<path style=" stroke:none;fill-rule:evenodd;fill:rgb(21.568627%,65.490196%,85.882353%);fill-opacity:1;" d="M 358.378906 131.527344 L 375.226562 131.527344 L 375.226562 125.859375 L 358.378906 125.859375 Z M 358.378906 131.527344 "/>
<path style=" stroke:none;fill-rule:evenodd;fill:rgb(49.411765%,80.392157%,73.333333%);fill-opacity:1;" d="M 324.214844 330.519531 L 341.0625 330.519531 L 341.0625 324.851562 L 324.214844 324.851562 Z M 324.214844 330.519531 "/>
<path style=" stroke:none;fill-rule:evenodd;fill:rgb(21.568627%,65.490196%,85.882353%);fill-opacity:1;" d="M 319.535156 131.527344 L 336.382812 131.527344 L 336.382812 125.859375 L 319.535156 125.859375 Z M 319.535156 131.527344 "/>
<path style=" stroke:none;fill-rule:evenodd;fill:rgb(49.411765%,80.392157%,73.333333%);fill-opacity:1;" d="M 331.234375 124.15625 L 348.082031 124.15625 L 348.082031 118.488281 L 331.234375 118.488281 Z M 331.234375 124.15625 "/>
<path style=" stroke:none;fill-rule:evenodd;fill:rgb(21.568627%,65.490196%,85.882353%);fill-opacity:1;" d="M 383.183594 264.1875 L 400.03125 264.1875 L 400.03125 258.519531 L 383.183594 258.519531 Z M 383.183594 264.1875 "/>
<path style=" stroke:none;fill-rule:evenodd;fill:rgb(21.568627%,65.490196%,85.882353%);fill-opacity:1;" d="M 293.328125 234.707031 L 310.175781 234.707031 L 310.175781 229.039062 L 293.328125 229.039062 Z M 293.328125 234.707031 "/>
<path style=" stroke:none;fill-rule:evenodd;fill:rgb(21.568627%,65.490196%,85.882353%);fill-opacity:1;" d="M 320.003906 116.789062 L 336.851562 116.789062 L 336.851562 111.121094 L 320.003906 111.121094 Z M 320.003906 116.789062 "/>
<path style=" stroke:none;fill-rule:evenodd;fill:rgb(49.411765%,80.392157%,73.333333%);fill-opacity:1;" d="M 310.175781 227.339844 L 327.023438 227.339844 L 327.023438 221.671875 L 310.175781 221.671875 Z M 310.175781 227.339844 "/>
<path style=" stroke:none;fill-rule:evenodd;fill:rgb(49.411765%,80.392157%,73.333333%);fill-opacity:1;" d="M 476.316406 360 L 493.164062 360 L 493.164062 354.332031 L 476.316406 354.332031 Z M 476.316406 360 "/>
<path style=" stroke:none;fill-rule:evenodd;fill:rgb(49.411765%,80.392157%,73.333333%);fill-opacity:1;" d="M 327.960938 109.417969 L 344.808594 109.417969 L 344.808594 103.75 L 327.960938 103.75 Z M 327.960938 109.417969 "/>
<path style=" stroke:none;fill-rule:evenodd;fill:rgb(49.411765%,80.392157%,73.333333%);fill-opacity:1;" d="M 365.867188 227.339844 L 382.714844 227.339844 L 382.714844 221.671875 L 365.867188 221.671875 Z M 365.867188 227.339844 "/>
<path style=" stroke:none;fill-rule:evenodd;fill:rgb(21.568627%,65.490196%,85.882353%);fill-opacity:1;" d="M 159.949219 352.628906 L 176.796875 352.628906 L 176.796875 346.960938 L 159.949219 346.960938 Z M 159.949219 352.628906 "/>
<path style=" stroke:none;fill-rule:evenodd;fill:rgb(21.568627%,65.490196%,85.882353%);fill-opacity:1;" d="M 332.171875 102.046875 L 349.019531 102.046875 L 349.019531 96.378906 L 332.171875 96.378906 Z M 332.171875 102.046875 "/>
<path style=" stroke:none;fill-rule:evenodd;fill:rgb(49.411765%,80.392157%,73.333333%);fill-opacity:1;" d="M 360.253906 124.15625 L 377.101562 124.15625 L 377.101562 118.488281 L 360.253906 118.488281 Z M 360.253906 124.15625 "/>
<path style=" stroke:none;fill-rule:evenodd;fill:rgb(49.411765%,80.392157%,73.333333%);fill-opacity:1;" d="M 336.382812 94.675781 L 353.230469 94.675781 L 353.230469 89.007812 L 336.382812 89.007812 Z M 336.382812 94.675781 "/>
<path style=" stroke:none;fill-rule:evenodd;fill:rgb(21.568627%,65.490196%,85.882353%);fill-opacity:1;" d="M 322.8125 87.308594 L 339.660156 87.308594 L 339.660156 81.640625 L 322.8125 81.640625 Z M 322.8125 87.308594 "/>
<path style=" stroke:none;fill-rule:evenodd;fill:rgb(49.411765%,80.392157%,73.333333%);fill-opacity:1;" d="M 339.660156 79.9375 L 356.507812 79.9375 L 356.507812 74.269531 L 339.660156 74.269531 Z M 339.660156 79.9375 "/>
<path style=" stroke:none;fill-rule:evenodd;fill:rgb(21.568627%,65.490196%,85.882353%);fill-opacity:1;" d="M 338.257812 72.566406 L 355.105469 72.566406 L 355.105469 66.898438 L 338.257812 66.898438 Z M 338.257812 72.566406 "/>
<path style=" stroke:none;fill-rule:evenodd;fill:rgb(21.568627%,65.490196%,85.882353%);fill-opacity:1;" d="M 348.550781 116.789062 L 365.398438 116.789062 L 365.398438 111.121094 L 348.550781 111.121094 Z M 348.550781 116.789062 "/>
<path style=" stroke:none;fill-rule:evenodd;fill:rgb(49.411765%,80.392157%,73.333333%);fill-opacity:1;" d="M 339.191406 65.195312 L 356.039062 65.195312 L 356.039062 59.527344 L 339.191406 59.527344 Z M 339.191406 65.195312 "/>
<path style=" stroke:none;fill-rule:evenodd;fill:rgb(49.411765%,80.392157%,73.333333%);fill-opacity:1;" d="M 311.578125 183.117188 L 328.425781 183.117188 L 328.425781 177.449219 L 311.578125 177.449219 Z M 311.578125 183.117188 "/>
<path style=" stroke:none;fill-rule:evenodd;fill:rgb(49.411765%,80.392157%,73.333333%);fill-opacity:1;" d="M 142.632812 345.261719 L 159.480469 345.261719 L 159.480469 339.59375 L 142.632812 339.59375 Z M 142.632812 345.261719 "/>
<path style=" stroke:none;fill-rule:evenodd;fill:rgb(21.568627%,65.490196%,85.882353%);fill-opacity:1;" d="M 481.464844 352.628906 L 498.3125 352.628906 L 498.3125 346.960938 L 481.464844 346.960938 Z M 481.464844 352.628906 "/>
<path style=" stroke:none;fill-rule:evenodd;fill:rgb(49.411765%,80.392157%,73.333333%);fill-opacity:1;" d="M 377.101562 256.820312 L 393.949219 256.820312 L 393.949219 251.152344 L 377.101562 251.152344 Z M 377.101562 256.820312 "/>
<path style=" stroke:none;fill-rule:evenodd;fill:rgb(49.411765%,80.392157%,73.333333%);fill-opacity:1;" d="M 270.394531 286.300781 L 287.242188 286.300781 L 287.242188 280.632812 L 270.394531 280.632812 Z M 270.394531 286.300781 "/>
<path style=" stroke:none;fill-rule:evenodd;fill:rgb(49.411765%,80.392157%,73.333333%);fill-opacity:1;" d="M 407.050781 315.78125 L 423.898438 315.78125 L 423.898438 310.113281 L 407.050781 310.113281 Z M 407.050781 315.78125 "/>
<path style=" stroke:none;fill-rule:evenodd;fill:rgb(49.411765%,80.392157%,73.333333%);fill-opacity:1;" d="M 401.902344 301.039062 L 418.75 301.039062 L 418.75 295.371094 L 401.902344 295.371094 Z M 401.902344 301.039062 "/>
<path style=" stroke:none;fill-rule:evenodd;fill:rgb(21.568627%,65.490196%,85.882353%);fill-opacity:1;" d="M 372.421875 249.449219 L 389.269531 249.449219 L 389.269531 243.78125 L 372.421875 243.78125 Z M 372.421875 249.449219 "/>
<path style=" stroke:none;fill-rule:evenodd;fill:rgb(21.568627%,65.490196%,85.882353%);fill-opacity:1;" d="M 304.09375 219.96875 L 320.941406 219.96875 L 320.941406 214.300781 L 304.09375 214.300781 Z M 304.09375 219.96875 "/>
<path style=" stroke:none;fill-rule:evenodd;fill:rgb(49.411765%,80.392157%,73.333333%);fill-opacity:1;" d="M 276.011719 256.820312 L 292.859375 256.820312 L 292.859375 251.152344 L 276.011719 251.152344 Z M 276.011719 256.820312 "/>
<path style=" stroke:none;fill-rule:evenodd;fill:rgb(21.568627%,65.490196%,85.882353%);fill-opacity:1;" d="M 367.273438 190.488281 L 384.121094 190.488281 L 384.121094 184.820312 L 367.273438 184.820312 Z M 367.273438 190.488281 "/>
<path style=" stroke:none;fill-rule:evenodd;fill:rgb(21.568627%,65.490196%,85.882353%);fill-opacity:1;" d="M 396.757812 278.929688 L 413.605469 278.929688 L 413.605469 273.261719 L 396.757812 273.261719 Z M 396.757812 278.929688 "/>
<path style=" stroke:none;fill-rule:evenodd;fill:rgb(49.411765%,80.392157%,73.333333%);fill-opacity:1;" d="M 374.761719 183.117188 L 391.609375 183.117188 L 391.609375 177.449219 L 374.761719 177.449219 Z M 374.761719 183.117188 "/>
<path style=" stroke:none;fill-rule:evenodd;fill:rgb(21.568627%,65.490196%,85.882353%);fill-opacity:1;" d="M 262.90625 278.929688 L 279.753906 278.929688 L 279.753906 273.261719 L 262.90625 273.261719 Z M 262.90625 278.929688 "/>
<path style=" stroke:none;fill-rule:evenodd;fill:rgb(49.411765%,80.392157%,73.333333%);fill-opacity:1;" d="M 310.644531 138.898438 L 327.492188 138.898438 L 327.492188 133.230469 L 310.644531 133.230469 Z M 310.644531 138.898438 "/>
<path style=" stroke:none;fill-rule:evenodd;fill:rgb(21.568627%,65.490196%,85.882353%);fill-opacity:1;" d="M 154.332031 337.890625 L 171.179688 337.890625 L 171.179688 332.222656 L 154.332031 332.222656 Z M 154.332031 337.890625 "/>
<path style=" stroke:none;fill-rule:evenodd;fill:rgb(21.568627%,65.490196%,85.882353%);fill-opacity:1;" d="M 350.425781 87.308594 L 367.273438 87.308594 L 367.273438 81.640625 L 350.425781 81.640625 Z M 350.425781 87.308594 "/>
<path style=" stroke:none;fill-rule:evenodd;fill:rgb(21.568627%,65.490196%,85.882353%);fill-opacity:1;" d="M 287.710938 249.449219 L 304.558594 249.449219 L 304.558594 243.78125 L 287.710938 243.78125 Z M 287.710938 249.449219 "/>
<path style=" stroke:none;fill-rule:evenodd;fill:rgb(49.411765%,80.392157%,73.333333%);fill-opacity:1;" d="M 290.519531 212.597656 L 307.367188 212.597656 L 307.367188 206.929688 L 290.519531 206.929688 Z M 290.519531 212.597656 "/>
<path style=" stroke:none;fill-rule:evenodd;fill:rgb(21.568627%,65.490196%,85.882353%);fill-opacity:1;" d="M 303.625 190.488281 L 320.472656 190.488281 L 320.472656 184.820312 L 303.625 184.820312 Z M 303.625 190.488281 "/>
<path style=" stroke:none;fill-rule:evenodd;fill:rgb(49.411765%,80.392157%,73.333333%);fill-opacity:1;" d="M 385.523438 242.078125 L 402.371094 242.078125 L 402.371094 236.410156 L 385.523438 236.410156 Z M 385.523438 242.078125 "/>
<path style=" stroke:none;fill-rule:evenodd;fill:rgb(49.411765%,80.392157%,73.333333%);fill-opacity:1;" d="M 271.332031 271.558594 L 288.179688 271.558594 L 288.179688 265.890625 L 271.332031 265.890625 Z M 271.332031 271.558594 "/>
<path style=" stroke:none;fill-rule:evenodd;fill:rgb(21.568627%,65.490196%,85.882353%);fill-opacity:1;" d="M 302.6875 175.746094 L 319.535156 175.746094 L 319.535156 170.078125 L 302.6875 170.078125 Z M 302.6875 175.746094 "/>
<path style=" stroke:none;fill-rule:evenodd;fill:rgb(49.411765%,80.392157%,73.333333%);fill-opacity:1;" d="M 298.945312 168.378906 L 315.792969 168.378906 L 315.792969 162.710938 L 298.945312 162.710938 Z M 298.945312 168.378906 "/>
<path style=" stroke:none;fill-rule:evenodd;fill:rgb(21.568627%,65.490196%,85.882353%);fill-opacity:1;" d="M 288.179688 205.226562 L 305.027344 205.226562 L 305.027344 199.558594 L 288.179688 199.558594 Z M 288.179688 205.226562 "/>
<path style=" stroke:none;fill-rule:evenodd;fill:rgb(21.568627%,65.490196%,85.882353%);fill-opacity:1;" d="M 243.253906 323.148438 L 260.101562 323.148438 L 260.101562 317.480469 L 243.253906 317.480469 Z M 243.253906 323.148438 "/>
<path style=" stroke:none;fill-rule:evenodd;fill:rgb(21.568627%,65.490196%,85.882353%);fill-opacity:1;" d="M 213.769531 352.628906 L 230.617188 352.628906 L 230.617188 346.960938 L 213.769531 346.960938 Z M 213.769531 352.628906 "/>
<path style=" stroke:none;fill-rule:evenodd;fill:rgb(21.568627%,65.490196%,85.882353%);fill-opacity:1;" d="M 295.667969 161.007812 L 312.515625 161.007812 L 312.515625 155.339844 L 295.667969 155.339844 Z M 295.667969 161.007812 "/>
<path style=" stroke:none;fill-rule:evenodd;fill:rgb(49.411765%,80.392157%,73.333333%);fill-opacity:1;" d="M 285.371094 197.859375 L 302.21875 197.859375 L 302.21875 192.191406 L 285.371094 192.191406 Z M 285.371094 197.859375 "/>
<path style=" stroke:none;fill-rule:evenodd;fill:rgb(21.568627%,65.490196%,85.882353%);fill-opacity:1;" d="M 292.859375 131.527344 L 309.707031 131.527344 L 309.707031 125.859375 L 292.859375 125.859375 Z M 292.859375 131.527344 "/>
<path style=" stroke:none;fill-rule:evenodd;fill:rgb(21.568627%,65.490196%,85.882353%);fill-opacity:1;" d="M 374.761719 161.007812 L 391.609375 161.007812 L 391.609375 155.339844 L 374.761719 155.339844 Z M 374.761719 161.007812 "/>
<path style=" stroke:none;fill-rule:evenodd;fill:rgb(49.411765%,80.392157%,73.333333%);fill-opacity:1;" d="M 426.707031 330.519531 L 443.554688 330.519531 L 443.554688 324.851562 L 426.707031 324.851562 Z M 426.707031 330.519531 "/>
<path style=" stroke:none;fill-rule:evenodd;fill:rgb(49.411765%,80.392157%,73.333333%);fill-opacity:1;" d="M 363.527344 109.417969 L 380.375 109.417969 L 380.375 103.75 L 363.527344 103.75 Z M 363.527344 109.417969 "/>
<path style=" stroke:none;fill-rule:evenodd;fill:rgb(49.411765%,80.392157%,73.333333%);fill-opacity:1;" d="M 143.101562 330.519531 L 159.949219 330.519531 L 159.949219 324.851562 L 143.101562 324.851562 Z M 143.101562 330.519531 "/>
<path style=" stroke:none;fill-rule:evenodd;fill:rgb(49.411765%,80.392157%,73.333333%);fill-opacity:1;" d="M 400.03125 271.558594 L 416.878906 271.558594 L 416.878906 265.890625 L 400.03125 265.890625 Z M 400.03125 271.558594 "/>
<path style=" stroke:none;fill-rule:evenodd;fill:rgb(21.568627%,65.490196%,85.882353%);fill-opacity:1;" d="M 411.730469 308.410156 L 428.578125 308.410156 L 428.578125 302.742188 L 411.730469 302.742188 Z M 411.730469 308.410156 "/>
<path style=" stroke:none;fill-rule:evenodd;fill:rgb(49.411765%,80.392157%,73.333333%);fill-opacity:1;" d="M 294.265625 124.15625 L 311.113281 124.15625 L 311.113281 118.488281 L 294.265625 118.488281 Z M 294.265625 124.15625 "/>
<path style=" stroke:none;fill-rule:evenodd;fill:rgb(21.568627%,65.490196%,85.882353%);fill-opacity:1;" d="M 384.121094 234.707031 L 400.96875 234.707031 L 400.96875 229.039062 L 384.121094 229.039062 Z M 384.121094 234.707031 "/>
<path style=" stroke:none;fill-rule:evenodd;fill:rgb(21.568627%,65.490196%,85.882353%);fill-opacity:1;" d="M 419.6875 323.148438 L 436.535156 323.148438 L 436.535156 317.480469 L 419.6875 317.480469 Z M 419.6875 323.148438 "/>
<path style=" stroke:none;fill-rule:evenodd;fill:rgb(49.411765%,80.392157%,73.333333%);fill-opacity:1;" d="M 381.78125 197.859375 L 398.628906 197.859375 L 398.628906 192.191406 L 381.78125 192.191406 Z M 381.78125 197.859375 "/>
<path style=" stroke:none;fill-rule:evenodd;fill:rgb(21.568627%,65.490196%,85.882353%);fill-opacity:1;" d="M 303.15625 102.046875 L 320.003906 102.046875 L 320.003906 96.378906 L 303.15625 96.378906 Z M 303.15625 102.046875 "/>
<path style=" stroke:none;fill-rule:evenodd;fill:rgb(21.568627%,65.490196%,85.882353%);fill-opacity:1;" d="M 362.59375 102.046875 L 379.441406 102.046875 L 379.441406 96.378906 L 362.59375 96.378906 Z M 362.59375 102.046875 "/>
<path style=" stroke:none;fill-rule:evenodd;fill:rgb(49.411765%,80.392157%,73.333333%);fill-opacity:1;" d="M 369.613281 138.898438 L 386.460938 138.898438 L 386.460938 133.230469 L 369.613281 133.230469 Z M 369.613281 138.898438 "/>
<path style=" stroke:none;fill-rule:evenodd;fill:rgb(49.411765%,80.392157%,73.333333%);fill-opacity:1;" d="M 272.734375 227.339844 L 289.582031 227.339844 L 289.582031 221.671875 L 272.734375 221.671875 Z M 272.734375 227.339844 "/>
<path style=" stroke:none;fill-rule:evenodd;fill:rgb(49.411765%,80.392157%,73.333333%);fill-opacity:1;" d="M 380.84375 153.636719 L 397.691406 153.636719 L 397.691406 147.96875 L 380.84375 147.96875 Z M 380.84375 153.636719 "/>
<path style=" stroke:none;fill-rule:evenodd;fill:rgb(49.411765%,80.392157%,73.333333%);fill-opacity:1;" d="M 405.648438 286.300781 L 422.496094 286.300781 L 422.496094 280.632812 L 405.648438 280.632812 Z M 405.648438 286.300781 "/>
<path style=" stroke:none;fill-rule:evenodd;fill:rgb(49.411765%,80.392157%,73.333333%);fill-opacity:1;" d="M 364.933594 94.675781 L 381.78125 94.675781 L 381.78125 89.007812 L 364.933594 89.007812 Z M 364.933594 94.675781 "/>
<path style=" stroke:none;fill-rule:evenodd;fill:rgb(21.568627%,65.490196%,85.882353%);fill-opacity:1;" d="M 422.964844 293.667969 L 439.8125 293.667969 L 439.8125 288 L 422.964844 288 Z M 422.964844 293.667969 "/>
<path style=" stroke:none;fill-rule:evenodd;fill:rgb(49.411765%,80.392157%,73.333333%);fill-opacity:1;" d="M 312.515625 79.9375 L 329.363281 79.9375 L 329.363281 74.269531 L 312.515625 74.269531 Z M 312.515625 79.9375 "/>
<path style=" stroke:none;fill-rule:evenodd;fill:rgb(49.411765%,80.392157%,73.333333%);fill-opacity:1;" d="M 539.496094 345.261719 L 556.34375 345.261719 L 556.34375 339.59375 L 539.496094 339.59375 Z M 539.496094 345.261719 "/>
<path style=" stroke:none;fill-rule:evenodd;fill:rgb(21.568627%,65.490196%,85.882353%);fill-opacity:1;" d="M 425.773438 278.929688 L 442.621094 278.929688 L 442.621094 273.261719 L 425.773438 273.261719 Z M 425.773438 278.929688 "/>
<path style=" stroke:none;fill-rule:evenodd;fill:rgb(49.411765%,80.392157%,73.333333%);fill-opacity:1;" d="M 398.160156 227.339844 L 415.007812 227.339844 L 415.007812 221.671875 L 398.160156 221.671875 Z M 398.160156 227.339844 "/>
<path style=" stroke:none;fill-rule:evenodd;fill:rgb(49.411765%,80.392157%,73.333333%);fill-opacity:1;" d="M 371.953125 79.9375 L 388.800781 79.9375 L 388.800781 74.269531 L 371.953125 74.269531 Z M 371.953125 79.9375 "/>
<path style=" stroke:none;fill-rule:evenodd;fill:rgb(49.411765%,80.392157%,73.333333%);fill-opacity:1;" d="M 305.027344 94.675781 L 321.875 94.675781 L 321.875 89.007812 L 305.027344 89.007812 Z M 305.027344 94.675781 "/>
<path style=" stroke:none;fill-rule:evenodd;fill:rgb(49.411765%,80.392157%,73.333333%);fill-opacity:1;" d="M 254.484375 315.78125 L 271.332031 315.78125 L 271.332031 310.113281 L 254.484375 310.113281 Z M 254.484375 315.78125 "/>
<path style=" stroke:none;fill-rule:evenodd;fill:rgb(49.411765%,80.392157%,73.333333%);fill-opacity:1;" d="M 293.796875 109.417969 L 310.644531 109.417969 L 310.644531 103.75 L 293.796875 103.75 Z M 293.796875 109.417969 "/>
<path style=" stroke:none;fill-rule:evenodd;fill:rgb(49.411765%,80.392157%,73.333333%);fill-opacity:1;" d="M 387.863281 212.597656 L 404.710938 212.597656 L 404.710938 206.929688 L 387.863281 206.929688 Z M 387.863281 212.597656 "/>
<path style=" stroke:none;fill-rule:evenodd;fill:rgb(21.568627%,65.490196%,85.882353%);fill-opacity:1;" d="M 373.824219 72.566406 L 390.671875 72.566406 L 390.671875 66.898438 L 373.824219 66.898438 Z M 373.824219 72.566406 "/>
<path style=" stroke:none;fill-rule:evenodd;fill:rgb(21.568627%,65.490196%,85.882353%);fill-opacity:1;" d="M 160.882812 323.148438 L 177.730469 323.148438 L 177.730469 317.480469 L 160.882812 317.480469 Z M 160.882812 323.148438 "/>
<path style=" stroke:none;fill-rule:evenodd;fill:rgb(21.568627%,65.490196%,85.882353%);fill-opacity:1;" d="M 297.539062 72.566406 L 314.386719 72.566406 L 314.386719 66.898438 L 297.539062 66.898438 Z M 297.539062 72.566406 "/>
<path style=" stroke:none;fill-rule:evenodd;fill:rgb(21.568627%,65.490196%,85.882353%);fill-opacity:1;" d="M 419.21875 264.1875 L 436.066406 264.1875 L 436.066406 258.519531 L 419.21875 258.519531 Z M 419.21875 264.1875 "/>
<path style=" stroke:none;fill-rule:evenodd;fill:rgb(21.568627%,65.490196%,85.882353%);fill-opacity:1;" d="M 382.714844 205.226562 L 399.5625 205.226562 L 399.5625 199.558594 L 382.714844 199.558594 Z M 382.714844 205.226562 "/>
<path style=" stroke:none;fill-rule:evenodd;fill:rgb(49.411765%,80.392157%,73.333333%);fill-opacity:1;" d="M 409.390625 256.820312 L 426.238281 256.820312 L 426.238281 251.152344 L 409.390625 251.152344 Z M 409.390625 256.820312 "/>
<path style=" stroke:none;fill-rule:evenodd;fill:rgb(49.411765%,80.392157%,73.333333%);fill-opacity:1;" d="M 473.976562 345.261719 L 490.824219 345.261719 L 490.824219 339.59375 L 473.976562 339.59375 Z M 473.976562 345.261719 "/>
<path style=" stroke:none;fill-rule:evenodd;fill:rgb(21.568627%,65.490196%,85.882353%);fill-opacity:1;" d="M 449.640625 323.148438 L 466.488281 323.148438 L 466.488281 317.480469 L 449.640625 317.480469 Z M 449.640625 323.148438 "/>
<path style=" stroke:none;fill-rule:evenodd;fill:rgb(21.568627%,65.490196%,85.882353%);fill-opacity:1;" d="M 410.796875 249.449219 L 427.644531 249.449219 L 427.644531 243.78125 L 410.796875 243.78125 Z M 410.796875 249.449219 "/>
<path style=" stroke:none;fill-rule:evenodd;fill:rgb(21.568627%,65.490196%,85.882353%);fill-opacity:1;" d="M 393.949219 219.96875 L 410.796875 219.96875 L 410.796875 214.300781 L 393.949219 214.300781 Z M 393.949219 219.96875 "/>
<path style=" stroke:none;fill-rule:evenodd;fill:rgb(21.568627%,65.490196%,85.882353%);fill-opacity:1;" d="M 255.886719 308.410156 L 272.734375 308.410156 L 272.734375 302.742188 L 255.886719 302.742188 Z M 255.886719 308.410156 "/>
<path style=" stroke:none;fill-rule:evenodd;fill:rgb(49.411765%,80.392157%,73.333333%);fill-opacity:1;" d="M 287.242188 153.636719 L 304.089844 153.636719 L 304.089844 147.96875 L 287.242188 147.96875 Z M 287.242188 153.636719 "/>
<path style=" stroke:none;fill-rule:evenodd;fill:rgb(21.568627%,65.490196%,85.882353%);fill-opacity:1;" d="M 403.777344 190.488281 L 420.625 190.488281 L 420.625 184.820312 L 403.777344 184.820312 Z M 403.777344 190.488281 "/>
<path style=" stroke:none;fill-rule:evenodd;fill:rgb(49.411765%,80.392157%,73.333333%);fill-opacity:1;" d="M 307.835938 65.195312 L 324.683594 65.195312 L 324.683594 59.527344 L 307.835938 59.527344 Z M 307.835938 65.195312 "/>
<path style=" stroke:none;fill-rule:evenodd;fill:rgb(49.411765%,80.392157%,73.333333%);fill-opacity:1;" d="M 371.484375 65.195312 L 388.332031 65.195312 L 388.332031 59.527344 L 371.484375 59.527344 Z M 371.484375 65.195312 "/>
<g clip-path="url(#clip2)" clip-rule="nonzero">
<path style="fill:none;stroke-width:0.75;stroke-linecap:round;stroke-linejoin:round;stroke:rgb(0%,0%,0%);stroke-opacity:1;stroke-miterlimit:10;" d="M 108 360 L 576 360 "/>
</g>
</g>
</svg>
