<?xml version="1.0" encoding="UTF-8"?>
<svg xmlns="http://www.w3.org/2000/svg" xmlns:xlink="http://www.w3.org/1999/xlink" width="594pt" height="234pt" viewBox="0 0 594 234" version="1.1">
<g id="surface730">
<path style=" stroke:none;fill-rule:nonzero;fill:rgb(65.882353%,67.843137%,72.156863%);fill-opacity:1;" d="M 100.800781 61.199219 L 100.664062 61.199219 L 100.597656 61.203125 L 100.527344 61.203125 L 100.460938 61.207031 L 100.394531 61.207031 L 100.324219 61.210938 L 100.191406 61.21875 L 100.121094 61.222656 L 99.988281 61.230469 L 99.917969 61.234375 L 99.851562 61.242188 L 99.785156 61.246094 L 99.714844 61.253906 L 99.515625 61.277344 L 99.445312 61.285156 L 99.378906 61.292969 L 99.3125 61.304688 L 99.246094 61.3125 L 99.175781 61.324219 L 99.109375 61.332031 L 98.710938 61.402344 L 98.644531 61.417969 L 98.578125 61.429688 L 98.046875 61.554688 L 97.984375 61.574219 L 97.917969 61.589844 L 97.785156 61.628906 L 97.722656 61.648438 L 97.65625 61.667969 L 97.59375 61.6875 L 97.527344 61.707031 L 97.460938 61.730469 L 97.398438 61.75 L 97.332031 61.769531 L 97.207031 61.816406 L 97.140625 61.839844 L 97.015625 61.886719 L 96.949219 61.910156 L 96.824219 61.957031 L 96.761719 61.984375 L 96.699219 62.007812 L 96.261719 62.199219 L 96.203125 62.226562 L 96.140625 62.257812 L 96.078125 62.285156 L 96.019531 62.316406 L 95.957031 62.347656 L 95.898438 62.378906 L 95.835938 62.40625 L 95.777344 62.441406 L 95.714844 62.472656 L 95.597656 62.535156 L 95.539062 62.570312 L 95.480469 62.601562 L 95.417969 62.636719 L 95.359375 62.667969 L 95.242188 62.738281 L 95.1875 62.773438 L 95.070312 62.84375 L 95.011719 62.882812 L 94.957031 62.917969 L 94.898438 62.953125 L 94.84375 62.992188 L 94.785156 63.03125 L 94.730469 63.066406 L 94.671875 63.105469 L 94.398438 63.300781 L 94.34375 63.34375 L 94.289062 63.382812 L 94.234375 63.425781 L 94.179688 63.464844 L 94.128906 63.507812 L 94.019531 63.59375 L 93.96875 63.636719 L 93.914062 63.679688 L 93.761719 63.808594 L 93.707031 63.855469 L 93.65625 63.898438 L 93.605469 63.945312 L 93.554688 63.988281 L 93.507812 64.035156 L 93.40625 64.128906 L 93.359375 64.171875 L 93.308594 64.21875 L 93.261719 64.269531 L 93.210938 64.316406 L 93.019531 64.507812 L 92.972656 64.558594 L 92.925781 64.605469 L 92.878906 64.65625 L 92.835938 64.707031 L 92.742188 64.808594 L 92.699219 64.859375 L 92.652344 64.910156 L 92.523438 65.0625 L 92.476562 65.117188 L 92.433594 65.167969 L 92.394531 65.222656 L 92.351562 65.273438 L 92.308594 65.328125 L 92.265625 65.378906 L 92.226562 65.433594 L 92.183594 65.488281 L 92.144531 65.542969 L 92.101562 65.597656 L 91.945312 65.816406 L 91.90625 65.875 L 91.828125 65.984375 L 91.792969 66.042969 L 91.753906 66.097656 L 91.71875 66.15625 L 91.679688 66.214844 L 91.644531 66.269531 L 91.46875 66.5625 L 91.4375 66.621094 L 91.367188 66.738281 L 91.304688 66.855469 L 91.269531 66.917969 L 91.207031 67.035156 L 91.175781 67.097656 L 91.148438 67.15625 L 91.117188 67.21875 L 91.085938 67.277344 L 91.058594 67.339844 L 91.027344 67.402344 L 91 67.464844 L 90.972656 67.523438 L 90.941406 67.585938 L 90.886719 67.710938 L 90.863281 67.773438 L 90.808594 67.898438 L 90.785156 67.960938 L 90.757812 68.023438 L 90.734375 68.085938 L 90.710938 68.152344 L 90.683594 68.214844 L 90.636719 68.339844 L 90.617188 68.40625 L 90.59375 68.46875 L 90.570312 68.535156 L 90.550781 68.597656 L 90.527344 68.664062 L 90.507812 68.726562 L 90.488281 68.792969 L 90.46875 68.855469 L 90.429688 68.988281 L 90.410156 69.050781 L 90.390625 69.117188 L 90.375 69.183594 L 90.355469 69.25 L 90.339844 69.3125 L 90.324219 69.378906 L 90.304688 69.445312 L 90.273438 69.578125 L 90.261719 69.644531 L 90.230469 69.777344 L 90.21875 69.84375 L 90.203125 69.910156 L 90.132812 70.308594 L 90.121094 70.378906 L 90.113281 70.445312 L 90.101562 70.511719 L 90.085938 70.644531 L 90.078125 70.714844 L 90.0625 70.847656 L 90.054688 70.917969 L 90.046875 70.984375 L 90.042969 71.050781 L 90.035156 71.117188 L 90.03125 71.1875 L 90.027344 71.253906 L 90.019531 71.320312 L 90.015625 71.390625 L 90.011719 71.457031 L 90.011719 71.523438 L 90.007812 71.59375 L 90.003906 71.660156 L 90.003906 71.730469 L 90 71.796875 L 90 72.203125 L 90.003906 72.269531 L 90.003906 72.339844 L 90.007812 72.40625 L 90.011719 72.476562 L 90.011719 72.542969 L 90.015625 72.609375 L 90.019531 72.679688 L 90.027344 72.746094 L 90.03125 72.8125 L 90.035156 72.882812 L 90.042969 72.949219 L 90.046875 73.015625 L 90.054688 73.082031 L 90.0625 73.152344 L 90.078125 73.285156 L 90.085938 73.355469 L 90.101562 73.488281 L 90.113281 73.554688 L 90.121094 73.621094 L 90.132812 73.691406 L 90.203125 74.089844 L 90.21875 74.15625 L 90.230469 74.222656 L 90.261719 74.355469 L 90.273438 74.421875 L 90.304688 74.554688 L 90.324219 74.621094 L 90.339844 74.6875 L 90.355469 74.75 L 90.375 74.816406 L 90.390625 74.882812 L 90.410156 74.949219 L 90.429688 75.011719 L 90.46875 75.144531 L 90.488281 75.207031 L 90.507812 75.273438 L 90.527344 75.335938 L 90.550781 75.402344 L 90.570312 75.464844 L 90.59375 75.53125 L 90.617188 75.59375 L 90.636719 75.660156 L 90.683594 75.785156 L 90.710938 75.847656 L 90.734375 75.914062 L 90.757812 75.976562 L 90.785156 76.039062 L 90.808594 76.101562 L 90.863281 76.226562 L 90.886719 76.289062 L 90.941406 76.414062 L 90.972656 76.476562 L 91 76.535156 L 91.027344 76.597656 L 91.058594 76.660156 L 91.085938 76.722656 L 91.117188 76.78125 L 91.148438 76.84375 L 91.175781 76.902344 L 91.207031 76.964844 L 91.269531 77.082031 L 91.304688 77.144531 L 91.367188 77.261719 L 91.4375 77.378906 L 91.46875 77.4375 L 91.644531 77.730469 L 91.679688 77.785156 L 91.71875 77.84375 L 91.753906 77.902344 L 91.792969 77.957031 L 91.828125 78.015625 L 91.90625 78.125 L 91.945312 78.183594 L 92.101562 78.402344 L 92.144531 78.457031 L 92.183594 78.511719 L 92.226562 78.566406 L 92.265625 78.621094 L 92.308594 78.671875 L 92.351562 78.726562 L 92.394531 78.777344 L 92.433594 78.832031 L 92.476562 78.882812 L 92.523438 78.9375 L 92.652344 79.089844 L 92.699219 79.140625 L 92.742188 79.191406 L 92.835938 79.292969 L 92.878906 79.34375 L 92.925781 79.394531 L 92.972656 79.441406 L 93.019531 79.492188 L 93.210938 79.683594 L 93.261719 79.730469 L 93.308594 79.78125 L 93.359375 79.828125 L 93.40625 79.871094 L 93.507812 79.964844 L 93.554688 80.011719 L 93.605469 80.054688 L 93.65625 80.101562 L 93.707031 80.144531 L 93.761719 80.191406 L 93.914062 80.320312 L 93.96875 80.363281 L 94.019531 80.40625 L 94.128906 80.492188 L 94.179688 80.535156 L 94.234375 80.574219 L 94.289062 80.617188 L 94.34375 80.65625 L 94.398438 80.699219 L 94.671875 80.894531 L 94.730469 80.933594 L 94.785156 80.96875 L 94.84375 81.007812 L 94.898438 81.046875 L 94.957031 81.082031 L 95.011719 81.117188 L 95.070312 81.15625 L 95.1875 81.226562 L 95.242188 81.261719 L 95.359375 81.332031 L 95.417969 81.363281 L 95.480469 81.398438 L 95.539062 81.429688 L 95.597656 81.464844 L 95.714844 81.527344 L 95.777344 81.558594 L 95.835938 81.59375 L 95.898438 81.621094 L 95.957031 81.652344 L 96.019531 81.683594 L 96.078125 81.714844 L 96.140625 81.742188 L 96.203125 81.773438 L 96.261719 81.800781 L 96.699219 81.992188 L 96.761719 82.015625 L 96.824219 82.042969 L 96.949219 82.089844 L 97.015625 82.113281 L 97.140625 82.160156 L 97.207031 82.183594 L 97.332031 82.230469 L 97.398438 82.25 L 97.460938 82.269531 L 97.527344 82.292969 L 97.59375 82.3125 L 97.65625 82.332031 L 97.722656 82.351562 L 97.785156 82.371094 L 97.917969 82.410156 L 97.984375 82.425781 L 98.046875 82.445312 L 98.578125 82.570312 L 98.644531 82.582031 L 98.710938 82.597656 L 99.109375 82.667969 L 99.175781 82.675781 L 99.246094 82.6875 L 99.3125 82.695312 L 99.378906 82.707031 L 99.445312 82.714844 L 99.515625 82.722656 L 99.714844 82.746094 L 99.785156 82.753906 L 99.851562 82.757812 L 99.917969 82.765625 L 99.988281 82.769531 L 100.121094 82.777344 L 100.191406 82.78125 L 100.324219 82.789062 L 100.394531 82.792969 L 100.460938 82.792969 L 100.527344 82.796875 L 100.597656 82.796875 L 100.664062 82.800781 L 114.085938 82.800781 L 114.085938 61.199219 Z M 100.800781 61.199219 "/>
<path style=" stroke:none;fill-rule:nonzero;fill:rgb(100%,100%,100%);fill-opacity:1;" d="M 493.199219 82.800781 L 493.335938 82.800781 L 493.402344 82.796875 L 493.472656 82.796875 L 493.539062 82.792969 L 493.605469 82.792969 L 493.675781 82.789062 L 493.808594 82.78125 L 493.878906 82.777344 L 494.011719 82.769531 L 494.082031 82.765625 L 494.148438 82.757812 L 494.214844 82.753906 L 494.285156 82.746094 L 494.484375 82.722656 L 494.554688 82.714844 L 494.621094 82.707031 L 494.6875 82.695312 L 494.753906 82.6875 L 494.824219 82.675781 L 494.890625 82.667969 L 495.289062 82.597656 L 495.355469 82.582031 L 495.421875 82.570312 L 495.953125 82.445312 L 496.015625 82.425781 L 496.082031 82.410156 L 496.214844 82.371094 L 496.277344 82.351562 L 496.34375 82.332031 L 496.40625 82.3125 L 496.472656 82.292969 L 496.539062 82.269531 L 496.601562 82.25 L 496.667969 82.230469 L 496.792969 82.183594 L 496.859375 82.160156 L 496.984375 82.113281 L 497.050781 82.089844 L 497.175781 82.042969 L 497.238281 82.015625 L 497.300781 81.992188 L 497.738281 81.800781 L 497.796875 81.773438 L 497.859375 81.742188 L 497.921875 81.714844 L 497.980469 81.683594 L 498.042969 81.652344 L 498.101562 81.621094 L 498.164062 81.59375 L 498.222656 81.558594 L 498.285156 81.527344 L 498.402344 81.464844 L 498.460938 81.429688 L 498.519531 81.398438 L 498.582031 81.363281 L 498.640625 81.332031 L 498.757812 81.261719 L 498.8125 81.226562 L 498.929688 81.15625 L 498.988281 81.117188 L 499.042969 81.082031 L 499.101562 81.046875 L 499.15625 81.007812 L 499.214844 80.96875 L 499.269531 80.933594 L 499.328125 80.894531 L 499.601562 80.699219 L 499.65625 80.65625 L 499.710938 80.617188 L 499.765625 80.574219 L 499.820312 80.535156 L 499.871094 80.492188 L 499.980469 80.40625 L 500.03125 80.363281 L 500.085938 80.320312 L 500.238281 80.191406 L 500.292969 80.144531 L 500.34375 80.101562 L 500.394531 80.054688 L 500.445312 80.011719 L 500.492188 79.964844 L 500.59375 79.871094 L 500.640625 79.828125 L 500.691406 79.78125 L 500.738281 79.730469 L 500.789062 79.683594 L 500.980469 79.492188 L 501.027344 79.441406 L 501.074219 79.394531 L 501.121094 79.34375 L 501.164062 79.292969 L 501.257812 79.191406 L 501.300781 79.140625 L 501.347656 79.089844 L 501.476562 78.9375 L 501.523438 78.882812 L 501.566406 78.832031 L 501.605469 78.777344 L 501.648438 78.726562 L 501.691406 78.671875 L 501.734375 78.621094 L 501.773438 78.566406 L 501.816406 78.511719 L 501.855469 78.457031 L 501.898438 78.402344 L 502.054688 78.183594 L 502.09375 78.125 L 502.171875 78.015625 L 502.207031 77.957031 L 502.246094 77.902344 L 502.28125 77.84375 L 502.320312 77.785156 L 502.355469 77.730469 L 502.53125 77.4375 L 502.5625 77.378906 L 502.632812 77.261719 L 502.695312 77.144531 L 502.730469 77.082031 L 502.792969 76.964844 L 502.824219 76.902344 L 502.851562 76.84375 L 502.882812 76.78125 L 502.914062 76.722656 L 502.941406 76.660156 L 502.972656 76.597656 L 503 76.535156 L 503.027344 76.476562 L 503.058594 76.414062 L 503.113281 76.289062 L 503.136719 76.226562 L 503.191406 76.101562 L 503.214844 76.039062 L 503.242188 75.976562 L 503.265625 75.914062 L 503.289062 75.847656 L 503.316406 75.785156 L 503.363281 75.660156 L 503.382812 75.59375 L 503.40625 75.53125 L 503.429688 75.464844 L 503.449219 75.402344 L 503.472656 75.335938 L 503.492188 75.273438 L 503.511719 75.207031 L 503.53125 75.144531 L 503.570312 75.011719 L 503.589844 74.949219 L 503.609375 74.882812 L 503.625 74.816406 L 503.644531 74.75 L 503.660156 74.6875 L 503.675781 74.621094 L 503.695312 74.554688 L 503.726562 74.421875 L 503.738281 74.355469 L 503.769531 74.222656 L 503.78125 74.15625 L 503.796875 74.089844 L 503.867188 73.691406 L 503.878906 73.621094 L 503.886719 73.554688 L 503.898438 73.488281 L 503.914062 73.355469 L 503.921875 73.285156 L 503.9375 73.152344 L 503.945312 73.082031 L 503.953125 73.015625 L 503.957031 72.949219 L 503.964844 72.882812 L 503.96875 72.8125 L 503.972656 72.746094 L 503.980469 72.679688 L 503.984375 72.609375 L 503.988281 72.542969 L 503.988281 72.476562 L 503.992188 72.40625 L 503.996094 72.339844 L 503.996094 72.269531 L 504 72.203125 L 504 71.796875 L 503.996094 71.730469 L 503.996094 71.660156 L 503.992188 71.59375 L 503.988281 71.523438 L 503.988281 71.457031 L 503.984375 71.390625 L 503.980469 71.320312 L 503.972656 71.253906 L 503.96875 71.1875 L 503.964844 71.117188 L 503.957031 71.050781 L 503.953125 70.984375 L 503.945312 70.917969 L 503.9375 70.847656 L 503.921875 70.714844 L 503.914062 70.644531 L 503.898438 70.511719 L 503.886719 70.445312 L 503.878906 70.378906 L 503.867188 70.308594 L 503.796875 69.910156 L 503.78125 69.84375 L 503.769531 69.777344 L 503.738281 69.644531 L 503.726562 69.578125 L 503.695312 69.445312 L 503.675781 69.378906 L 503.660156 69.3125 L 503.644531 69.25 L 503.625 69.183594 L 503.609375 69.117188 L 503.589844 69.050781 L 503.570312 68.988281 L 503.53125 68.855469 L 503.511719 68.792969 L 503.492188 68.726562 L 503.472656 68.664062 L 503.449219 68.597656 L 503.429688 68.535156 L 503.40625 68.46875 L 503.382812 68.40625 L 503.363281 68.339844 L 503.316406 68.214844 L 503.289062 68.152344 L 503.265625 68.085938 L 503.242188 68.023438 L 503.214844 67.960938 L 503.191406 67.898438 L 503.136719 67.773438 L 503.113281 67.710938 L 503.058594 67.585938 L 503.027344 67.523438 L 503 67.464844 L 502.972656 67.402344 L 502.941406 67.339844 L 502.914062 67.277344 L 502.882812 67.21875 L 502.851562 67.15625 L 502.824219 67.097656 L 502.792969 67.035156 L 502.730469 66.917969 L 502.695312 66.855469 L 502.632812 66.738281 L 502.5625 66.621094 L 502.53125 66.5625 L 502.355469 66.269531 L 502.320312 66.214844 L 502.28125 66.15625 L 502.246094 66.097656 L 502.207031 66.042969 L 502.171875 65.984375 L 502.09375 65.875 L 502.054688 65.816406 L 501.898438 65.597656 L 501.855469 65.542969 L 501.816406 65.488281 L 501.773438 65.433594 L 501.734375 65.378906 L 501.691406 65.328125 L 501.648438 65.273438 L 501.605469 65.222656 L 501.566406 65.167969 L 501.523438 65.117188 L 501.476562 65.0625 L 501.347656 64.910156 L 501.300781 64.859375 L 501.257812 64.808594 L 501.164062 64.707031 L 501.121094 64.65625 L 501.074219 64.605469 L 501.027344 64.558594 L 500.980469 64.507812 L 500.789062 64.316406 L 500.738281 64.269531 L 500.691406 64.21875 L 500.640625 64.171875 L 500.59375 64.128906 L 500.492188 64.035156 L 500.445312 63.988281 L 500.394531 63.945312 L 500.34375 63.898438 L 500.292969 63.855469 L 500.238281 63.808594 L 500.085938 63.679688 L 500.03125 63.636719 L 499.980469 63.59375 L 499.871094 63.507812 L 499.820312 63.464844 L 499.765625 63.425781 L 499.710938 63.382812 L 499.65625 63.34375 L 499.601562 63.300781 L 499.328125 63.105469 L 499.269531 63.066406 L 499.214844 63.03125 L 499.15625 62.992188 L 499.101562 62.953125 L 499.042969 62.917969 L 498.988281 62.882812 L 498.929688 62.84375 L 498.8125 62.773438 L 498.757812 62.738281 L 498.640625 62.667969 L 498.582031 62.636719 L 498.519531 62.601562 L 498.460938 62.570312 L 498.402344 62.535156 L 498.285156 62.472656 L 498.222656 62.441406 L 498.164062 62.40625 L 498.101562 62.378906 L 498.042969 62.347656 L 497.980469 62.316406 L 497.921875 62.285156 L 497.859375 62.257812 L 497.796875 62.226562 L 497.738281 62.199219 L 497.300781 62.007812 L 497.238281 61.984375 L 497.175781 61.957031 L 497.050781 61.910156 L 496.984375 61.886719 L 496.859375 61.839844 L 496.792969 61.816406 L 496.667969 61.769531 L 496.601562 61.75 L 496.539062 61.730469 L 496.472656 61.707031 L 496.40625 61.6875 L 496.34375 61.667969 L 496.277344 61.648438 L 496.214844 61.628906 L 496.082031 61.589844 L 496.015625 61.574219 L 495.953125 61.554688 L 495.421875 61.429688 L 495.355469 61.417969 L 495.289062 61.402344 L 494.890625 61.332031 L 494.824219 61.324219 L 494.753906 61.3125 L 494.6875 61.304688 L 494.621094 61.292969 L 494.554688 61.285156 L 494.484375 61.277344 L 494.285156 61.253906 L 494.214844 61.246094 L 494.148438 61.242188 L 494.082031 61.234375 L 494.011719 61.230469 L 493.878906 61.222656 L 493.808594 61.21875 L 493.675781 61.210938 L 493.605469 61.207031 L 493.539062 61.207031 L 493.472656 61.203125 L 493.402344 61.203125 L 493.335938 61.199219 L 456.433594 61.199219 L 456.433594 82.800781 Z M 493.199219 82.800781 "/>
<path style=" stroke:none;fill-rule:nonzero;fill:rgb(84.313725%,91.372549%,70.588235%);fill-opacity:1;" d="M 195.441406 82.800781 L 195.578125 82.800781 L 195.644531 82.796875 L 195.714844 82.796875 L 195.78125 82.792969 L 195.851562 82.792969 L 195.984375 82.785156 L 196.054688 82.78125 L 196.1875 82.773438 L 196.257812 82.769531 L 196.324219 82.765625 L 196.390625 82.757812 L 196.460938 82.753906 L 196.660156 82.730469 L 196.730469 82.722656 L 196.863281 82.707031 L 196.929688 82.695312 L 197 82.6875 L 197.066406 82.675781 L 197.132812 82.667969 L 197.53125 82.597656 L 197.597656 82.582031 L 197.667969 82.570312 L 197.730469 82.554688 L 198.195312 82.445312 L 198.261719 82.425781 L 198.324219 82.410156 L 198.457031 82.371094 L 198.519531 82.351562 L 198.652344 82.3125 L 198.714844 82.292969 L 198.78125 82.269531 L 198.84375 82.25 L 198.910156 82.230469 L 198.972656 82.207031 L 199.039062 82.183594 L 199.226562 82.113281 L 199.292969 82.089844 L 199.417969 82.042969 L 199.480469 82.015625 L 199.542969 81.992188 L 200.042969 81.773438 L 200.101562 81.742188 L 200.164062 81.714844 L 200.222656 81.683594 L 200.347656 81.621094 L 200.40625 81.59375 L 200.464844 81.558594 L 200.527344 81.527344 L 200.644531 81.464844 L 200.703125 81.429688 L 200.765625 81.398438 L 200.824219 81.363281 L 200.882812 81.332031 L 201.058594 81.226562 L 201.113281 81.191406 L 201.171875 81.15625 L 201.230469 81.117188 L 201.285156 81.082031 L 201.34375 81.046875 L 201.402344 81.007812 L 201.457031 80.96875 L 201.511719 80.933594 L 201.570312 80.894531 L 201.84375 80.699219 L 201.898438 80.65625 L 201.953125 80.617188 L 202.007812 80.574219 L 202.0625 80.535156 L 202.117188 80.492188 L 202.167969 80.449219 L 202.222656 80.40625 L 202.273438 80.363281 L 202.328125 80.320312 L 202.429688 80.234375 L 202.484375 80.191406 L 202.535156 80.144531 L 202.585938 80.101562 L 202.636719 80.054688 L 202.6875 80.011719 L 202.738281 79.964844 L 202.785156 79.917969 L 202.835938 79.871094 L 202.886719 79.828125 L 203.078125 79.636719 L 203.128906 79.589844 L 203.175781 79.539062 L 203.222656 79.492188 L 203.269531 79.441406 L 203.316406 79.394531 L 203.363281 79.34375 L 203.40625 79.292969 L 203.5 79.191406 L 203.542969 79.140625 L 203.589844 79.089844 L 203.675781 78.988281 L 203.722656 78.9375 L 203.765625 78.882812 L 203.808594 78.832031 L 203.851562 78.777344 L 203.890625 78.726562 L 203.933594 78.671875 L 203.976562 78.621094 L 204.019531 78.566406 L 204.058594 78.511719 L 204.101562 78.457031 L 204.296875 78.183594 L 204.335938 78.125 L 204.414062 78.015625 L 204.449219 77.957031 L 204.488281 77.902344 L 204.523438 77.84375 L 204.5625 77.785156 L 204.597656 77.730469 L 204.808594 77.378906 L 204.839844 77.320312 L 204.875 77.261719 L 204.9375 77.144531 L 204.972656 77.082031 L 205.035156 76.964844 L 205.066406 76.902344 L 205.097656 76.84375 L 205.125 76.78125 L 205.15625 76.722656 L 205.1875 76.660156 L 205.242188 76.535156 L 205.273438 76.476562 L 205.382812 76.226562 L 205.40625 76.164062 L 205.460938 76.039062 L 205.507812 75.914062 L 205.535156 75.847656 L 205.605469 75.660156 L 205.628906 75.59375 L 205.648438 75.53125 L 205.671875 75.464844 L 205.691406 75.402344 L 205.714844 75.335938 L 205.734375 75.273438 L 205.753906 75.207031 L 205.773438 75.144531 L 205.8125 75.011719 L 205.832031 74.949219 L 205.851562 74.882812 L 205.867188 74.816406 L 205.886719 74.75 L 205.902344 74.6875 L 205.921875 74.621094 L 205.984375 74.355469 L 205.996094 74.289062 L 206.011719 74.222656 L 206.023438 74.15625 L 206.039062 74.089844 L 206.109375 73.691406 L 206.121094 73.621094 L 206.128906 73.554688 L 206.140625 73.488281 L 206.15625 73.355469 L 206.164062 73.285156 L 206.179688 73.152344 L 206.1875 73.082031 L 206.195312 73.015625 L 206.199219 72.949219 L 206.207031 72.882812 L 206.210938 72.8125 L 206.21875 72.746094 L 206.222656 72.679688 L 206.226562 72.609375 L 206.230469 72.542969 L 206.230469 72.476562 L 206.234375 72.40625 L 206.238281 72.339844 L 206.238281 72.269531 L 206.242188 72.203125 L 206.242188 71.796875 L 206.238281 71.730469 L 206.238281 71.660156 L 206.234375 71.59375 L 206.230469 71.523438 L 206.230469 71.457031 L 206.226562 71.390625 L 206.222656 71.320312 L 206.21875 71.253906 L 206.210938 71.1875 L 206.207031 71.117188 L 206.199219 71.050781 L 206.195312 70.984375 L 206.1875 70.917969 L 206.179688 70.847656 L 206.164062 70.714844 L 206.15625 70.644531 L 206.140625 70.511719 L 206.128906 70.445312 L 206.121094 70.378906 L 206.109375 70.308594 L 206.039062 69.910156 L 206.023438 69.84375 L 206.011719 69.777344 L 205.996094 69.710938 L 205.984375 69.644531 L 205.921875 69.378906 L 205.902344 69.3125 L 205.886719 69.25 L 205.867188 69.183594 L 205.851562 69.117188 L 205.832031 69.050781 L 205.8125 68.988281 L 205.773438 68.855469 L 205.753906 68.792969 L 205.734375 68.726562 L 205.714844 68.664062 L 205.691406 68.597656 L 205.671875 68.535156 L 205.648438 68.46875 L 205.628906 68.40625 L 205.605469 68.339844 L 205.535156 68.152344 L 205.507812 68.085938 L 205.460938 67.960938 L 205.40625 67.835938 L 205.382812 67.773438 L 205.273438 67.523438 L 205.242188 67.464844 L 205.1875 67.339844 L 205.15625 67.277344 L 205.125 67.21875 L 205.097656 67.15625 L 205.066406 67.097656 L 205.035156 67.035156 L 204.972656 66.917969 L 204.9375 66.855469 L 204.875 66.738281 L 204.839844 66.679688 L 204.808594 66.621094 L 204.597656 66.269531 L 204.5625 66.214844 L 204.523438 66.15625 L 204.488281 66.097656 L 204.449219 66.042969 L 204.414062 65.984375 L 204.335938 65.875 L 204.296875 65.816406 L 204.101562 65.542969 L 204.058594 65.488281 L 204.019531 65.433594 L 203.976562 65.378906 L 203.933594 65.328125 L 203.890625 65.273438 L 203.851562 65.222656 L 203.808594 65.167969 L 203.765625 65.117188 L 203.722656 65.0625 L 203.675781 65.011719 L 203.589844 64.910156 L 203.542969 64.859375 L 203.5 64.808594 L 203.40625 64.707031 L 203.363281 64.65625 L 203.316406 64.605469 L 203.269531 64.558594 L 203.222656 64.507812 L 203.175781 64.460938 L 203.128906 64.410156 L 203.078125 64.363281 L 202.886719 64.171875 L 202.835938 64.128906 L 202.785156 64.082031 L 202.738281 64.035156 L 202.6875 63.988281 L 202.636719 63.945312 L 202.585938 63.898438 L 202.535156 63.855469 L 202.484375 63.808594 L 202.429688 63.765625 L 202.328125 63.679688 L 202.273438 63.636719 L 202.222656 63.59375 L 202.167969 63.550781 L 202.117188 63.507812 L 202.0625 63.464844 L 202.007812 63.425781 L 201.953125 63.382812 L 201.898438 63.34375 L 201.84375 63.300781 L 201.570312 63.105469 L 201.511719 63.066406 L 201.457031 63.03125 L 201.402344 62.992188 L 201.34375 62.953125 L 201.285156 62.917969 L 201.230469 62.882812 L 201.171875 62.84375 L 201.113281 62.808594 L 201.058594 62.773438 L 200.882812 62.667969 L 200.824219 62.636719 L 200.765625 62.601562 L 200.703125 62.570312 L 200.644531 62.535156 L 200.527344 62.472656 L 200.464844 62.441406 L 200.40625 62.40625 L 200.347656 62.378906 L 200.222656 62.316406 L 200.164062 62.285156 L 200.101562 62.257812 L 200.042969 62.226562 L 199.542969 62.007812 L 199.480469 61.984375 L 199.417969 61.957031 L 199.292969 61.910156 L 199.226562 61.886719 L 199.039062 61.816406 L 198.972656 61.792969 L 198.910156 61.769531 L 198.84375 61.75 L 198.78125 61.730469 L 198.714844 61.707031 L 198.652344 61.6875 L 198.519531 61.648438 L 198.457031 61.628906 L 198.324219 61.589844 L 198.261719 61.574219 L 198.195312 61.554688 L 197.730469 61.445312 L 197.667969 61.429688 L 197.597656 61.417969 L 197.53125 61.402344 L 197.132812 61.332031 L 197.066406 61.324219 L 197 61.3125 L 196.929688 61.304688 L 196.863281 61.292969 L 196.730469 61.277344 L 196.660156 61.269531 L 196.460938 61.246094 L 196.390625 61.242188 L 196.324219 61.234375 L 196.257812 61.230469 L 196.1875 61.226562 L 196.054688 61.21875 L 195.984375 61.214844 L 195.851562 61.207031 L 195.78125 61.207031 L 195.714844 61.203125 L 195.644531 61.203125 L 195.578125 61.199219 L 183.757812 61.199219 L 183.757812 82.800781 Z M 195.441406 82.800781 "/>
<path style=" stroke:none;fill-rule:nonzero;fill:rgb(84.313725%,91.372549%,70.588235%);fill-opacity:1;" d="M 211.644531 61.199219 L 211.507812 61.199219 L 211.4375 61.203125 L 211.371094 61.203125 L 211.304688 61.207031 L 211.234375 61.207031 L 211.101562 61.214844 L 211.03125 61.21875 L 210.898438 61.226562 L 210.828125 61.230469 L 210.761719 61.234375 L 210.695312 61.242188 L 210.625 61.246094 L 210.425781 61.269531 L 210.355469 61.277344 L 210.222656 61.292969 L 210.15625 61.304688 L 210.085938 61.3125 L 210.019531 61.324219 L 209.953125 61.332031 L 209.6875 61.378906 L 209.617188 61.390625 L 209.550781 61.402344 L 209.484375 61.417969 L 209.417969 61.429688 L 209.21875 61.476562 L 209.15625 61.492188 L 208.890625 61.554688 L 208.824219 61.574219 L 208.761719 61.589844 L 208.628906 61.628906 L 208.566406 61.648438 L 208.433594 61.6875 L 208.371094 61.707031 L 208.304688 61.730469 L 208.242188 61.75 L 208.175781 61.769531 L 208.113281 61.792969 L 208.046875 61.816406 L 207.921875 61.863281 L 207.855469 61.886719 L 207.667969 61.957031 L 207.605469 61.984375 L 207.542969 62.007812 L 207.476562 62.035156 L 207.414062 62.0625 L 207.355469 62.089844 L 207.042969 62.226562 L 206.984375 62.257812 L 206.921875 62.285156 L 206.859375 62.316406 L 206.800781 62.347656 L 206.738281 62.378906 L 206.679688 62.40625 L 206.617188 62.441406 L 206.441406 62.535156 L 206.378906 62.570312 L 206.320312 62.601562 L 206.261719 62.636719 L 206.203125 62.667969 L 206.027344 62.773438 L 205.972656 62.808594 L 205.914062 62.84375 L 205.855469 62.882812 L 205.796875 62.917969 L 205.742188 62.953125 L 205.683594 62.992188 L 205.628906 63.03125 L 205.570312 63.066406 L 205.351562 63.222656 L 205.292969 63.261719 L 205.238281 63.300781 L 205.183594 63.34375 L 205.132812 63.382812 L 205.078125 63.425781 L 205.023438 63.464844 L 204.96875 63.507812 L 204.917969 63.550781 L 204.863281 63.59375 L 204.8125 63.636719 L 204.757812 63.679688 L 204.65625 63.765625 L 204.601562 63.808594 L 204.550781 63.855469 L 204.5 63.898438 L 204.449219 63.945312 L 204.398438 63.988281 L 204.347656 64.035156 L 204.300781 64.082031 L 204.25 64.128906 L 204.199219 64.171875 L 204.007812 64.363281 L 203.957031 64.410156 L 203.910156 64.460938 L 203.863281 64.507812 L 203.816406 64.558594 L 203.769531 64.605469 L 203.675781 64.707031 L 203.632812 64.757812 L 203.585938 64.808594 L 203.542969 64.859375 L 203.496094 64.910156 L 203.410156 65.011719 L 203.363281 65.0625 L 203.320312 65.117188 L 203.277344 65.167969 L 203.234375 65.222656 L 203.191406 65.273438 L 203.152344 65.328125 L 203.109375 65.378906 L 203.066406 65.433594 L 203.027344 65.488281 L 202.984375 65.542969 L 202.789062 65.816406 L 202.75 65.875 L 202.671875 65.984375 L 202.632812 66.042969 L 202.597656 66.097656 L 202.558594 66.15625 L 202.523438 66.214844 L 202.488281 66.269531 L 202.277344 66.621094 L 202.246094 66.679688 L 202.210938 66.738281 L 202.179688 66.796875 L 202.144531 66.855469 L 202.113281 66.917969 L 202.050781 67.035156 L 202.019531 67.097656 L 201.988281 67.15625 L 201.960938 67.21875 L 201.929688 67.277344 L 201.898438 67.339844 L 201.84375 67.464844 L 201.8125 67.523438 L 201.703125 67.773438 L 201.679688 67.835938 L 201.625 67.960938 L 201.578125 68.085938 L 201.550781 68.152344 L 201.480469 68.339844 L 201.457031 68.40625 L 201.4375 68.46875 L 201.414062 68.535156 L 201.390625 68.597656 L 201.371094 68.664062 L 201.351562 68.726562 L 201.332031 68.792969 L 201.308594 68.855469 L 201.289062 68.921875 L 201.273438 68.988281 L 201.253906 69.050781 L 201.214844 69.183594 L 201.199219 69.25 L 201.183594 69.3125 L 201.164062 69.378906 L 201.101562 69.644531 L 201.089844 69.710938 L 201.058594 69.84375 L 201.023438 70.042969 L 201.007812 70.109375 L 200.996094 70.175781 L 200.988281 70.242188 L 200.976562 70.308594 L 200.964844 70.378906 L 200.957031 70.445312 L 200.945312 70.511719 L 200.929688 70.644531 L 200.917969 70.714844 L 200.902344 70.847656 L 200.898438 70.917969 L 200.882812 71.050781 L 200.878906 71.117188 L 200.875 71.1875 L 200.867188 71.253906 L 200.863281 71.320312 L 200.859375 71.390625 L 200.851562 71.523438 L 200.851562 71.59375 L 200.847656 71.660156 L 200.847656 71.730469 L 200.84375 71.796875 L 200.84375 72.203125 L 200.847656 72.269531 L 200.847656 72.339844 L 200.851562 72.40625 L 200.851562 72.476562 L 200.859375 72.609375 L 200.863281 72.679688 L 200.867188 72.746094 L 200.875 72.8125 L 200.878906 72.882812 L 200.882812 72.949219 L 200.898438 73.082031 L 200.902344 73.152344 L 200.917969 73.285156 L 200.929688 73.355469 L 200.945312 73.488281 L 200.957031 73.554688 L 200.964844 73.621094 L 200.976562 73.691406 L 200.988281 73.757812 L 200.996094 73.824219 L 201.007812 73.890625 L 201.023438 73.957031 L 201.058594 74.15625 L 201.089844 74.289062 L 201.101562 74.355469 L 201.164062 74.621094 L 201.183594 74.6875 L 201.199219 74.75 L 201.214844 74.816406 L 201.253906 74.949219 L 201.273438 75.011719 L 201.289062 75.078125 L 201.308594 75.144531 L 201.332031 75.207031 L 201.351562 75.273438 L 201.371094 75.335938 L 201.390625 75.402344 L 201.414062 75.464844 L 201.4375 75.53125 L 201.457031 75.59375 L 201.480469 75.660156 L 201.550781 75.847656 L 201.578125 75.914062 L 201.625 76.039062 L 201.679688 76.164062 L 201.703125 76.226562 L 201.8125 76.476562 L 201.84375 76.535156 L 201.898438 76.660156 L 201.929688 76.722656 L 201.960938 76.78125 L 201.988281 76.84375 L 202.019531 76.902344 L 202.050781 76.964844 L 202.113281 77.082031 L 202.144531 77.144531 L 202.179688 77.203125 L 202.210938 77.261719 L 202.246094 77.320312 L 202.277344 77.378906 L 202.488281 77.730469 L 202.523438 77.785156 L 202.558594 77.84375 L 202.597656 77.902344 L 202.632812 77.957031 L 202.671875 78.015625 L 202.75 78.125 L 202.789062 78.183594 L 202.984375 78.457031 L 203.027344 78.511719 L 203.066406 78.566406 L 203.109375 78.621094 L 203.152344 78.671875 L 203.191406 78.726562 L 203.234375 78.777344 L 203.277344 78.832031 L 203.320312 78.882812 L 203.363281 78.9375 L 203.410156 78.988281 L 203.496094 79.089844 L 203.542969 79.140625 L 203.585938 79.191406 L 203.632812 79.242188 L 203.675781 79.292969 L 203.769531 79.394531 L 203.816406 79.441406 L 203.863281 79.492188 L 203.910156 79.539062 L 203.957031 79.589844 L 204.007812 79.636719 L 204.199219 79.828125 L 204.25 79.871094 L 204.300781 79.917969 L 204.347656 79.964844 L 204.398438 80.011719 L 204.449219 80.054688 L 204.5 80.101562 L 204.550781 80.144531 L 204.601562 80.191406 L 204.65625 80.234375 L 204.757812 80.320312 L 204.8125 80.363281 L 204.863281 80.40625 L 204.917969 80.449219 L 204.96875 80.492188 L 205.023438 80.535156 L 205.078125 80.574219 L 205.132812 80.617188 L 205.183594 80.65625 L 205.238281 80.699219 L 205.292969 80.738281 L 205.351562 80.777344 L 205.570312 80.933594 L 205.628906 80.96875 L 205.683594 81.007812 L 205.742188 81.046875 L 205.796875 81.082031 L 205.855469 81.117188 L 205.914062 81.15625 L 205.972656 81.191406 L 206.027344 81.226562 L 206.203125 81.332031 L 206.261719 81.363281 L 206.320312 81.398438 L 206.378906 81.429688 L 206.441406 81.464844 L 206.617188 81.558594 L 206.679688 81.59375 L 206.738281 81.621094 L 206.800781 81.652344 L 206.859375 81.683594 L 206.921875 81.714844 L 206.984375 81.742188 L 207.042969 81.773438 L 207.355469 81.910156 L 207.414062 81.9375 L 207.476562 81.964844 L 207.542969 81.992188 L 207.605469 82.015625 L 207.667969 82.042969 L 207.855469 82.113281 L 207.921875 82.136719 L 208.046875 82.183594 L 208.113281 82.207031 L 208.175781 82.230469 L 208.242188 82.25 L 208.304688 82.269531 L 208.371094 82.292969 L 208.433594 82.3125 L 208.566406 82.351562 L 208.628906 82.371094 L 208.761719 82.410156 L 208.824219 82.425781 L 208.890625 82.445312 L 209.15625 82.507812 L 209.21875 82.523438 L 209.417969 82.570312 L 209.484375 82.582031 L 209.550781 82.597656 L 209.617188 82.609375 L 209.6875 82.621094 L 209.953125 82.667969 L 210.019531 82.675781 L 210.085938 82.6875 L 210.15625 82.695312 L 210.222656 82.707031 L 210.355469 82.722656 L 210.425781 82.730469 L 210.625 82.753906 L 210.695312 82.757812 L 210.761719 82.765625 L 210.828125 82.769531 L 210.898438 82.773438 L 211.03125 82.78125 L 211.101562 82.785156 L 211.234375 82.792969 L 211.304688 82.792969 L 211.371094 82.796875 L 211.4375 82.796875 L 211.507812 82.800781 L 213.003906 82.800781 L 213.003906 61.199219 Z M 211.644531 61.199219 "/>
<path style=" stroke:none;fill-rule:nonzero;fill:rgb(76.862745%,89.019608%,94.901961%);fill-opacity:1;" d="M 114.085938 82.800781 L 148.492188 82.800781 L 148.492188 61.199219 L 114.085938 61.199219 Z M 114.085938 82.800781 "/>
<path style=" stroke:none;fill-rule:nonzero;fill:rgb(65.882353%,67.843137%,72.156863%);fill-opacity:1;" d="M 148.492188 82.800781 L 183.757812 82.800781 L 183.757812 61.199219 L 148.492188 61.199219 Z M 148.492188 82.800781 "/>
<path style=" stroke:none;fill-rule:nonzero;fill:rgb(100%,100%,100%);fill-opacity:1;" d="M 213.003906 82.800781 L 231.066406 82.800781 L 231.066406 61.199219 L 213.003906 61.199219 Z M 213.003906 82.800781 "/>
<path style=" stroke:none;fill-rule:nonzero;fill:rgb(70.980392%,72.54902%,76.470588%);fill-opacity:1;" d="M 231.066406 82.800781 L 296.441406 82.800781 L 296.441406 61.199219 L 231.066406 61.199219 Z M 231.066406 82.800781 "/>
<path style=" stroke:none;fill-rule:nonzero;fill:rgb(100%,100%,100%);fill-opacity:1;" d="M 296.441406 82.800781 L 320.527344 82.800781 L 320.527344 61.199219 L 296.441406 61.199219 Z M 296.441406 82.800781 "/>
<path style=" stroke:none;fill-rule:nonzero;fill:rgb(76.470588%,77.647059%,80.784314%);fill-opacity:1;" d="M 320.527344 82.800781 L 360.957031 82.800781 L 360.957031 61.199219 L 320.527344 61.199219 Z M 320.527344 82.800781 "/>
<path style=" stroke:none;fill-rule:nonzero;fill:rgb(100%,100%,100%);fill-opacity:1;" d="M 360.953125 82.800781 L 397.941406 82.800781 L 397.941406 61.199219 L 360.953125 61.199219 Z M 360.953125 82.800781 "/>
<path style=" stroke:none;fill-rule:nonzero;fill:rgb(81.568627%,82.745098%,85.098039%);fill-opacity:1;" d="M 397.941406 82.800781 L 415.144531 82.800781 L 415.144531 61.199219 L 397.941406 61.199219 Z M 397.941406 82.800781 "/>
<path style=" stroke:none;fill-rule:nonzero;fill:rgb(100%,100%,100%);fill-opacity:1;" d="M 415.144531 82.800781 L 431.488281 82.800781 L 431.488281 61.199219 L 415.144531 61.199219 Z M 415.144531 82.800781 "/>
<path style=" stroke:none;fill-rule:nonzero;fill:rgb(81.568627%,82.745098%,85.098039%);fill-opacity:1;" d="M 431.488281 82.800781 L 456.433594 82.800781 L 456.433594 61.199219 L 431.488281 61.199219 Z M 431.488281 82.800781 "/>
<path style="fill:none;stroke-width:0.75;stroke-linecap:round;stroke-linejoin:round;stroke:rgb(81.568627%,81.176471%,83.137255%);stroke-opacity:1;stroke-miterlimit:10;" d="M 100.800781 61.199219 L 100.664062 61.199219 L 100.597656 61.203125 L 100.527344 61.203125 L 100.460938 61.207031 L 100.394531 61.207031 L 100.324219 61.210938 L 100.191406 61.21875 L 100.121094 61.222656 L 99.988281 61.230469 L 99.917969 61.234375 L 99.851562 61.242188 L 99.785156 61.246094 L 99.714844 61.253906 L 99.515625 61.277344 L 99.445312 61.285156 L 99.378906 61.292969 L 99.3125 61.304688 L 99.246094 61.3125 L 99.175781 61.324219 L 99.109375 61.332031 L 98.710938 61.402344 L 98.644531 61.417969 L 98.578125 61.429688 L 98.046875 61.554688 L 97.984375 61.574219 L 97.917969 61.589844 L 97.785156 61.628906 L 97.722656 61.648438 L 97.65625 61.667969 L 97.59375 61.6875 L 97.527344 61.707031 L 97.460938 61.730469 L 97.398438 61.75 L 97.332031 61.769531 L 97.207031 61.816406 L 97.140625 61.839844 L 97.015625 61.886719 L 96.949219 61.910156 L 96.824219 61.957031 L 96.761719 61.984375 L 96.699219 62.007812 L 96.261719 62.199219 L 96.203125 62.226562 L 96.140625 62.257812 L 96.078125 62.285156 L 96.019531 62.316406 L 95.957031 62.347656 L 95.898438 62.378906 L 95.835938 62.40625 L 95.777344 62.441406 L 95.714844 62.472656 L 95.597656 62.535156 L 95.539062 62.570312 L 95.480469 62.601562 L 95.417969 62.636719 L 95.359375 62.667969 L 95.242188 62.738281 L 95.1875 62.773438 L 95.070312 62.84375 L 95.011719 62.882812 L 94.957031 62.917969 L 94.898438 62.953125 L 94.84375 62.992188 L 94.785156 63.03125 L 94.730469 63.066406 L 94.671875 63.105469 L 94.398438 63.300781 L 94.34375 63.34375 L 94.289062 63.382812 L 94.234375 63.425781 L 94.179688 63.464844 L 94.128906 63.507812 L 94.019531 63.59375 L 93.96875 63.636719 L 93.914062 63.679688 L 93.761719 63.808594 L 93.707031 63.855469 L 93.65625 63.898438 L 93.605469 63.945312 L 93.554688 63.988281 L 93.507812 64.035156 L 93.40625 64.128906 L 93.359375 64.171875 L 93.308594 64.21875 L 93.261719 64.269531 L 93.210938 64.316406 L 93.019531 64.507812 L 92.972656 64.558594 L 92.925781 64.605469 L 92.878906 64.65625 L 92.835938 64.707031 L 92.742188 64.808594 L 92.699219 64.859375 L 92.652344 64.910156 L 92.523438 65.0625 L 92.476562 65.117188 L 92.433594 65.167969 L 92.394531 65.222656 L 92.351562 65.273438 L 92.308594 65.328125 L 92.265625 65.378906 L 92.226562 65.433594 L 92.183594 65.488281 L 92.144531 65.542969 L 92.101562 65.597656 L 91.945312 65.816406 L 91.90625 65.875 L 91.828125 65.984375 L 91.792969 66.042969 L 91.753906 66.097656 L 91.71875 66.15625 L 91.679688 66.214844 L 91.644531 66.269531 L 91.46875 66.5625 L 91.4375 66.621094 L 91.367188 66.738281 L 91.304688 66.855469 L 91.269531 66.917969 L 91.207031 67.035156 L 91.175781 67.097656 L 91.148438 67.15625 L 91.117188 67.21875 L 91.085938 67.277344 L 91.058594 67.339844 L 91.027344 67.402344 L 91 67.464844 L 90.972656 67.523438 L 90.941406 67.585938 L 90.886719 67.710938 L 90.863281 67.773438 L 90.808594 67.898438 L 90.785156 67.960938 L 90.757812 68.023438 L 90.734375 68.085938 L 90.710938 68.152344 L 90.683594 68.214844 L 90.636719 68.339844 L 90.617188 68.40625 L 90.59375 68.46875 L 90.570312 68.535156 L 90.550781 68.597656 L 90.527344 68.664062 L 90.507812 68.726562 L 90.488281 68.792969 L 90.46875 68.855469 L 90.429688 68.988281 L 90.410156 69.050781 L 90.390625 69.117188 L 90.375 69.183594 L 90.355469 69.25 L 90.339844 69.3125 L 90.324219 69.378906 L 90.304688 69.445312 L 90.273438 69.578125 L 90.261719 69.644531 L 90.230469 69.777344 L 90.21875 69.84375 L 90.203125 69.910156 L 90.132812 70.308594 L 90.121094 70.378906 L 90.113281 70.445312 L 90.101562 70.511719 L 90.085938 70.644531 L 90.078125 70.714844 L 90.0625 70.847656 L 90.054688 70.917969 L 90.046875 70.984375 L 90.042969 71.050781 L 90.035156 71.117188 L 90.03125 71.1875 L 90.027344 71.253906 L 90.019531 71.320312 L 90.015625 71.390625 L 90.011719 71.457031 L 90.011719 71.523438 L 90.007812 71.59375 L 90.003906 71.660156 L 90.003906 71.730469 L 90 71.796875 L 90 72.203125 L 90.003906 72.269531 L 90.003906 72.339844 L 90.007812 72.40625 L 90.011719 72.476562 L 90.011719 72.542969 L 90.015625 72.609375 L 90.019531 72.679688 L 90.027344 72.746094 L 90.03125 72.8125 L 90.035156 72.882812 L 90.042969 72.949219 L 90.046875 73.015625 L 90.054688 73.082031 L 90.0625 73.152344 L 90.078125 73.285156 L 90.085938 73.355469 L 90.101562 73.488281 L 90.113281 73.554688 L 90.121094 73.621094 L 90.132812 73.691406 L 90.203125 74.089844 L 90.21875 74.15625 L 90.230469 74.222656 L 90.261719 74.355469 L 90.273438 74.421875 L 90.304688 74.554688 L 90.324219 74.621094 L 90.339844 74.6875 L 90.355469 74.75 L 90.375 74.816406 L 90.390625 74.882812 L 90.410156 74.949219 L 90.429688 75.011719 L 90.46875 75.144531 L 90.488281 75.207031 L 90.507812 75.273438 L 90.527344 75.335938 L 90.550781 75.402344 L 90.570312 75.464844 L 90.59375 75.53125 L 90.617188 75.59375 L 90.636719 75.660156 L 90.683594 75.785156 L 90.710938 75.847656 L 90.734375 75.914062 L 90.757812 75.976562 L 90.785156 76.039062 L 90.808594 76.101562 L 90.863281 76.226562 L 90.886719 76.289062 L 90.941406 76.414062 L 90.972656 76.476562 L 91 76.535156 L 91.027344 76.597656 L 91.058594 76.660156 L 91.085938 76.722656 L 91.117188 76.78125 L 91.148438 76.84375 L 91.175781 76.902344 L 91.207031 76.964844 L 91.269531 77.082031 L 91.304688 77.144531 L 91.367188 77.261719 L 91.4375 77.378906 L 91.46875 77.4375 L 91.644531 77.730469 L 91.679688 77.785156 L 91.71875 77.84375 L 91.753906 77.902344 L 91.792969 77.957031 L 91.828125 78.015625 L 91.90625 78.125 L 91.945312 78.183594 L 92.101562 78.402344 L 92.144531 78.457031 L 92.183594 78.511719 L 92.226562 78.566406 L 92.265625 78.621094 L 92.308594 78.671875 L 92.351562 78.726562 L 92.394531 78.777344 L 92.433594 78.832031 L 92.476562 78.882812 L 92.523438 78.9375 L 92.652344 79.089844 L 92.699219 79.140625 L 92.742188 79.191406 L 92.835938 79.292969 L 92.878906 79.34375 L 92.925781 79.394531 L 92.972656 79.441406 L 93.019531 79.492188 L 93.210938 79.683594 L 93.261719 79.730469 L 93.308594 79.78125 L 93.359375 79.828125 L 93.40625 79.871094 L 93.507812 79.964844 L 93.554688 80.011719 L 93.605469 80.054688 L 93.65625 80.101562 L 93.707031 80.144531 L 93.761719 80.191406 L 93.914062 80.320312 L 93.96875 80.363281 L 94.019531 80.40625 L 94.128906 80.492188 L 94.179688 80.535156 L 94.234375 80.574219 L 94.289062 80.617188 L 94.34375 80.65625 L 94.398438 80.699219 L 94.671875 80.894531 L 94.730469 80.933594 L 94.785156 80.96875 L 94.84375 81.007812 L 94.898438 81.046875 L 94.957031 81.082031 L 95.011719 81.117188 L 95.070312 81.15625 L 95.1875 81.226562 L 95.242188 81.261719 L 95.359375 81.332031 L 95.417969 81.363281 L 95.480469 81.398438 L 95.539062 81.429688 L 95.597656 81.464844 L 95.714844 81.527344 L 95.777344 81.558594 L 95.835938 81.59375 L 95.898438 81.621094 L 95.957031 81.652344 L 96.019531 81.683594 L 96.078125 81.714844 L 96.140625 81.742188 L 96.203125 81.773438 L 96.261719 81.800781 L 96.699219 81.992188 L 96.761719 82.015625 L 96.824219 82.042969 L 96.949219 82.089844 L 97.015625 82.113281 L 97.140625 82.160156 L 97.207031 82.183594 L 97.332031 82.230469 L 97.398438 82.25 L 97.460938 82.269531 L 97.527344 82.292969 L 97.59375 82.3125 L 97.65625 82.332031 L 97.722656 82.351562 L 97.785156 82.371094 L 97.917969 82.410156 L 97.984375 82.425781 L 98.046875 82.445312 L 98.578125 82.570312 L 98.644531 82.582031 L 98.710938 82.597656 L 99.109375 82.667969 L 99.175781 82.675781 L 99.246094 82.6875 L 99.3125 82.695312 L 99.378906 82.707031 L 99.445312 82.714844 L 99.515625 82.722656 L 99.714844 82.746094 L 99.785156 82.753906 L 99.851562 82.757812 L 99.917969 82.765625 L 99.988281 82.769531 L 100.121094 82.777344 L 100.191406 82.78125 L 100.324219 82.789062 L 100.394531 82.792969 L 100.460938 82.792969 L 100.527344 82.796875 L 100.597656 82.796875 L 100.664062 82.800781 L 195.578125 82.800781 L 195.644531 82.796875 L 195.714844 82.796875 L 195.78125 82.792969 L 195.851562 82.792969 L 195.984375 82.785156 L 196.054688 82.78125 L 196.1875 82.773438 L 196.257812 82.769531 L 196.324219 82.765625 L 196.390625 82.757812 L 196.460938 82.753906 L 196.660156 82.730469 L 196.730469 82.722656 L 196.863281 82.707031 L 196.929688 82.695312 L 197 82.6875 L 197.066406 82.675781 L 197.132812 82.667969 L 197.53125 82.597656 L 197.597656 82.582031 L 197.667969 82.570312 L 197.730469 82.554688 L 198.195312 82.445312 L 198.261719 82.425781 L 198.324219 82.410156 L 198.457031 82.371094 L 198.519531 82.351562 L 198.652344 82.3125 L 198.714844 82.292969 L 198.78125 82.269531 L 198.84375 82.25 L 198.910156 82.230469 L 198.972656 82.207031 L 199.039062 82.183594 L 199.226562 82.113281 L 199.292969 82.089844 L 199.417969 82.042969 L 199.480469 82.015625 L 199.542969 81.992188 L 200.042969 81.773438 L 200.101562 81.742188 L 200.164062 81.714844 L 200.222656 81.683594 L 200.347656 81.621094 L 200.40625 81.59375 L 200.464844 81.558594 L 200.527344 81.527344 L 200.644531 81.464844 L 200.703125 81.429688 L 200.765625 81.398438 L 200.824219 81.363281 L 200.882812 81.332031 L 201.058594 81.226562 L 201.113281 81.191406 L 201.171875 81.15625 L 201.230469 81.117188 L 201.285156 81.082031 L 201.34375 81.046875 L 201.402344 81.007812 L 201.457031 80.96875 L 201.511719 80.933594 L 201.570312 80.894531 L 201.84375 80.699219 L 201.898438 80.65625 L 201.953125 80.617188 L 202.007812 80.574219 L 202.0625 80.535156 L 202.117188 80.492188 L 202.167969 80.449219 L 202.222656 80.40625 L 202.273438 80.363281 L 202.328125 80.320312 L 202.429688 80.234375 L 202.484375 80.191406 L 202.535156 80.144531 L 202.585938 80.101562 L 202.636719 80.054688 L 202.6875 80.011719 L 202.738281 79.964844 L 202.785156 79.917969 L 202.835938 79.871094 L 202.886719 79.828125 L 203.078125 79.636719 L 203.128906 79.589844 L 203.175781 79.539062 L 203.222656 79.492188 L 203.269531 79.441406 L 203.316406 79.394531 L 203.363281 79.34375 L 203.40625 79.292969 L 203.5 79.191406 L 203.542969 79.144531 L 203.585938 79.191406 L 203.632812 79.242188 L 203.675781 79.292969 L 203.769531 79.394531 L 203.816406 79.441406 L 203.863281 79.492188 L 203.910156 79.539062 L 203.957031 79.589844 L 204.007812 79.636719 L 204.199219 79.828125 L 204.25 79.871094 L 204.300781 79.917969 L 204.347656 79.964844 L 204.398438 80.011719 L 204.449219 80.054688 L 204.5 80.101562 L 204.550781 80.144531 L 204.601562 80.191406 L 204.65625 80.234375 L 204.757812 80.320312 L 204.8125 80.363281 L 204.863281 80.40625 L 204.917969 80.449219 L 204.96875 80.492188 L 205.023438 80.535156 L 205.078125 80.574219 L 205.132812 80.617188 L 205.183594 80.65625 L 205.238281 80.699219 L 205.292969 80.738281 L 205.351562 80.777344 L 205.570312 80.933594 L 205.628906 80.96875 L 205.683594 81.007812 L 205.742188 81.046875 L 205.796875 81.082031 L 205.855469 81.117188 L 205.914062 81.15625 L 205.972656 81.191406 L 206.027344 81.226562 L 206.203125 81.332031 L 206.261719 81.363281 L 206.320312 81.398438 L 206.378906 81.429688 L 206.441406 81.464844 L 206.617188 81.558594 L 206.679688 81.59375 L 206.738281 81.621094 L 206.800781 81.652344 L 206.859375 81.683594 L 206.921875 81.714844 L 206.984375 81.742188 L 207.042969 81.773438 L 207.355469 81.910156 L 207.414062 81.9375 L 207.476562 81.964844 L 207.542969 81.992188 L 207.605469 82.015625 L 207.667969 82.042969 L 207.855469 82.113281 L 207.921875 82.136719 L 208.046875 82.183594 L 208.113281 82.207031 L 208.175781 82.230469 L 208.242188 82.25 L 208.304688 82.269531 L 208.371094 82.292969 L 208.433594 82.3125 L 208.566406 82.351562 L 208.628906 82.371094 L 208.761719 82.410156 L 208.824219 82.425781 L 208.890625 82.445312 L 209.15625 82.507812 L 209.21875 82.523438 L 209.417969 82.570312 L 209.484375 82.582031 L 209.550781 82.597656 L 209.617188 82.609375 L 209.6875 82.621094 L 209.953125 82.667969 L 210.019531 82.675781 L 210.085938 82.6875 L 210.15625 82.695312 L 210.222656 82.707031 L 210.355469 82.722656 L 210.425781 82.730469 L 210.625 82.753906 L 210.695312 82.757812 L 210.761719 82.765625 L 210.828125 82.769531 L 210.898438 82.773438 L 211.03125 82.78125 L 211.101562 82.785156 L 211.234375 82.792969 L 211.304688 82.792969 L 211.371094 82.796875 L 211.4375 82.796875 L 211.507812 82.800781 L 493.335938 82.800781 L 493.402344 82.796875 L 493.472656 82.796875 L 493.539062 82.792969 L 493.605469 82.792969 L 493.675781 82.789062 L 493.808594 82.78125 L 493.878906 82.777344 L 494.011719 82.769531 L 494.082031 82.765625 L 494.148438 82.757812 L 494.214844 82.753906 L 494.285156 82.746094 L 494.484375 82.722656 L 494.554688 82.714844 L 494.621094 82.707031 L 494.6875 82.695312 L 494.753906 82.6875 L 494.824219 82.675781 L 494.890625 82.667969 L 495.289062 82.597656 L 495.355469 82.582031 L 495.421875 82.570312 L 495.953125 82.445312 L 496.015625 82.425781 L 496.082031 82.410156 L 496.214844 82.371094 L 496.277344 82.351562 L 496.34375 82.332031 L 496.40625 82.3125 L 496.472656 82.292969 L 496.539062 82.269531 L 496.601562 82.25 L 496.667969 82.230469 L 496.792969 82.183594 L 496.859375 82.160156 L 496.984375 82.113281 L 497.050781 82.089844 L 497.175781 82.042969 L 497.238281 82.015625 L 497.300781 81.992188 L 497.738281 81.800781 L 497.796875 81.773438 L 497.859375 81.742188 L 497.921875 81.714844 L 497.980469 81.683594 L 498.042969 81.652344 L 498.101562 81.621094 L 498.164062 81.59375 L 498.222656 81.558594 L 498.285156 81.527344 L 498.402344 81.464844 L 498.460938 81.429688 L 498.519531 81.398438 L 498.582031 81.363281 L 498.640625 81.332031 L 498.757812 81.261719 L 498.8125 81.226562 L 498.929688 81.15625 L 498.988281 81.117188 L 499.042969 81.082031 L 499.101562 81.046875 L 499.15625 81.007812 L 499.214844 80.96875 L 499.269531 80.933594 L 499.328125 80.894531 L 499.601562 80.699219 L 499.65625 80.65625 L 499.710938 80.617188 L 499.765625 80.574219 L 499.820312 80.535156 L 499.871094 80.492188 L 499.980469 80.40625 L 500.03125 80.363281 L 500.085938 80.320312 L 500.238281 80.191406 L 500.292969 80.144531 L 500.34375 80.101562 L 500.394531 80.054688 L 500.445312 80.011719 L 500.492188 79.964844 L 500.59375 79.871094 L 500.640625 79.828125 L 500.691406 79.78125 L 500.738281 79.730469 L 500.789062 79.683594 L 500.980469 79.492188 L 501.027344 79.441406 L 501.074219 79.394531 L 501.121094 79.34375 L 501.164062 79.292969 L 501.257812 79.191406 L 501.300781 79.140625 L 501.347656 79.089844 L 501.476562 78.9375 L 501.523438 78.882812 L 501.566406 78.832031 L 501.605469 78.777344 L 501.648438 78.726562 L 501.691406 78.671875 L 501.734375 78.621094 L 501.773438 78.566406 L 501.816406 78.511719 L 501.855469 78.457031 L 501.898438 78.402344 L 502.054688 78.183594 L 502.09375 78.125 L 502.171875 78.015625 L 502.207031 77.957031 L 502.246094 77.902344 L 502.28125 77.84375 L 502.320312 77.785156 L 502.355469 77.730469 L 502.53125 77.4375 L 502.5625 77.378906 L 502.632812 77.261719 L 502.695312 77.144531 L 502.730469 77.082031 L 502.792969 76.964844 L 502.824219 76.902344 L 502.851562 76.84375 L 502.882812 76.78125 L 502.914062 76.722656 L 502.941406 76.660156 L 502.972656 76.597656 L 503 76.535156 L 503.027344 76.476562 L 503.058594 76.414062 L 503.113281 76.289062 L 503.136719 76.226562 L 503.191406 76.101562 L 503.214844 76.039062 L 503.242188 75.976562 L 503.265625 75.914062 L 503.289062 75.847656 L 503.316406 75.785156 L 503.363281 75.660156 L 503.382812 75.59375 L 503.40625 75.53125 L 503.429688 75.464844 L 503.449219 75.402344 L 503.472656 75.335938 L 503.492188 75.273438 L 503.511719 75.207031 L 503.53125 75.144531 L 503.570312 75.011719 L 503.589844 74.949219 L 503.609375 74.882812 L 503.625 74.816406 L 503.644531 74.75 L 503.660156 74.6875 L 503.675781 74.621094 L 503.695312 74.554688 L 503.726562 74.421875 L 503.738281 74.355469 L 503.769531 74.222656 L 503.78125 74.15625 L 503.796875 74.089844 L 503.867188 73.691406 L 503.878906 73.621094 L 503.886719 73.554688 L 503.898438 73.488281 L 503.914062 73.355469 L 503.921875 73.285156 L 503.9375 73.152344 L 503.945312 73.082031 L 503.953125 73.015625 L 503.957031 72.949219 L 503.964844 72.882812 L 503.96875 72.8125 L 503.972656 72.746094 L 503.980469 72.679688 L 503.984375 72.609375 L 503.988281 72.542969 L 503.988281 72.476562 L 503.992188 72.40625 L 503.996094 72.339844 L 503.996094 72.269531 L 504 72.203125 L 504 71.796875 L 503.996094 71.730469 L 503.996094 71.660156 L 503.992188 71.59375 L 503.988281 71.523438 L 503.988281 71.457031 L 503.984375 71.390625 L 503.980469 71.320312 L 503.972656 71.253906 L 503.96875 71.1875 L 503.964844 71.117188 L 503.957031 71.050781 L 503.953125 70.984375 L 503.945312 70.917969 L 503.9375 70.847656 L 503.921875 70.714844 L 503.914062 70.644531 L 503.898438 70.511719 L 503.886719 70.445312 L 503.878906 70.378906 L 503.867188 70.308594 L 503.796875 69.910156 L 503.78125 69.84375 L 503.769531 69.777344 L 503.738281 69.644531 L 503.726562 69.578125 L 503.695312 69.445312 L 503.675781 69.378906 L 503.660156 69.3125 L 503.644531 69.25 L 503.625 69.183594 L 503.609375 69.117188 L 503.589844 69.050781 L 503.570312 68.988281 L 503.53125 68.855469 L 503.511719 68.792969 L 503.492188 68.726562 L 503.472656 68.664062 L 503.449219 68.597656 L 503.429688 68.535156 L 503.40625 68.46875 L 503.382812 68.40625 L 503.363281 68.339844 L 503.316406 68.214844 L 503.289062 68.152344 L 503.265625 68.085938 L 503.242188 68.023438 L 503.214844 67.960938 L 503.191406 67.898438 L 503.136719 67.773438 L 503.113281 67.710938 L 503.058594 67.585938 L 503.027344 67.523438 L 503 67.464844 L 502.972656 67.402344 L 502.941406 67.339844 L 502.914062 67.277344 L 502.882812 67.21875 L 502.851562 67.15625 L 502.824219 67.097656 L 502.792969 67.035156 L 502.730469 66.917969 L 502.695312 66.855469 L 502.632812 66.738281 L 502.5625 66.621094 L 502.53125 66.5625 L 502.355469 66.269531 L 502.320312 66.214844 L 502.28125 66.15625 L 502.246094 66.097656 L 502.207031 66.042969 L 502.171875 65.984375 L 502.09375 65.875 L 502.054688 65.816406 L 501.898438 65.597656 L 501.855469 65.542969 L 501.816406 65.488281 L 501.773438 65.433594 L 501.734375 65.378906 L 501.691406 65.328125 L 501.648438 65.273438 L 501.605469 65.222656 L 501.566406 65.167969 L 501.523438 65.117188 L 501.476562 65.0625 L 501.347656 64.910156 L 501.300781 64.859375 L 501.257812 64.808594 L 501.164062 64.707031 L 501.121094 64.65625 L 501.074219 64.605469 L 501.027344 64.558594 L 500.980469 64.507812 L 500.789062 64.316406 L 500.738281 64.269531 L 500.691406 64.21875 L 500.640625 64.171875 L 500.59375 64.128906 L 500.492188 64.035156 L 500.445312 63.988281 L 500.394531 63.945312 L 500.34375 63.898438 L 500.292969 63.855469 L 500.238281 63.808594 L 500.085938 63.679688 L 500.03125 63.636719 L 499.980469 63.59375 L 499.871094 63.507812 L 499.820312 63.464844 L 499.765625 63.425781 L 499.710938 63.382812 L 499.65625 63.34375 L 499.601562 63.300781 L 499.328125 63.105469 L 499.269531 63.066406 L 499.214844 63.03125 L 499.15625 62.992188 L 499.101562 62.953125 L 499.042969 62.917969 L 498.988281 62.882812 L 498.929688 62.84375 L 498.8125 62.773438 L 498.757812 62.738281 L 498.640625 62.667969 L 498.582031 62.636719 L 498.519531 62.601562 L 498.460938 62.570312 L 498.402344 62.535156 L 498.285156 62.472656 L 498.222656 62.441406 L 498.164062 62.40625 L 498.101562 62.378906 L 498.042969 62.347656 L 497.980469 62.316406 L 497.921875 62.285156 L 497.859375 62.257812 L 497.796875 62.226562 L 497.738281 62.199219 L 497.300781 62.007812 L 497.238281 61.984375 L 497.175781 61.957031 L 497.050781 61.910156 L 496.984375 61.886719 L 496.859375 61.839844 L 496.792969 61.816406 L 496.667969 61.769531 L 496.601562 61.75 L 496.539062 61.730469 L 496.472656 61.707031 L 496.40625 61.6875 L 496.34375 61.667969 L 496.277344 61.648438 L 496.214844 61.628906 L 496.082031 61.589844 L 496.015625 61.574219 L 495.953125 61.554688 L 495.421875 61.429688 L 495.355469 61.417969 L 495.289062 61.402344 L 494.890625 61.332031 L 494.824219 61.324219 L 494.753906 61.3125 L 494.6875 61.304688 L 494.621094 61.292969 L 494.554688 61.285156 L 494.484375 61.277344 L 494.285156 61.253906 L 494.214844 61.246094 L 494.148438 61.242188 L 494.082031 61.234375 L 494.011719 61.230469 L 493.878906 61.222656 L 493.808594 61.21875 L 493.675781 61.210938 L 493.605469 61.207031 L 493.539062 61.207031 L 493.472656 61.203125 L 493.402344 61.203125 L 493.335938 61.199219 L 211.507812 61.199219 L 211.4375 61.203125 L 211.371094 61.203125 L 211.304688 61.207031 L 211.234375 61.207031 L 211.101562 61.214844 L 211.03125 61.21875 L 210.898438 61.226562 L 210.828125 61.230469 L 210.761719 61.234375 L 210.695312 61.242188 L 210.625 61.246094 L 210.425781 61.269531 L 210.355469 61.277344 L 210.222656 61.292969 L 210.15625 61.304688 L 210.085938 61.3125 L 210.019531 61.324219 L 209.953125 61.332031 L 209.6875 61.378906 L 209.617188 61.390625 L 209.550781 61.402344 L 209.484375 61.417969 L 209.417969 61.429688 L 209.21875 61.476562 L 209.15625 61.492188 L 208.890625 61.554688 L 208.824219 61.574219 L 208.761719 61.589844 L 208.628906 61.628906 L 208.566406 61.648438 L 208.433594 61.6875 L 208.371094 61.707031 L 208.304688 61.730469 L 208.242188 61.75 L 208.175781 61.769531 L 208.113281 61.792969 L 208.046875 61.816406 L 207.921875 61.863281 L 207.855469 61.886719 L 207.667969 61.957031 L 207.605469 61.984375 L 207.542969 62.007812 L 207.476562 62.035156 L 207.414062 62.0625 L 207.355469 62.089844 L 207.042969 62.226562 L 206.984375 62.257812 L 206.921875 62.285156 L 206.859375 62.316406 L 206.800781 62.347656 L 206.738281 62.378906 L 206.679688 62.40625 L 206.617188 62.441406 L 206.441406 62.535156 L 206.378906 62.570312 L 206.320312 62.601562 L 206.261719 62.636719 L 206.203125 62.667969 L 206.027344 62.773438 L 205.972656 62.808594 L 205.914062 62.84375 L 205.855469 62.882812 L 205.796875 62.917969 L 205.742188 62.953125 L 205.683594 62.992188 L 205.628906 63.03125 L 205.570312 63.066406 L 205.351562 63.222656 L 205.292969 63.261719 L 205.238281 63.300781 L 205.183594 63.34375 L 205.132812 63.382812 L 205.078125 63.425781 L 205.023438 63.464844 L 204.96875 63.507812 L 204.917969 63.550781 L 204.863281 63.59375 L 204.8125 63.636719 L 204.757812 63.679688 L 204.65625 63.765625 L 204.601562 63.808594 L 204.550781 63.855469 L 204.5 63.898438 L 204.449219 63.945312 L 204.398438 63.988281 L 204.347656 64.035156 L 204.300781 64.082031 L 204.25 64.128906 L 204.199219 64.171875 L 204.007812 64.363281 L 203.957031 64.410156 L 203.910156 64.460938 L 203.863281 64.507812 L 203.816406 64.558594 L 203.769531 64.605469 L 203.675781 64.707031 L 203.632812 64.757812 L 203.585938 64.808594 L 203.542969 64.855469 L 203.5 64.808594 L 203.40625 64.707031 L 203.363281 64.65625 L 203.316406 64.605469 L 203.269531 64.558594 L 203.222656 64.507812 L 203.175781 64.460938 L 203.128906 64.410156 L 203.078125 64.363281 L 202.886719 64.171875 L 202.835938 64.128906 L 202.785156 64.082031 L 202.738281 64.035156 L 202.6875 63.988281 L 202.636719 63.945312 L 202.585938 63.898438 L 202.535156 63.855469 L 202.484375 63.808594 L 202.429688 63.765625 L 202.328125 63.679688 L 202.273438 63.636719 L 202.222656 63.59375 L 202.167969 63.550781 L 202.117188 63.507812 L 202.0625 63.464844 L 202.007812 63.425781 L 201.953125 63.382812 L 201.898438 63.34375 L 201.84375 63.300781 L 201.570312 63.105469 L 201.511719 63.066406 L 201.457031 63.03125 L 201.402344 62.992188 L 201.34375 62.953125 L 201.285156 62.917969 L 201.230469 62.882812 L 201.171875 62.84375 L 201.113281 62.808594 L 201.058594 62.773438 L 200.882812 62.667969 L 200.824219 62.636719 L 200.765625 62.601562 L 200.703125 62.570312 L 200.644531 62.535156 L 200.527344 62.472656 L 200.464844 62.441406 L 200.40625 62.40625 L 200.347656 62.378906 L 200.222656 62.316406 L 200.164062 62.285156 L 200.101562 62.257812 L 200.042969 62.226562 L 199.542969 62.007812 L 199.480469 61.984375 L 199.417969 61.957031 L 199.292969 61.910156 L 199.226562 61.886719 L 199.039062 61.816406 L 198.972656 61.792969 L 198.910156 61.769531 L 198.84375 61.75 L 198.78125 61.730469 L 198.714844 61.707031 L 198.652344 61.6875 L 198.519531 61.648438 L 198.457031 61.628906 L 198.324219 61.589844 L 198.261719 61.574219 L 198.195312 61.554688 L 197.730469 61.445312 L 197.667969 61.429688 L 197.597656 61.417969 L 197.53125 61.402344 L 197.132812 61.332031 L 197.066406 61.324219 L 197 61.3125 L 196.929688 61.304688 L 196.863281 61.292969 L 196.730469 61.277344 L 196.660156 61.269531 L 196.460938 61.246094 L 196.390625 61.242188 L 196.324219 61.234375 L 196.257812 61.230469 L 196.1875 61.226562 L 196.054688 61.21875 L 195.984375 61.214844 L 195.851562 61.207031 L 195.78125 61.207031 L 195.714844 61.203125 L 195.644531 61.203125 L 195.578125 61.199219 L 100.800781 61.199219 "/>
<path style=" stroke:none;fill-rule:nonzero;fill:rgb(100%,0%,0%);fill-opacity:0.4;" d="M 330.847656 90 L 350.632812 90 L 350.632812 54 L 330.847656 54 Z M 330.847656 90 "/>
<path style="fill:none;stroke-width:0.75;stroke-linecap:round;stroke-linejoin:round;stroke:rgb(74.509804%,74.509804%,74.509804%);stroke-opacity:1;stroke-dasharray:3,3;stroke-miterlimit:10;" d="M 330.847656 90 L 90 126 "/>
<path style="fill:none;stroke-width:0.75;stroke-linecap:round;stroke-linejoin:round;stroke:rgb(74.509804%,74.509804%,74.509804%);stroke-opacity:1;stroke-dasharray:3,3;stroke-miterlimit:10;" d="M 350.632812 90 L 504 126 "/>
<path style="fill:none;stroke-width:0.75;stroke-linecap:round;stroke-linejoin:round;stroke:rgb(74.509804%,74.509804%,74.509804%);stroke-opacity:1;stroke-dasharray:3,3;stroke-miterlimit:10;" d="M 330.847656 90 L 330.847656 90 "/>
<path style="fill:none;stroke-width:0.75;stroke-linecap:round;stroke-linejoin:round;stroke:rgb(74.509804%,74.509804%,74.509804%);stroke-opacity:1;stroke-dasharray:3,3;stroke-miterlimit:10;" d="M 350.632812 90 L 350.632812 90 "/>
<path style="fill:none;stroke-width:0.75;stroke-linecap:round;stroke-linejoin:round;stroke:rgb(74.509804%,74.509804%,74.509804%);stroke-opacity:1;stroke-dasharray:3,3;stroke-miterlimit:10;" d="M 90 126 L 90 126 "/>
<path style="fill:none;stroke-width:0.75;stroke-linecap:round;stroke-linejoin:round;stroke:rgb(74.509804%,74.509804%,74.509804%);stroke-opacity:1;stroke-dasharray:3,3;stroke-miterlimit:10;" d="M 504 126 L 504 126 "/>
</g>
</svg>
