<?xml version="1.0" encoding="UTF-8"?>
<svg xmlns="http://www.w3.org/2000/svg" xmlns:xlink="http://www.w3.org/1999/xlink" width="216pt" height="216pt" viewBox="0 0 216 216" version="1.1">
<defs>
<clipPath id="clip1">
  <path d="M 5.480469 14 L 176.378906 14 L 176.378906 205.125 L 5.480469 205.125 Z M 5.480469 14 "/>
</clipPath>
<clipPath id="clip2">
  <path d="M 5.480469 154 L 176.378906 154 L 176.378906 156 L 5.480469 156 Z M 5.480469 154 "/>
</clipPath>
<clipPath id="clip3">
  <path d="M 5.480469 104 L 176.378906 104 L 176.378906 106 L 5.480469 106 Z M 5.480469 104 "/>
</clipPath>
<clipPath id="clip4">
  <path d="M 5.480469 55 L 176.378906 55 L 176.378906 56 L 5.480469 56 Z M 5.480469 55 "/>
</clipPath>
<clipPath id="clip5">
  <path d="M 5.480469 5.480469 L 176.378906 5.480469 L 176.378906 6 L 5.480469 6 Z M 5.480469 5.480469 "/>
</clipPath>
</defs>
<g id="surface478">
<g clip-path="url(#clip1)" clip-rule="nonzero">
<path style=" stroke:none;fill-rule:nonzero;fill:rgb(72.156863%,90.196078%,90.196078%);fill-opacity:1;" d="M 5.480469 205.121094 L 24.136719 205.121094 L 24.988281 205.113281 L 25.410156 205.109375 L 25.835938 205.109375 L 26.257812 205.101562 L 26.683594 205.089844 L 27.105469 205.082031 L 27.53125 205.070312 L 27.953125 205.050781 L 28.378906 205.019531 L 28.804688 205.003906 L 29.226562 204.972656 L 29.652344 204.925781 L 30.074219 204.871094 L 30.5 204.804688 L 30.921875 204.734375 L 31.773438 204.5625 L 32.195312 204.472656 L 32.621094 204.367188 L 33.042969 204.242188 L 33.46875 204.113281 L 33.890625 204 L 34.316406 203.921875 L 34.738281 203.808594 L 35.164062 203.707031 L 35.589844 203.601562 L 36.011719 203.5 L 36.4375 203.390625 L 36.859375 203.285156 L 37.285156 203.203125 L 37.707031 203.113281 L 38.132812 203.054688 L 38.554688 202.964844 L 38.980469 202.84375 L 39.40625 202.734375 L 39.828125 202.664062 L 40.253906 202.589844 L 40.675781 202.515625 L 41.101562 202.429688 L 41.523438 202.359375 L 41.949219 202.238281 L 42.375 202.167969 L 42.796875 202.085938 L 43.222656 202.035156 L 43.644531 201.960938 L 44.070312 201.925781 L 44.492188 201.875 L 44.917969 201.777344 L 45.339844 201.707031 L 45.765625 201.644531 L 46.191406 201.566406 L 46.613281 201.511719 L 47.039062 201.453125 L 47.460938 201.390625 L 47.886719 201.355469 L 48.308594 201.28125 L 48.734375 201.210938 L 49.160156 201.171875 L 49.582031 201.113281 L 50.007812 201.03125 L 50.429688 200.953125 L 50.855469 200.875 L 51.277344 200.828125 L 51.703125 200.714844 L 52.125 200.648438 L 52.550781 200.585938 L 52.976562 200.539062 L 53.398438 200.421875 L 53.824219 200.347656 L 54.246094 200.277344 L 54.671875 200.222656 L 55.09375 200.125 L 55.519531 200.074219 L 55.941406 200.027344 L 56.367188 199.964844 L 56.792969 199.84375 L 57.214844 199.769531 L 57.640625 199.679688 L 58.0625 199.609375 L 58.488281 199.550781 L 58.910156 199.429688 L 59.335938 199.304688 L 59.761719 199.203125 L 60.183594 199.078125 L 60.609375 198.9375 L 61.03125 198.835938 L 61.457031 198.722656 L 61.878906 198.597656 L 62.304688 198.429688 L 62.726562 198.265625 L 63.152344 198.019531 L 63.578125 197.808594 L 64 197.632812 L 64.425781 197.363281 L 64.847656 197.121094 L 65.273438 196.851562 L 65.695312 196.519531 L 66.121094 196.121094 L 66.546875 195.660156 L 66.96875 195.386719 L 67.394531 195.007812 L 67.816406 194.460938 L 68.242188 193.960938 L 68.664062 193.082031 L 69.089844 192.132812 L 69.511719 191.296875 L 69.9375 190.761719 L 70.363281 190.160156 L 70.785156 189.507812 L 71.210938 188.5625 L 71.632812 187.632812 L 72.058594 186.503906 L 72.480469 185.519531 L 72.90625 184.894531 L 73.328125 184.167969 L 73.753906 183.175781 L 74.179688 182.289062 L 74.601562 181.164062 L 75.027344 180.140625 L 75.449219 178.625 L 75.875 177.40625 L 76.296875 176.492188 L 76.722656 175.492188 L 77.148438 174.121094 L 77.570312 173.003906 L 77.996094 171.988281 L 78.417969 170.753906 L 78.84375 169.714844 L 79.265625 168.789062 L 79.691406 167.824219 L 80.113281 166.816406 L 80.539062 165.585938 L 80.964844 164.382812 L 81.386719 163.460938 L 81.8125 162.582031 L 82.234375 161.671875 L 82.660156 160.738281 L 83.082031 159.757812 L 83.507812 158.871094 L 83.933594 157.921875 L 84.355469 157.214844 L 84.78125 156.734375 L 85.203125 156.203125 L 85.628906 155.660156 L 86.050781 154.902344 L 86.476562 154.152344 L 86.898438 153.316406 L 87.324219 152.707031 L 87.75 152.292969 L 88.171875 151.714844 L 88.597656 150.90625 L 89.019531 150.285156 L 89.445312 149.488281 L 89.867188 148.859375 L 90.292969 148.484375 L 90.714844 148.222656 L 91.140625 147.84375 L 91.566406 147.4375 L 91.988281 146.984375 L 92.414062 146.523438 L 92.835938 146.101562 L 93.261719 145.800781 L 93.683594 145.578125 L 94.109375 145.3125 L 94.535156 145.019531 L 94.957031 144.695312 L 95.382812 144.324219 L 95.804688 144.011719 L 96.230469 143.757812 L 96.652344 143.570312 L 97.078125 142.820312 L 97.5 142.589844 L 97.925781 142.242188 L 98.351562 141.929688 L 98.773438 141.570312 L 99.199219 141.320312 L 99.621094 141.140625 L 100.046875 140.960938 L 100.46875 140.757812 L 100.894531 140.507812 L 101.320312 140.144531 L 101.742188 139.832031 L 102.167969 139.589844 L 102.589844 139.417969 L 103.015625 139.144531 L 103.4375 138.917969 L 103.863281 138.589844 L 104.285156 138.273438 L 104.710938 137.921875 L 105.136719 137.675781 L 105.558594 137.507812 L 105.984375 137.265625 L 106.40625 137.007812 L 106.832031 136.761719 L 107.253906 136.480469 L 107.679688 136.207031 L 108.101562 136.023438 L 108.527344 135.949219 L 108.953125 135.628906 L 109.375 135.441406 L 109.800781 135.1875 L 110.222656 134.925781 L 110.648438 134.652344 L 111.070312 134.472656 L 111.496094 134.332031 L 111.921875 134.113281 L 112.34375 133.859375 L 112.769531 133.535156 L 113.191406 133.25 L 113.617188 133.25 L 114.039062 132.710938 L 114.464844 132.558594 L 114.886719 132.292969 L 115.3125 132.011719 L 115.738281 131.683594 L 116.160156 131.347656 L 116.585938 130.953125 L 117.007812 130.707031 L 117.433594 130.539062 L 117.855469 130.183594 L 118.28125 129.972656 L 118.703125 129.425781 L 119.128906 129.066406 L 119.554688 128.628906 L 119.976562 128.394531 L 120.402344 128.0625 L 120.824219 127.640625 L 121.25 127.238281 L 121.671875 126.828125 L 122.097656 126.292969 L 122.523438 126.0625 L 122.945312 125.585938 L 123.371094 125.128906 L 123.792969 124.675781 L 124.21875 124.242188 L 124.640625 123.628906 L 125.066406 123.117188 L 125.488281 122.679688 L 125.914062 122.019531 L 126.339844 121.632812 L 126.761719 121.207031 L 127.1875 120.640625 L 127.609375 120.09375 L 128.035156 119.417969 L 128.457031 118.976562 L 128.882812 117.996094 L 129.308594 117.546875 L 129.730469 116.816406 L 130.15625 116.046875 L 130.578125 115.160156 L 131.003906 114.277344 L 131.425781 113.460938 L 131.851562 112.824219 L 132.273438 112.214844 L 133.125 110.597656 L 133.546875 110.597656 L 133.972656 108.917969 L 134.394531 108.3125 L 134.820312 107.601562 L 135.242188 106.960938 L 135.667969 106.109375 L 136.089844 105.121094 L 136.515625 104.058594 L 136.941406 103.070312 L 137.363281 102.050781 L 137.789062 101.234375 L 138.210938 100.484375 L 138.636719 99.703125 L 139.058594 98.765625 L 139.484375 97.660156 L 139.910156 96.519531 L 140.332031 95.484375 L 140.757812 94.609375 L 141.179688 93.777344 L 141.605469 92.847656 L 142.027344 91.722656 L 142.453125 90.414062 L 142.875 89.132812 L 143.300781 87.992188 L 143.726562 87.179688 L 144.148438 86.089844 L 144.574219 85.070312 L 144.996094 83.964844 L 145.421875 82.6875 L 145.84375 82.6875 L 146.269531 81.03125 L 146.695312 80.316406 L 147.117188 79.515625 L 147.542969 78.34375 L 147.964844 76.980469 L 148.390625 75.300781 L 148.8125 75.300781 L 149.238281 72.253906 L 149.660156 71.234375 L 150.085938 70.140625 L 150.511719 68.589844 L 150.933594 66.867188 L 151.359375 64.9375 L 151.78125 63.027344 L 152.207031 61.519531 L 152.628906 60.320312 L 153.054688 59.1875 L 153.476562 57.738281 L 153.902344 56.375 L 154.328125 55.039062 L 154.75 53.398438 L 155.175781 52.210938 L 155.597656 51.140625 L 156.023438 50.355469 L 156.445312 49.398438 L 156.871094 48.21875 L 157.296875 46.960938 L 157.71875 45.621094 L 158.144531 44.414062 L 158.566406 43.484375 L 158.992188 42.628906 L 159.414062 41.683594 L 159.839844 40.867188 L 160.261719 39.75 L 160.6875 38.675781 L 161.113281 37.214844 L 161.535156 36.453125 L 161.960938 35.894531 L 162.382812 34.863281 L 162.808594 34.195312 L 163.230469 33.355469 L 163.65625 32.238281 L 164.082031 31.503906 L 164.503906 30.859375 L 164.929688 30.300781 L 165.351562 29.609375 L 165.777344 28.871094 L 166.199219 28.039062 L 166.625 27.296875 L 167.046875 26.558594 L 167.472656 26.027344 L 167.898438 25.671875 L 168.320312 25.054688 L 168.746094 24.339844 L 169.167969 23.835938 L 169.59375 23.183594 L 170.015625 22.472656 L 170.441406 21.980469 L 170.863281 21.574219 L 171.289062 21.027344 L 171.714844 20.335938 L 172.136719 19.6875 L 172.5625 19.109375 L 172.984375 18.578125 L 173.410156 18.042969 L 173.832031 17.875 L 174.257812 17.171875 L 174.683594 16.585938 L 175.105469 15.988281 L 175.53125 15.402344 L 175.953125 14.945312 L 176.378906 14.542969 L 176.378906 205.121094 Z M 5.480469 205.121094 "/>
</g>
<g clip-path="url(#clip2)" clip-rule="nonzero">
<path style="fill:none;stroke-width:0.640187;stroke-linecap:butt;stroke-linejoin:round;stroke:rgb(100%,100%,100%);stroke-opacity:1;stroke-dasharray:3,3;stroke-miterlimit:10;" d="M 5.480469 155.210938 L 176.378906 155.210938 "/>
</g>
<g clip-path="url(#clip3)" clip-rule="nonzero">
<path style="fill:none;stroke-width:0.640187;stroke-linecap:butt;stroke-linejoin:round;stroke:rgb(100%,100%,100%);stroke-opacity:1;stroke-dasharray:3,3;stroke-miterlimit:10;" d="M 5.480469 105.300781 L 176.378906 105.300781 "/>
</g>
<g clip-path="url(#clip4)" clip-rule="nonzero">
<path style="fill:none;stroke-width:0.640187;stroke-linecap:butt;stroke-linejoin:round;stroke:rgb(100%,100%,100%);stroke-opacity:1;stroke-dasharray:3,3;stroke-miterlimit:10;" d="M 5.480469 55.390625 L 176.378906 55.390625 "/>
</g>
<g clip-path="url(#clip5)" clip-rule="nonzero">
<path style="fill:none;stroke-width:0.640187;stroke-linecap:butt;stroke-linejoin:round;stroke:rgb(100%,100%,100%);stroke-opacity:1;stroke-dasharray:3,3;stroke-miterlimit:10;" d="M 5.480469 5.480469 L 176.378906 5.480469 "/>
</g>
<path style="fill:none;stroke-width:0.213396;stroke-linecap:butt;stroke-linejoin:round;stroke:rgb(56.078431%,60.784314%,70.196078%);stroke-opacity:1;stroke-miterlimit:10;" d="M 176.378906 205.121094 L 176.378906 5.480469 "/>
<path style=" stroke:none;fill-rule:evenodd;fill:rgb(0%,0%,0%);fill-opacity:1;" d="M 183.453125 157.628906 L 183.8125 157.59375 L 184.125 157.488281 L 184.398438 157.324219 L 184.628906 157.105469 L 184.820312 156.847656 L 184.976562 156.554688 L 185.089844 156.238281 L 185.171875 155.902344 L 185.222656 155.558594 L 185.238281 155.214844 L 185.222656 154.871094 L 185.171875 154.527344 L 185.089844 154.191406 L 184.976562 153.875 L 184.820312 153.582031 L 184.628906 153.328125 L 184.398438 153.113281 L 184.125 152.949219 L 183.8125 152.84375 L 183.453125 152.808594 L 183.089844 152.84375 L 182.773438 152.949219 L 182.5 153.113281 L 182.269531 153.328125 L 182.078125 153.582031 L 181.925781 153.875 L 181.808594 154.191406 L 181.730469 154.527344 L 181.683594 154.871094 L 181.667969 155.214844 L 181.683594 155.558594 L 181.730469 155.902344 L 181.808594 156.238281 L 181.925781 156.554688 L 182.078125 156.847656 L 182.269531 157.105469 L 182.5 157.324219 L 182.773438 157.488281 L 183.089844 157.59375 Z M 183.453125 157.113281 L 183.203125 157.085938 L 182.988281 157.003906 L 182.800781 156.878906 L 182.648438 156.710938 L 182.523438 156.511719 L 182.425781 156.285156 L 182.351562 156.035156 L 182.300781 155.769531 L 182.269531 155.496094 L 182.261719 155.214844 L 182.269531 154.9375 L 182.300781 154.660156 L 182.351562 154.394531 L 182.425781 154.148438 L 182.523438 153.921875 L 182.648438 153.722656 L 182.800781 153.558594 L 182.988281 153.433594 L 183.203125 153.351562 L 183.453125 153.324219 L 183.699219 153.351562 L 183.917969 153.433594 L 184.101562 153.558594 L 184.253906 153.722656 L 184.378906 153.921875 L 184.480469 154.148438 L 184.550781 154.394531 L 184.601562 154.660156 L 184.632812 154.9375 L 184.640625 155.214844 L 184.632812 155.496094 L 184.601562 155.769531 L 184.550781 156.035156 L 184.480469 156.285156 L 184.378906 156.511719 L 184.253906 156.710938 L 184.101562 156.878906 L 183.917969 157.003906 L 183.699219 157.085938 Z M 183.453125 157.113281 "/>
<path style=" stroke:none;fill-rule:evenodd;fill:rgb(0%,0%,0%);fill-opacity:1;" d="M 186.398438 157.617188 L 186.460938 157.609375 L 186.519531 157.597656 L 186.574219 157.574219 L 186.625 157.542969 L 186.667969 157.503906 L 186.707031 157.457031 L 186.738281 157.40625 L 186.761719 157.351562 L 186.777344 157.292969 L 186.785156 157.230469 L 186.777344 157.167969 L 186.761719 157.109375 L 186.738281 157.054688 L 186.707031 157.003906 L 186.667969 156.960938 L 186.625 156.921875 L 186.574219 156.890625 L 186.519531 156.867188 L 186.460938 156.851562 L 186.398438 156.847656 L 186.335938 156.851562 L 186.277344 156.867188 L 186.222656 156.890625 L 186.171875 156.921875 L 186.128906 156.960938 L 186.089844 157.003906 L 186.058594 157.054688 L 186.035156 157.109375 L 186.019531 157.167969 L 186.011719 157.230469 L 186.019531 157.292969 L 186.035156 157.351562 L 186.058594 157.40625 L 186.089844 157.457031 L 186.128906 157.503906 L 186.171875 157.542969 L 186.222656 157.574219 L 186.277344 157.597656 L 186.335938 157.609375 Z M 186.398438 157.617188 "/>
<path style=" stroke:none;fill-rule:evenodd;fill:rgb(0%,0%,0%);fill-opacity:1;" d="M 189.316406 157.628906 L 189.59375 157.613281 L 189.851562 157.5625 L 190.089844 157.476562 L 190.308594 157.359375 L 190.503906 157.214844 L 190.667969 157.039062 L 190.800781 156.839844 L 190.898438 156.613281 L 190.960938 156.363281 L 190.984375 156.089844 L 190.964844 155.8125 L 190.902344 155.5625 L 190.808594 155.34375 L 190.683594 155.148438 L 190.53125 154.984375 L 190.355469 154.847656 L 190.160156 154.738281 L 189.949219 154.660156 L 189.726562 154.613281 L 189.492188 154.597656 L 189.355469 154.605469 L 189.222656 154.621094 L 189.09375 154.648438 L 188.972656 154.683594 L 188.855469 154.726562 L 188.75 154.773438 L 188.648438 154.828125 L 188.558594 154.890625 L 188.472656 154.953125 L 188.402344 155.019531 L 188.402344 153.394531 L 190.675781 153.394531 L 190.675781 152.878906 L 187.820312 152.878906 L 187.820312 155.390625 L 188.246094 155.539062 L 188.34375 155.453125 L 188.441406 155.375 L 188.542969 155.3125 L 188.644531 155.253906 L 188.75 155.207031 L 188.859375 155.167969 L 188.972656 155.140625 L 189.085938 155.121094 L 189.203125 155.105469 L 189.324219 155.101562 L 189.507812 155.113281 L 189.679688 155.148438 L 189.832031 155.203125 L 189.972656 155.28125 L 190.097656 155.375 L 190.199219 155.492188 L 190.285156 155.621094 L 190.34375 155.769531 L 190.382812 155.933594 L 190.394531 156.109375 L 190.382812 156.277344 L 190.34375 156.433594 L 190.28125 156.578125 L 190.199219 156.707031 L 190.09375 156.824219 L 189.972656 156.921875 L 189.832031 157.003906 L 189.675781 157.0625 L 189.503906 157.097656 L 189.316406 157.113281 L 189.152344 157.105469 L 188.996094 157.085938 L 188.847656 157.054688 L 188.707031 157.007812 L 188.578125 156.949219 L 188.453125 156.878906 L 188.335938 156.800781 L 188.226562 156.707031 L 188.125 156.605469 L 188.03125 156.488281 L 187.671875 156.882812 L 187.78125 157.015625 L 187.902344 157.136719 L 188.035156 157.246094 L 188.175781 157.34375 L 188.332031 157.429688 L 188.5 157.5 L 188.683594 157.554688 L 188.878906 157.597656 L 189.089844 157.621094 Z M 189.316406 157.628906 "/>
<path style=" stroke:none;fill-rule:evenodd;fill:rgb(0%,0%,0%);fill-opacity:1;" d="M 183.136719 107.636719 L 183.136719 102.964844 L 182.625 102.964844 L 181.457031 104.171875 L 181.804688 104.527344 L 182.554688 103.730469 L 182.554688 107.636719 Z M 183.136719 107.636719 "/>
<path style=" stroke:none;fill-rule:evenodd;fill:rgb(0%,0%,0%);fill-opacity:1;" d="M 183.136719 57.726562 L 183.136719 53.054688 L 182.625 53.054688 L 181.457031 54.257812 L 181.804688 54.617188 L 182.554688 53.820312 L 182.554688 57.726562 Z M 183.136719 57.726562 "/>
<path style=" stroke:none;fill-rule:evenodd;fill:rgb(0%,0%,0%);fill-opacity:1;" d="M 184.488281 57.792969 L 184.550781 57.789062 L 184.609375 57.773438 L 184.664062 57.75 L 184.714844 57.71875 L 184.757812 57.679688 L 184.796875 57.636719 L 184.828125 57.585938 L 184.851562 57.53125 L 184.867188 57.472656 L 184.871094 57.410156 L 184.867188 57.347656 L 184.851562 57.289062 L 184.828125 57.234375 L 184.796875 57.183594 L 184.757812 57.136719 L 184.714844 57.101562 L 184.664062 57.066406 L 184.609375 57.042969 L 184.550781 57.03125 L 184.488281 57.023438 L 184.425781 57.03125 L 184.367188 57.042969 L 184.3125 57.066406 L 184.261719 57.101562 L 184.214844 57.136719 L 184.175781 57.183594 L 184.144531 57.234375 L 184.121094 57.289062 L 184.109375 57.347656 L 184.101562 57.410156 L 184.109375 57.472656 L 184.121094 57.53125 L 184.144531 57.585938 L 184.175781 57.636719 L 184.214844 57.679688 L 184.261719 57.71875 L 184.3125 57.75 L 184.367188 57.773438 L 184.425781 57.789062 Z M 184.488281 57.792969 "/>
<path style=" stroke:none;fill-rule:evenodd;fill:rgb(0%,0%,0%);fill-opacity:1;" d="M 187.40625 57.808594 L 187.679688 57.792969 L 187.941406 57.738281 L 188.179688 57.65625 L 188.398438 57.539062 L 188.589844 57.394531 L 188.757812 57.21875 L 188.890625 57.019531 L 188.988281 56.792969 L 189.050781 56.542969 L 189.074219 56.269531 L 189.050781 55.992188 L 188.992188 55.742188 L 188.898438 55.519531 L 188.773438 55.328125 L 188.621094 55.160156 L 188.445312 55.023438 L 188.25 54.917969 L 188.039062 54.839844 L 187.8125 54.792969 L 187.582031 54.777344 L 187.441406 54.785156 L 187.308594 54.800781 L 187.183594 54.824219 L 187.0625 54.859375 L 186.945312 54.902344 L 186.839844 54.953125 L 186.738281 55.007812 L 186.648438 55.066406 L 186.5625 55.132812 L 186.488281 55.199219 L 186.488281 53.574219 L 188.765625 53.574219 L 188.765625 53.054688 L 185.910156 53.054688 L 185.910156 55.570312 L 186.335938 55.714844 L 186.429688 55.628906 L 186.53125 55.554688 L 186.628906 55.488281 L 186.734375 55.433594 L 186.839844 55.386719 L 186.949219 55.347656 L 187.0625 55.320312 L 187.175781 55.296875 L 187.292969 55.285156 L 187.414062 55.28125 L 187.597656 55.292969 L 187.765625 55.328125 L 187.921875 55.382812 L 188.0625 55.460938 L 188.183594 55.554688 L 188.289062 55.667969 L 188.371094 55.800781 L 188.433594 55.949219 L 188.472656 56.113281 L 188.484375 56.289062 L 188.472656 56.457031 L 188.433594 56.613281 L 188.371094 56.757812 L 188.289062 56.886719 L 188.183594 57.003906 L 188.0625 57.101562 L 187.921875 57.179688 L 187.761719 57.242188 L 187.589844 57.277344 L 187.40625 57.289062 L 187.242188 57.285156 L 187.085938 57.265625 L 186.9375 57.230469 L 186.796875 57.1875 L 186.664062 57.128906 L 186.542969 57.058594 L 186.425781 56.976562 L 186.316406 56.886719 L 186.214844 56.78125 L 186.117188 56.667969 L 185.761719 57.058594 L 185.871094 57.191406 L 185.992188 57.316406 L 186.121094 57.425781 L 186.265625 57.523438 L 186.421875 57.609375 L 186.589844 57.679688 L 186.773438 57.734375 L 186.96875 57.773438 L 187.179688 57.800781 Z M 187.40625 57.808594 "/>
<path style=" stroke:none;fill-rule:evenodd;fill:rgb(0%,0%,0%);fill-opacity:1;" d="M 184.894531 7.8125 L 184.894531 7.296875 L 182.605469 7.296875 L 182.984375 6.992188 L 183.339844 6.695312 L 183.667969 6.40625 L 183.964844 6.121094 L 184.226562 5.84375 L 184.449219 5.566406 L 184.628906 5.289062 L 184.761719 5.011719 L 184.84375 4.730469 L 184.871094 4.445312 L 184.851562 4.183594 L 184.785156 3.945312 L 184.679688 3.738281 L 184.542969 3.5625 L 184.378906 3.410156 L 184.191406 3.289062 L 183.984375 3.195312 L 183.765625 3.128906 L 183.539062 3.089844 L 183.304688 3.074219 L 183.109375 3.082031 L 182.917969 3.105469 L 182.730469 3.144531 L 182.550781 3.195312 L 182.378906 3.265625 L 182.21875 3.34375 L 182.0625 3.441406 L 181.921875 3.550781 L 181.796875 3.671875 L 181.679688 3.808594 L 182.039062 4.179688 L 182.125 4.078125 L 182.21875 3.984375 L 182.324219 3.898438 L 182.441406 3.824219 L 182.5625 3.753906 L 182.695312 3.699219 L 182.835938 3.652344 L 182.984375 3.621094 L 183.140625 3.601562 L 183.304688 3.59375 L 183.449219 3.601562 L 183.59375 3.625 L 183.730469 3.664062 L 183.859375 3.71875 L 183.976562 3.792969 L 184.078125 3.886719 L 184.164062 3.996094 L 184.230469 4.128906 L 184.269531 4.277344 L 184.285156 4.445312 L 184.257812 4.6875 L 184.175781 4.929688 L 184.042969 5.179688 L 183.855469 5.4375 L 183.617188 5.703125 L 183.328125 5.988281 L 182.988281 6.289062 L 182.601562 6.617188 L 182.167969 6.964844 L 181.6875 7.34375 L 181.6875 7.8125 Z M 184.894531 7.8125 "/>
<path style=" stroke:none;fill-rule:evenodd;fill:rgb(0%,0%,0%);fill-opacity:1;" d="M 190.542969 7.8125 L 190.542969 3.144531 L 189.710938 3.144531 L 188.261719 6.742188 L 186.804688 3.144531 L 185.972656 3.144531 L 185.972656 7.8125 L 186.550781 7.8125 L 186.550781 3.886719 L 188.140625 7.8125 L 188.378906 7.8125 L 189.960938 3.886719 L 189.960938 7.8125 Z M 190.542969 7.8125 "/>
<path style=" stroke:none;fill-rule:evenodd;fill:rgb(0%,0%,0%);fill-opacity:1;" d="M 194.917969 7.898438 L 195.09375 7.890625 L 195.257812 7.867188 L 195.40625 7.835938 L 195.546875 7.789062 L 195.671875 7.730469 L 195.785156 7.660156 L 195.890625 7.585938 L 195.988281 7.5 L 196.074219 7.40625 L 196.15625 7.308594 L 195.804688 6.988281 L 195.738281 7.074219 L 195.664062 7.148438 L 195.589844 7.214844 L 195.507812 7.273438 L 195.421875 7.320312 L 195.335938 7.359375 L 195.242188 7.390625 L 195.148438 7.410156 L 195.046875 7.425781 L 194.945312 7.429688 L 194.738281 7.414062 L 194.550781 7.363281 L 194.378906 7.289062 L 194.226562 7.183594 L 194.09375 7.054688 L 193.980469 6.902344 L 193.894531 6.734375 L 193.828125 6.542969 L 193.789062 6.339844 L 193.777344 6.121094 L 193.789062 5.902344 L 193.828125 5.695312 L 193.894531 5.507812 L 193.980469 5.339844 L 194.09375 5.1875 L 194.226562 5.058594 L 194.378906 4.957031 L 194.550781 4.882812 L 194.738281 4.835938 L 194.945312 4.816406 L 195.046875 4.820312 L 195.148438 4.832031 L 195.242188 4.851562 L 195.335938 4.882812 L 195.421875 4.917969 L 195.507812 4.964844 L 195.589844 5.023438 L 195.664062 5.089844 L 195.738281 5.164062 L 195.804688 5.25 L 196.15625 4.9375 L 196.074219 4.839844 L 195.988281 4.746094 L 195.890625 4.660156 L 195.785156 4.585938 L 195.671875 4.515625 L 195.546875 4.460938 L 195.40625 4.414062 L 195.257812 4.378906 L 195.09375 4.355469 L 194.917969 4.347656 L 194.625 4.371094 L 194.355469 4.4375 L 194.109375 4.542969 L 193.886719 4.683594 L 193.695312 4.859375 L 193.535156 5.0625 L 193.40625 5.296875 L 193.308594 5.550781 L 193.25 5.828125 L 193.230469 6.121094 L 193.25 6.414062 L 193.308594 6.6875 L 193.40625 6.945312 L 193.535156 7.179688 L 193.695312 7.382812 L 193.886719 7.558594 L 194.109375 7.703125 L 194.355469 7.808594 L 194.625 7.875 Z M 194.917969 7.898438 "/>
<path style=" stroke:none;fill-rule:evenodd;fill:rgb(0%,0%,0%);fill-opacity:1;" d="M 199.539062 7.8125 L 199.539062 5.488281 L 199.519531 5.257812 L 199.46875 5.058594 L 199.390625 4.882812 L 199.285156 4.734375 L 199.152344 4.613281 L 199 4.515625 L 198.828125 4.441406 L 198.640625 4.390625 L 198.441406 4.359375 L 198.230469 4.347656 L 198.066406 4.355469 L 197.910156 4.371094 L 197.761719 4.398438 L 197.617188 4.4375 L 197.480469 4.488281 L 197.351562 4.546875 L 197.226562 4.621094 L 197.105469 4.707031 L 196.988281 4.800781 L 196.878906 4.910156 L 197.121094 5.273438 L 197.214844 5.179688 L 197.308594 5.097656 L 197.402344 5.027344 L 197.5 4.964844 L 197.601562 4.914062 L 197.707031 4.875 L 197.8125 4.84375 L 197.921875 4.820312 L 198.039062 4.808594 L 198.160156 4.804688 L 198.300781 4.8125 L 198.433594 4.835938 L 198.558594 4.871094 L 198.671875 4.921875 L 198.769531 4.988281 L 198.851562 5.070312 L 198.921875 5.160156 L 198.972656 5.265625 L 199 5.382812 L 199.011719 5.511719 L 199.011719 6.121094 L 198.925781 6.03125 L 198.835938 5.953125 L 198.738281 5.886719 L 198.632812 5.828125 L 198.523438 5.777344 L 198.40625 5.738281 L 198.285156 5.703125 L 198.160156 5.683594 L 198.027344 5.667969 L 197.890625 5.664062 L 197.71875 5.675781 L 197.550781 5.707031 L 197.386719 5.761719 L 197.230469 5.835938 L 197.089844 5.933594 L 196.964844 6.054688 L 196.863281 6.199219 L 196.785156 6.371094 L 196.734375 6.5625 L 196.714844 6.777344 L 196.734375 6.988281 L 196.785156 7.175781 L 196.863281 7.34375 L 196.96875 7.488281 L 197.09375 7.613281 L 197.234375 7.714844 L 197.386719 7.796875 L 197.550781 7.851562 L 197.722656 7.886719 L 197.890625 7.898438 L 198.027344 7.894531 L 198.15625 7.878906 L 198.285156 7.855469 L 198.40625 7.820312 L 198.519531 7.777344 L 198.632812 7.726562 L 198.734375 7.667969 L 198.835938 7.597656 L 198.925781 7.515625 L 199.011719 7.429688 L 199.011719 7.8125 Z M 198.089844 7.519531 L 197.945312 7.511719 L 197.808594 7.484375 L 197.6875 7.441406 L 197.578125 7.382812 L 197.480469 7.3125 L 197.402344 7.226562 L 197.335938 7.128906 L 197.289062 7.023438 L 197.257812 6.902344 L 197.25 6.777344 L 197.257812 6.652344 L 197.289062 6.539062 L 197.335938 6.429688 L 197.402344 6.335938 L 197.480469 6.25 L 197.578125 6.179688 L 197.6875 6.121094 L 197.808594 6.078125 L 197.945312 6.050781 L 198.089844 6.042969 L 198.199219 6.046875 L 198.304688 6.058594 L 198.410156 6.082031 L 198.511719 6.109375 L 198.609375 6.148438 L 198.703125 6.191406 L 198.792969 6.246094 L 198.875 6.308594 L 198.945312 6.378906 L 199.011719 6.457031 L 199.011719 7.101562 L 198.945312 7.179688 L 198.875 7.25 L 198.792969 7.3125 L 198.703125 7.367188 L 198.609375 7.414062 L 198.511719 7.453125 L 198.410156 7.480469 L 198.304688 7.503906 L 198.199219 7.515625 Z M 198.089844 7.519531 "/>
<path style=" stroke:none;fill-rule:evenodd;fill:rgb(0%,0%,0%);fill-opacity:1;" d="M 201.671875 7.898438 L 201.921875 7.882812 L 202.144531 7.847656 L 202.339844 7.785156 L 202.511719 7.703125 L 202.660156 7.597656 L 202.78125 7.480469 L 202.875 7.347656 L 202.941406 7.199219 L 202.980469 7.042969 L 202.996094 6.875 L 202.9375 6.53125 L 202.777344 6.277344 L 202.542969 6.097656 L 202.257812 5.96875 L 201.949219 5.875 L 201.640625 5.796875 L 201.355469 5.722656 L 201.121094 5.625 L 200.960938 5.496094 L 200.902344 5.308594 L 200.910156 5.21875 L 200.9375 5.136719 L 200.976562 5.058594 L 201.03125 4.992188 L 201.105469 4.929688 L 201.1875 4.875 L 201.285156 4.832031 L 201.394531 4.800781 L 201.519531 4.78125 L 201.652344 4.777344 L 201.78125 4.78125 L 201.90625 4.796875 L 202.023438 4.820312 L 202.136719 4.855469 L 202.246094 4.898438 L 202.34375 4.945312 L 202.4375 5.003906 L 202.519531 5.066406 L 202.59375 5.132812 L 202.660156 5.203125 L 202.90625 4.839844 L 202.820312 4.757812 L 202.726562 4.683594 L 202.625 4.613281 L 202.515625 4.546875 L 202.394531 4.492188 L 202.265625 4.441406 L 202.128906 4.402344 L 201.980469 4.375 L 201.820312 4.355469 L 201.652344 4.347656 L 201.421875 4.363281 L 201.210938 4.398438 L 201.027344 4.457031 L 200.863281 4.539062 L 200.722656 4.636719 L 200.609375 4.75 L 200.515625 4.878906 L 200.453125 5.015625 L 200.410156 5.164062 L 200.398438 5.320312 L 200.457031 5.648438 L 200.617188 5.886719 L 200.851562 6.058594 L 201.136719 6.179688 L 201.445312 6.269531 L 201.753906 6.34375 L 202.039062 6.425781 L 202.273438 6.53125 L 202.433594 6.679688 L 202.492188 6.890625 L 202.484375 6.988281 L 202.457031 7.078125 L 202.414062 7.164062 L 202.355469 7.238281 L 202.285156 7.304688 L 202.195312 7.363281 L 202.089844 7.410156 L 201.96875 7.441406 L 201.835938 7.464844 L 201.6875 7.472656 L 201.550781 7.464844 L 201.414062 7.445312 L 201.285156 7.414062 L 201.160156 7.375 L 201.039062 7.328125 L 200.929688 7.269531 L 200.824219 7.207031 L 200.730469 7.136719 L 200.648438 7.0625 L 200.574219 6.988281 L 200.308594 7.367188 L 200.414062 7.46875 L 200.527344 7.558594 L 200.648438 7.636719 L 200.773438 7.707031 L 200.910156 7.765625 L 201.050781 7.8125 L 201.195312 7.851562 L 201.347656 7.875 L 201.507812 7.894531 Z M 201.671875 7.898438 "/>
<path style=" stroke:none;fill-rule:evenodd;fill:rgb(0%,0%,0%);fill-opacity:1;" d="M 205.382812 7.898438 L 205.542969 7.890625 L 205.699219 7.875 L 205.847656 7.847656 L 205.992188 7.808594 L 206.128906 7.761719 L 206.261719 7.703125 L 206.386719 7.632812 L 206.507812 7.554688 L 206.621094 7.46875 L 206.726562 7.371094 L 206.472656 7.03125 L 206.390625 7.109375 L 206.296875 7.183594 L 206.203125 7.246094 L 206.101562 7.304688 L 205.996094 7.351562 L 205.886719 7.390625 L 205.773438 7.421875 L 205.65625 7.445312 L 205.542969 7.460938 L 205.425781 7.464844 L 205.214844 7.449219 L 205.023438 7.402344 L 204.851562 7.332031 L 204.695312 7.234375 L 204.5625 7.117188 L 204.449219 6.980469 L 204.355469 6.828125 L 204.285156 6.660156 L 204.238281 6.484375 L 204.214844 6.296875 L 206.945312 6.296875 L 206.945312 6.160156 L 206.925781 5.863281 L 206.871094 5.582031 L 206.785156 5.324219 L 206.667969 5.085938 L 206.515625 4.875 L 206.332031 4.695312 L 206.121094 4.546875 L 205.882812 4.441406 L 205.613281 4.371094 L 205.320312 4.347656 L 205.039062 4.371094 L 204.773438 4.4375 L 204.535156 4.546875 L 204.316406 4.691406 L 204.125 4.867188 L 203.960938 5.074219 L 203.832031 5.304688 L 203.734375 5.558594 L 203.675781 5.832031 L 203.652344 6.121094 L 203.675781 6.425781 L 203.738281 6.710938 L 203.835938 6.96875 L 203.972656 7.203125 L 204.140625 7.40625 L 204.339844 7.578125 L 204.566406 7.714844 L 204.816406 7.816406 L 205.089844 7.875 Z M 206.425781 5.902344 L 204.207031 5.902344 L 204.226562 5.746094 L 204.261719 5.589844 L 204.320312 5.4375 L 204.398438 5.289062 L 204.5 5.152344 L 204.621094 5.03125 L 204.761719 4.929688 L 204.921875 4.851562 L 205.105469 4.800781 L 205.3125 4.78125 L 205.53125 4.800781 L 205.722656 4.851562 L 205.890625 4.929688 L 206.035156 5.035156 L 206.15625 5.15625 L 206.253906 5.292969 L 206.328125 5.441406 L 206.382812 5.59375 L 206.414062 5.75 Z M 206.425781 5.902344 "/>
<path style=" stroke:none;fill-rule:evenodd;fill:rgb(0%,0%,0%);fill-opacity:1;" d="M 208.867188 7.898438 L 209.117188 7.882812 L 209.339844 7.847656 L 209.535156 7.785156 L 209.710938 7.703125 L 209.855469 7.597656 L 209.976562 7.480469 L 210.070312 7.347656 L 210.136719 7.199219 L 210.179688 7.042969 L 210.191406 6.875 L 210.132812 6.53125 L 209.972656 6.277344 L 209.738281 6.097656 L 209.453125 5.96875 L 209.144531 5.875 L 208.835938 5.796875 L 208.550781 5.722656 L 208.316406 5.625 L 208.15625 5.496094 L 208.097656 5.308594 L 208.105469 5.21875 L 208.132812 5.136719 L 208.171875 5.058594 L 208.230469 4.992188 L 208.300781 4.929688 L 208.382812 4.875 L 208.480469 4.832031 L 208.59375 4.800781 L 208.714844 4.78125 L 208.847656 4.777344 L 208.976562 4.78125 L 209.101562 4.796875 L 209.222656 4.820312 L 209.335938 4.855469 L 209.441406 4.898438 L 209.539062 4.945312 L 209.632812 5.003906 L 209.714844 5.066406 L 209.789062 5.132812 L 209.855469 5.203125 L 210.101562 4.839844 L 210.015625 4.757812 L 209.925781 4.683594 L 209.824219 4.613281 L 209.710938 4.546875 L 209.59375 4.492188 L 209.464844 4.441406 L 209.324219 4.402344 L 209.175781 4.375 L 209.015625 4.355469 L 208.847656 4.347656 L 208.617188 4.363281 L 208.40625 4.398438 L 208.222656 4.457031 L 208.058594 4.539062 L 207.917969 4.636719 L 207.804688 4.75 L 207.714844 4.878906 L 207.648438 5.015625 L 207.609375 5.164062 L 207.59375 5.320312 L 207.652344 5.648438 L 207.8125 5.886719 L 208.046875 6.058594 L 208.332031 6.179688 L 208.640625 6.269531 L 208.949219 6.34375 L 209.234375 6.425781 L 209.46875 6.53125 L 209.628906 6.679688 L 209.6875 6.890625 L 209.679688 6.988281 L 209.652344 7.078125 L 209.613281 7.164062 L 209.554688 7.238281 L 209.480469 7.304688 L 209.390625 7.363281 L 209.285156 7.410156 L 209.164062 7.441406 L 209.03125 7.464844 L 208.882812 7.472656 L 208.746094 7.464844 L 208.609375 7.445312 L 208.480469 7.414062 L 208.355469 7.375 L 208.238281 7.328125 L 208.125 7.269531 L 208.019531 7.207031 L 207.925781 7.136719 L 207.84375 7.0625 L 207.769531 6.988281 L 207.503906 7.367188 L 207.609375 7.46875 L 207.722656 7.558594 L 207.84375 7.636719 L 207.972656 7.707031 L 208.105469 7.765625 L 208.246094 7.8125 L 208.390625 7.851562 L 208.542969 7.875 L 208.703125 7.894531 Z M 208.867188 7.898438 "/>
<path style="fill:none;stroke-width:0.426791;stroke-linecap:butt;stroke-linejoin:round;stroke:rgb(0%,0%,0%);stroke-opacity:1;stroke-miterlimit:10;" d="M 44.917969 202.289062 L 44.917969 205.121094 "/>
<path style="fill:none;stroke-width:0.426791;stroke-linecap:butt;stroke-linejoin:round;stroke:rgb(0%,0%,0%);stroke-opacity:1;stroke-miterlimit:10;" d="M 97.078125 202.289062 L 97.078125 205.121094 "/>
<path style="fill:none;stroke-width:0.426791;stroke-linecap:butt;stroke-linejoin:round;stroke:rgb(0%,0%,0%);stroke-opacity:1;stroke-miterlimit:10;" d="M 148.8125 202.289062 L 148.8125 205.121094 "/>
<path style=" stroke:none;fill-rule:evenodd;fill:rgb(0%,0%,0%);fill-opacity:1;" d="M 37.835938 199.886719 L 37.835938 195.21875 L 37.003906 195.21875 L 35.554688 198.816406 L 34.097656 195.21875 L 33.265625 195.21875 L 33.265625 199.886719 L 33.847656 199.886719 L 33.847656 195.960938 L 35.4375 199.886719 L 35.675781 199.886719 L 37.257812 195.960938 L 37.257812 199.886719 Z M 37.835938 199.886719 "/>
<path style=" stroke:none;fill-rule:evenodd;fill:rgb(0%,0%,0%);fill-opacity:1;" d="M 41.546875 199.886719 L 41.546875 197.5625 L 41.53125 197.332031 L 41.480469 197.128906 L 41.402344 196.957031 L 41.292969 196.808594 L 41.164062 196.6875 L 41.011719 196.589844 L 40.839844 196.515625 L 40.652344 196.460938 L 40.449219 196.433594 L 40.238281 196.421875 L 40.074219 196.429688 L 39.921875 196.445312 L 39.769531 196.472656 L 39.628906 196.511719 L 39.492188 196.5625 L 39.359375 196.621094 L 39.234375 196.695312 L 39.113281 196.777344 L 39 196.875 L 38.886719 196.984375 L 39.132812 197.347656 L 39.222656 197.253906 L 39.316406 197.171875 L 39.410156 197.101562 L 39.511719 197.039062 L 39.609375 196.988281 L 39.714844 196.949219 L 39.820312 196.917969 L 39.933594 196.894531 L 40.046875 196.882812 L 40.167969 196.878906 L 40.3125 196.886719 L 40.445312 196.90625 L 40.570312 196.945312 L 40.679688 196.996094 L 40.777344 197.0625 L 40.863281 197.140625 L 40.929688 197.234375 L 40.980469 197.339844 L 41.011719 197.457031 L 41.023438 197.585938 L 41.023438 198.195312 L 40.9375 198.105469 L 40.84375 198.027344 L 40.746094 197.960938 L 40.644531 197.898438 L 40.53125 197.851562 L 40.417969 197.808594 L 40.296875 197.777344 L 40.167969 197.757812 L 40.039062 197.742188 L 39.902344 197.738281 L 39.730469 197.75 L 39.558594 197.78125 L 39.394531 197.835938 L 39.238281 197.910156 L 39.097656 198.007812 L 38.976562 198.128906 L 38.871094 198.273438 L 38.792969 198.441406 L 38.742188 198.636719 L 38.726562 198.851562 L 38.742188 199.0625 L 38.792969 199.25 L 38.871094 199.417969 L 38.976562 199.5625 L 39.101562 199.6875 L 39.242188 199.789062 L 39.398438 199.867188 L 39.5625 199.925781 L 39.730469 199.960938 L 39.902344 199.972656 L 40.035156 199.964844 L 40.167969 199.953125 L 40.292969 199.929688 L 40.414062 199.894531 L 40.53125 199.851562 L 40.640625 199.800781 L 40.746094 199.738281 L 40.84375 199.667969 L 40.9375 199.589844 L 41.023438 199.503906 L 41.023438 199.886719 Z M 40.097656 199.59375 L 39.953125 199.585938 L 39.820312 199.558594 L 39.699219 199.515625 L 39.585938 199.457031 L 39.492188 199.386719 L 39.410156 199.300781 L 39.34375 199.203125 L 39.296875 199.09375 L 39.269531 198.976562 L 39.257812 198.851562 L 39.269531 198.726562 L 39.296875 198.609375 L 39.34375 198.503906 L 39.410156 198.410156 L 39.492188 198.324219 L 39.585938 198.253906 L 39.699219 198.195312 L 39.820312 198.152344 L 39.953125 198.125 L 40.097656 198.117188 L 40.207031 198.121094 L 40.316406 198.132812 L 40.417969 198.152344 L 40.523438 198.183594 L 40.621094 198.21875 L 40.714844 198.265625 L 40.800781 198.320312 L 40.882812 198.382812 L 40.957031 198.453125 L 41.023438 198.53125 L 41.023438 199.171875 L 40.957031 199.253906 L 40.882812 199.324219 L 40.800781 199.386719 L 40.714844 199.441406 L 40.621094 199.488281 L 40.523438 199.527344 L 40.417969 199.554688 L 40.316406 199.578125 L 40.207031 199.589844 Z M 40.097656 199.59375 "/>
<path style=" stroke:none;fill-rule:evenodd;fill:rgb(0%,0%,0%);fill-opacity:1;" d="M 42.421875 201.210938 L 42.484375 201.226562 L 42.523438 201.234375 L 42.5625 201.238281 L 42.601562 201.246094 L 42.6875 201.253906 L 42.726562 201.257812 L 42.800781 201.257812 L 42.929688 201.25 L 43.054688 201.234375 L 43.175781 201.199219 L 43.285156 201.15625 L 43.390625 201.097656 L 43.484375 201.023438 L 43.574219 200.9375 L 43.65625 200.832031 L 43.730469 200.710938 L 43.792969 200.574219 L 45.488281 196.507812 L 44.921875 196.507812 L 43.792969 199.277344 L 42.675781 196.507812 L 42.101562 196.507812 L 43.515625 199.921875 L 43.289062 200.433594 L 43.253906 200.511719 L 43.214844 200.578125 L 43.171875 200.632812 L 43.128906 200.679688 L 43.082031 200.71875 L 43.027344 200.746094 L 42.972656 200.765625 L 42.914062 200.78125 L 42.851562 200.789062 L 42.730469 200.789062 L 42.703125 200.785156 L 42.640625 200.777344 L 42.578125 200.761719 L 42.523438 200.746094 L 42.5 200.734375 Z M 42.421875 201.210938 "/>
<path style=" stroke:none;fill-rule:evenodd;fill:rgb(0%,0%,0%);fill-opacity:1;" d="M 48.148438 197.003906 L 48.152344 196.964844 L 48.167969 196.855469 L 48.1875 196.691406 L 48.214844 196.492188 L 48.242188 196.273438 L 48.269531 196.050781 L 48.296875 195.84375 L 48.316406 195.667969 L 48.332031 195.539062 L 48.335938 195.46875 L 48.332031 195.417969 L 48.320312 195.371094 L 48.300781 195.324219 L 48.277344 195.28125 L 48.246094 195.242188 L 48.207031 195.210938 L 48.164062 195.183594 L 48.117188 195.164062 L 48.066406 195.152344 L 48.015625 195.148438 L 47.964844 195.152344 L 47.914062 195.164062 L 47.871094 195.183594 L 47.828125 195.210938 L 47.792969 195.242188 L 47.761719 195.28125 L 47.734375 195.324219 L 47.714844 195.371094 L 47.703125 195.417969 L 47.699219 195.46875 L 47.707031 195.539062 L 47.71875 195.667969 L 47.742188 195.84375 L 47.765625 196.050781 L 47.792969 196.273438 L 47.824219 196.492188 L 47.847656 196.691406 L 47.871094 196.855469 L 47.882812 196.964844 L 47.890625 197.003906 Z M 48.148438 197.003906 "/>
<path style=" stroke:none;fill-rule:evenodd;fill:rgb(0%,0%,0%);fill-opacity:1;" d="M 52.300781 199.886719 L 52.300781 199.371094 L 50.011719 199.371094 L 50.390625 199.066406 L 50.746094 198.769531 L 51.074219 198.480469 L 51.371094 198.195312 L 51.632812 197.917969 L 51.855469 197.636719 L 52.035156 197.359375 L 52.167969 197.082031 L 52.25 196.804688 L 52.277344 196.519531 L 52.253906 196.257812 L 52.191406 196.019531 L 52.085938 195.8125 L 51.949219 195.636719 L 51.785156 195.484375 L 51.597656 195.363281 L 51.390625 195.269531 L 51.171875 195.203125 L 50.941406 195.160156 L 50.710938 195.148438 L 50.515625 195.15625 L 50.324219 195.179688 L 50.136719 195.21875 L 49.957031 195.269531 L 49.785156 195.335938 L 49.621094 195.417969 L 49.46875 195.515625 L 49.328125 195.625 L 49.199219 195.746094 L 49.085938 195.882812 L 49.441406 196.253906 L 49.53125 196.152344 L 49.625 196.058594 L 49.730469 195.972656 L 49.847656 195.894531 L 49.96875 195.828125 L 50.101562 195.773438 L 50.242188 195.726562 L 50.390625 195.695312 L 50.546875 195.671875 L 50.710938 195.667969 L 50.855469 195.675781 L 50.996094 195.699219 L 51.136719 195.738281 L 51.265625 195.792969 L 51.382812 195.867188 L 51.484375 195.960938 L 51.570312 196.070312 L 51.632812 196.199219 L 51.675781 196.351562 L 51.691406 196.519531 L 51.664062 196.761719 L 51.582031 197.003906 L 51.445312 197.253906 L 51.261719 197.507812 L 51.023438 197.777344 L 50.734375 198.0625 L 50.394531 198.363281 L 50.007812 198.6875 L 49.574219 199.039062 L 49.09375 199.417969 L 49.09375 199.886719 Z M 52.300781 199.886719 "/>
<path style=" stroke:none;fill-rule:evenodd;fill:rgb(0%,0%,0%);fill-opacity:1;" d="M 54.972656 199.972656 L 55.332031 199.933594 L 55.648438 199.828125 L 55.921875 199.664062 L 56.152344 199.449219 L 56.34375 199.1875 L 56.496094 198.898438 L 56.613281 198.578125 L 56.695312 198.242188 L 56.742188 197.898438 L 56.757812 197.554688 L 56.742188 197.210938 L 56.695312 196.867188 L 56.613281 196.535156 L 56.496094 196.214844 L 56.34375 195.925781 L 56.152344 195.667969 L 55.921875 195.453125 L 55.648438 195.289062 L 55.332031 195.183594 L 54.972656 195.148438 L 54.613281 195.183594 L 54.296875 195.289062 L 54.023438 195.453125 L 53.792969 195.667969 L 53.601562 195.925781 L 53.449219 196.214844 L 53.332031 196.535156 L 53.25 196.867188 L 53.203125 197.210938 L 53.1875 197.554688 L 53.203125 197.898438 L 53.25 198.242188 L 53.332031 198.578125 L 53.449219 198.898438 L 53.601562 199.1875 L 53.792969 199.449219 L 54.023438 199.664062 L 54.296875 199.828125 L 54.613281 199.933594 Z M 54.972656 199.453125 L 54.722656 199.425781 L 54.507812 199.34375 L 54.324219 199.21875 L 54.171875 199.054688 L 54.042969 198.855469 L 53.945312 198.625 L 53.871094 198.375 L 53.820312 198.113281 L 53.792969 197.835938 L 53.78125 197.554688 L 53.792969 197.277344 L 53.820312 197.003906 L 53.871094 196.738281 L 53.945312 196.488281 L 54.042969 196.261719 L 54.171875 196.0625 L 54.324219 195.898438 L 54.507812 195.773438 L 54.722656 195.695312 L 54.972656 195.667969 L 55.222656 195.695312 L 55.4375 195.773438 L 55.621094 195.898438 L 55.777344 196.0625 L 55.902344 196.261719 L 56 196.488281 L 56.074219 196.738281 L 56.125 197.003906 L 56.152344 197.277344 L 56.164062 197.554688 L 56.152344 197.835938 L 56.125 198.113281 L 56.074219 198.375 L 56 198.625 L 55.902344 198.855469 L 55.777344 199.054688 L 55.621094 199.21875 L 55.4375 199.34375 L 55.222656 199.425781 Z M 54.972656 199.453125 "/>
<path style=" stroke:none;fill-rule:evenodd;fill:rgb(0%,0%,0%);fill-opacity:1;" d="M 87.308594 199.972656 L 87.664062 199.953125 L 87.972656 199.894531 L 88.238281 199.800781 L 88.460938 199.683594 L 88.644531 199.539062 L 88.789062 199.371094 L 88.898438 199.191406 L 88.972656 199 L 89.015625 198.800781 L 89.03125 198.597656 L 88.953125 198.144531 L 88.742188 197.804688 L 88.433594 197.554688 L 88.058594 197.378906 L 87.648438 197.246094 L 87.238281 197.132812 L 86.863281 197.015625 L 86.554688 196.871094 L 86.34375 196.679688 L 86.265625 196.410156 L 86.277344 196.28125 L 86.3125 196.160156 L 86.367188 196.054688 L 86.445312 195.957031 L 86.539062 195.871094 L 86.648438 195.800781 L 86.773438 195.742188 L 86.914062 195.703125 L 87.0625 195.675781 L 87.226562 195.667969 L 87.378906 195.671875 L 87.527344 195.6875 L 87.675781 195.714844 L 87.820312 195.75 L 87.960938 195.800781 L 88.097656 195.859375 L 88.226562 195.933594 L 88.351562 196.019531 L 88.46875 196.117188 L 88.578125 196.226562 L 88.925781 195.800781 L 88.804688 195.679688 L 88.671875 195.574219 L 88.53125 195.476562 L 88.378906 195.390625 L 88.21875 195.316406 L 88.046875 195.253906 L 87.867188 195.207031 L 87.679688 195.171875 L 87.480469 195.148438 L 87.273438 195.140625 L 87.003906 195.15625 L 86.75 195.203125 L 86.519531 195.277344 L 86.308594 195.378906 L 86.121094 195.503906 L 85.964844 195.652344 L 85.835938 195.824219 L 85.742188 196.011719 L 85.683594 196.21875 L 85.664062 196.445312 L 85.742188 196.878906 L 85.953125 197.195312 L 86.261719 197.425781 L 86.636719 197.589844 L 87.046875 197.714844 L 87.457031 197.828125 L 87.832031 197.949219 L 88.140625 198.109375 L 88.351562 198.332031 L 88.429688 198.640625 L 88.421875 198.753906 L 88.394531 198.867188 L 88.347656 198.976562 L 88.28125 199.085938 L 88.191406 199.183594 L 88.078125 199.273438 L 87.933594 199.347656 L 87.765625 199.402344 L 87.5625 199.441406 L 87.332031 199.453125 L 87.136719 199.445312 L 86.953125 199.417969 L 86.78125 199.375 L 86.617188 199.316406 L 86.464844 199.25 L 86.324219 199.167969 L 86.191406 199.082031 L 86.070312 198.984375 L 85.964844 198.886719 L 85.867188 198.78125 L 85.515625 199.230469 L 85.640625 199.355469 L 85.773438 199.472656 L 85.921875 199.582031 L 86.082031 199.679688 L 86.253906 199.761719 L 86.441406 199.835938 L 86.640625 199.894531 L 86.851562 199.9375 L 87.074219 199.960938 Z M 87.308594 199.972656 "/>
<path style=" stroke:none;fill-rule:evenodd;fill:rgb(0%,0%,0%);fill-opacity:1;" d="M 91.410156 199.972656 L 91.570312 199.964844 L 91.726562 199.949219 L 91.878906 199.921875 L 92.019531 199.882812 L 92.160156 199.835938 L 92.292969 199.777344 L 92.417969 199.707031 L 92.535156 199.628906 L 92.648438 199.542969 L 92.753906 199.445312 L 92.503906 199.105469 L 92.417969 199.183594 L 92.328125 199.257812 L 92.230469 199.320312 L 92.128906 199.378906 L 92.023438 199.425781 L 91.914062 199.464844 L 91.800781 199.496094 L 91.6875 199.519531 L 91.570312 199.53125 L 91.453125 199.539062 L 91.242188 199.523438 L 91.050781 199.476562 L 90.878906 199.40625 L 90.722656 199.308594 L 90.589844 199.191406 L 90.476562 199.054688 L 90.382812 198.902344 L 90.3125 198.734375 L 90.265625 198.554688 L 90.242188 198.367188 L 92.972656 198.367188 L 92.972656 198.234375 L 92.953125 197.9375 L 92.902344 197.65625 L 92.816406 197.394531 L 92.695312 197.160156 L 92.542969 196.949219 L 92.363281 196.769531 L 92.148438 196.621094 L 91.910156 196.511719 L 91.640625 196.445312 L 91.347656 196.421875 L 91.066406 196.445312 L 90.804688 196.511719 L 90.5625 196.621094 L 90.34375 196.765625 L 90.152344 196.941406 L 89.992188 197.148438 L 89.859375 197.378906 L 89.761719 197.632812 L 89.703125 197.90625 L 89.683594 198.195312 L 89.703125 198.5 L 89.765625 198.785156 L 89.863281 199.042969 L 90 199.277344 L 90.167969 199.480469 L 90.367188 199.648438 L 90.59375 199.789062 L 90.84375 199.886719 L 91.117188 199.949219 Z M 92.453125 197.976562 L 90.234375 197.976562 L 90.253906 197.820312 L 90.292969 197.664062 L 90.351562 197.507812 L 90.429688 197.363281 L 90.527344 197.226562 L 90.648438 197.105469 L 90.789062 197 L 90.953125 196.925781 L 91.136719 196.875 L 91.339844 196.855469 L 91.558594 196.875 L 91.753906 196.925781 L 91.917969 197.003906 L 92.0625 197.109375 L 92.183594 197.230469 L 92.28125 197.367188 L 92.355469 197.515625 L 92.410156 197.667969 L 92.441406 197.824219 Z M 92.453125 197.976562 "/>
<path style=" stroke:none;fill-rule:evenodd;fill:rgb(0%,0%,0%);fill-opacity:1;" d="M 95.484375 199.972656 L 95.742188 199.953125 L 95.984375 199.890625 L 96.203125 199.792969 L 96.398438 199.660156 L 96.570312 199.492188 L 96.714844 199.292969 L 96.832031 199.058594 L 96.917969 198.796875 L 96.972656 198.507812 L 96.988281 198.195312 L 96.972656 197.875 L 96.917969 197.585938 L 96.832031 197.328125 L 96.714844 197.09375 L 96.570312 196.894531 L 96.398438 196.730469 L 96.203125 196.597656 L 95.984375 196.5 L 95.742188 196.441406 L 95.484375 196.421875 L 95.34375 196.429688 L 95.207031 196.449219 L 95.074219 196.484375 L 94.949219 196.53125 L 94.828125 196.589844 L 94.714844 196.65625 L 94.609375 196.730469 L 94.511719 196.816406 L 94.421875 196.910156 L 94.34375 197.011719 L 94.34375 196.507812 L 93.820312 196.507812 L 93.820312 201.175781 L 94.34375 201.175781 L 94.34375 199.375 L 94.433594 199.484375 L 94.527344 199.582031 L 94.625 199.667969 L 94.734375 199.746094 L 94.847656 199.8125 L 94.964844 199.867188 L 95.089844 199.914062 L 95.214844 199.945312 L 95.347656 199.964844 Z M 95.351562 199.503906 L 95.230469 199.496094 L 95.105469 199.472656 L 94.988281 199.441406 L 94.871094 199.394531 L 94.761719 199.339844 L 94.660156 199.277344 L 94.5625 199.203125 L 94.480469 199.125 L 94.40625 199.042969 L 94.34375 198.957031 L 94.34375 197.429688 L 94.40625 197.34375 L 94.480469 197.261719 L 94.5625 197.183594 L 94.660156 197.113281 L 94.761719 197.050781 L 94.871094 196.996094 L 94.988281 196.953125 L 95.105469 196.917969 L 95.230469 196.898438 L 95.351562 196.890625 L 95.546875 196.90625 L 95.726562 196.953125 L 95.886719 197.03125 L 96.027344 197.132812 L 96.148438 197.261719 L 96.25 197.410156 L 96.332031 197.582031 L 96.390625 197.769531 L 96.425781 197.976562 L 96.4375 198.195312 L 96.425781 198.414062 L 96.390625 198.617188 L 96.332031 198.804688 L 96.25 198.976562 L 96.148438 199.128906 L 96.027344 199.257812 L 95.886719 199.363281 L 95.726562 199.4375 L 95.546875 199.484375 Z M 95.351562 199.503906 "/>
<path style=" stroke:none;fill-rule:evenodd;fill:rgb(0%,0%,0%);fill-opacity:1;" d="M 99.9375 197.003906 L 99.941406 196.964844 L 99.957031 196.855469 L 99.976562 196.691406 L 100.003906 196.492188 L 100.03125 196.273438 L 100.058594 196.050781 L 100.085938 195.84375 L 100.105469 195.667969 L 100.121094 195.539062 L 100.125 195.46875 L 100.121094 195.417969 L 100.109375 195.371094 L 100.089844 195.324219 L 100.066406 195.28125 L 100.035156 195.242188 L 99.996094 195.210938 L 99.953125 195.183594 L 99.90625 195.164062 L 99.859375 195.152344 L 99.804688 195.148438 L 99.753906 195.152344 L 99.703125 195.164062 L 99.660156 195.183594 L 99.617188 195.210938 L 99.582031 195.242188 L 99.550781 195.28125 L 99.523438 195.324219 L 99.503906 195.371094 L 99.492188 195.417969 L 99.488281 195.46875 L 99.496094 195.539062 L 99.507812 195.667969 L 99.53125 195.84375 L 99.554688 196.050781 L 99.582031 196.273438 L 99.613281 196.492188 L 99.636719 196.691406 L 99.660156 196.855469 L 99.671875 196.964844 L 99.679688 197.003906 Z M 99.9375 197.003906 "/>
<path style=" stroke:none;fill-rule:evenodd;fill:rgb(0%,0%,0%);fill-opacity:1;" d="M 104.089844 199.886719 L 104.089844 199.371094 L 101.800781 199.371094 L 102.179688 199.066406 L 102.535156 198.769531 L 102.863281 198.480469 L 103.160156 198.195312 L 103.421875 197.917969 L 103.644531 197.636719 L 103.824219 197.359375 L 103.957031 197.082031 L 104.039062 196.804688 L 104.066406 196.519531 L 104.042969 196.257812 L 103.980469 196.019531 L 103.875 195.8125 L 103.738281 195.636719 L 103.574219 195.484375 L 103.386719 195.363281 L 103.179688 195.269531 L 102.960938 195.203125 L 102.730469 195.160156 L 102.5 195.148438 L 102.304688 195.15625 L 102.113281 195.179688 L 101.925781 195.21875 L 101.746094 195.269531 L 101.574219 195.335938 L 101.410156 195.417969 L 101.257812 195.515625 L 101.117188 195.625 L 100.988281 195.746094 L 100.875 195.882812 L 101.230469 196.253906 L 101.320312 196.152344 L 101.414062 196.058594 L 101.519531 195.972656 L 101.636719 195.894531 L 101.757812 195.828125 L 101.890625 195.773438 L 102.03125 195.726562 L 102.179688 195.695312 L 102.335938 195.671875 L 102.5 195.667969 L 102.644531 195.675781 L 102.785156 195.699219 L 102.925781 195.738281 L 103.054688 195.792969 L 103.171875 195.867188 L 103.273438 195.960938 L 103.359375 196.070312 L 103.421875 196.199219 L 103.464844 196.351562 L 103.480469 196.519531 L 103.453125 196.761719 L 103.371094 197.003906 L 103.234375 197.253906 L 103.050781 197.507812 L 102.8125 197.777344 L 102.523438 198.0625 L 102.183594 198.363281 L 101.796875 198.6875 L 101.363281 199.039062 L 100.882812 199.417969 L 100.882812 199.886719 Z M 104.089844 199.886719 "/>
<path style=" stroke:none;fill-rule:evenodd;fill:rgb(0%,0%,0%);fill-opacity:1;" d="M 106.761719 199.972656 L 107.121094 199.933594 L 107.4375 199.828125 L 107.710938 199.664062 L 107.941406 199.449219 L 108.132812 199.1875 L 108.285156 198.898438 L 108.402344 198.578125 L 108.484375 198.242188 L 108.53125 197.898438 L 108.546875 197.554688 L 108.53125 197.210938 L 108.484375 196.867188 L 108.402344 196.535156 L 108.285156 196.214844 L 108.132812 195.925781 L 107.941406 195.667969 L 107.710938 195.453125 L 107.4375 195.289062 L 107.121094 195.183594 L 106.761719 195.148438 L 106.402344 195.183594 L 106.085938 195.289062 L 105.8125 195.453125 L 105.582031 195.667969 L 105.390625 195.925781 L 105.238281 196.214844 L 105.121094 196.535156 L 105.039062 196.867188 L 104.992188 197.210938 L 104.976562 197.554688 L 104.992188 197.898438 L 105.039062 198.242188 L 105.121094 198.578125 L 105.238281 198.898438 L 105.390625 199.1875 L 105.582031 199.449219 L 105.8125 199.664062 L 106.085938 199.828125 L 106.402344 199.933594 Z M 106.761719 199.453125 L 106.511719 199.425781 L 106.296875 199.34375 L 106.113281 199.21875 L 105.960938 199.054688 L 105.832031 198.855469 L 105.734375 198.625 L 105.660156 198.375 L 105.609375 198.113281 L 105.582031 197.835938 L 105.570312 197.554688 L 105.582031 197.277344 L 105.609375 197.003906 L 105.660156 196.738281 L 105.734375 196.488281 L 105.832031 196.261719 L 105.960938 196.0625 L 106.113281 195.898438 L 106.296875 195.773438 L 106.511719 195.695312 L 106.761719 195.667969 L 107.011719 195.695312 L 107.226562 195.773438 L 107.410156 195.898438 L 107.566406 196.0625 L 107.691406 196.261719 L 107.789062 196.488281 L 107.863281 196.738281 L 107.914062 197.003906 L 107.941406 197.277344 L 107.953125 197.554688 L 107.941406 197.835938 L 107.914062 198.113281 L 107.863281 198.375 L 107.789062 198.625 L 107.691406 198.855469 L 107.566406 199.054688 L 107.410156 199.21875 L 107.226562 199.34375 L 107.011719 199.425781 Z M 106.761719 199.453125 "/>
<path style=" stroke:none;fill-rule:evenodd;fill:rgb(0%,0%,0%);fill-opacity:1;" d="M 139.820312 199.972656 L 140.0625 199.957031 L 140.292969 199.914062 L 140.507812 199.839844 L 140.699219 199.738281 L 140.875 199.605469 L 141.019531 199.441406 L 141.140625 199.246094 L 141.226562 199.023438 L 141.285156 198.765625 L 141.304688 198.480469 L 141.304688 195.21875 L 140.722656 195.21875 L 140.722656 198.472656 L 140.710938 198.640625 L 140.679688 198.796875 L 140.628906 198.941406 L 140.558594 199.070312 L 140.46875 199.179688 L 140.363281 199.277344 L 140.238281 199.351562 L 140.101562 199.40625 L 139.949219 199.441406 L 139.785156 199.453125 L 139.664062 199.445312 L 139.554688 199.429688 L 139.453125 199.398438 L 139.355469 199.363281 L 139.265625 199.3125 L 139.183594 199.261719 L 139.109375 199.199219 L 139.035156 199.132812 L 138.96875 199.0625 L 138.910156 198.992188 L 138.601562 199.433594 L 138.699219 199.539062 L 138.804688 199.632812 L 138.914062 199.714844 L 139.027344 199.785156 L 139.148438 199.84375 L 139.269531 199.890625 L 139.402344 199.925781 L 139.535156 199.953125 L 139.675781 199.964844 Z M 139.820312 199.972656 "/>
<path style=" stroke:none;fill-rule:evenodd;fill:rgb(0%,0%,0%);fill-opacity:1;" d="M 145.011719 199.886719 L 145.011719 197.5625 L 144.996094 197.332031 L 144.945312 197.128906 L 144.867188 196.957031 L 144.757812 196.808594 L 144.628906 196.6875 L 144.476562 196.589844 L 144.304688 196.515625 L 144.117188 196.460938 L 143.914062 196.433594 L 143.703125 196.421875 L 143.542969 196.429688 L 143.386719 196.445312 L 143.238281 196.472656 L 143.09375 196.511719 L 142.957031 196.5625 L 142.828125 196.621094 L 142.699219 196.695312 L 142.578125 196.777344 L 142.464844 196.875 L 142.351562 196.984375 L 142.597656 197.347656 L 142.6875 197.253906 L 142.78125 197.171875 L 142.878906 197.101562 L 142.976562 197.039062 L 143.078125 196.988281 L 143.179688 196.949219 L 143.289062 196.917969 L 143.398438 196.894531 L 143.515625 196.882812 L 143.632812 196.878906 L 143.777344 196.886719 L 143.910156 196.90625 L 144.035156 196.945312 L 144.144531 196.996094 L 144.246094 197.0625 L 144.328125 197.140625 L 144.394531 197.234375 L 144.445312 197.339844 L 144.476562 197.457031 L 144.488281 197.585938 L 144.488281 198.195312 L 144.402344 198.105469 L 144.3125 198.027344 L 144.210938 197.960938 L 144.109375 197.898438 L 144 197.851562 L 143.882812 197.808594 L 143.761719 197.777344 L 143.636719 197.757812 L 143.503906 197.742188 L 143.367188 197.738281 L 143.195312 197.75 L 143.023438 197.78125 L 142.859375 197.835938 L 142.707031 197.910156 L 142.566406 198.007812 L 142.441406 198.128906 L 142.335938 198.273438 L 142.257812 198.441406 L 142.210938 198.636719 L 142.191406 198.851562 L 142.210938 199.0625 L 142.257812 199.25 L 142.339844 199.417969 L 142.441406 199.5625 L 142.566406 199.6875 L 142.707031 199.789062 L 142.863281 199.867188 L 143.027344 199.925781 L 143.195312 199.960938 L 143.367188 199.972656 L 143.503906 199.964844 L 143.632812 199.953125 L 143.757812 199.929688 L 143.878906 199.894531 L 143.996094 199.851562 L 144.105469 199.800781 L 144.210938 199.738281 L 144.308594 199.667969 L 144.402344 199.589844 L 144.488281 199.503906 L 144.488281 199.886719 Z M 143.5625 199.59375 L 143.417969 199.585938 L 143.285156 199.558594 L 143.164062 199.515625 L 143.054688 199.457031 L 142.957031 199.386719 L 142.875 199.300781 L 142.8125 199.203125 L 142.761719 199.09375 L 142.734375 198.976562 L 142.722656 198.851562 L 142.734375 198.726562 L 142.761719 198.609375 L 142.8125 198.503906 L 142.875 198.410156 L 142.957031 198.324219 L 143.054688 198.253906 L 143.164062 198.195312 L 143.285156 198.152344 L 143.417969 198.125 L 143.5625 198.117188 L 143.671875 198.121094 L 143.78125 198.132812 L 143.886719 198.152344 L 143.988281 198.183594 L 144.085938 198.21875 L 144.179688 198.265625 L 144.265625 198.320312 L 144.347656 198.382812 L 144.421875 198.453125 L 144.488281 198.53125 L 144.488281 199.171875 L 144.421875 199.253906 L 144.347656 199.324219 L 144.265625 199.386719 L 144.179688 199.441406 L 144.085938 199.488281 L 143.988281 199.527344 L 143.886719 199.554688 L 143.78125 199.578125 L 143.671875 199.589844 Z M 143.5625 199.59375 "/>
<path style=" stroke:none;fill-rule:evenodd;fill:rgb(0%,0%,0%);fill-opacity:1;" d="M 148.875 199.886719 L 148.875 197.515625 L 148.867188 197.304688 L 148.832031 197.117188 L 148.777344 196.953125 L 148.703125 196.8125 L 148.605469 196.691406 L 148.484375 196.59375 L 148.347656 196.519531 L 148.1875 196.464844 L 148.003906 196.433594 L 147.804688 196.421875 L 147.652344 196.429688 L 147.507812 196.453125 L 147.363281 196.492188 L 147.226562 196.542969 L 147.097656 196.601562 L 146.976562 196.671875 L 146.863281 196.746094 L 146.761719 196.828125 L 146.671875 196.910156 L 146.59375 196.996094 L 146.59375 196.507812 L 146.070312 196.507812 L 146.070312 199.886719 L 146.59375 199.886719 L 146.59375 197.417969 L 146.660156 197.335938 L 146.738281 197.257812 L 146.824219 197.183594 L 146.914062 197.113281 L 147.015625 197.050781 L 147.125 196.996094 L 147.234375 196.953125 L 147.351562 196.921875 L 147.472656 196.898438 L 147.597656 196.890625 L 147.726562 196.898438 L 147.851562 196.914062 L 147.960938 196.945312 L 148.0625 196.992188 L 148.148438 197.058594 L 148.222656 197.140625 L 148.28125 197.242188 L 148.324219 197.363281 L 148.351562 197.507812 L 148.359375 197.675781 L 148.359375 199.886719 Z M 148.875 199.886719 "/>
<path style=" stroke:none;fill-rule:evenodd;fill:rgb(0%,0%,0%);fill-opacity:1;" d="M 152.046875 197.003906 L 152.054688 196.964844 L 152.066406 196.855469 L 152.089844 196.691406 L 152.113281 196.492188 L 152.140625 196.273438 L 152.171875 196.050781 L 152.195312 195.84375 L 152.21875 195.667969 L 152.230469 195.539062 L 152.238281 195.46875 L 152.234375 195.417969 L 152.222656 195.371094 L 152.203125 195.324219 L 152.175781 195.28125 L 152.144531 195.242188 L 152.105469 195.210938 L 152.066406 195.183594 L 152.019531 195.164062 L 151.96875 195.152344 L 151.914062 195.148438 L 151.863281 195.152344 L 151.816406 195.164062 L 151.769531 195.183594 L 151.726562 195.210938 L 151.691406 195.242188 L 151.660156 195.28125 L 151.632812 195.324219 L 151.617188 195.371094 L 151.605469 195.417969 L 151.601562 195.46875 L 151.605469 195.539062 L 151.621094 195.667969 L 151.640625 195.84375 L 151.667969 196.050781 L 151.695312 196.273438 L 151.722656 196.492188 L 151.746094 196.691406 L 151.785156 196.964844 L 151.789062 197.003906 Z M 152.046875 197.003906 "/>
<path style=" stroke:none;fill-rule:evenodd;fill:rgb(0%,0%,0%);fill-opacity:1;" d="M 156.199219 199.886719 L 156.199219 199.371094 L 153.910156 199.371094 L 154.289062 199.066406 L 154.644531 198.769531 L 154.972656 198.480469 L 155.269531 198.195312 L 155.53125 197.917969 L 155.753906 197.636719 L 155.933594 197.359375 L 156.066406 197.082031 L 156.148438 196.804688 L 156.179688 196.519531 L 156.15625 196.257812 L 156.089844 196.019531 L 155.984375 195.8125 L 155.847656 195.636719 L 155.683594 195.484375 L 155.496094 195.363281 L 155.292969 195.269531 L 155.070312 195.203125 L 154.84375 195.160156 L 154.609375 195.148438 L 154.414062 195.15625 L 154.222656 195.179688 L 154.035156 195.21875 L 153.855469 195.269531 L 153.683594 195.335938 L 153.523438 195.417969 L 153.371094 195.515625 L 153.230469 195.625 L 153.101562 195.746094 L 152.984375 195.882812 L 153.34375 196.253906 L 153.429688 196.152344 L 153.527344 196.058594 L 153.632812 195.972656 L 153.746094 195.894531 L 153.867188 195.828125 L 154 195.773438 L 154.140625 195.726562 L 154.289062 195.695312 L 154.445312 195.671875 L 154.609375 195.667969 L 154.753906 195.675781 L 154.898438 195.699219 L 155.035156 195.738281 L 155.164062 195.792969 L 155.28125 195.867188 L 155.382812 195.960938 L 155.46875 196.070312 L 155.535156 196.199219 L 155.574219 196.351562 L 155.589844 196.519531 L 155.5625 196.761719 L 155.480469 197.003906 L 155.347656 197.253906 L 155.160156 197.507812 L 154.921875 197.777344 L 154.632812 198.0625 L 154.292969 198.363281 L 153.90625 198.6875 L 153.472656 199.039062 L 152.992188 199.417969 L 152.992188 199.886719 Z M 156.199219 199.886719 "/>
<path style=" stroke:none;fill-rule:evenodd;fill:rgb(0%,0%,0%);fill-opacity:1;" d="M 158.558594 199.886719 L 158.558594 195.21875 L 158.046875 195.21875 L 156.878906 196.421875 L 157.226562 196.78125 L 157.976562 195.980469 L 157.976562 199.886719 Z M 158.558594 199.886719 "/>
</g>
</svg>
