<?xml version="1.0" encoding="UTF-8"?>
<svg xmlns="http://www.w3.org/2000/svg" xmlns:xlink="http://www.w3.org/1999/xlink" width="216pt" height="216pt" viewBox="0 0 216 216" version="1.1">
<g id="surface498">
<path style=" stroke:none;fill-rule:nonzero;fill:rgb(98.431373%,66.666667%,49.411765%);fill-opacity:1;" d="M 108 115.054688 L 113.5625 116.148438 L 116.339844 116.695312 L 124.683594 118.335938 L 127.460938 118.882812 L 133.023438 119.976562 L 135.804688 120.519531 L 138.582031 121.066406 L 146.925781 122.707031 L 149.703125 123.253906 L 158.046875 124.894531 L 160.824219 125.441406 L 161.292969 122.679688 L 161.617188 119.902344 L 161.796875 117.109375 L 161.832031 114.308594 L 161.722656 111.511719 L 161.464844 108.722656 L 161.0625 105.953125 L 160.519531 103.207031 L 159.832031 100.492188 L 159.003906 97.820312 L 158.039062 95.191406 L 156.9375 92.617188 L 155.707031 90.105469 L 154.34375 87.660156 L 152.859375 85.285156 L 151.25 82.996094 L 149.527344 80.789062 L 147.6875 78.679688 L 145.746094 76.664062 L 143.699219 74.753906 L 141.554688 72.953125 L 139.320312 71.265625 L 137.003906 69.695312 L 134.605469 68.25 L 132.136719 66.929688 L 129.605469 65.742188 L 127.011719 64.6875 L 124.367188 63.765625 L 121.679688 62.984375 L 118.953125 62.34375 L 116.199219 61.84375 L 113.421875 61.492188 L 110.632812 61.28125 L 107.832031 61.21875 L 107.839844 64.050781 L 107.851562 66.882812 L 107.859375 69.71875 L 107.867188 72.550781 L 107.875 75.386719 L 107.886719 78.21875 L 107.894531 81.050781 L 107.902344 83.886719 L 107.910156 86.71875 L 107.921875 89.554688 L 107.9375 95.21875 L 107.945312 98.054688 L 107.957031 100.886719 L 107.964844 103.71875 L 107.972656 106.554688 L 107.980469 109.386719 L 107.992188 112.222656 Z M 108 115.054688 "/>
<path style=" stroke:none;fill-rule:nonzero;fill:rgb(98.431373%,79.607843%,53.333333%);fill-opacity:1;" d="M 108 115.054688 L 110.390625 120.195312 L 111.582031 122.761719 L 115.167969 130.472656 L 116.363281 133.039062 L 117.558594 135.609375 L 118.75 138.179688 L 119.945312 140.75 L 121.140625 143.316406 L 124.726562 151.027344 L 125.917969 153.597656 L 127.113281 156.164062 L 130.699219 163.875 L 133.21875 162.621094 L 135.671875 161.238281 L 138.046875 159.726562 L 140.34375 158.09375 L 142.546875 156.34375 L 144.660156 154.484375 L 146.671875 152.511719 L 148.574219 150.441406 L 150.371094 148.269531 L 152.046875 146.007812 L 153.605469 143.664062 L 155.039062 141.242188 L 156.34375 138.746094 L 157.515625 136.1875 L 158.554688 133.570312 L 159.453125 130.898438 L 160.210938 128.1875 L 160.824219 125.441406 L 158.046875 124.894531 L 149.703125 123.253906 L 146.925781 122.707031 L 138.582031 121.066406 L 135.804688 120.519531 L 133.023438 119.976562 L 127.460938 118.882812 L 124.683594 118.335938 L 116.339844 116.695312 L 113.5625 116.148438 Z M 108 115.054688 "/>
<path style=" stroke:none;fill-rule:nonzero;fill:rgb(96.862745%,93.333333%,74.901961%);fill-opacity:1;" d="M 108 115.054688 L 107.992188 112.222656 L 107.980469 109.386719 L 107.972656 106.554688 L 107.964844 103.71875 L 107.957031 100.886719 L 107.945312 98.054688 L 107.9375 95.21875 L 107.921875 89.554688 L 107.910156 86.71875 L 107.902344 83.886719 L 107.894531 81.050781 L 107.886719 78.21875 L 107.875 75.386719 L 107.867188 72.550781 L 107.859375 69.71875 L 107.851562 66.882812 L 107.839844 64.050781 L 107.832031 61.21875 L 105.085938 61.296875 L 102.347656 61.515625 L 99.621094 61.875 L 96.917969 62.371094 L 94.246094 63.003906 L 91.605469 63.773438 L 89.011719 64.675781 L 86.464844 65.710938 L 83.972656 66.875 L 81.546875 68.164062 L 79.1875 69.574219 L 76.90625 71.105469 L 74.703125 72.75 L 72.585938 74.503906 L 70.566406 76.363281 L 68.640625 78.324219 L 66.816406 80.378906 L 65.101562 82.527344 L 63.496094 84.757812 L 62.007812 87.070312 L 60.640625 89.453125 L 59.394531 91.902344 L 58.277344 94.414062 L 57.289062 96.976562 L 56.433594 99.589844 L 55.710938 102.242188 L 55.125 104.925781 L 54.675781 107.636719 L 54.367188 110.367188 L 54.199219 113.109375 L 54.167969 115.859375 L 54.28125 118.605469 L 54.53125 121.34375 L 54.921875 124.0625 L 55.449219 126.757812 L 56.117188 129.425781 L 56.917969 132.054688 L 57.851562 134.640625 L 58.914062 137.171875 L 60.109375 139.648438 L 61.425781 142.0625 L 62.863281 144.402344 L 64.421875 146.667969 L 66.089844 148.851562 L 67.871094 150.945312 L 69.753906 152.945312 L 71.738281 154.847656 L 73.816406 156.648438 L 75.984375 158.335938 L 78.234375 159.914062 L 80.5625 161.375 L 82.960938 162.714844 L 85.425781 163.929688 L 87.949219 165.019531 L 90.523438 165.976562 L 93.144531 166.800781 L 95.804688 167.492188 L 98.5 168.046875 L 101.214844 168.464844 L 103.949219 168.738281 L 106.695312 168.875 L 109.441406 168.871094 L 112.1875 168.730469 L 114.921875 168.445312 L 117.636719 168.023438 L 120.328125 167.460938 L 122.984375 166.765625 L 125.605469 165.933594 L 128.175781 164.96875 L 130.699219 163.875 L 127.113281 156.164062 L 125.917969 153.597656 L 124.726562 151.027344 L 121.140625 143.316406 L 119.945312 140.75 L 118.75 138.179688 L 117.558594 135.609375 L 116.363281 133.039062 L 115.167969 130.472656 L 111.582031 122.761719 L 110.390625 120.195312 Z M 108 115.054688 "/>
<path style=" stroke:none;fill-rule:evenodd;fill:rgb(0%,0%,0%);fill-opacity:1;" d="M 171.007812 80.921875 L 171.007812 80.523438 L 171.039062 80.453125 L 171.109375 80.3125 L 171.148438 80.246094 L 171.183594 80.179688 L 171.222656 80.117188 L 171.265625 80.054688 L 171.394531 79.878906 L 171.488281 79.769531 L 171.535156 79.71875 L 171.585938 79.664062 L 171.679688 79.5625 L 171.730469 79.515625 L 171.78125 79.464844 L 171.828125 79.421875 L 171.929688 79.328125 L 172.183594 79.113281 L 172.230469 79.070312 L 172.332031 78.992188 L 172.378906 78.953125 L 172.429688 78.914062 L 172.476562 78.875 L 172.527344 78.835938 L 172.574219 78.796875 L 172.617188 78.757812 L 172.664062 78.71875 L 172.75 78.640625 L 172.789062 78.605469 L 172.832031 78.566406 L 172.871094 78.527344 L 172.90625 78.488281 L 172.945312 78.445312 L 172.976562 78.40625 L 173.011719 78.367188 L 173.042969 78.324219 L 173.074219 78.285156 L 173.128906 78.199219 L 173.152344 78.160156 L 173.175781 78.117188 L 173.199219 78.070312 L 173.214844 78.027344 L 173.234375 77.980469 L 173.246094 77.933594 L 173.257812 77.882812 L 173.273438 77.78125 L 173.277344 77.730469 L 173.277344 77.640625 L 173.273438 77.605469 L 173.273438 77.570312 L 173.269531 77.535156 L 173.261719 77.5 L 173.257812 77.46875 L 173.242188 77.40625 L 173.230469 77.378906 L 173.222656 77.347656 L 173.210938 77.320312 L 173.195312 77.292969 L 173.183594 77.265625 L 173.167969 77.242188 L 173.152344 77.214844 L 173.136719 77.191406 L 173.117188 77.171875 L 173.097656 77.148438 L 173.058594 77.109375 L 173.035156 77.089844 L 173.015625 77.070312 L 172.992188 77.054688 L 172.964844 77.039062 L 172.941406 77.023438 L 172.914062 77.011719 L 172.886719 76.996094 L 172.832031 76.972656 L 172.800781 76.964844 L 172.773438 76.953125 L 172.710938 76.9375 L 172.679688 76.933594 L 172.648438 76.925781 L 172.578125 76.917969 L 172.546875 76.917969 L 172.511719 76.914062 L 172.441406 76.914062 L 172.40625 76.917969 L 172.375 76.917969 L 172.34375 76.921875 L 172.308594 76.925781 L 172.277344 76.929688 L 172.183594 76.953125 L 172.15625 76.960938 L 172.125 76.972656 L 172.097656 76.980469 L 172.070312 76.992188 L 172.042969 77.007812 L 172.015625 77.019531 L 171.988281 77.035156 L 171.917969 77.082031 L 171.847656 77.140625 L 171.828125 77.164062 L 171.808594 77.183594 L 171.769531 77.230469 L 171.75 77.257812 L 171.734375 77.28125 L 171.6875 77.363281 L 171.675781 77.394531 L 171.664062 77.421875 L 171.652344 77.453125 L 171.644531 77.484375 L 171.632812 77.519531 L 171.625 77.550781 L 171.617188 77.585938 L 171.613281 77.621094 L 171.609375 77.660156 L 171.03125 77.605469 L 171.046875 77.511719 L 171.058594 77.464844 L 171.066406 77.417969 L 171.078125 77.375 L 171.09375 77.332031 L 171.109375 77.285156 L 171.125 77.242188 L 171.164062 77.15625 L 171.1875 77.117188 L 171.207031 77.078125 L 171.234375 77.039062 L 171.257812 77 L 171.285156 76.960938 L 171.378906 76.855469 L 171.484375 76.761719 L 171.523438 76.730469 L 171.5625 76.703125 L 171.648438 76.648438 L 171.691406 76.625 L 171.738281 76.601562 L 171.832031 76.5625 L 171.933594 76.523438 L 171.988281 76.507812 L 172.042969 76.496094 L 172.160156 76.472656 L 172.21875 76.464844 L 172.40625 76.453125 L 172.601562 76.453125 L 172.664062 76.457031 L 172.726562 76.464844 L 172.84375 76.480469 L 172.898438 76.488281 L 172.953125 76.5 L 173.007812 76.515625 L 173.109375 76.546875 L 173.15625 76.5625 L 173.207031 76.582031 L 173.25 76.605469 L 173.292969 76.625 L 173.335938 76.652344 L 173.378906 76.675781 L 173.417969 76.703125 L 173.453125 76.730469 L 173.558594 76.824219 L 173.589844 76.859375 L 173.617188 76.894531 L 173.648438 76.933594 L 173.671875 76.972656 L 173.699219 77.011719 L 173.722656 77.050781 L 173.742188 77.09375 L 173.761719 77.140625 L 173.78125 77.183594 L 173.796875 77.230469 L 173.832031 77.382812 L 173.839844 77.433594 L 173.847656 77.488281 L 173.851562 77.542969 L 173.855469 77.601562 L 173.855469 77.703125 L 173.84375 77.832031 L 173.828125 77.917969 L 173.816406 77.957031 L 173.804688 78 L 173.789062 78.039062 L 173.773438 78.082031 L 173.742188 78.160156 L 173.683594 78.277344 L 173.660156 78.3125 L 173.636719 78.351562 L 173.613281 78.386719 L 173.589844 78.425781 L 173.535156 78.496094 L 173.507812 78.535156 L 173.480469 78.570312 L 173.355469 78.710938 L 173.253906 78.8125 L 173.21875 78.84375 L 173.148438 78.914062 L 173.113281 78.945312 L 173.078125 78.980469 L 173.039062 79.011719 L 173.003906 79.046875 L 172.964844 79.078125 L 172.929688 79.109375 L 172.890625 79.144531 L 172.773438 79.238281 L 172.738281 79.269531 L 172.699219 79.300781 L 172.660156 79.335938 L 172.503906 79.460938 L 172.46875 79.492188 L 172.390625 79.554688 L 172.355469 79.585938 L 172.316406 79.617188 L 172.28125 79.652344 L 172.105469 79.808594 L 172.074219 79.839844 L 172.042969 79.875 L 171.980469 79.9375 L 171.949219 79.972656 L 171.921875 80.003906 L 171.890625 80.035156 L 171.863281 80.070312 L 171.835938 80.101562 L 171.808594 80.136719 L 171.785156 80.167969 L 171.761719 80.203125 L 171.738281 80.234375 L 171.71875 80.269531 L 171.695312 80.304688 L 171.675781 80.339844 L 171.660156 80.371094 L 171.644531 80.40625 L 171.628906 80.445312 L 173.925781 80.445312 L 173.925781 80.921875 Z M 171.007812 80.921875 "/>
<path style=" stroke:none;fill-rule:evenodd;fill:rgb(0%,0%,0%);fill-opacity:1;" d="M 177.527344 79.691406 L 177.527344 79.75 L 177.519531 79.859375 L 177.515625 79.910156 L 177.507812 79.964844 L 177.472656 80.117188 L 177.457031 80.164062 L 177.398438 80.304688 L 177.351562 80.390625 L 177.328125 80.429688 L 177.296875 80.472656 L 177.269531 80.507812 L 177.234375 80.546875 L 177.203125 80.582031 L 177.167969 80.617188 L 177.128906 80.652344 L 177.089844 80.683594 L 177.046875 80.714844 L 177.003906 80.742188 L 176.960938 80.773438 L 176.910156 80.796875 L 176.863281 80.824219 L 176.808594 80.84375 L 176.757812 80.867188 L 176.640625 80.90625 L 176.582031 80.921875 L 176.519531 80.9375 L 176.457031 80.949219 L 176.390625 80.960938 L 176.25 80.976562 L 176.179688 80.980469 L 176.105469 80.984375 L 175.953125 80.984375 L 175.804688 80.976562 L 175.734375 80.96875 L 175.667969 80.960938 L 175.535156 80.9375 L 175.472656 80.921875 L 175.414062 80.90625 L 175.355469 80.886719 L 175.246094 80.847656 L 175.195312 80.824219 L 175.144531 80.796875 L 175.097656 80.773438 L 175.050781 80.746094 L 175.007812 80.714844 L 174.964844 80.6875 L 174.925781 80.65625 L 174.886719 80.621094 L 174.816406 80.550781 L 174.753906 80.472656 L 174.699219 80.394531 L 174.675781 80.351562 L 174.652344 80.304688 L 174.632812 80.261719 L 174.59375 80.167969 L 174.582031 80.117188 L 174.566406 80.070312 L 174.554688 80.019531 L 174.546875 79.96875 L 174.539062 79.914062 L 174.53125 79.863281 L 174.527344 79.808594 L 174.527344 79.753906 L 174.523438 79.699219 L 174.527344 79.652344 L 174.527344 79.605469 L 174.53125 79.558594 L 174.535156 79.515625 L 174.558594 79.386719 L 174.582031 79.308594 L 174.597656 79.269531 L 174.644531 79.164062 L 174.664062 79.128906 L 174.703125 79.066406 L 174.726562 79.035156 L 174.746094 79.003906 L 174.792969 78.949219 L 174.871094 78.871094 L 174.925781 78.824219 L 174.953125 78.804688 L 174.984375 78.785156 L 175.011719 78.765625 L 175.042969 78.746094 L 175.105469 78.714844 L 175.140625 78.699219 L 175.171875 78.683594 L 175.203125 78.671875 L 175.238281 78.660156 L 175.269531 78.648438 L 175.300781 78.640625 L 175.371094 78.625 L 175.402344 78.617188 L 175.402344 78.605469 L 175.367188 78.597656 L 175.261719 78.5625 L 175.226562 78.546875 L 175.195312 78.535156 L 175.164062 78.519531 L 175.132812 78.5 L 175.101562 78.484375 L 175.070312 78.464844 L 175.015625 78.425781 L 174.988281 78.402344 L 174.964844 78.382812 L 174.9375 78.359375 L 174.890625 78.3125 L 174.871094 78.285156 L 174.847656 78.261719 L 174.808594 78.207031 L 174.789062 78.175781 L 174.773438 78.148438 L 174.757812 78.117188 L 174.742188 78.089844 L 174.726562 78.058594 L 174.714844 78.027344 L 174.699219 77.996094 L 174.6875 77.964844 L 174.679688 77.929688 L 174.667969 77.898438 L 174.644531 77.792969 L 174.640625 77.761719 L 174.636719 77.726562 L 174.632812 77.6875 L 174.628906 77.652344 L 174.628906 77.535156 L 174.632812 77.488281 L 174.636719 77.445312 L 174.640625 77.398438 L 174.648438 77.355469 L 174.683594 77.226562 L 174.699219 77.1875 L 174.714844 77.144531 L 174.753906 77.066406 L 174.800781 76.988281 L 174.882812 76.882812 L 174.914062 76.847656 L 174.945312 76.816406 L 175.015625 76.753906 L 175.132812 76.671875 L 175.175781 76.648438 L 175.222656 76.625 L 175.265625 76.601562 L 175.316406 76.582031 L 175.363281 76.558594 L 175.414062 76.542969 L 175.46875 76.523438 L 175.523438 76.507812 L 175.578125 76.496094 L 175.695312 76.472656 L 175.757812 76.464844 L 175.882812 76.457031 L 175.949219 76.453125 L 176.085938 76.453125 L 176.15625 76.457031 L 176.289062 76.464844 L 176.351562 76.472656 L 176.414062 76.484375 L 176.472656 76.496094 L 176.527344 76.507812 L 176.585938 76.523438 L 176.636719 76.542969 L 176.691406 76.5625 L 176.742188 76.582031 L 176.789062 76.601562 L 176.835938 76.625 L 176.878906 76.648438 L 176.964844 76.703125 L 177.003906 76.730469 L 177.039062 76.757812 L 177.109375 76.820312 L 177.140625 76.851562 L 177.171875 76.886719 L 177.253906 76.992188 L 177.277344 77.03125 L 177.335938 77.148438 L 177.351562 77.191406 L 177.367188 77.230469 L 177.390625 77.316406 L 177.398438 77.359375 L 177.40625 77.40625 L 177.410156 77.449219 L 177.414062 77.496094 L 177.417969 77.539062 L 177.417969 77.660156 L 177.40625 77.765625 L 177.398438 77.796875 L 177.394531 77.832031 L 177.386719 77.867188 L 177.375 77.898438 L 177.367188 77.933594 L 177.355469 77.964844 L 177.34375 78 L 177.332031 78.03125 L 177.316406 78.0625 L 177.304688 78.09375 L 177.289062 78.121094 L 177.273438 78.152344 L 177.234375 78.207031 L 177.214844 78.238281 L 177.195312 78.261719 L 177.175781 78.289062 L 177.152344 78.3125 L 177.128906 78.339844 L 177.105469 78.363281 L 177.082031 78.382812 L 177.054688 78.40625 L 177.027344 78.425781 L 177 78.449219 L 176.972656 78.46875 L 176.941406 78.484375 L 176.914062 78.503906 L 176.851562 78.535156 L 176.710938 78.582031 L 176.675781 78.589844 L 176.636719 78.597656 L 176.636719 78.613281 L 176.675781 78.617188 L 176.714844 78.625 L 176.75 78.636719 L 176.785156 78.644531 L 176.890625 78.679688 L 176.925781 78.695312 L 176.957031 78.710938 L 176.992188 78.726562 L 177.023438 78.746094 L 177.054688 78.761719 L 177.085938 78.78125 L 177.113281 78.800781 L 177.144531 78.824219 L 177.171875 78.84375 L 177.222656 78.894531 L 177.25 78.917969 L 177.296875 78.972656 L 177.316406 79.003906 L 177.339844 79.03125 L 177.398438 79.125 L 177.445312 79.230469 L 177.460938 79.269531 L 177.472656 79.304688 L 177.484375 79.34375 L 177.496094 79.386719 L 177.503906 79.425781 L 177.519531 79.511719 L 177.523438 79.554688 L 177.527344 79.601562 Z M 176.835938 77.617188 L 176.835938 77.585938 L 176.832031 77.550781 L 176.832031 77.519531 L 176.828125 77.488281 L 176.824219 77.460938 L 176.820312 77.429688 L 176.8125 77.398438 L 176.808594 77.371094 L 176.800781 77.34375 L 176.789062 77.3125 L 176.78125 77.289062 L 176.773438 77.261719 L 176.761719 77.234375 L 176.75 77.210938 L 176.734375 77.1875 L 176.722656 77.164062 L 176.707031 77.140625 L 176.691406 77.121094 L 176.671875 77.101562 L 176.652344 77.078125 L 176.632812 77.058594 L 176.613281 77.042969 L 176.589844 77.023438 L 176.542969 76.992188 L 176.515625 76.976562 L 176.488281 76.964844 L 176.460938 76.949219 L 176.398438 76.925781 L 176.367188 76.917969 L 176.335938 76.90625 L 176.265625 76.890625 L 176.226562 76.882812 L 176.1875 76.878906 L 176.144531 76.875 L 176.105469 76.871094 L 175.929688 76.871094 L 175.890625 76.875 L 175.847656 76.878906 L 175.8125 76.882812 L 175.773438 76.890625 L 175.703125 76.90625 L 175.671875 76.917969 L 175.640625 76.925781 L 175.609375 76.9375 L 175.582031 76.949219 L 175.554688 76.964844 L 175.527344 76.976562 L 175.5 76.992188 L 175.453125 77.023438 L 175.429688 77.042969 L 175.40625 77.058594 L 175.386719 77.078125 L 175.367188 77.101562 L 175.335938 77.140625 L 175.289062 77.210938 L 175.277344 77.234375 L 175.265625 77.261719 L 175.257812 77.289062 L 175.246094 77.3125 L 175.238281 77.34375 L 175.222656 77.398438 L 175.214844 77.460938 L 175.210938 77.488281 L 175.203125 77.550781 L 175.203125 77.671875 L 175.207031 77.695312 L 175.207031 77.722656 L 175.21875 77.804688 L 175.226562 77.832031 L 175.230469 77.859375 L 175.253906 77.941406 L 175.261719 77.964844 L 175.285156 78.019531 L 175.300781 78.042969 L 175.3125 78.066406 L 175.34375 78.113281 L 175.382812 78.160156 L 175.421875 78.199219 L 175.46875 78.238281 L 175.496094 78.257812 L 175.550781 78.289062 L 175.644531 78.335938 L 175.714844 78.359375 L 175.792969 78.375 L 175.835938 78.382812 L 175.878906 78.386719 L 175.925781 78.390625 L 175.972656 78.390625 L 176.023438 78.394531 L 176.074219 78.390625 L 176.125 78.390625 L 176.21875 78.382812 L 176.261719 78.375 L 176.300781 78.367188 L 176.34375 78.359375 L 176.414062 78.335938 L 176.445312 78.320312 L 176.480469 78.304688 L 176.507812 78.289062 L 176.539062 78.273438 L 176.566406 78.257812 L 176.636719 78.199219 L 176.675781 78.160156 L 176.695312 78.136719 L 176.742188 78.066406 L 176.765625 78.019531 L 176.777344 77.992188 L 176.785156 77.964844 L 176.792969 77.941406 L 176.800781 77.914062 L 176.804688 77.886719 L 176.8125 77.859375 L 176.832031 77.722656 L 176.832031 77.671875 L 176.835938 77.644531 Z M 176.945312 79.640625 L 176.945312 79.609375 L 176.941406 79.578125 L 176.941406 79.546875 L 176.929688 79.453125 L 176.921875 79.421875 L 176.917969 79.394531 L 176.902344 79.332031 L 176.890625 79.304688 L 176.878906 79.273438 L 176.855469 79.21875 L 176.839844 79.191406 L 176.824219 79.167969 L 176.808594 79.140625 L 176.75 79.070312 L 176.726562 79.046875 L 176.679688 79.007812 L 176.652344 78.984375 L 176.625 78.96875 L 176.597656 78.949219 L 176.566406 78.933594 L 176.53125 78.917969 L 176.5 78.902344 L 176.460938 78.886719 L 176.425781 78.875 L 176.386719 78.859375 L 176.347656 78.851562 L 176.304688 78.839844 L 176.261719 78.832031 L 176.214844 78.828125 L 176.167969 78.820312 L 176.121094 78.816406 L 175.917969 78.816406 L 175.875 78.820312 L 175.828125 78.828125 L 175.785156 78.832031 L 175.746094 78.839844 L 175.707031 78.851562 L 175.667969 78.859375 L 175.628906 78.875 L 175.59375 78.886719 L 175.558594 78.902344 L 175.464844 78.949219 L 175.4375 78.96875 L 175.410156 78.984375 L 175.382812 79.007812 L 175.335938 79.046875 L 175.3125 79.070312 L 175.273438 79.117188 L 175.253906 79.144531 L 175.238281 79.167969 L 175.21875 79.195312 L 175.207031 79.222656 L 175.191406 79.25 L 175.179688 79.28125 L 175.167969 79.308594 L 175.15625 79.339844 L 175.148438 79.371094 L 175.136719 79.402344 L 175.128906 79.429688 L 175.125 79.460938 L 175.117188 79.492188 L 175.109375 79.554688 L 175.109375 79.589844 L 175.105469 79.621094 L 175.105469 79.691406 L 175.109375 79.734375 L 175.109375 79.769531 L 175.117188 79.847656 L 175.125 79.882812 L 175.128906 79.921875 L 175.136719 79.957031 L 175.148438 79.992188 L 175.15625 80.023438 L 175.167969 80.058594 L 175.191406 80.121094 L 175.207031 80.148438 L 175.222656 80.179688 L 175.253906 80.234375 L 175.292969 80.289062 L 175.363281 80.359375 L 175.386719 80.378906 L 175.441406 80.417969 L 175.472656 80.4375 L 175.566406 80.484375 L 175.601562 80.496094 L 175.640625 80.507812 L 175.675781 80.519531 L 175.71875 80.53125 L 175.757812 80.539062 L 175.800781 80.546875 L 175.84375 80.550781 L 175.984375 80.5625 L 176.085938 80.5625 L 176.226562 80.550781 L 176.269531 80.546875 L 176.355469 80.53125 L 176.394531 80.519531 L 176.5 80.484375 L 176.53125 80.46875 L 176.566406 80.453125 L 176.59375 80.4375 L 176.625 80.417969 L 176.652344 80.398438 L 176.675781 80.378906 L 176.703125 80.359375 L 176.726562 80.335938 L 176.746094 80.3125 L 176.769531 80.289062 L 176.789062 80.261719 L 176.804688 80.234375 L 176.824219 80.207031 L 176.839844 80.179688 L 176.851562 80.148438 L 176.867188 80.117188 L 176.878906 80.085938 L 176.886719 80.054688 L 176.898438 80.019531 L 176.90625 79.988281 L 176.914062 79.953125 L 176.921875 79.914062 L 176.925781 79.878906 L 176.933594 79.839844 L 176.941406 79.761719 L 176.941406 79.722656 L 176.945312 79.679688 Z M 176.945312 79.640625 "/>
<path style=" stroke:none;fill-rule:evenodd;fill:rgb(0%,0%,0%);fill-opacity:1;" d="M 183.269531 79.566406 L 183.269531 79.714844 L 183.265625 79.789062 L 183.257812 79.859375 L 183.25 79.925781 L 183.242188 79.988281 L 183.21875 80.113281 L 183.207031 80.167969 L 183.191406 80.226562 L 183.171875 80.277344 L 183.15625 80.328125 L 183.117188 80.421875 L 183.097656 80.464844 L 183.074219 80.507812 L 183.027344 80.585938 L 182.972656 80.65625 L 182.917969 80.71875 L 182.890625 80.746094 L 182.859375 80.773438 L 182.796875 80.820312 L 182.761719 80.839844 L 182.730469 80.859375 L 182.660156 80.890625 L 182.621094 80.902344 L 182.585938 80.914062 L 182.546875 80.925781 L 182.507812 80.933594 L 182.472656 80.941406 L 182.433594 80.949219 L 182.390625 80.953125 L 182.351562 80.957031 L 182.3125 80.957031 L 182.269531 80.960938 L 182.230469 80.957031 L 182.1875 80.957031 L 182.109375 80.949219 L 182.03125 80.933594 L 181.996094 80.925781 L 181.917969 80.902344 L 181.882812 80.890625 L 181.8125 80.859375 L 181.78125 80.839844 L 181.746094 80.820312 L 181.683594 80.773438 L 181.65625 80.746094 L 181.625 80.71875 L 181.570312 80.65625 L 181.542969 80.621094 L 181.496094 80.550781 L 181.472656 80.507812 L 181.453125 80.46875 L 181.433594 80.425781 L 181.414062 80.378906 L 181.394531 80.328125 L 181.378906 80.28125 L 181.359375 80.226562 L 181.335938 80.117188 L 181.3125 79.992188 L 181.296875 79.859375 L 181.289062 79.71875 L 181.285156 79.644531 L 181.285156 79.484375 L 181.292969 79.328125 L 181.296875 79.253906 L 181.304688 79.183594 L 181.3125 79.117188 L 181.335938 78.992188 L 181.347656 78.933594 L 181.359375 78.878906 L 181.375 78.824219 L 181.394531 78.773438 L 181.410156 78.722656 L 181.429688 78.679688 L 181.449219 78.632812 L 181.472656 78.589844 L 181.496094 78.550781 L 181.542969 78.480469 L 181.570312 78.445312 L 181.597656 78.414062 L 181.625 78.386719 L 181.6875 78.332031 L 181.714844 78.308594 L 181.75 78.285156 L 181.78125 78.265625 L 181.851562 78.234375 L 181.886719 78.222656 L 181.921875 78.207031 L 181.960938 78.199219 L 182 78.1875 L 182.117188 78.164062 L 182.160156 78.160156 L 182.199219 78.15625 L 182.363281 78.15625 L 182.40625 78.160156 L 182.445312 78.164062 L 182.484375 78.171875 L 182.519531 78.179688 L 182.558594 78.1875 L 182.59375 78.199219 L 182.632812 78.207031 L 182.667969 78.222656 L 182.703125 78.234375 L 182.773438 78.265625 L 182.804688 78.285156 L 182.867188 78.332031 L 182.898438 78.359375 L 182.953125 78.414062 L 182.980469 78.445312 L 183.007812 78.480469 L 183.054688 78.550781 L 183.078125 78.589844 L 183.101562 78.632812 L 183.121094 78.679688 L 183.140625 78.722656 L 183.160156 78.773438 L 183.175781 78.824219 L 183.207031 78.933594 L 183.222656 78.992188 L 183.234375 79.054688 L 183.242188 79.117188 L 183.25 79.183594 L 183.257812 79.253906 L 183.265625 79.328125 L 183.269531 79.40625 Z M 179.453125 80.921875 L 178.96875 80.921875 L 181.851562 76.515625 L 182.34375 76.515625 Z M 179.039062 76.480469 L 179.078125 76.480469 L 179.117188 76.484375 L 179.15625 76.484375 L 179.195312 76.492188 L 179.234375 76.496094 L 179.269531 76.503906 L 179.308594 76.511719 L 179.34375 76.523438 L 179.382812 76.53125 L 179.417969 76.546875 L 179.453125 76.558594 L 179.484375 76.574219 L 179.519531 76.589844 L 179.550781 76.609375 L 179.585938 76.632812 L 179.613281 76.65625 L 179.644531 76.679688 L 179.675781 76.707031 L 179.703125 76.738281 L 179.730469 76.765625 L 179.753906 76.800781 L 179.78125 76.835938 L 179.804688 76.871094 L 179.828125 76.914062 L 179.871094 77 L 179.886719 77.042969 L 179.90625 77.09375 L 179.9375 77.195312 L 179.953125 77.25 L 179.96875 77.308594 L 179.980469 77.371094 L 179.988281 77.433594 L 179.996094 77.5 L 180.011719 77.640625 L 180.015625 77.714844 L 180.015625 78.027344 L 180.011719 78.097656 L 179.996094 78.238281 L 179.980469 78.363281 L 179.96875 78.425781 L 179.921875 78.589844 L 179.90625 78.640625 L 179.847656 78.78125 L 179.824219 78.824219 L 179.753906 78.941406 L 179.726562 78.972656 L 179.699219 79.007812 L 179.671875 79.035156 L 179.644531 79.066406 L 179.613281 79.09375 L 179.550781 79.140625 L 179.519531 79.160156 L 179.484375 79.179688 L 179.378906 79.226562 L 179.300781 79.25 L 179.265625 79.257812 L 179.1875 79.273438 L 179.109375 79.28125 L 179.066406 79.28125 L 179.027344 79.285156 L 178.984375 79.28125 L 178.945312 79.28125 L 178.902344 79.277344 L 178.863281 79.273438 L 178.746094 79.25 L 178.707031 79.238281 L 178.671875 79.226562 L 178.636719 79.210938 L 178.597656 79.195312 L 178.566406 79.179688 L 178.496094 79.140625 L 178.433594 79.09375 L 178.347656 79.007812 L 178.320312 78.972656 L 178.292969 78.941406 L 178.269531 78.902344 L 178.246094 78.867188 L 178.222656 78.824219 L 178.203125 78.78125 L 178.179688 78.738281 L 178.160156 78.691406 L 178.144531 78.644531 L 178.125 78.59375 L 178.109375 78.539062 L 178.097656 78.484375 L 178.082031 78.425781 L 178.070312 78.367188 L 178.0625 78.304688 L 178.046875 78.171875 L 178.042969 78.101562 L 178.035156 77.953125 L 178.035156 77.792969 L 178.039062 77.714844 L 178.042969 77.640625 L 178.046875 77.570312 L 178.054688 77.5 L 178.0625 77.433594 L 178.070312 77.371094 L 178.082031 77.308594 L 178.097656 77.25 L 178.109375 77.195312 L 178.125 77.144531 L 178.144531 77.09375 L 178.160156 77.042969 L 178.183594 77 L 178.203125 76.953125 L 178.222656 76.914062 L 178.246094 76.871094 L 178.269531 76.835938 L 178.324219 76.765625 L 178.351562 76.738281 L 178.378906 76.707031 L 178.40625 76.679688 L 178.46875 76.632812 L 178.503906 76.609375 L 178.535156 76.589844 L 178.605469 76.558594 L 178.640625 76.546875 L 178.679688 76.53125 L 178.714844 76.523438 L 178.753906 76.511719 L 178.832031 76.496094 L 178.871094 76.492188 L 178.914062 76.484375 L 178.953125 76.484375 L 178.996094 76.480469 Z M 182.808594 79.566406 L 182.808594 79.445312 L 182.804688 79.390625 L 182.804688 79.335938 L 182.800781 79.28125 L 182.796875 79.230469 L 182.792969 79.183594 L 182.785156 79.136719 L 182.78125 79.09375 L 182.773438 79.050781 L 182.757812 78.972656 L 182.742188 78.902344 L 182.730469 78.867188 L 182.71875 78.835938 L 182.710938 78.804688 L 182.695312 78.777344 L 182.671875 78.722656 L 182.65625 78.699219 L 182.644531 78.679688 L 182.628906 78.65625 L 182.613281 78.636719 L 182.597656 78.621094 L 182.578125 78.605469 L 182.5625 78.589844 L 182.542969 78.574219 L 182.503906 78.550781 L 182.445312 78.527344 L 182.421875 78.519531 L 182.402344 78.515625 L 182.332031 78.503906 L 182.230469 78.503906 L 182.136719 78.519531 L 182.113281 78.527344 L 182.09375 78.535156 L 182.070312 78.546875 L 182.050781 78.554688 L 182.011719 78.578125 L 181.996094 78.59375 L 181.976562 78.605469 L 181.960938 78.625 L 181.941406 78.640625 L 181.910156 78.679688 L 181.898438 78.703125 L 181.882812 78.726562 L 181.871094 78.753906 L 181.855469 78.78125 L 181.84375 78.808594 L 181.832031 78.839844 L 181.824219 78.871094 L 181.8125 78.902344 L 181.804688 78.9375 L 181.78125 79.054688 L 181.773438 79.097656 L 181.769531 79.140625 L 181.761719 79.1875 L 181.757812 79.234375 L 181.75 79.335938 L 181.75 79.390625 L 181.746094 79.445312 L 181.746094 79.679688 L 181.75 79.734375 L 181.75 79.789062 L 181.753906 79.835938 L 181.757812 79.886719 L 181.761719 79.933594 L 181.769531 79.976562 L 181.773438 80.019531 L 181.78125 80.0625 L 181.796875 80.140625 L 181.804688 80.175781 L 181.816406 80.210938 L 181.824219 80.242188 L 181.859375 80.335938 L 181.871094 80.363281 L 181.882812 80.386719 L 181.898438 80.410156 L 181.910156 80.433594 L 181.957031 80.492188 L 181.976562 80.507812 L 181.992188 80.523438 L 182.011719 80.539062 L 182.03125 80.550781 L 182.046875 80.5625 L 182.070312 80.574219 L 182.089844 80.582031 L 182.113281 80.589844 L 182.132812 80.597656 L 182.226562 80.613281 L 182.25 80.613281 L 182.277344 80.617188 L 182.300781 80.613281 L 182.324219 80.613281 L 182.394531 80.601562 L 182.414062 80.597656 L 182.433594 80.589844 L 182.457031 80.582031 L 182.476562 80.574219 L 182.535156 80.539062 L 182.554688 80.523438 L 182.570312 80.507812 L 182.589844 80.492188 L 182.636719 80.433594 L 182.652344 80.410156 L 182.664062 80.386719 L 182.679688 80.363281 L 182.691406 80.335938 L 182.726562 80.242188 L 182.734375 80.210938 L 182.746094 80.175781 L 182.753906 80.140625 L 182.769531 80.0625 L 182.785156 79.976562 L 182.789062 79.933594 L 182.792969 79.886719 L 182.800781 79.835938 L 182.800781 79.789062 L 182.808594 79.679688 Z M 179.558594 77.875 L 179.558594 77.8125 L 179.554688 77.753906 L 179.554688 77.699219 L 179.550781 77.644531 L 179.550781 77.59375 L 179.546875 77.542969 L 179.539062 77.496094 L 179.535156 77.449219 L 179.53125 77.40625 L 179.523438 77.363281 L 179.507812 77.285156 L 179.492188 77.214844 L 179.480469 77.179688 L 179.46875 77.148438 L 179.460938 77.121094 L 179.449219 77.089844 L 179.4375 77.066406 L 179.421875 77.039062 L 179.410156 77.015625 L 179.394531 76.992188 L 179.378906 76.972656 L 179.367188 76.953125 L 179.316406 76.902344 L 179.296875 76.890625 L 179.28125 76.878906 L 179.261719 76.867188 L 179.242188 76.859375 L 179.21875 76.847656 L 179.199219 76.84375 L 179.179688 76.835938 L 179.15625 76.828125 L 179.109375 76.820312 L 179.085938 76.820312 L 179.0625 76.816406 L 179.011719 76.816406 L 178.984375 76.820312 L 178.960938 76.820312 L 178.9375 76.824219 L 178.910156 76.832031 L 178.886719 76.835938 L 178.867188 76.84375 L 178.820312 76.859375 L 178.742188 76.90625 L 178.726562 76.921875 L 178.707031 76.9375 L 178.660156 76.996094 L 178.644531 77.019531 L 178.632812 77.042969 L 178.617188 77.066406 L 178.59375 77.121094 L 178.570312 77.183594 L 178.554688 77.253906 L 178.542969 77.289062 L 178.527344 77.367188 L 178.523438 77.410156 L 178.515625 77.453125 L 178.507812 77.546875 L 178.496094 77.699219 L 178.496094 78.042969 L 178.5 78.097656 L 178.503906 78.148438 L 178.515625 78.289062 L 178.523438 78.332031 L 178.527344 78.375 L 178.535156 78.414062 L 178.546875 78.453125 L 178.5625 78.523438 L 178.574219 78.558594 L 178.585938 78.589844 L 178.59375 78.621094 L 178.605469 78.648438 L 178.621094 78.675781 L 178.632812 78.703125 L 178.644531 78.726562 L 178.660156 78.75 L 178.707031 78.808594 L 178.726562 78.824219 L 178.742188 78.839844 L 178.761719 78.851562 L 178.78125 78.867188 L 178.800781 78.878906 L 178.820312 78.886719 L 178.84375 78.898438 L 178.863281 78.90625 L 178.886719 78.910156 L 178.910156 78.917969 L 178.980469 78.929688 L 179.078125 78.929688 L 179.125 78.921875 L 179.144531 78.917969 L 179.167969 78.910156 L 179.1875 78.90625 L 179.207031 78.898438 L 179.226562 78.886719 L 179.246094 78.878906 L 179.265625 78.867188 L 179.285156 78.851562 L 179.304688 78.839844 L 179.355469 78.789062 L 179.386719 78.75 L 179.398438 78.726562 L 179.414062 78.703125 L 179.425781 78.675781 L 179.441406 78.648438 L 179.453125 78.621094 L 179.464844 78.589844 L 179.472656 78.558594 L 179.496094 78.488281 L 179.503906 78.453125 L 179.519531 78.375 L 179.535156 78.289062 L 179.546875 78.148438 L 179.550781 78.097656 L 179.554688 78.042969 L 179.554688 77.988281 L 179.558594 77.933594 Z M 179.558594 77.875 "/>
<path style=" stroke:none;fill-rule:evenodd;fill:rgb(0%,0%,0%);fill-opacity:1;" d="M 162.042969 171.351562 L 162.042969 170.871094 L 163.164062 170.871094 L 163.164062 167.484375 L 162.171875 168.191406 L 162.171875 167.660156 L 163.210938 166.945312 L 163.730469 166.945312 L 163.730469 170.871094 L 164.804688 170.871094 L 164.804688 171.351562 Z M 162.042969 171.351562 "/>
<path style=" stroke:none;fill-rule:evenodd;fill:rgb(0%,0%,0%);fill-opacity:1;" d="M 168.40625 169.914062 L 168.40625 169.980469 L 168.402344 170.046875 L 168.398438 170.109375 L 168.382812 170.234375 L 168.359375 170.351562 L 168.34375 170.410156 L 168.328125 170.464844 L 168.308594 170.523438 L 168.285156 170.574219 L 168.265625 170.628906 L 168.210938 170.730469 L 168.183594 170.777344 L 168.121094 170.871094 L 168.050781 170.957031 L 168.011719 170.996094 L 167.96875 171.035156 L 167.929688 171.070312 L 167.835938 171.140625 L 167.789062 171.171875 L 167.738281 171.203125 L 167.6875 171.230469 L 167.632812 171.257812 L 167.578125 171.28125 L 167.519531 171.304688 L 167.460938 171.324219 L 167.398438 171.34375 L 167.273438 171.375 L 167.207031 171.386719 L 166.996094 171.410156 L 166.921875 171.410156 L 166.84375 171.414062 L 166.777344 171.410156 L 166.710938 171.410156 L 166.644531 171.40625 L 166.519531 171.390625 L 166.460938 171.382812 L 166.402344 171.371094 L 166.292969 171.347656 L 166.238281 171.332031 L 166.1875 171.316406 L 166.140625 171.296875 L 166.089844 171.277344 L 166.046875 171.257812 L 166 171.234375 L 165.960938 171.210938 L 165.917969 171.1875 L 165.878906 171.164062 L 165.839844 171.136719 L 165.769531 171.082031 L 165.734375 171.050781 L 165.671875 170.988281 L 165.644531 170.953125 L 165.617188 170.921875 L 165.589844 170.886719 L 165.566406 170.847656 L 165.542969 170.8125 L 165.519531 170.773438 L 165.5 170.738281 L 165.480469 170.699219 L 165.464844 170.65625 L 165.445312 170.617188 L 165.429688 170.578125 L 165.417969 170.535156 L 165.402344 170.496094 L 165.390625 170.453125 L 165.382812 170.410156 L 165.371094 170.367188 L 165.941406 170.300781 L 165.957031 170.347656 L 165.964844 170.375 L 165.972656 170.398438 L 165.984375 170.421875 L 165.992188 170.449219 L 166.050781 170.566406 L 166.066406 170.589844 L 166.078125 170.609375 L 166.09375 170.632812 L 166.113281 170.652344 L 166.128906 170.675781 L 166.207031 170.753906 L 166.230469 170.769531 L 166.253906 170.789062 L 166.300781 170.820312 L 166.328125 170.835938 L 166.355469 170.847656 L 166.382812 170.863281 L 166.414062 170.875 L 166.441406 170.886719 L 166.503906 170.910156 L 166.609375 170.933594 L 166.648438 170.941406 L 166.726562 170.949219 L 166.769531 170.949219 L 166.8125 170.953125 L 166.902344 170.953125 L 166.941406 170.949219 L 167.027344 170.941406 L 167.066406 170.9375 L 167.144531 170.921875 L 167.179688 170.910156 L 167.21875 170.898438 L 167.289062 170.875 L 167.324219 170.859375 L 167.355469 170.839844 L 167.386719 170.824219 L 167.417969 170.804688 L 167.449219 170.78125 L 167.476562 170.761719 L 167.53125 170.714844 L 167.558594 170.6875 L 167.605469 170.632812 L 167.628906 170.601562 L 167.652344 170.574219 L 167.671875 170.542969 L 167.691406 170.507812 L 167.707031 170.472656 L 167.726562 170.4375 L 167.742188 170.402344 L 167.753906 170.367188 L 167.769531 170.328125 L 167.78125 170.285156 L 167.789062 170.246094 L 167.8125 170.117188 L 167.824219 169.976562 L 167.824219 169.886719 L 167.8125 169.769531 L 167.808594 169.734375 L 167.800781 169.695312 L 167.792969 169.660156 L 167.757812 169.554688 L 167.742188 169.523438 L 167.730469 169.488281 L 167.714844 169.457031 L 167.695312 169.425781 L 167.679688 169.394531 L 167.660156 169.367188 L 167.636719 169.339844 L 167.617188 169.3125 L 167.59375 169.285156 L 167.546875 169.238281 L 167.492188 169.191406 L 167.464844 169.171875 L 167.371094 169.113281 L 167.339844 169.097656 L 167.269531 169.066406 L 167.199219 169.042969 L 167.160156 169.03125 L 167.082031 169.015625 L 167.042969 169.011719 L 167 169.003906 L 166.957031 169.003906 L 166.914062 169 L 166.789062 169 L 166.761719 169.003906 L 166.734375 169.003906 L 166.710938 169.007812 L 166.683594 169.011719 L 166.660156 169.015625 L 166.632812 169.019531 L 166.609375 169.023438 L 166.585938 169.03125 L 166.5625 169.035156 L 166.539062 169.042969 L 166.519531 169.046875 L 166.472656 169.0625 L 166.453125 169.070312 L 166.429688 169.078125 L 166.410156 169.085938 L 166.386719 169.09375 L 166.347656 169.109375 L 166.328125 169.121094 L 166.3125 169.128906 L 166.273438 169.152344 L 166.257812 169.160156 L 166.238281 169.171875 L 166.222656 169.183594 L 166.203125 169.195312 L 166.09375 169.277344 L 166.082031 169.289062 L 166.066406 169.300781 L 166.050781 169.316406 L 165.5 169.316406 L 165.648438 166.945312 L 168.152344 166.945312 L 168.152344 167.425781 L 166.160156 167.425781 L 166.074219 168.820312 L 166.105469 168.796875 L 166.140625 168.777344 L 166.171875 168.753906 L 166.207031 168.734375 L 166.246094 168.714844 L 166.28125 168.695312 L 166.324219 168.675781 L 166.363281 168.65625 L 166.449219 168.625 L 166.542969 168.59375 L 166.644531 168.570312 L 166.695312 168.5625 L 166.75 168.554688 L 166.808594 168.546875 L 166.863281 168.542969 L 166.925781 168.539062 L 167.050781 168.539062 L 167.113281 168.542969 L 167.175781 168.550781 L 167.238281 168.554688 L 167.296875 168.566406 L 167.355469 168.574219 L 167.414062 168.589844 L 167.523438 168.621094 L 167.578125 168.640625 L 167.628906 168.660156 L 167.679688 168.683594 L 167.726562 168.707031 L 167.820312 168.761719 L 167.863281 168.789062 L 167.90625 168.820312 L 167.945312 168.855469 L 167.984375 168.886719 L 168.058594 168.960938 L 168.09375 169 L 168.125 169.039062 L 168.1875 169.125 L 168.214844 169.167969 L 168.242188 169.214844 L 168.265625 169.261719 L 168.285156 169.308594 L 168.308594 169.359375 L 168.328125 169.410156 L 168.34375 169.460938 L 168.359375 169.515625 L 168.382812 169.625 L 168.390625 169.679688 L 168.398438 169.738281 L 168.40625 169.855469 Z M 168.40625 169.914062 "/>
<path style=" stroke:none;fill-rule:evenodd;fill:rgb(0%,0%,0%);fill-opacity:1;" d="M 174.140625 169.992188 L 174.140625 170.070312 L 174.132812 170.21875 L 174.128906 170.285156 L 174.121094 170.355469 L 174.113281 170.417969 L 174.101562 170.480469 L 174.089844 170.539062 L 174.074219 170.597656 L 174.042969 170.707031 L 174.027344 170.753906 L 174.007812 170.804688 L 173.988281 170.847656 L 173.964844 170.894531 L 173.945312 170.9375 L 173.898438 171.015625 L 173.84375 171.085938 L 173.816406 171.117188 L 173.789062 171.144531 L 173.757812 171.171875 L 173.730469 171.199219 L 173.699219 171.222656 L 173.664062 171.246094 L 173.632812 171.265625 L 173.5625 171.304688 L 173.527344 171.320312 L 173.492188 171.332031 L 173.453125 171.34375 L 173.417969 171.355469 L 173.339844 171.371094 L 173.300781 171.375 L 173.261719 171.382812 L 173.222656 171.386719 L 173.058594 171.386719 L 173.019531 171.382812 L 172.980469 171.375 L 172.941406 171.371094 L 172.863281 171.355469 L 172.828125 171.34375 L 172.789062 171.332031 L 172.753906 171.320312 L 172.71875 171.304688 L 172.648438 171.265625 L 172.617188 171.246094 L 172.554688 171.199219 L 172.523438 171.171875 L 172.46875 171.117188 L 172.441406 171.085938 L 172.414062 171.050781 L 172.390625 171.015625 L 172.34375 170.9375 L 172.324219 170.894531 L 172.300781 170.851562 L 172.28125 170.804688 L 172.265625 170.757812 L 172.246094 170.707031 L 172.230469 170.65625 L 172.214844 170.601562 L 172.191406 170.484375 L 172.183594 170.421875 L 172.167969 170.289062 L 172.164062 170.21875 L 172.15625 170.070312 L 172.15625 169.910156 L 172.160156 169.832031 L 172.167969 169.683594 L 172.175781 169.613281 L 172.191406 169.480469 L 172.214844 169.363281 L 172.230469 169.304688 L 172.261719 169.203125 L 172.28125 169.152344 L 172.300781 169.105469 L 172.320312 169.0625 L 172.34375 169.019531 L 172.363281 168.980469 L 172.390625 168.941406 L 172.414062 168.90625 L 172.496094 168.8125 L 172.523438 168.785156 L 172.617188 168.714844 L 172.652344 168.695312 L 172.683594 168.679688 L 172.71875 168.664062 L 172.757812 168.648438 L 172.792969 168.636719 L 172.832031 168.625 L 172.871094 168.617188 L 172.90625 168.605469 L 172.949219 168.601562 L 172.988281 168.59375 L 173.027344 168.589844 L 173.070312 168.585938 L 173.109375 168.585938 L 173.152344 168.582031 L 173.195312 168.585938 L 173.234375 168.585938 L 173.3125 168.59375 L 173.351562 168.601562 L 173.390625 168.605469 L 173.429688 168.617188 L 173.464844 168.625 L 173.5 168.636719 L 173.539062 168.648438 L 173.609375 168.679688 L 173.640625 168.695312 L 173.675781 168.714844 L 173.738281 168.761719 L 173.765625 168.785156 L 173.796875 168.8125 L 173.851562 168.875 L 173.875 168.90625 L 173.902344 168.941406 L 173.949219 169.019531 L 173.96875 169.0625 L 173.992188 169.105469 L 174.011719 169.152344 L 174.027344 169.203125 L 174.046875 169.253906 L 174.0625 169.304688 L 174.078125 169.363281 L 174.101562 169.480469 L 174.113281 169.546875 L 174.121094 169.613281 L 174.128906 169.683594 L 174.136719 169.832031 L 174.140625 169.910156 Z M 170.324219 171.351562 L 169.839844 171.351562 L 172.722656 166.945312 L 173.210938 166.945312 Z M 169.910156 166.90625 L 169.949219 166.910156 L 169.988281 166.910156 L 170.066406 166.917969 L 170.101562 166.925781 L 170.140625 166.933594 L 170.175781 166.941406 L 170.214844 166.949219 L 170.285156 166.972656 L 170.390625 167.019531 L 170.421875 167.039062 L 170.453125 167.0625 L 170.484375 167.082031 L 170.515625 167.109375 L 170.570312 167.164062 L 170.597656 167.195312 L 170.652344 167.265625 L 170.675781 167.300781 L 170.695312 167.339844 L 170.71875 167.382812 L 170.738281 167.425781 L 170.777344 167.519531 L 170.792969 167.570312 L 170.824219 167.679688 L 170.847656 167.796875 L 170.859375 167.863281 L 170.875 167.996094 L 170.882812 168.144531 L 170.886719 168.222656 L 170.886719 168.378906 L 170.878906 168.527344 L 170.875 168.597656 L 170.859375 168.730469 L 170.847656 168.792969 L 170.824219 168.910156 L 170.792969 169.019531 L 170.773438 169.070312 L 170.757812 169.117188 L 170.738281 169.164062 L 170.714844 169.207031 L 170.695312 169.25 L 170.671875 169.292969 L 170.648438 169.332031 L 170.621094 169.367188 L 170.597656 169.402344 L 170.542969 169.464844 L 170.511719 169.492188 L 170.484375 169.519531 L 170.421875 169.566406 L 170.386719 169.589844 L 170.355469 169.609375 L 170.285156 169.640625 L 170.246094 169.652344 L 170.210938 169.667969 L 170.171875 169.675781 L 170.132812 169.6875 L 170.097656 169.695312 L 170.058594 169.699219 L 170.015625 169.707031 L 169.976562 169.710938 L 169.8125 169.710938 L 169.773438 169.707031 L 169.734375 169.699219 L 169.695312 169.695312 L 169.65625 169.6875 L 169.617188 169.675781 L 169.578125 169.667969 L 169.542969 169.652344 L 169.503906 169.640625 L 169.433594 169.609375 L 169.402344 169.589844 L 169.367188 169.566406 L 169.304688 169.519531 L 169.273438 169.492188 L 169.214844 169.433594 L 169.1875 169.402344 L 169.140625 169.332031 L 169.09375 169.253906 L 169.070312 169.210938 L 169.050781 169.167969 L 169.03125 169.121094 L 169.011719 169.070312 L 168.980469 168.96875 L 168.964844 168.914062 L 168.941406 168.796875 L 168.933594 168.734375 L 168.921875 168.667969 L 168.917969 168.597656 L 168.910156 168.527344 L 168.90625 168.457031 L 168.90625 168.144531 L 168.910156 168.070312 L 168.917969 167.996094 L 168.921875 167.929688 L 168.933594 167.863281 L 168.941406 167.796875 L 168.964844 167.679688 L 168.996094 167.570312 L 169.011719 167.519531 L 169.050781 167.425781 L 169.070312 167.382812 L 169.09375 167.339844 L 169.117188 167.300781 L 169.140625 167.265625 L 169.167969 167.230469 L 169.191406 167.195312 L 169.21875 167.164062 L 169.25 167.136719 L 169.277344 167.109375 L 169.308594 167.082031 L 169.339844 167.0625 L 169.371094 167.039062 L 169.40625 167.019531 L 169.511719 166.972656 L 169.546875 166.960938 L 169.585938 166.949219 L 169.742188 166.917969 L 169.785156 166.914062 L 169.824219 166.910156 L 169.867188 166.910156 Z M 173.679688 169.992188 L 173.679688 169.933594 L 173.675781 169.875 L 173.675781 169.816406 L 173.671875 169.761719 L 173.664062 169.660156 L 173.65625 169.566406 L 173.648438 169.523438 L 173.644531 169.480469 L 173.621094 169.363281 L 173.609375 169.328125 L 173.601562 169.296875 L 173.589844 169.261719 L 173.578125 169.234375 L 173.566406 169.203125 L 173.554688 169.179688 L 173.539062 169.152344 L 173.527344 169.128906 L 173.511719 169.105469 L 173.5 169.085938 L 173.484375 169.066406 L 173.433594 169.015625 L 173.375 168.980469 L 173.355469 168.972656 L 173.335938 168.960938 L 173.3125 168.957031 L 173.292969 168.949219 L 173.269531 168.941406 L 173.25 168.9375 L 173.226562 168.933594 L 173.203125 168.933594 L 173.179688 168.929688 L 173.128906 168.929688 L 173.101562 168.933594 L 173.078125 168.933594 L 173.054688 168.9375 L 173.03125 168.945312 L 173.007812 168.949219 L 172.984375 168.957031 L 172.964844 168.964844 L 172.941406 168.972656 L 172.863281 169.019531 L 172.847656 169.035156 L 172.828125 169.050781 L 172.78125 169.109375 L 172.765625 169.132812 L 172.753906 169.15625 L 172.738281 169.179688 L 172.726562 169.207031 L 172.714844 169.238281 L 172.703125 169.265625 L 172.691406 169.296875 L 172.683594 169.332031 L 172.671875 169.367188 L 172.648438 169.484375 L 172.644531 169.527344 L 172.636719 169.570312 L 172.632812 169.613281 L 172.628906 169.664062 L 172.625 169.710938 L 172.617188 169.820312 L 172.617188 170.164062 L 172.628906 170.316406 L 172.632812 170.363281 L 172.636719 170.40625 L 172.644531 170.449219 L 172.648438 170.492188 L 172.65625 170.53125 L 172.664062 170.566406 L 172.675781 170.605469 L 172.683594 170.636719 L 172.695312 170.671875 L 172.703125 170.703125 L 172.714844 170.734375 L 172.738281 170.789062 L 172.753906 170.816406 L 172.765625 170.839844 L 172.78125 170.863281 L 172.828125 170.921875 L 172.84375 170.9375 L 172.863281 170.953125 L 172.882812 170.964844 L 172.898438 170.980469 L 172.917969 170.992188 L 172.9375 171 L 172.960938 171.007812 L 172.980469 171.019531 L 173.003906 171.023438 L 173.027344 171.03125 L 173.046875 171.035156 L 173.074219 171.039062 L 173.097656 171.042969 L 173.195312 171.042969 L 173.242188 171.035156 L 173.261719 171.03125 L 173.285156 171.023438 L 173.304688 171.019531 L 173.324219 171.007812 L 173.347656 171 L 173.367188 170.992188 L 173.386719 170.980469 L 173.40625 170.964844 L 173.421875 170.953125 L 173.441406 170.9375 L 173.457031 170.921875 L 173.472656 170.902344 L 173.492188 170.882812 L 173.503906 170.863281 L 173.535156 170.816406 L 173.546875 170.789062 L 173.5625 170.761719 L 173.574219 170.734375 L 173.585938 170.703125 L 173.59375 170.671875 L 173.605469 170.636719 L 173.617188 170.605469 L 173.625 170.566406 L 173.632812 170.53125 L 173.640625 170.492188 L 173.648438 170.449219 L 173.652344 170.40625 L 173.660156 170.363281 L 173.664062 170.316406 L 173.675781 170.164062 L 173.675781 170.109375 L 173.679688 170.050781 Z M 170.425781 168.300781 L 170.425781 168.128906 L 170.421875 168.074219 L 170.414062 167.972656 L 170.40625 167.878906 L 170.398438 167.835938 L 170.394531 167.792969 L 170.378906 167.714844 L 170.371094 167.679688 L 170.359375 167.644531 L 170.351562 167.609375 L 170.328125 167.546875 L 170.304688 167.492188 L 170.28125 167.445312 L 170.265625 167.421875 L 170.21875 167.363281 L 170.1875 167.332031 L 170.167969 167.320312 L 170.148438 167.304688 L 170.128906 167.296875 L 170.109375 167.285156 L 170.070312 167.269531 L 170.046875 167.265625 L 170.027344 167.257812 L 169.957031 167.246094 L 169.855469 167.246094 L 169.832031 167.25 L 169.804688 167.253906 L 169.78125 167.257812 L 169.734375 167.273438 L 169.714844 167.28125 L 169.691406 167.289062 L 169.671875 167.300781 L 169.652344 167.308594 L 169.632812 167.320312 L 169.613281 167.335938 L 169.597656 167.351562 L 169.578125 167.367188 L 169.5625 167.386719 L 169.546875 167.402344 L 169.53125 167.425781 L 169.515625 167.445312 L 169.503906 167.472656 L 169.488281 167.496094 L 169.464844 167.550781 L 169.441406 167.613281 L 169.433594 167.644531 L 169.421875 167.679688 L 169.390625 167.835938 L 169.386719 167.882812 L 169.382812 167.925781 L 169.375 167.972656 L 169.371094 168.023438 L 169.371094 168.074219 L 169.367188 168.128906 L 169.367188 168.183594 L 169.363281 168.242188 L 169.363281 168.359375 L 169.367188 168.417969 L 169.367188 168.472656 L 169.371094 168.523438 L 169.371094 168.574219 L 169.375 168.625 L 169.382812 168.671875 L 169.386719 168.71875 L 169.390625 168.761719 L 169.398438 168.800781 L 169.40625 168.84375 L 169.414062 168.878906 L 169.425781 168.917969 L 169.433594 168.953125 L 169.445312 168.984375 L 169.453125 169.019531 L 169.464844 169.046875 L 169.476562 169.078125 L 169.488281 169.105469 L 169.503906 169.128906 L 169.515625 169.15625 L 169.53125 169.175781 L 169.546875 169.199219 L 169.5625 169.21875 L 169.613281 169.269531 L 169.691406 169.316406 L 169.710938 169.324219 L 169.734375 169.332031 L 169.753906 169.339844 L 169.777344 169.34375 L 169.800781 169.351562 L 169.824219 169.355469 L 169.851562 169.355469 L 169.875 169.359375 L 169.925781 169.359375 L 169.949219 169.355469 L 169.972656 169.355469 L 169.992188 169.351562 L 170.015625 169.34375 L 170.035156 169.339844 L 170.058594 169.332031 L 170.097656 169.316406 L 170.15625 169.28125 L 170.171875 169.269531 L 170.191406 169.253906 L 170.207031 169.234375 L 170.222656 169.21875 L 170.238281 169.199219 L 170.253906 169.175781 L 170.269531 169.15625 L 170.285156 169.128906 L 170.296875 169.105469 L 170.308594 169.078125 L 170.320312 169.046875 L 170.332031 169.019531 L 170.34375 168.984375 L 170.355469 168.953125 L 170.363281 168.917969 L 170.375 168.878906 L 170.382812 168.84375 L 170.390625 168.800781 L 170.398438 168.761719 L 170.402344 168.71875 L 170.410156 168.671875 L 170.414062 168.625 L 170.425781 168.472656 Z M 170.425781 168.300781 "/>
<path style=" stroke:none;fill-rule:evenodd;fill:rgb(0%,0%,0%);fill-opacity:1;" d="M 30.015625 124.507812 L 30.015625 124.574219 L 30.011719 124.640625 L 30.003906 124.703125 L 30 124.765625 L 29.988281 124.824219 L 29.980469 124.886719 L 29.949219 125.003906 L 29.933594 125.058594 L 29.894531 125.167969 L 29.871094 125.222656 L 29.847656 125.273438 L 29.820312 125.324219 L 29.789062 125.371094 L 29.761719 125.417969 L 29.726562 125.464844 L 29.65625 125.550781 L 29.578125 125.628906 L 29.492188 125.699219 L 29.445312 125.734375 L 29.398438 125.765625 L 29.347656 125.792969 L 29.292969 125.824219 L 29.242188 125.847656 L 29.183594 125.875 L 29.128906 125.894531 L 29.066406 125.917969 L 29.007812 125.9375 L 28.945312 125.953125 L 28.746094 125.988281 L 28.675781 125.996094 L 28.527344 126.003906 L 28.316406 126.003906 L 28.25 126 L 28.125 125.984375 L 28.066406 125.976562 L 28.007812 125.964844 L 27.898438 125.941406 L 27.84375 125.925781 L 27.792969 125.90625 L 27.746094 125.890625 L 27.652344 125.851562 L 27.523438 125.78125 L 27.484375 125.757812 L 27.449219 125.730469 L 27.410156 125.703125 L 27.375 125.671875 L 27.34375 125.644531 L 27.308594 125.613281 L 27.28125 125.578125 L 27.25 125.546875 L 27.195312 125.476562 L 27.148438 125.40625 L 27.125 125.367188 L 27.085938 125.289062 L 27.039062 125.171875 L 27.023438 125.128906 L 27.011719 125.085938 L 27 125.046875 L 26.988281 125.003906 L 26.980469 124.957031 L 27.546875 124.894531 L 27.5625 124.941406 L 27.570312 124.96875 L 27.582031 124.992188 L 27.589844 125.015625 L 27.601562 125.039062 L 27.609375 125.066406 L 27.644531 125.136719 L 27.660156 125.160156 L 27.671875 125.183594 L 27.6875 125.203125 L 27.703125 125.226562 L 27.71875 125.246094 L 27.734375 125.269531 L 27.8125 125.347656 L 27.835938 125.363281 L 27.859375 125.382812 L 27.882812 125.398438 L 27.910156 125.414062 L 27.933594 125.429688 L 27.960938 125.441406 L 27.992188 125.457031 L 28.019531 125.46875 L 28.050781 125.480469 L 28.078125 125.492188 L 28.113281 125.503906 L 28.144531 125.511719 L 28.179688 125.519531 L 28.21875 125.527344 L 28.253906 125.53125 L 28.292969 125.539062 L 28.335938 125.542969 L 28.375 125.542969 L 28.421875 125.546875 L 28.507812 125.546875 L 28.59375 125.539062 L 28.671875 125.53125 L 28.75 125.515625 L 28.789062 125.503906 L 28.859375 125.480469 L 28.964844 125.433594 L 29.027344 125.394531 L 29.054688 125.375 L 29.085938 125.355469 L 29.113281 125.332031 L 29.191406 125.253906 L 29.214844 125.226562 L 29.234375 125.195312 L 29.257812 125.164062 L 29.296875 125.101562 L 29.316406 125.066406 L 29.347656 124.996094 L 29.363281 124.957031 L 29.398438 124.839844 L 29.414062 124.753906 L 29.417969 124.710938 L 29.425781 124.664062 L 29.425781 124.617188 L 29.429688 124.570312 L 29.429688 124.480469 L 29.425781 124.441406 L 29.425781 124.402344 L 29.417969 124.363281 L 29.414062 124.328125 L 29.40625 124.289062 L 29.398438 124.253906 L 29.386719 124.21875 L 29.378906 124.183594 L 29.363281 124.148438 L 29.351562 124.113281 L 29.304688 124.019531 L 29.285156 123.988281 L 29.246094 123.933594 L 29.199219 123.878906 L 29.152344 123.832031 L 29.097656 123.785156 L 29.070312 123.765625 L 29.042969 123.742188 L 29.011719 123.726562 L 28.980469 123.707031 L 28.875 123.660156 L 28.804688 123.636719 L 28.765625 123.625 L 28.730469 123.617188 L 28.6875 123.609375 L 28.648438 123.605469 L 28.605469 123.597656 L 28.566406 123.59375 L 28.394531 123.59375 L 28.367188 123.597656 L 28.339844 123.597656 L 28.316406 123.601562 L 28.289062 123.605469 L 28.195312 123.621094 L 28.171875 123.628906 L 28.148438 123.632812 L 28.101562 123.648438 L 28.082031 123.652344 L 28.058594 123.660156 L 28.039062 123.667969 L 28.015625 123.679688 L 27.957031 123.703125 L 27.9375 123.714844 L 27.917969 123.722656 L 27.898438 123.734375 L 27.882812 123.746094 L 27.863281 123.753906 L 27.84375 123.765625 L 27.8125 123.789062 L 27.792969 123.800781 L 27.730469 123.847656 L 27.71875 123.859375 L 27.671875 123.894531 L 27.65625 123.910156 L 27.109375 123.910156 L 27.253906 121.539062 L 29.757812 121.539062 L 29.757812 122.015625 L 27.765625 122.015625 L 27.683594 123.414062 L 27.714844 123.390625 L 27.746094 123.371094 L 27.78125 123.347656 L 27.851562 123.308594 L 27.929688 123.269531 L 27.972656 123.25 L 28.011719 123.234375 L 28.152344 123.1875 L 28.199219 123.175781 L 28.25 123.164062 L 28.304688 123.152344 L 28.359375 123.148438 L 28.414062 123.140625 L 28.53125 123.132812 L 28.65625 123.132812 L 28.722656 123.136719 L 28.785156 123.140625 L 28.902344 123.15625 L 28.960938 123.167969 L 29.019531 123.183594 L 29.074219 123.195312 L 29.183594 123.234375 L 29.234375 123.253906 L 29.285156 123.277344 L 29.332031 123.300781 L 29.425781 123.355469 L 29.46875 123.382812 L 29.554688 123.445312 L 29.59375 123.480469 L 29.667969 123.554688 L 29.699219 123.59375 L 29.734375 123.632812 L 29.765625 123.675781 L 29.792969 123.714844 L 29.820312 123.761719 L 29.847656 123.804688 L 29.871094 123.855469 L 29.894531 123.902344 L 29.933594 124.003906 L 29.949219 124.054688 L 29.980469 124.164062 L 29.988281 124.21875 L 30 124.273438 L 30.003906 124.332031 L 30.011719 124.390625 L 30.015625 124.449219 Z M 30.015625 124.507812 "/>
<path style=" stroke:none;fill-rule:evenodd;fill:rgb(0%,0%,0%);fill-opacity:1;" d="M 33.523438 121.996094 L 33.457031 122.097656 L 33.390625 122.195312 L 33.328125 122.296875 L 33.203125 122.492188 L 33.085938 122.6875 L 32.96875 122.875 L 32.804688 123.15625 L 32.652344 123.4375 L 32.605469 123.53125 L 32.5625 123.628906 L 32.515625 123.722656 L 32.476562 123.816406 L 32.433594 123.910156 L 32.394531 124.007812 L 32.359375 124.101562 L 32.320312 124.195312 L 32.195312 124.585938 L 32.171875 124.683594 L 32.144531 124.785156 L 32.121094 124.882812 L 32.082031 125.085938 L 32.066406 125.1875 L 32.050781 125.292969 L 32.039062 125.398438 L 32.03125 125.503906 L 32.015625 125.722656 L 32.011719 125.832031 L 32.011719 125.941406 L 31.425781 125.941406 L 31.425781 125.835938 L 31.429688 125.734375 L 31.445312 125.523438 L 31.457031 125.421875 L 31.46875 125.316406 L 31.484375 125.214844 L 31.503906 125.113281 L 31.574219 124.808594 L 31.601562 124.707031 L 31.664062 124.503906 L 31.695312 124.40625 L 31.730469 124.304688 L 31.765625 124.207031 L 31.804688 124.105469 L 31.84375 124.007812 L 31.929688 123.8125 L 31.976562 123.714844 L 32.019531 123.617188 L 32.066406 123.523438 L 32.167969 123.328125 L 32.21875 123.234375 L 32.269531 123.136719 L 32.324219 123.042969 L 32.382812 122.949219 L 32.4375 122.855469 L 32.730469 122.386719 L 32.792969 122.292969 L 32.851562 122.203125 L 32.976562 122.015625 L 30.613281 122.015625 L 30.613281 121.539062 L 33.523438 121.539062 Z M 33.523438 121.996094 "/>
<path style=" stroke:none;fill-rule:evenodd;fill:rgb(0%,0%,0%);fill-opacity:1;" d="M 39.308594 124.585938 L 39.308594 124.664062 L 39.304688 124.738281 L 39.296875 124.878906 L 39.289062 124.945312 L 39.277344 125.011719 L 39.269531 125.074219 L 39.257812 125.132812 L 39.242188 125.191406 L 39.226562 125.246094 L 39.210938 125.296875 L 39.191406 125.347656 L 39.175781 125.398438 L 39.15625 125.441406 L 39.113281 125.527344 L 39.089844 125.570312 L 39.0625 125.605469 L 39.039062 125.644531 L 39.011719 125.675781 L 38.984375 125.710938 L 38.957031 125.738281 L 38.894531 125.792969 L 38.832031 125.839844 L 38.800781 125.859375 L 38.730469 125.898438 L 38.695312 125.910156 L 38.660156 125.925781 L 38.621094 125.9375 L 38.585938 125.945312 L 38.546875 125.957031 L 38.507812 125.964844 L 38.390625 125.976562 L 38.347656 125.980469 L 38.265625 125.980469 L 38.109375 125.964844 L 38.070312 125.957031 L 38.03125 125.945312 L 37.992188 125.9375 L 37.957031 125.925781 L 37.921875 125.910156 L 37.886719 125.898438 L 37.816406 125.859375 L 37.785156 125.839844 L 37.722656 125.792969 L 37.691406 125.765625 L 37.636719 125.710938 L 37.609375 125.675781 L 37.582031 125.644531 L 37.558594 125.609375 L 37.511719 125.53125 L 37.488281 125.488281 L 37.46875 125.445312 L 37.429688 125.351562 L 37.398438 125.25 L 37.382812 125.195312 L 37.359375 125.078125 L 37.351562 125.015625 L 37.335938 124.882812 L 37.328125 124.8125 L 37.324219 124.738281 L 37.324219 124.425781 L 37.328125 124.351562 L 37.335938 124.277344 L 37.34375 124.207031 L 37.359375 124.074219 L 37.371094 124.011719 L 37.382812 123.953125 L 37.414062 123.84375 L 37.429688 123.792969 L 37.46875 123.699219 L 37.507812 123.613281 L 37.554688 123.535156 L 37.582031 123.5 L 37.664062 123.40625 L 37.691406 123.378906 L 37.722656 123.351562 L 37.753906 123.328125 L 37.785156 123.308594 L 37.820312 123.289062 L 37.851562 123.269531 L 37.886719 123.257812 L 37.921875 123.242188 L 38 123.21875 L 38.035156 123.207031 L 38.113281 123.191406 L 38.15625 123.1875 L 38.195312 123.183594 L 38.238281 123.179688 L 38.277344 123.175781 L 38.359375 123.175781 L 38.402344 123.179688 L 38.519531 123.191406 L 38.558594 123.199219 L 38.59375 123.207031 L 38.632812 123.21875 L 38.703125 123.242188 L 38.742188 123.257812 L 38.773438 123.269531 L 38.84375 123.308594 L 38.875 123.328125 L 38.90625 123.351562 L 38.992188 123.4375 L 39.015625 123.46875 L 39.042969 123.5 L 39.070312 123.535156 L 39.117188 123.613281 L 39.136719 123.65625 L 39.160156 123.699219 L 39.179688 123.746094 L 39.195312 123.792969 L 39.214844 123.84375 L 39.246094 123.953125 L 39.257812 124.011719 L 39.269531 124.074219 L 39.28125 124.140625 L 39.289062 124.207031 L 39.296875 124.277344 L 39.304688 124.425781 L 39.308594 124.503906 Z M 35.492188 125.941406 L 35.007812 125.941406 L 37.890625 121.539062 L 38.378906 121.539062 Z M 35.074219 121.5 L 35.117188 121.5 L 35.195312 121.507812 L 35.230469 121.511719 L 35.269531 121.519531 L 35.308594 121.523438 L 35.34375 121.535156 L 35.382812 121.542969 L 35.453125 121.566406 L 35.558594 121.613281 L 35.621094 121.652344 L 35.652344 121.675781 L 35.683594 121.703125 L 35.738281 121.757812 L 35.792969 121.820312 L 35.816406 121.855469 L 35.863281 121.933594 L 35.886719 121.976562 L 35.90625 122.019531 L 35.945312 122.113281 L 35.960938 122.164062 L 35.992188 122.273438 L 36.015625 122.390625 L 36.027344 122.453125 L 36.035156 122.519531 L 36.042969 122.589844 L 36.050781 122.738281 L 36.054688 122.816406 L 36.054688 122.972656 L 36.046875 123.121094 L 36.042969 123.191406 L 36.027344 123.324219 L 36.015625 123.386719 L 35.992188 123.503906 L 35.976562 123.558594 L 35.960938 123.609375 L 35.941406 123.660156 L 35.925781 123.710938 L 35.90625 123.757812 L 35.882812 123.800781 L 35.863281 123.84375 L 35.839844 123.886719 L 35.816406 123.925781 L 35.761719 123.996094 L 35.738281 124.027344 L 35.679688 124.085938 L 35.648438 124.113281 L 35.621094 124.136719 L 35.585938 124.160156 L 35.554688 124.183594 L 35.519531 124.199219 L 35.488281 124.21875 L 35.449219 124.234375 L 35.378906 124.257812 L 35.300781 124.28125 L 35.261719 124.289062 L 35.105469 124.304688 L 35.023438 124.304688 L 34.980469 124.300781 L 34.941406 124.296875 L 34.898438 124.292969 L 34.859375 124.289062 L 34.820312 124.28125 L 34.785156 124.269531 L 34.707031 124.246094 L 34.671875 124.234375 L 34.636719 124.21875 L 34.601562 124.199219 L 34.566406 124.183594 L 34.472656 124.113281 L 34.441406 124.085938 L 34.382812 124.027344 L 34.355469 123.996094 L 34.332031 123.960938 L 34.304688 123.925781 L 34.28125 123.886719 L 34.261719 123.847656 L 34.238281 123.804688 L 34.21875 123.761719 L 34.199219 123.714844 L 34.179688 123.664062 L 34.148438 123.5625 L 34.132812 123.507812 L 34.121094 123.449219 L 34.097656 123.324219 L 34.089844 123.261719 L 34.085938 123.191406 L 34.078125 123.121094 L 34.074219 123.050781 L 34.074219 122.972656 L 34.070312 122.894531 L 34.074219 122.816406 L 34.074219 122.738281 L 34.078125 122.664062 L 34.085938 122.589844 L 34.089844 122.519531 L 34.097656 122.453125 L 34.109375 122.390625 L 34.132812 122.273438 L 34.164062 122.164062 L 34.179688 122.113281 L 34.21875 122.019531 L 34.238281 121.976562 L 34.261719 121.933594 L 34.308594 121.855469 L 34.332031 121.820312 L 34.386719 121.757812 L 34.414062 121.730469 L 34.476562 121.675781 L 34.507812 121.652344 L 34.539062 121.632812 L 34.574219 121.613281 L 34.605469 121.597656 L 34.640625 121.582031 L 34.679688 121.566406 L 34.714844 121.554688 L 34.753906 121.542969 L 34.792969 121.535156 L 34.832031 121.523438 L 34.871094 121.519531 L 34.910156 121.511719 L 34.949219 121.507812 L 35.035156 121.5 Z M 38.84375 124.585938 L 38.84375 124.410156 L 38.839844 124.355469 L 38.832031 124.253906 L 38.824219 124.160156 L 38.816406 124.117188 L 38.8125 124.074219 L 38.789062 123.957031 L 38.777344 123.921875 L 38.769531 123.890625 L 38.757812 123.855469 L 38.746094 123.828125 L 38.734375 123.796875 L 38.722656 123.769531 L 38.707031 123.746094 L 38.695312 123.722656 L 38.679688 123.699219 L 38.632812 123.640625 L 38.617188 123.625 L 38.597656 123.609375 L 38.582031 123.597656 L 38.523438 123.5625 L 38.503906 123.554688 L 38.480469 123.546875 L 38.460938 123.542969 L 38.4375 123.535156 L 38.414062 123.53125 L 38.394531 123.527344 L 38.371094 123.527344 L 38.34375 123.523438 L 38.292969 123.523438 L 38.269531 123.527344 L 38.246094 123.527344 L 38.21875 123.53125 L 38.195312 123.535156 L 38.175781 123.542969 L 38.128906 123.558594 L 38.109375 123.566406 L 38.089844 123.578125 L 38.070312 123.585938 L 38.050781 123.601562 L 38.03125 123.613281 L 38.015625 123.628906 L 37.996094 123.644531 L 37.949219 123.703125 L 37.933594 123.726562 L 37.921875 123.75 L 37.90625 123.773438 L 37.882812 123.828125 L 37.859375 123.890625 L 37.851562 123.925781 L 37.839844 123.960938 L 37.832031 123.996094 L 37.824219 124.035156 L 37.816406 124.078125 L 37.808594 124.117188 L 37.804688 124.164062 L 37.800781 124.207031 L 37.796875 124.257812 L 37.792969 124.304688 L 37.789062 124.359375 L 37.785156 124.410156 L 37.785156 124.46875 L 37.78125 124.527344 L 37.78125 124.644531 L 37.785156 124.703125 L 37.785156 124.757812 L 37.792969 124.859375 L 37.804688 125 L 37.808594 125.042969 L 37.832031 125.160156 L 37.84375 125.195312 L 37.851562 125.230469 L 37.863281 125.265625 L 37.871094 125.296875 L 37.882812 125.328125 L 37.90625 125.382812 L 37.921875 125.410156 L 37.933594 125.433594 L 37.949219 125.453125 L 37.964844 125.476562 L 37.980469 125.496094 L 37.996094 125.511719 L 38.011719 125.53125 L 38.03125 125.546875 L 38.046875 125.558594 L 38.066406 125.574219 L 38.085938 125.582031 L 38.105469 125.59375 L 38.128906 125.601562 L 38.148438 125.609375 L 38.171875 125.617188 L 38.191406 125.625 L 38.238281 125.632812 L 38.265625 125.632812 L 38.289062 125.636719 L 38.339844 125.636719 L 38.363281 125.632812 L 38.386719 125.632812 L 38.40625 125.628906 L 38.429688 125.625 L 38.453125 125.617188 L 38.511719 125.59375 L 38.53125 125.582031 L 38.550781 125.574219 L 38.570312 125.558594 L 38.589844 125.546875 L 38.609375 125.53125 L 38.625 125.511719 L 38.640625 125.496094 L 38.65625 125.476562 L 38.671875 125.453125 L 38.6875 125.433594 L 38.703125 125.410156 L 38.738281 125.328125 L 38.761719 125.265625 L 38.773438 125.230469 L 38.78125 125.195312 L 38.792969 125.160156 L 38.816406 125.042969 L 38.820312 125 L 38.828125 124.953125 L 38.835938 124.859375 L 38.84375 124.757812 Z M 35.59375 122.894531 L 35.59375 122.777344 L 35.589844 122.722656 L 35.589844 122.667969 L 35.585938 122.613281 L 35.582031 122.566406 L 35.578125 122.515625 L 35.574219 122.472656 L 35.566406 122.425781 L 35.558594 122.386719 L 35.554688 122.347656 L 35.546875 122.308594 L 35.535156 122.269531 L 35.527344 122.238281 L 35.519531 122.203125 L 35.496094 122.140625 L 35.472656 122.085938 L 35.460938 122.0625 L 35.445312 122.039062 L 35.433594 122.015625 L 35.386719 121.957031 L 35.371094 121.941406 L 35.351562 121.925781 L 35.335938 121.910156 L 35.316406 121.898438 L 35.296875 121.890625 L 35.277344 121.878906 L 35.238281 121.863281 L 35.214844 121.855469 L 35.195312 121.851562 L 35.125 121.839844 L 35.023438 121.839844 L 34.996094 121.84375 L 34.949219 121.851562 L 34.925781 121.859375 L 34.902344 121.863281 L 34.878906 121.871094 L 34.859375 121.882812 L 34.839844 121.890625 L 34.816406 121.902344 L 34.800781 121.914062 L 34.761719 121.945312 L 34.730469 121.976562 L 34.714844 121.996094 L 34.699219 122.019531 L 34.683594 122.039062 L 34.667969 122.0625 L 34.632812 122.144531 L 34.597656 122.238281 L 34.589844 122.273438 L 34.582031 122.3125 L 34.574219 122.347656 L 34.566406 122.390625 L 34.558594 122.429688 L 34.554688 122.472656 L 34.546875 122.519531 L 34.542969 122.566406 L 34.539062 122.617188 L 34.539062 122.667969 L 34.53125 122.777344 L 34.53125 123.011719 L 34.535156 123.066406 L 34.539062 123.117188 L 34.539062 123.167969 L 34.542969 123.21875 L 34.546875 123.265625 L 34.554688 123.3125 L 34.558594 123.355469 L 34.589844 123.511719 L 34.601562 123.546875 L 34.609375 123.578125 L 34.644531 123.671875 L 34.65625 123.699219 L 34.667969 123.722656 L 34.699219 123.769531 L 34.746094 123.828125 L 34.761719 123.84375 L 34.800781 123.875 L 34.816406 123.886719 L 34.839844 123.898438 L 34.859375 123.910156 L 34.878906 123.917969 L 34.902344 123.925781 L 34.921875 123.933594 L 34.945312 123.9375 L 34.96875 123.945312 L 34.992188 123.945312 L 35.019531 123.949219 L 35.042969 123.953125 L 35.09375 123.953125 L 35.117188 123.949219 L 35.136719 123.945312 L 35.160156 123.945312 L 35.183594 123.9375 L 35.203125 123.933594 L 35.226562 123.925781 L 35.265625 123.910156 L 35.324219 123.875 L 35.339844 123.859375 L 35.359375 123.84375 L 35.375 123.828125 L 35.421875 123.769531 L 35.4375 123.746094 L 35.449219 123.722656 L 35.464844 123.699219 L 35.476562 123.671875 L 35.523438 123.546875 L 35.53125 123.511719 L 35.539062 123.472656 L 35.550781 123.433594 L 35.558594 123.394531 L 35.5625 123.355469 L 35.570312 123.3125 L 35.574219 123.265625 L 35.582031 123.21875 L 35.589844 123.117188 L 35.589844 123.066406 L 35.59375 123.011719 Z M 35.59375 122.894531 "/>
<path style=" stroke:none;fill-rule:evenodd;fill:rgb(0%,0%,0%);fill-opacity:1;" d="M 94.460938 21.949219 L 94.460938 19.058594 L 97.789062 19.058594 L 97.789062 18.03125 L 94.460938 18.03125 L 94.460938 16.308594 L 97.859375 16.308594 L 97.859375 15.28125 L 93.289062 15.28125 L 93.289062 21.949219 Z M 94.460938 21.949219 "/>
<path style=" stroke:none;fill-rule:evenodd;fill:rgb(0%,0%,0%);fill-opacity:1;" d="M 99.941406 21.949219 L 99.941406 15.28125 L 98.890625 15.28125 L 98.890625 21.949219 Z M 99.941406 21.949219 "/>
<path style=" stroke:none;fill-rule:evenodd;fill:rgb(0%,0%,0%);fill-opacity:1;" d="M 103.488281 22.070312 L 103.933594 22.035156 L 104.339844 21.9375 L 104.703125 21.78125 L 105.027344 21.574219 L 105.308594 21.316406 L 105.539062 21.019531 L 105.726562 20.6875 L 105.859375 20.324219 L 105.941406 19.9375 L 105.96875 19.53125 L 105.941406 19.121094 L 105.859375 18.734375 L 105.726562 18.371094 L 105.539062 18.039062 L 105.308594 17.742188 L 105.027344 17.488281 L 104.703125 17.285156 L 104.339844 17.128906 L 103.933594 17.03125 L 103.488281 17 L 103.046875 17.03125 L 102.640625 17.128906 L 102.273438 17.285156 L 101.953125 17.488281 L 101.671875 17.742188 L 101.4375 18.039062 L 101.253906 18.371094 L 101.121094 18.734375 L 101.039062 19.121094 L 101.011719 19.53125 L 101.039062 19.9375 L 101.121094 20.324219 L 101.253906 20.6875 L 101.4375 21.019531 L 101.671875 21.316406 L 101.953125 21.574219 L 102.273438 21.78125 L 102.640625 21.9375 L 103.046875 22.035156 Z M 103.488281 21.140625 L 103.234375 21.117188 L 103.003906 21.054688 L 102.796875 20.953125 L 102.617188 20.820312 L 102.460938 20.65625 L 102.332031 20.46875 L 102.230469 20.257812 L 102.160156 20.027344 L 102.113281 19.785156 L 102.101562 19.53125 L 102.113281 19.277344 L 102.160156 19.035156 L 102.230469 18.808594 L 102.332031 18.597656 L 102.460938 18.410156 L 102.617188 18.246094 L 102.796875 18.113281 L 103.003906 18.015625 L 103.234375 17.953125 L 103.488281 17.929688 L 103.746094 17.953125 L 103.980469 18.015625 L 104.1875 18.113281 L 104.367188 18.246094 L 104.523438 18.410156 L 104.648438 18.597656 L 104.75 18.808594 L 104.820312 19.035156 L 104.867188 19.277344 L 104.878906 19.53125 L 104.867188 19.785156 L 104.820312 20.027344 L 104.75 20.257812 L 104.648438 20.46875 L 104.523438 20.65625 L 104.367188 20.820312 L 104.1875 20.953125 L 103.980469 21.054688 L 103.746094 21.117188 Z M 103.488281 21.140625 "/>
<path style=" stroke:none;fill-rule:evenodd;fill:rgb(0%,0%,0%);fill-opacity:1;" d="M 108.089844 21.949219 L 108.089844 18.660156 L 108.164062 18.554688 L 108.257812 18.457031 L 108.367188 18.363281 L 108.492188 18.28125 L 108.625 18.203125 L 108.765625 18.136719 L 108.910156 18.082031 L 109.058594 18.042969 L 109.203125 18.019531 L 109.339844 18.007812 L 109.378906 18.007812 L 109.414062 18.011719 L 109.449219 18.011719 L 109.484375 18.015625 L 109.515625 18.015625 L 109.546875 18.019531 L 109.574219 18.023438 L 109.605469 18.027344 L 109.632812 18.035156 L 109.660156 18.039062 L 109.660156 17 L 109.476562 17.011719 L 109.292969 17.039062 L 109.117188 17.089844 L 108.945312 17.15625 L 108.78125 17.238281 L 108.625 17.332031 L 108.476562 17.441406 L 108.335938 17.558594 L 108.207031 17.683594 L 108.089844 17.820312 L 108.089844 17.121094 L 107.039062 17.121094 L 107.039062 21.949219 Z M 108.089844 21.949219 "/>
<path style=" stroke:none;fill-rule:evenodd;fill:rgb(0%,0%,0%);fill-opacity:1;" d="M 111.039062 16.53125 L 111.144531 16.519531 L 111.246094 16.496094 L 111.339844 16.457031 L 111.425781 16.40625 L 111.5 16.339844 L 111.566406 16.265625 L 111.617188 16.179688 L 111.65625 16.085938 L 111.679688 15.984375 L 111.691406 15.878906 L 111.679688 15.773438 L 111.65625 15.671875 L 111.617188 15.582031 L 111.566406 15.496094 L 111.5 15.417969 L 111.425781 15.355469 L 111.339844 15.300781 L 111.246094 15.261719 L 111.144531 15.238281 L 111.039062 15.230469 L 110.933594 15.238281 L 110.835938 15.261719 L 110.742188 15.300781 L 110.65625 15.355469 L 110.578125 15.417969 L 110.515625 15.496094 L 110.460938 15.582031 L 110.421875 15.671875 L 110.398438 15.773438 L 110.390625 15.878906 L 110.398438 15.984375 L 110.421875 16.085938 L 110.460938 16.179688 L 110.515625 16.265625 L 110.578125 16.339844 L 110.65625 16.40625 L 110.742188 16.457031 L 110.835938 16.496094 L 110.933594 16.519531 Z M 111.558594 21.949219 L 111.558594 17.121094 L 110.511719 17.121094 L 110.511719 21.949219 Z M 111.558594 21.949219 "/>
<path style=" stroke:none;fill-rule:evenodd;fill:rgb(0%,0%,0%);fill-opacity:1;" d="M 117.371094 21.949219 L 117.371094 15.28125 L 116.320312 15.28125 L 116.320312 17.789062 L 116.199219 17.640625 L 116.070312 17.507812 L 115.933594 17.390625 L 115.785156 17.285156 L 115.632812 17.199219 L 115.46875 17.128906 L 115.300781 17.070312 L 115.128906 17.03125 L 114.953125 17.007812 L 114.769531 17 L 114.410156 17.027344 L 114.070312 17.113281 L 113.761719 17.25 L 113.480469 17.441406 L 113.234375 17.679688 L 113.027344 17.964844 L 112.859375 18.296875 L 112.734375 18.667969 L 112.65625 19.078125 L 112.628906 19.53125 L 112.65625 19.988281 L 112.734375 20.40625 L 112.859375 20.785156 L 113.027344 21.113281 L 113.238281 21.398438 L 113.484375 21.636719 L 113.765625 21.824219 L 114.074219 21.957031 L 114.410156 22.042969 L 114.769531 22.070312 L 114.957031 22.0625 L 115.136719 22.035156 L 115.3125 21.992188 L 115.480469 21.933594 L 115.640625 21.859375 L 115.796875 21.769531 L 115.941406 21.667969 L 116.078125 21.554688 L 116.203125 21.429688 L 116.320312 21.289062 L 116.320312 21.949219 Z M 115.078125 21.140625 L 114.835938 21.121094 L 114.613281 21.0625 L 114.414062 20.96875 L 114.234375 20.84375 L 114.078125 20.6875 L 113.949219 20.503906 L 113.847656 20.292969 L 113.773438 20.058594 L 113.726562 19.804688 L 113.710938 19.53125 L 113.726562 19.257812 L 113.773438 19.007812 L 113.847656 18.773438 L 113.949219 18.566406 L 114.078125 18.378906 L 114.234375 18.226562 L 114.414062 18.097656 L 114.613281 18.007812 L 114.835938 17.949219 L 115.078125 17.929688 L 115.226562 17.9375 L 115.375 17.960938 L 115.519531 18 L 115.660156 18.054688 L 115.796875 18.121094 L 115.925781 18.195312 L 116.042969 18.28125 L 116.148438 18.375 L 116.242188 18.472656 L 116.320312 18.578125 L 116.320312 20.488281 L 116.242188 20.59375 L 116.148438 20.695312 L 116.042969 20.789062 L 115.925781 20.875 L 115.796875 20.949219 L 115.660156 21.015625 L 115.519531 21.066406 L 115.375 21.105469 L 115.226562 21.132812 Z M 115.078125 21.140625 "/>
<path style=" stroke:none;fill-rule:evenodd;fill:rgb(0%,0%,0%);fill-opacity:1;" d="M 122.738281 21.949219 L 122.738281 18.738281 L 122.710938 18.378906 L 122.632812 18.0625 L 122.507812 17.792969 L 122.339844 17.570312 L 122.136719 17.386719 L 121.898438 17.242188 L 121.632812 17.132812 L 121.34375 17.054688 L 121.039062 17.011719 L 120.71875 17 L 120.492188 17.007812 L 120.265625 17.027344 L 120.046875 17.066406 L 119.835938 17.117188 L 119.625 17.1875 L 119.425781 17.273438 L 119.230469 17.371094 L 119.042969 17.492188 L 118.863281 17.625 L 118.691406 17.78125 L 119.128906 18.507812 L 119.253906 18.390625 L 119.382812 18.285156 L 119.519531 18.191406 L 119.65625 18.109375 L 119.796875 18.042969 L 119.941406 17.988281 L 120.089844 17.945312 L 120.242188 17.914062 L 120.398438 17.894531 L 120.558594 17.890625 L 120.753906 17.898438 L 120.929688 17.929688 L 121.09375 17.976562 L 121.242188 18.046875 L 121.371094 18.128906 L 121.480469 18.230469 L 121.570312 18.347656 L 121.636719 18.480469 L 121.675781 18.628906 L 121.691406 18.789062 L 121.691406 19.507812 L 121.578125 19.390625 L 121.453125 19.289062 L 121.316406 19.195312 L 121.171875 19.113281 L 121.015625 19.046875 L 120.855469 18.988281 L 120.683594 18.945312 L 120.503906 18.914062 L 120.316406 18.894531 L 120.121094 18.890625 L 119.882812 18.902344 L 119.644531 18.945312 L 119.410156 19.019531 L 119.191406 19.125 L 118.988281 19.257812 L 118.808594 19.429688 L 118.660156 19.632812 L 118.546875 19.875 L 118.476562 20.152344 L 118.449219 20.46875 L 118.476562 20.773438 L 118.546875 21.042969 L 118.664062 21.28125 L 118.8125 21.492188 L 118.992188 21.667969 L 119.195312 21.8125 L 119.414062 21.925781 L 119.648438 22.003906 L 119.882812 22.054688 L 120.121094 22.070312 L 120.308594 22.0625 L 120.496094 22.042969 L 120.671875 22.007812 L 120.84375 21.960938 L 121.011719 21.902344 L 121.167969 21.828125 L 121.3125 21.746094 L 121.449219 21.648438 L 121.574219 21.539062 L 121.691406 21.417969 L 121.691406 21.949219 Z M 120.539062 21.347656 L 120.367188 21.339844 L 120.207031 21.308594 L 120.054688 21.261719 L 119.917969 21.195312 L 119.796875 21.113281 L 119.695312 21.015625 L 119.613281 20.902344 L 119.550781 20.773438 L 119.511719 20.632812 L 119.5 20.480469 L 119.511719 20.328125 L 119.550781 20.1875 L 119.613281 20.0625 L 119.695312 19.949219 L 119.796875 19.847656 L 119.917969 19.765625 L 120.054688 19.699219 L 120.207031 19.648438 L 120.367188 19.621094 L 120.539062 19.609375 L 120.675781 19.613281 L 120.808594 19.628906 L 120.941406 19.65625 L 121.066406 19.691406 L 121.191406 19.734375 L 121.308594 19.789062 L 121.417969 19.855469 L 121.519531 19.929688 L 121.609375 20.015625 L 121.691406 20.109375 L 121.691406 20.847656 L 121.609375 20.945312 L 121.519531 21.027344 L 121.417969 21.101562 L 121.308594 21.167969 L 121.191406 21.222656 L 121.066406 21.269531 L 120.941406 21.304688 L 120.808594 21.328125 L 120.675781 21.34375 Z M 120.539062 21.347656 "/>
</g>
</svg>
