<?xml version="1.0" encoding="UTF-8"?>
<svg xmlns="http://www.w3.org/2000/svg" xmlns:xlink="http://www.w3.org/1999/xlink" width="216pt" height="216pt" viewBox="0 0 216 216" version="1.1">
<g id="surface488">
<path style=" stroke:none;fill-rule:nonzero;fill:rgb(98.431373%,66.666667%,49.411765%);fill-opacity:1;" d="M 108 115.054688 L 112.820312 118.039062 L 115.226562 119.527344 L 120.046875 122.511719 L 122.457031 124 L 127.277344 126.984375 L 129.683594 128.476562 L 132.09375 129.964844 L 139.324219 134.441406 L 141.730469 135.929688 L 148.960938 140.40625 L 151.371094 141.894531 L 153.777344 143.386719 L 155.179688 140.984375 L 156.457031 138.515625 L 157.605469 135.980469 L 158.617188 133.394531 L 159.496094 130.753906 L 160.238281 128.074219 L 160.84375 125.359375 L 161.304688 122.617188 L 161.621094 119.855469 L 161.800781 117.078125 L 161.832031 114.300781 L 161.722656 111.519531 L 161.46875 108.75 L 161.070312 106 L 160.53125 103.269531 L 159.851562 100.574219 L 159.035156 97.914062 L 158.082031 95.304688 L 156.996094 92.742188 L 155.78125 90.242188 L 154.433594 87.808594 L 152.964844 85.449219 L 151.378906 83.167969 L 149.671875 80.96875 L 147.855469 78.863281 L 145.933594 76.851562 L 143.914062 74.945312 L 141.792969 73.144531 L 139.585938 71.457031 L 137.289062 69.882812 L 134.917969 68.429688 L 132.476562 67.101562 L 129.96875 65.902344 L 127.398438 64.835938 L 124.78125 63.898438 L 122.117188 63.101562 L 119.414062 62.441406 L 116.683594 61.921875 L 113.929688 61.542969 L 111.15625 61.308594 L 108.378906 61.21875 L 108.359375 64.050781 L 108.339844 66.886719 L 108.320312 69.71875 L 108.296875 72.550781 L 108.277344 75.386719 L 108.257812 78.21875 L 108.238281 81.054688 L 108.199219 86.71875 L 108.179688 89.554688 L 108.140625 95.21875 L 108.121094 98.054688 L 108.097656 100.886719 L 108.078125 103.722656 L 108.039062 109.386719 L 108.019531 112.222656 Z M 108 115.054688 "/>
<path style=" stroke:none;fill-rule:nonzero;fill:rgb(98.431373%,79.607843%,53.333333%);fill-opacity:1;" d="M 108 115.054688 L 108.207031 117.878906 L 108.414062 120.707031 L 108.625 123.53125 L 108.832031 126.359375 L 109.039062 129.183594 L 109.246094 132.011719 L 109.453125 134.835938 L 109.664062 137.664062 L 110.078125 143.3125 L 110.285156 146.140625 L 110.492188 148.964844 L 110.699219 151.792969 L 110.910156 154.617188 L 111.117188 157.445312 L 111.53125 163.09375 L 111.738281 165.921875 L 111.949219 168.746094 L 114.753906 168.46875 L 117.542969 168.039062 L 120.304688 167.46875 L 123.03125 166.75 L 125.71875 165.890625 L 128.359375 164.894531 L 130.941406 163.761719 L 133.460938 162.492188 L 135.910156 161.09375 L 138.28125 159.566406 L 140.574219 157.921875 L 142.773438 156.15625 L 144.878906 154.277344 L 146.882812 152.292969 L 148.777344 150.207031 L 150.5625 148.019531 L 152.230469 145.746094 L 153.777344 143.386719 L 151.371094 141.894531 L 148.960938 140.40625 L 141.730469 135.929688 L 139.324219 134.441406 L 132.09375 129.964844 L 129.683594 128.476562 L 127.277344 126.984375 L 122.457031 124 L 120.046875 122.511719 L 115.226562 119.527344 L 112.820312 118.039062 Z M 108 115.054688 "/>
<path style=" stroke:none;fill-rule:nonzero;fill:rgb(96.862745%,93.333333%,74.901961%);fill-opacity:1;" d="M 108 115.054688 L 108.019531 112.222656 L 108.039062 109.386719 L 108.078125 103.722656 L 108.097656 100.886719 L 108.121094 98.054688 L 108.140625 95.21875 L 108.179688 89.554688 L 108.199219 86.71875 L 108.238281 81.054688 L 108.257812 78.21875 L 108.277344 75.386719 L 108.296875 72.550781 L 108.320312 69.71875 L 108.339844 66.886719 L 108.359375 64.050781 L 108.378906 61.21875 L 105.625 61.269531 L 102.878906 61.460938 L 100.144531 61.792969 L 97.433594 62.265625 L 94.75 62.875 L 92.097656 63.617188 L 89.488281 64.5 L 86.929688 65.511719 L 84.425781 66.652344 L 81.980469 67.921875 L 79.605469 69.3125 L 77.304688 70.824219 L 75.082031 72.453125 L 72.949219 74.191406 L 70.90625 76.035156 L 68.960938 77.984375 L 67.117188 80.027344 L 65.378906 82.164062 L 63.753906 84.386719 L 62.242188 86.6875 L 60.851562 89.0625 L 59.585938 91.507812 L 58.445312 94.011719 L 57.433594 96.574219 L 56.554688 99.183594 L 55.8125 101.835938 L 55.203125 104.519531 L 54.734375 107.230469 L 54.402344 109.964844 L 54.214844 112.710938 L 54.164062 115.464844 L 54.253906 118.214844 L 54.488281 120.960938 L 54.859375 123.6875 L 55.371094 126.394531 L 56.019531 129.066406 L 56.800781 131.707031 L 57.722656 134.304688 L 58.769531 136.847656 L 59.949219 139.335938 L 61.253906 141.761719 L 62.679688 144.117188 L 64.222656 146.394531 L 65.882812 148.589844 L 67.652344 150.699219 L 69.527344 152.714844 L 71.503906 154.632812 L 73.574219 156.449219 L 75.734375 158.152344 L 77.980469 159.746094 L 80.304688 161.222656 L 82.703125 162.578125 L 85.164062 163.808594 L 87.6875 164.914062 L 90.261719 165.886719 L 92.882812 166.726562 L 95.542969 167.429688 L 98.238281 168 L 100.957031 168.429688 L 103.695312 168.71875 L 106.445312 168.871094 L 109.199219 168.878906 L 111.949219 168.746094 L 111.738281 165.921875 L 111.53125 163.09375 L 111.117188 157.445312 L 110.910156 154.617188 L 110.699219 151.792969 L 110.492188 148.964844 L 110.285156 146.140625 L 110.078125 143.3125 L 109.664062 137.664062 L 109.453125 134.835938 L 109.246094 132.011719 L 109.039062 129.183594 L 108.832031 126.359375 L 108.625 123.53125 L 108.414062 120.707031 L 108.207031 117.878906 Z M 108 115.054688 "/>
<path style=" stroke:none;fill-rule:evenodd;fill:rgb(0%,0%,0%);fill-opacity:1;" d="M 173.574219 85.039062 L 173.570312 85.097656 L 173.570312 85.15625 L 173.5625 85.214844 L 173.558594 85.269531 L 173.546875 85.324219 L 173.539062 85.378906 L 173.492188 85.53125 L 173.453125 85.625 L 173.429688 85.671875 L 173.40625 85.714844 L 173.378906 85.757812 L 173.324219 85.835938 L 173.292969 85.875 L 173.257812 85.914062 L 173.222656 85.949219 L 173.1875 85.980469 L 173.148438 86.011719 L 173.105469 86.042969 L 173.066406 86.070312 L 172.972656 86.125 L 172.878906 86.171875 L 172.824219 86.191406 L 172.773438 86.214844 L 172.714844 86.230469 L 172.660156 86.246094 L 172.601562 86.261719 L 172.542969 86.273438 L 172.480469 86.285156 L 172.355469 86.300781 L 172.289062 86.308594 L 172.148438 86.316406 L 172 86.316406 L 171.84375 86.308594 L 171.773438 86.300781 L 171.703125 86.289062 L 171.632812 86.28125 L 171.570312 86.265625 L 171.503906 86.25 L 171.445312 86.234375 L 171.386719 86.214844 L 171.332031 86.195312 L 171.179688 86.125 L 171.132812 86.097656 L 171.089844 86.070312 L 171.046875 86.039062 L 171.003906 86.011719 L 170.964844 85.980469 L 170.929688 85.945312 L 170.894531 85.914062 L 170.859375 85.878906 L 170.828125 85.839844 L 170.796875 85.804688 L 170.769531 85.765625 L 170.742188 85.730469 L 170.71875 85.6875 L 170.695312 85.648438 L 170.675781 85.609375 L 170.65625 85.566406 L 170.640625 85.523438 L 170.621094 85.480469 L 170.609375 85.433594 L 170.59375 85.390625 L 170.582031 85.347656 L 170.570312 85.300781 L 170.558594 85.257812 L 170.550781 85.210938 L 170.542969 85.167969 L 170.539062 85.121094 L 171.121094 85.070312 L 171.125 85.101562 L 171.132812 85.136719 L 171.136719 85.171875 L 171.144531 85.203125 L 171.15625 85.234375 L 171.164062 85.265625 L 171.175781 85.296875 L 171.183594 85.328125 L 171.199219 85.359375 L 171.222656 85.414062 L 171.253906 85.46875 L 171.273438 85.496094 L 171.289062 85.519531 L 171.308594 85.546875 L 171.328125 85.570312 L 171.351562 85.589844 L 171.371094 85.613281 L 171.394531 85.632812 L 171.417969 85.65625 L 171.441406 85.671875 L 171.496094 85.710938 L 171.550781 85.742188 L 171.582031 85.753906 L 171.613281 85.769531 L 171.644531 85.78125 L 171.714844 85.804688 L 171.75 85.8125 L 171.785156 85.824219 L 171.824219 85.828125 L 171.863281 85.835938 L 171.902344 85.839844 L 171.988281 85.847656 L 172.035156 85.847656 L 172.078125 85.851562 L 172.164062 85.847656 L 172.242188 85.839844 L 172.316406 85.832031 L 172.390625 85.816406 L 172.457031 85.796875 L 172.523438 85.773438 L 172.582031 85.746094 L 172.640625 85.714844 L 172.695312 85.679688 L 172.746094 85.640625 L 172.792969 85.597656 L 172.871094 85.496094 L 172.902344 85.441406 L 172.949219 85.316406 L 172.980469 85.175781 L 172.988281 85.019531 L 172.988281 84.972656 L 172.984375 84.925781 L 172.980469 84.882812 L 172.972656 84.839844 L 172.949219 84.761719 L 172.917969 84.691406 L 172.898438 84.65625 L 172.878906 84.628906 L 172.855469 84.597656 L 172.835938 84.570312 L 172.785156 84.519531 L 172.730469 84.472656 L 172.703125 84.453125 L 172.609375 84.394531 L 172.546875 84.363281 L 172.476562 84.339844 L 172.441406 84.324219 L 172.40625 84.316406 L 172.371094 84.304688 L 172.335938 84.296875 L 172.296875 84.289062 L 172.261719 84.285156 L 172.222656 84.277344 L 172.1875 84.273438 L 172.148438 84.269531 L 172.078125 84.261719 L 172.046875 84.261719 L 172.011719 84.257812 L 171.945312 84.257812 L 171.914062 84.253906 L 171.59375 84.253906 L 171.59375 83.769531 L 171.933594 83.769531 L 171.964844 83.765625 L 171.996094 83.765625 L 172.03125 83.761719 L 172.0625 83.761719 L 172.097656 83.757812 L 172.128906 83.753906 L 172.164062 83.75 L 172.199219 83.742188 L 172.230469 83.738281 L 172.300781 83.722656 L 172.332031 83.710938 L 172.363281 83.703125 L 172.394531 83.691406 L 172.425781 83.675781 L 172.457031 83.664062 L 172.488281 83.648438 L 172.542969 83.617188 L 172.574219 83.601562 L 172.601562 83.582031 L 172.625 83.558594 L 172.652344 83.539062 L 172.699219 83.492188 L 172.71875 83.464844 L 172.742188 83.441406 L 172.761719 83.414062 L 172.777344 83.382812 L 172.796875 83.351562 L 172.828125 83.289062 L 172.839844 83.253906 L 172.847656 83.214844 L 172.859375 83.179688 L 172.863281 83.136719 L 172.871094 83.097656 L 172.871094 82.9375 L 172.863281 82.875 L 172.855469 82.808594 L 172.839844 82.75 L 172.820312 82.691406 L 172.796875 82.640625 L 172.769531 82.585938 L 172.738281 82.539062 L 172.703125 82.496094 L 172.664062 82.453125 L 172.621094 82.414062 L 172.574219 82.378906 L 172.519531 82.347656 L 172.464844 82.320312 L 172.40625 82.296875 L 172.34375 82.277344 L 172.203125 82.253906 L 172.128906 82.246094 L 171.976562 82.246094 L 171.835938 82.261719 L 171.710938 82.292969 L 171.652344 82.316406 L 171.597656 82.339844 L 171.542969 82.367188 L 171.492188 82.398438 L 171.445312 82.4375 L 171.402344 82.476562 L 171.359375 82.519531 L 171.324219 82.566406 L 171.292969 82.613281 L 171.238281 82.722656 L 171.21875 82.78125 L 171.203125 82.839844 L 171.1875 82.90625 L 171.179688 82.972656 L 170.613281 82.929688 L 170.621094 82.871094 L 170.628906 82.816406 L 170.640625 82.761719 L 170.6875 82.609375 L 170.707031 82.558594 L 170.726562 82.511719 L 170.796875 82.382812 L 170.824219 82.339844 L 170.851562 82.300781 L 170.882812 82.261719 L 170.945312 82.191406 L 170.980469 82.160156 L 171.015625 82.125 L 171.050781 82.097656 L 171.089844 82.066406 L 171.167969 82.011719 L 171.210938 81.988281 L 171.25 81.964844 L 171.296875 81.941406 L 171.339844 81.921875 L 171.386719 81.902344 L 171.527344 81.855469 L 171.578125 81.839844 L 171.628906 81.828125 L 171.679688 81.820312 L 171.730469 81.808594 L 171.785156 81.800781 L 171.835938 81.792969 L 171.945312 81.785156 L 172 81.785156 L 172.054688 81.78125 L 172.125 81.785156 L 172.199219 81.785156 L 172.265625 81.792969 L 172.332031 81.796875 L 172.398438 81.804688 L 172.460938 81.816406 L 172.519531 81.828125 L 172.578125 81.84375 L 172.632812 81.859375 L 172.6875 81.878906 L 172.742188 81.894531 L 172.789062 81.914062 L 172.839844 81.9375 L 172.886719 81.960938 L 172.929688 81.984375 L 172.972656 82.011719 L 173.050781 82.066406 L 173.089844 82.097656 L 173.125 82.128906 L 173.1875 82.191406 L 173.269531 82.296875 L 173.316406 82.375 L 173.335938 82.414062 L 173.351562 82.453125 L 173.371094 82.496094 L 173.386719 82.539062 L 173.410156 82.625 L 173.421875 82.671875 L 173.429688 82.714844 L 173.445312 82.808594 L 173.449219 82.855469 L 173.449219 82.902344 L 173.453125 82.949219 L 173.449219 82.988281 L 173.449219 83.027344 L 173.445312 83.0625 L 173.441406 83.101562 L 173.433594 83.171875 L 173.410156 83.277344 L 173.398438 83.3125 L 173.386719 83.34375 L 173.375 83.378906 L 173.359375 83.410156 L 173.347656 83.441406 L 173.332031 83.472656 L 173.3125 83.5 L 173.292969 83.53125 L 173.234375 83.613281 L 173.210938 83.640625 L 173.160156 83.691406 L 173.105469 83.738281 L 173.042969 83.785156 L 173.011719 83.804688 L 172.980469 83.828125 L 172.945312 83.847656 L 172.910156 83.863281 L 172.875 83.882812 L 172.835938 83.898438 L 172.796875 83.917969 L 172.753906 83.929688 L 172.710938 83.945312 L 172.667969 83.957031 L 172.625 83.972656 L 172.578125 83.984375 L 172.527344 83.992188 L 172.527344 84.003906 L 172.582031 84.011719 L 172.683594 84.027344 L 172.824219 84.0625 L 172.953125 84.109375 L 172.992188 84.128906 L 173.03125 84.144531 L 173.066406 84.164062 L 173.105469 84.1875 L 173.136719 84.207031 L 173.171875 84.230469 L 173.234375 84.277344 L 173.261719 84.300781 L 173.34375 84.382812 L 173.367188 84.414062 L 173.386719 84.441406 L 173.410156 84.472656 L 173.429688 84.503906 L 173.445312 84.535156 L 173.464844 84.566406 L 173.480469 84.601562 L 173.496094 84.632812 L 173.542969 84.773438 L 173.550781 84.8125 L 173.558594 84.847656 L 173.5625 84.886719 L 173.566406 84.921875 L 173.574219 85 Z M 173.574219 85.039062 "/>
<path style=" stroke:none;fill-rule:evenodd;fill:rgb(0%,0%,0%);fill-opacity:1;" d="M 176.609375 85.257812 L 176.609375 86.253906 L 176.078125 86.253906 L 176.078125 85.257812 L 174 85.257812 L 174 84.820312 L 176.019531 81.847656 L 176.609375 81.847656 L 176.609375 84.8125 L 177.226562 84.8125 L 177.226562 85.257812 Z M 176.078125 82.484375 L 176.074219 82.488281 L 176.074219 82.492188 L 176.070312 82.496094 L 176.070312 82.5 L 176.066406 82.507812 L 176.0625 82.511719 L 176.050781 82.535156 L 176.046875 82.546875 L 176.039062 82.554688 L 176.035156 82.5625 L 176.03125 82.574219 L 176.023438 82.582031 L 176.019531 82.59375 L 176.011719 82.601562 L 176.007812 82.613281 L 176 82.625 L 175.996094 82.636719 L 175.988281 82.644531 L 175.984375 82.65625 L 175.96875 82.679688 L 175.964844 82.691406 L 175.949219 82.714844 L 175.945312 82.726562 L 175.929688 82.75 L 175.925781 82.761719 L 175.910156 82.785156 L 175.90625 82.792969 L 175.898438 82.804688 L 175.894531 82.8125 L 175.886719 82.824219 L 175.878906 82.839844 L 175.871094 82.847656 L 175.867188 82.855469 L 174.738281 84.519531 L 174.730469 84.527344 L 174.726562 84.535156 L 174.722656 84.539062 L 174.710938 84.5625 L 174.699219 84.574219 L 174.691406 84.585938 L 174.6875 84.59375 L 174.679688 84.601562 L 174.675781 84.609375 L 174.667969 84.617188 L 174.664062 84.625 L 174.65625 84.632812 L 174.652344 84.640625 L 174.644531 84.652344 L 174.640625 84.660156 L 174.625 84.675781 L 174.621094 84.683594 L 174.613281 84.691406 L 174.609375 84.699219 L 174.601562 84.710938 L 174.59375 84.71875 L 174.589844 84.726562 L 174.582031 84.734375 L 174.578125 84.742188 L 174.5625 84.757812 L 174.558594 84.765625 L 174.546875 84.777344 L 174.539062 84.792969 L 174.53125 84.796875 L 174.527344 84.800781 L 174.523438 84.808594 L 174.519531 84.8125 L 176.078125 84.8125 Z M 176.078125 82.484375 "/>
<path style=" stroke:none;fill-rule:evenodd;fill:rgb(0%,0%,0%);fill-opacity:1;" d="M 182.878906 84.898438 L 182.878906 84.972656 L 182.871094 85.121094 L 182.867188 85.191406 L 182.859375 85.257812 L 182.851562 85.320312 L 182.828125 85.445312 L 182.78125 85.609375 L 182.765625 85.660156 L 182.726562 85.753906 L 182.703125 85.796875 L 182.683594 85.839844 L 182.660156 85.878906 L 182.632812 85.917969 L 182.609375 85.953125 L 182.582031 85.988281 L 182.527344 86.050781 L 182.496094 86.078125 L 182.46875 86.101562 L 182.4375 86.128906 L 182.402344 86.148438 L 182.371094 86.171875 L 182.335938 86.191406 L 182.265625 86.222656 L 182.230469 86.234375 L 182.191406 86.246094 L 182.15625 86.257812 L 182.039062 86.28125 L 181.960938 86.289062 L 181.796875 86.289062 L 181.71875 86.28125 L 181.601562 86.257812 L 181.566406 86.246094 L 181.527344 86.234375 L 181.492188 86.222656 L 181.421875 86.191406 L 181.386719 86.171875 L 181.355469 86.148438 L 181.324219 86.128906 L 181.292969 86.101562 L 181.261719 86.078125 L 181.234375 86.050781 L 181.179688 85.988281 L 181.152344 85.953125 L 181.128906 85.917969 L 181.058594 85.800781 L 181.039062 85.753906 L 181.019531 85.710938 L 181.003906 85.660156 L 180.984375 85.613281 L 180.953125 85.503906 L 180.929688 85.386719 L 180.921875 85.324219 L 180.90625 85.191406 L 180.898438 85.050781 L 180.894531 84.972656 L 180.894531 84.816406 L 180.898438 84.734375 L 180.90625 84.585938 L 180.914062 84.515625 L 180.921875 84.449219 L 180.929688 84.386719 L 180.941406 84.324219 L 180.953125 84.265625 L 180.96875 84.207031 L 181 84.105469 L 181.019531 84.054688 L 181.039062 84.007812 L 181.058594 83.964844 L 181.082031 83.921875 L 181.101562 83.882812 L 181.128906 83.847656 L 181.152344 83.808594 L 181.234375 83.714844 L 181.261719 83.6875 L 181.355469 83.617188 L 181.390625 83.597656 L 181.421875 83.582031 L 181.457031 83.566406 L 181.496094 83.550781 L 181.53125 83.539062 L 181.570312 83.527344 L 181.609375 83.519531 L 181.644531 83.511719 L 181.6875 83.503906 L 181.726562 83.496094 L 181.765625 83.492188 L 181.808594 83.488281 L 181.972656 83.488281 L 182.050781 83.496094 L 182.167969 83.519531 L 182.203125 83.527344 L 182.238281 83.539062 L 182.277344 83.550781 L 182.347656 83.582031 L 182.378906 83.597656 L 182.414062 83.617188 L 182.476562 83.664062 L 182.503906 83.6875 L 182.535156 83.714844 L 182.589844 83.777344 L 182.613281 83.808594 L 182.640625 83.847656 L 182.664062 83.882812 L 182.6875 83.921875 L 182.707031 83.964844 L 182.730469 84.007812 L 182.75 84.054688 L 182.765625 84.105469 L 182.785156 84.15625 L 182.800781 84.207031 L 182.816406 84.265625 L 182.828125 84.324219 L 182.851562 84.449219 L 182.859375 84.515625 L 182.867188 84.585938 L 182.875 84.734375 L 182.878906 84.816406 Z M 179.0625 86.253906 L 178.578125 86.253906 L 181.460938 81.847656 L 181.949219 81.847656 Z M 178.648438 81.8125 L 178.726562 81.8125 L 178.804688 81.820312 L 178.839844 81.828125 L 178.878906 81.835938 L 178.914062 81.84375 L 178.953125 81.851562 L 178.988281 81.863281 L 179.023438 81.878906 L 179.058594 81.890625 L 179.128906 81.921875 L 179.160156 81.941406 L 179.253906 82.011719 L 179.308594 82.066406 L 179.335938 82.097656 L 179.390625 82.167969 L 179.414062 82.203125 L 179.433594 82.242188 L 179.457031 82.285156 L 179.476562 82.328125 L 179.496094 82.375 L 179.515625 82.425781 L 179.53125 82.472656 L 179.5625 82.582031 L 179.585938 82.699219 L 179.597656 82.765625 L 179.613281 82.898438 L 179.621094 83.046875 L 179.625 83.125 L 179.625 83.28125 L 179.621094 83.359375 L 179.613281 83.5 L 179.597656 83.632812 L 179.585938 83.695312 L 179.5625 83.8125 L 179.53125 83.921875 L 179.511719 83.972656 L 179.496094 84.019531 L 179.476562 84.066406 L 179.453125 84.113281 L 179.433594 84.15625 L 179.386719 84.234375 L 179.359375 84.269531 L 179.335938 84.304688 L 179.308594 84.339844 L 179.25 84.398438 L 179.222656 84.421875 L 179.191406 84.449219 L 179.160156 84.472656 L 179.125 84.492188 L 179.09375 84.511719 L 179.023438 84.542969 L 178.984375 84.558594 L 178.949219 84.570312 L 178.910156 84.578125 L 178.871094 84.589844 L 178.835938 84.597656 L 178.796875 84.605469 L 178.753906 84.609375 L 178.714844 84.613281 L 178.675781 84.613281 L 178.632812 84.617188 L 178.59375 84.613281 L 178.550781 84.613281 L 178.472656 84.605469 L 178.429688 84.597656 L 178.394531 84.589844 L 178.355469 84.578125 L 178.316406 84.570312 L 178.28125 84.558594 L 178.242188 84.542969 L 178.171875 84.511719 L 178.140625 84.492188 L 178.105469 84.472656 L 178.074219 84.449219 L 178.042969 84.421875 L 178.011719 84.398438 L 177.984375 84.367188 L 177.953125 84.339844 L 177.925781 84.304688 L 177.902344 84.273438 L 177.832031 84.15625 L 177.808594 84.113281 L 177.789062 84.070312 L 177.75 83.976562 L 177.734375 83.925781 L 177.703125 83.816406 L 177.679688 83.699219 L 177.671875 83.636719 L 177.660156 83.570312 L 177.65625 83.503906 L 177.648438 83.433594 L 177.644531 83.359375 L 177.644531 83.046875 L 177.648438 82.972656 L 177.65625 82.898438 L 177.660156 82.832031 L 177.671875 82.765625 L 177.679688 82.699219 L 177.703125 82.582031 L 177.734375 82.472656 L 177.75 82.425781 L 177.769531 82.375 L 177.789062 82.328125 L 177.808594 82.285156 L 177.832031 82.242188 L 177.855469 82.203125 L 177.878906 82.167969 L 177.90625 82.132812 L 177.929688 82.097656 L 177.957031 82.066406 L 177.988281 82.039062 L 178.015625 82.011719 L 178.109375 81.941406 L 178.144531 81.921875 L 178.214844 81.890625 L 178.25 81.878906 L 178.285156 81.863281 L 178.324219 81.851562 L 178.480469 81.820312 L 178.523438 81.816406 L 178.5625 81.8125 Z M 182.417969 84.898438 L 182.417969 84.835938 L 182.414062 84.777344 L 182.414062 84.71875 L 182.410156 84.667969 L 182.40625 84.613281 L 182.402344 84.5625 L 182.394531 84.46875 L 182.386719 84.425781 L 182.382812 84.382812 L 182.367188 84.304688 L 182.359375 84.269531 L 182.347656 84.230469 L 182.339844 84.199219 L 182.316406 84.136719 L 182.292969 84.082031 L 182.277344 84.054688 L 182.265625 84.03125 L 182.25 84.011719 L 182.238281 83.988281 L 182.222656 83.96875 L 182.203125 83.953125 L 182.1875 83.933594 L 182.171875 83.921875 L 182.152344 83.90625 L 182.113281 83.882812 L 182.074219 83.867188 L 182.050781 83.859375 L 182.03125 83.851562 L 182.007812 83.847656 L 181.988281 83.839844 L 181.964844 83.839844 L 181.941406 83.835938 L 181.914062 83.835938 L 181.890625 83.832031 L 181.867188 83.835938 L 181.839844 83.835938 L 181.746094 83.851562 L 181.722656 83.859375 L 181.703125 83.867188 L 181.679688 83.875 L 181.601562 83.921875 L 181.585938 83.9375 L 181.566406 83.953125 L 181.519531 84.011719 L 181.503906 84.035156 L 181.492188 84.058594 L 181.476562 84.085938 L 181.464844 84.109375 L 181.453125 84.140625 L 181.441406 84.167969 L 181.429688 84.203125 L 181.421875 84.234375 L 181.410156 84.269531 L 181.386719 84.386719 L 181.382812 84.429688 L 181.375 84.472656 L 181.367188 84.566406 L 181.359375 84.667969 L 181.355469 84.722656 L 181.355469 85.066406 L 181.367188 85.21875 L 181.371094 85.265625 L 181.375 85.308594 L 181.382812 85.351562 L 181.386719 85.394531 L 181.394531 85.433594 L 181.402344 85.46875 L 181.414062 85.507812 L 181.421875 85.542969 L 181.433594 85.574219 L 181.441406 85.605469 L 181.453125 85.636719 L 181.476562 85.691406 L 181.492188 85.71875 L 181.503906 85.742188 L 181.519531 85.765625 L 181.566406 85.824219 L 181.582031 85.839844 L 181.621094 85.871094 L 181.636719 85.882812 L 181.65625 85.894531 L 181.675781 85.902344 L 181.699219 85.914062 L 181.71875 85.921875 L 181.742188 85.929688 L 181.765625 85.933594 L 181.785156 85.9375 L 181.8125 85.941406 L 181.835938 85.945312 L 181.933594 85.945312 L 181.957031 85.941406 L 181.976562 85.9375 L 182.023438 85.929688 L 182.0625 85.914062 L 182.085938 85.902344 L 182.105469 85.894531 L 182.125 85.882812 L 182.140625 85.871094 L 182.179688 85.839844 L 182.195312 85.824219 L 182.210938 85.804688 L 182.230469 85.785156 L 182.242188 85.765625 L 182.273438 85.71875 L 182.285156 85.691406 L 182.300781 85.664062 L 182.3125 85.636719 L 182.324219 85.605469 L 182.332031 85.574219 L 182.34375 85.542969 L 182.355469 85.507812 L 182.363281 85.46875 L 182.371094 85.433594 L 182.378906 85.394531 L 182.386719 85.351562 L 182.390625 85.308594 L 182.398438 85.265625 L 182.402344 85.21875 L 182.414062 85.066406 L 182.414062 85.011719 L 182.417969 84.953125 Z M 179.164062 83.207031 L 179.164062 83.03125 L 179.160156 82.976562 L 179.152344 82.875 L 179.144531 82.78125 L 179.136719 82.738281 L 179.132812 82.695312 L 179.117188 82.617188 L 179.109375 82.582031 L 179.097656 82.546875 L 179.089844 82.511719 L 179.078125 82.480469 L 179.066406 82.453125 L 179.054688 82.421875 L 179.042969 82.394531 L 179.019531 82.347656 L 179.003906 82.324219 L 178.957031 82.265625 L 178.941406 82.25 L 178.921875 82.234375 L 178.90625 82.222656 L 178.847656 82.1875 L 178.808594 82.171875 L 178.785156 82.167969 L 178.765625 82.160156 L 178.71875 82.152344 L 178.695312 82.152344 L 178.671875 82.148438 L 178.621094 82.148438 L 178.59375 82.152344 L 178.570312 82.152344 L 178.542969 82.15625 L 178.519531 82.164062 L 178.496094 82.167969 L 178.472656 82.175781 L 178.453125 82.183594 L 178.429688 82.191406 L 178.410156 82.203125 L 178.390625 82.210938 L 178.371094 82.226562 L 178.351562 82.238281 L 178.332031 82.253906 L 178.316406 82.269531 L 178.269531 82.328125 L 178.238281 82.375 L 178.226562 82.398438 L 178.203125 82.453125 L 178.179688 82.515625 L 178.171875 82.550781 L 178.160156 82.585938 L 178.152344 82.621094 L 178.136719 82.699219 L 178.128906 82.742188 L 178.121094 82.828125 L 178.113281 82.878906 L 178.109375 82.925781 L 178.109375 82.980469 L 178.105469 83.03125 L 178.105469 83.089844 L 178.101562 83.144531 L 178.101562 83.265625 L 178.105469 83.320312 L 178.105469 83.375 L 178.109375 83.429688 L 178.109375 83.480469 L 178.113281 83.527344 L 178.121094 83.574219 L 178.125 83.621094 L 178.128906 83.664062 L 178.136719 83.707031 L 178.152344 83.785156 L 178.160156 83.820312 L 178.171875 83.855469 L 178.179688 83.890625 L 178.203125 83.953125 L 178.238281 84.035156 L 178.253906 84.058594 L 178.269531 84.078125 L 178.285156 84.101562 L 178.300781 84.121094 L 178.316406 84.136719 L 178.332031 84.15625 L 178.351562 84.171875 L 178.371094 84.183594 L 178.390625 84.199219 L 178.410156 84.207031 L 178.429688 84.21875 L 178.449219 84.226562 L 178.472656 84.234375 L 178.492188 84.242188 L 178.515625 84.25 L 178.5625 84.257812 L 178.589844 84.261719 L 178.6875 84.261719 L 178.710938 84.257812 L 178.730469 84.253906 L 178.753906 84.25 L 178.773438 84.242188 L 178.796875 84.234375 L 178.835938 84.21875 L 178.855469 84.207031 L 178.875 84.199219 L 178.894531 84.183594 L 178.910156 84.171875 L 178.929688 84.15625 L 178.945312 84.136719 L 178.960938 84.121094 L 178.976562 84.101562 L 178.992188 84.078125 L 179.007812 84.058594 L 179.023438 84.035156 L 179.058594 83.953125 L 179.082031 83.890625 L 179.09375 83.855469 L 179.101562 83.820312 L 179.113281 83.785156 L 179.128906 83.707031 L 179.136719 83.664062 L 179.140625 83.621094 L 179.148438 83.574219 L 179.15625 83.480469 L 179.160156 83.429688 L 179.160156 83.375 L 179.164062 83.320312 Z M 179.164062 83.207031 "/>
<path style=" stroke:none;fill-rule:evenodd;fill:rgb(0%,0%,0%);fill-opacity:1;" d="M 147.585938 183.972656 L 147.585938 183.492188 L 148.710938 183.492188 L 148.710938 180.105469 L 147.714844 180.8125 L 147.714844 180.28125 L 148.757812 179.566406 L 149.273438 179.566406 L 149.273438 183.492188 L 150.347656 183.492188 L 150.347656 183.972656 Z M 147.585938 183.972656 "/>
<path style=" stroke:none;fill-rule:evenodd;fill:rgb(0%,0%,0%);fill-opacity:1;" d="M 153.953125 182.535156 L 153.949219 182.601562 L 153.949219 182.667969 L 153.941406 182.730469 L 153.9375 182.792969 L 153.925781 182.851562 L 153.914062 182.914062 L 153.902344 182.972656 L 153.886719 183.03125 L 153.871094 183.085938 L 153.832031 183.195312 L 153.808594 183.25 L 153.78125 183.300781 L 153.757812 183.351562 L 153.664062 183.492188 L 153.59375 183.578125 L 153.515625 183.65625 L 153.429688 183.726562 L 153.382812 183.761719 L 153.332031 183.792969 L 153.285156 183.824219 L 153.230469 183.851562 L 153.175781 183.875 L 153.121094 183.902344 L 153.0625 183.925781 L 152.945312 183.964844 L 152.882812 183.980469 L 152.816406 183.992188 L 152.75 184.007812 L 152.609375 184.023438 L 152.539062 184.027344 L 152.390625 184.035156 L 152.320312 184.03125 L 152.253906 184.03125 L 152.1875 184.027344 L 152.0625 184.011719 L 152.003906 184.003906 L 151.945312 183.992188 L 151.835938 183.96875 L 151.78125 183.953125 L 151.730469 183.933594 L 151.683594 183.917969 L 151.589844 183.878906 L 151.460938 183.808594 L 151.421875 183.785156 L 151.382812 183.757812 L 151.347656 183.730469 L 151.3125 183.699219 L 151.28125 183.671875 L 151.246094 183.640625 L 151.214844 183.609375 L 151.160156 183.539062 L 151.132812 183.507812 L 151.109375 183.46875 L 151.085938 183.433594 L 151.0625 183.394531 L 151.023438 183.316406 L 150.976562 183.199219 L 150.960938 183.15625 L 150.949219 183.113281 L 150.9375 183.074219 L 150.925781 183.03125 L 150.917969 182.984375 L 151.484375 182.921875 L 151.5 182.96875 L 151.507812 182.996094 L 151.515625 183.019531 L 151.527344 183.042969 L 151.535156 183.066406 L 151.546875 183.09375 L 151.59375 183.1875 L 151.609375 183.210938 L 151.625 183.230469 L 151.640625 183.253906 L 151.65625 183.273438 L 151.671875 183.296875 L 151.75 183.375 L 151.773438 183.390625 L 151.796875 183.410156 L 151.820312 183.425781 L 151.847656 183.441406 L 151.871094 183.457031 L 151.898438 183.46875 L 151.925781 183.484375 L 151.957031 183.496094 L 151.984375 183.507812 L 152.015625 183.519531 L 152.050781 183.53125 L 152.082031 183.539062 L 152.117188 183.546875 L 152.15625 183.554688 L 152.191406 183.5625 L 152.230469 183.566406 L 152.273438 183.570312 L 152.3125 183.570312 L 152.355469 183.574219 L 152.445312 183.574219 L 152.488281 183.570312 L 152.527344 183.566406 L 152.570312 183.5625 L 152.609375 183.558594 L 152.6875 183.542969 L 152.726562 183.53125 L 152.796875 183.507812 L 152.867188 183.476562 L 152.898438 183.460938 L 152.933594 183.441406 L 152.964844 183.421875 L 152.992188 183.402344 L 153.023438 183.382812 L 153.050781 183.359375 L 153.074219 183.332031 L 153.101562 183.308594 L 153.148438 183.253906 L 153.171875 183.222656 L 153.195312 183.195312 L 153.214844 183.160156 L 153.234375 183.128906 L 153.25 183.09375 L 153.269531 183.058594 L 153.285156 183.023438 L 153.296875 182.984375 L 153.3125 182.949219 L 153.324219 182.90625 L 153.332031 182.867188 L 153.34375 182.824219 L 153.351562 182.78125 L 153.355469 182.738281 L 153.367188 182.597656 L 153.367188 182.507812 L 153.355469 182.390625 L 153.351562 182.355469 L 153.34375 182.316406 L 153.335938 182.28125 L 153.300781 182.175781 L 153.289062 182.144531 L 153.273438 182.109375 L 153.257812 182.078125 L 153.238281 182.046875 L 153.222656 182.015625 L 153.183594 181.960938 L 153.136719 181.90625 L 153.089844 181.859375 L 153.035156 181.8125 L 153.007812 181.792969 L 152.976562 181.773438 L 152.949219 181.753906 L 152.914062 181.734375 L 152.882812 181.71875 L 152.8125 181.6875 L 152.742188 181.664062 L 152.703125 181.652344 L 152.625 181.636719 L 152.585938 181.632812 L 152.542969 181.625 L 152.5 181.621094 L 152.332031 181.621094 L 152.304688 181.625 L 152.277344 181.625 L 152.253906 181.628906 L 152.226562 181.632812 L 152.15625 181.644531 L 152.128906 181.648438 L 152.105469 181.65625 L 152.085938 181.660156 L 152.015625 181.683594 L 151.996094 181.6875 L 151.972656 181.695312 L 151.953125 181.707031 L 151.894531 181.730469 L 151.875 181.742188 L 151.855469 181.75 L 151.816406 181.773438 L 151.800781 181.78125 L 151.78125 181.792969 L 151.765625 181.804688 L 151.746094 181.816406 L 151.652344 181.886719 L 151.640625 181.898438 L 151.609375 181.921875 L 151.59375 181.9375 L 151.042969 181.9375 L 151.191406 179.566406 L 153.695312 179.566406 L 153.695312 180.042969 L 151.703125 180.042969 L 151.621094 181.441406 L 151.652344 181.417969 L 151.683594 181.398438 L 151.714844 181.375 L 151.75 181.355469 L 151.90625 181.277344 L 151.949219 181.261719 L 151.996094 181.246094 L 152.039062 181.230469 L 152.089844 181.214844 L 152.136719 181.203125 L 152.1875 181.191406 L 152.351562 181.167969 L 152.46875 181.160156 L 152.59375 181.160156 L 152.71875 181.167969 L 152.78125 181.175781 L 152.839844 181.1875 L 152.898438 181.195312 L 152.957031 181.210938 L 153.066406 181.242188 L 153.121094 181.261719 L 153.171875 181.28125 L 153.222656 181.304688 L 153.269531 181.328125 L 153.363281 181.382812 L 153.40625 181.410156 L 153.449219 181.441406 L 153.492188 181.476562 L 153.53125 181.507812 L 153.566406 181.546875 L 153.601562 181.582031 L 153.671875 181.660156 L 153.703125 181.703125 L 153.757812 181.789062 L 153.785156 181.835938 L 153.832031 181.929688 L 153.871094 182.03125 L 153.886719 182.082031 L 153.902344 182.136719 L 153.9375 182.300781 L 153.941406 182.359375 L 153.949219 182.417969 L 153.949219 182.476562 Z M 153.953125 182.535156 "/>
<path style=" stroke:none;fill-rule:evenodd;fill:rgb(0%,0%,0%);fill-opacity:1;" d="M 159.683594 182.613281 L 159.683594 182.691406 L 159.679688 182.765625 L 159.671875 182.90625 L 159.65625 183.039062 L 159.644531 183.101562 L 159.632812 183.160156 L 159.617188 183.21875 L 159.601562 183.273438 L 159.570312 183.375 L 159.550781 183.425781 L 159.53125 183.46875 L 159.511719 183.515625 L 159.488281 183.554688 L 159.464844 183.597656 L 159.441406 183.636719 L 159.386719 183.707031 L 159.359375 183.738281 L 159.304688 183.792969 L 159.273438 183.820312 L 159.210938 183.867188 L 159.175781 183.886719 L 159.144531 183.90625 L 159.109375 183.925781 L 159.070312 183.941406 L 159 183.964844 L 158.960938 183.976562 L 158.882812 183.992188 L 158.84375 183.996094 L 158.804688 184.003906 L 158.765625 184.003906 L 158.726562 184.007812 L 158.644531 184.007812 L 158.601562 184.003906 L 158.5625 184.003906 L 158.523438 183.996094 L 158.484375 183.992188 L 158.40625 183.976562 L 158.371094 183.964844 L 158.332031 183.953125 L 158.296875 183.941406 L 158.261719 183.925781 L 158.226562 183.90625 L 158.195312 183.886719 L 158.160156 183.867188 L 158.097656 183.820312 L 158.070312 183.792969 L 158.039062 183.765625 L 158.011719 183.738281 L 157.984375 183.707031 L 157.957031 183.671875 L 157.933594 183.636719 L 157.886719 183.558594 L 157.847656 183.472656 L 157.808594 183.378906 L 157.789062 183.328125 L 157.773438 183.277344 L 157.761719 183.222656 L 157.746094 183.164062 L 157.738281 183.105469 L 157.726562 183.042969 L 157.710938 182.910156 L 157.707031 182.839844 L 157.699219 182.691406 L 157.699219 182.53125 L 157.703125 182.453125 L 157.710938 182.304688 L 157.71875 182.234375 L 157.726562 182.167969 L 157.738281 182.101562 L 157.746094 182.042969 L 157.761719 181.980469 L 157.773438 181.925781 L 157.789062 181.875 L 157.808594 181.820312 L 157.824219 181.773438 L 157.84375 181.726562 L 157.863281 181.683594 L 157.886719 181.640625 L 157.933594 181.5625 L 157.957031 181.527344 L 158.039062 181.433594 L 158.070312 181.40625 L 158.097656 181.382812 L 158.128906 181.359375 L 158.164062 181.335938 L 158.195312 181.316406 L 158.300781 181.269531 L 158.335938 181.257812 L 158.375 181.246094 L 158.414062 181.238281 L 158.453125 181.226562 L 158.492188 181.222656 L 158.53125 181.214844 L 158.570312 181.210938 L 158.65625 181.203125 L 158.738281 181.203125 L 158.855469 181.214844 L 158.894531 181.222656 L 158.933594 181.226562 L 158.972656 181.238281 L 159.007812 181.246094 L 159.046875 181.257812 L 159.082031 181.269531 L 159.1875 181.316406 L 159.21875 181.335938 L 159.3125 181.40625 L 159.339844 181.433594 L 159.421875 181.527344 L 159.445312 181.5625 L 159.492188 181.640625 L 159.515625 181.683594 L 159.535156 181.726562 L 159.574219 181.820312 L 159.589844 181.875 L 159.605469 181.925781 L 159.621094 181.980469 L 159.632812 182.042969 L 159.644531 182.101562 L 159.65625 182.167969 L 159.664062 182.234375 L 159.671875 182.304688 L 159.679688 182.453125 L 159.683594 182.53125 Z M 155.867188 183.972656 L 155.382812 183.972656 L 158.265625 179.566406 L 158.757812 179.566406 Z M 155.453125 179.527344 L 155.492188 179.53125 L 155.53125 179.53125 L 155.609375 179.539062 L 155.648438 179.546875 L 155.683594 179.550781 L 155.722656 179.5625 L 155.757812 179.570312 L 155.792969 179.582031 L 155.832031 179.59375 L 155.867188 179.609375 L 155.898438 179.625 L 155.933594 179.640625 L 155.996094 179.679688 L 156.027344 179.703125 L 156.058594 179.730469 L 156.085938 179.757812 L 156.117188 179.785156 L 156.144531 179.816406 L 156.167969 179.847656 L 156.195312 179.882812 L 156.242188 179.960938 L 156.28125 180.046875 L 156.320312 180.140625 L 156.335938 180.191406 L 156.367188 180.300781 L 156.390625 180.417969 L 156.402344 180.480469 L 156.410156 180.546875 L 156.417969 180.617188 L 156.425781 180.765625 L 156.429688 180.84375 L 156.429688 181 L 156.421875 181.148438 L 156.417969 181.21875 L 156.402344 181.351562 L 156.390625 181.414062 L 156.367188 181.53125 L 156.351562 181.585938 L 156.320312 181.6875 L 156.300781 181.738281 L 156.28125 181.785156 L 156.261719 181.828125 L 156.214844 181.914062 L 156.191406 181.953125 L 156.167969 181.988281 L 156.140625 182.023438 L 156.085938 182.085938 L 156.054688 182.113281 L 156.027344 182.140625 L 155.964844 182.1875 L 155.929688 182.210938 L 155.898438 182.226562 L 155.863281 182.246094 L 155.828125 182.261719 L 155.789062 182.273438 L 155.753906 182.285156 L 155.714844 182.296875 L 155.679688 182.308594 L 155.640625 182.316406 L 155.601562 182.320312 L 155.5625 182.328125 L 155.519531 182.328125 L 155.480469 182.332031 L 155.398438 182.332031 L 155.355469 182.328125 L 155.316406 182.328125 L 155.277344 182.320312 L 155.238281 182.316406 L 155.199219 182.308594 L 155.121094 182.285156 L 155.050781 182.261719 L 155.011719 182.246094 L 154.976562 182.226562 L 154.945312 182.210938 L 154.910156 182.1875 L 154.847656 182.140625 L 154.816406 182.113281 L 154.789062 182.085938 L 154.734375 182.023438 L 154.707031 181.988281 L 154.683594 181.953125 L 154.636719 181.875 L 154.613281 181.832031 L 154.59375 181.789062 L 154.574219 181.742188 L 154.558594 181.691406 L 154.539062 181.640625 L 154.523438 181.589844 L 154.507812 181.535156 L 154.484375 181.417969 L 154.476562 181.351562 L 154.46875 181.289062 L 154.460938 181.21875 L 154.453125 181.078125 L 154.449219 181 L 154.449219 180.84375 L 154.453125 180.765625 L 154.460938 180.617188 L 154.46875 180.546875 L 154.476562 180.480469 L 154.484375 180.417969 L 154.507812 180.300781 L 154.539062 180.191406 L 154.558594 180.140625 L 154.574219 180.09375 L 154.59375 180.046875 L 154.617188 180.003906 L 154.636719 179.960938 L 154.683594 179.882812 L 154.710938 179.847656 L 154.734375 179.816406 L 154.820312 179.730469 L 154.851562 179.703125 L 154.882812 179.679688 L 154.914062 179.660156 L 154.949219 179.640625 L 155.054688 179.59375 L 155.09375 179.582031 L 155.128906 179.570312 L 155.167969 179.5625 L 155.207031 179.550781 L 155.246094 179.546875 L 155.285156 179.539062 L 155.328125 179.535156 L 155.367188 179.53125 L 155.410156 179.53125 Z M 159.222656 182.613281 L 159.222656 182.554688 L 159.21875 182.496094 L 159.21875 182.4375 L 159.214844 182.382812 L 159.214844 182.332031 L 159.210938 182.28125 L 159.207031 182.234375 L 159.199219 182.1875 L 159.195312 182.144531 L 159.1875 182.101562 L 159.164062 181.984375 L 159.15625 181.949219 L 159.144531 181.917969 L 159.132812 181.882812 L 159.121094 181.855469 L 159.109375 181.824219 L 159.097656 181.796875 L 159.085938 181.773438 L 159.070312 181.75 L 159.058594 181.726562 L 159.011719 181.667969 L 158.992188 181.652344 L 158.976562 181.636719 L 158.917969 181.601562 L 158.898438 181.59375 L 158.878906 181.582031 L 158.859375 181.574219 L 158.835938 181.570312 L 158.816406 181.5625 L 158.769531 181.554688 L 158.746094 181.554688 L 158.722656 181.550781 L 158.671875 181.550781 L 158.644531 181.554688 L 158.621094 181.554688 L 158.597656 181.558594 L 158.574219 181.566406 L 158.550781 181.570312 L 158.527344 181.578125 L 158.507812 181.585938 L 158.484375 181.59375 L 158.425781 181.628906 L 158.410156 181.640625 L 158.390625 181.65625 L 158.355469 181.691406 L 158.324219 181.730469 L 158.3125 181.753906 L 158.296875 181.777344 L 158.285156 181.800781 L 158.269531 181.828125 L 158.257812 181.855469 L 158.246094 181.886719 L 158.238281 181.917969 L 158.226562 181.953125 L 158.21875 181.988281 L 158.207031 182.027344 L 158.199219 182.0625 L 158.195312 182.105469 L 158.1875 182.144531 L 158.179688 182.191406 L 158.175781 182.234375 L 158.171875 182.285156 L 158.167969 182.332031 L 158.164062 182.386719 L 158.164062 182.441406 L 158.160156 182.496094 L 158.160156 182.730469 L 158.164062 182.785156 L 158.164062 182.835938 L 158.171875 182.9375 L 158.175781 182.984375 L 158.179688 183.027344 L 158.1875 183.070312 L 158.195312 183.109375 L 158.203125 183.152344 L 158.226562 183.257812 L 158.238281 183.292969 L 158.261719 183.355469 L 158.296875 183.4375 L 158.3125 183.460938 L 158.324219 183.480469 L 158.339844 183.503906 L 158.371094 183.542969 L 158.390625 183.558594 L 158.40625 183.574219 L 158.425781 183.585938 L 158.441406 183.601562 L 158.460938 183.613281 L 158.484375 183.621094 L 158.523438 183.636719 L 158.570312 183.652344 L 158.640625 183.664062 L 158.738281 183.664062 L 158.785156 183.65625 L 158.804688 183.652344 L 158.828125 183.644531 L 158.847656 183.636719 L 158.871094 183.628906 L 158.910156 183.613281 L 158.929688 183.601562 L 158.949219 183.585938 L 158.964844 183.574219 L 158.984375 183.558594 L 159.019531 183.523438 L 159.035156 183.503906 L 159.050781 183.480469 L 159.0625 183.460938 L 159.078125 183.4375 L 159.089844 183.410156 L 159.105469 183.382812 L 159.117188 183.355469 L 159.140625 183.292969 L 159.148438 183.257812 L 159.160156 183.222656 L 159.175781 183.152344 L 159.183594 183.109375 L 159.191406 183.070312 L 159.199219 183.027344 L 159.203125 182.984375 L 159.207031 182.9375 L 159.21875 182.785156 L 159.21875 182.730469 L 159.222656 182.671875 Z M 155.972656 180.921875 L 155.96875 180.863281 L 155.96875 180.75 L 155.960938 180.640625 L 155.957031 180.59375 L 155.953125 180.542969 L 155.949219 180.5 L 155.941406 180.457031 L 155.9375 180.414062 L 155.921875 180.335938 L 155.914062 180.300781 L 155.902344 180.265625 L 155.894531 180.230469 L 155.882812 180.199219 L 155.875 180.167969 L 155.863281 180.140625 L 155.847656 180.113281 L 155.824219 180.066406 L 155.808594 180.042969 L 155.761719 179.984375 L 155.730469 179.953125 L 155.710938 179.9375 L 155.691406 179.925781 L 155.675781 179.917969 L 155.65625 179.90625 L 155.632812 179.898438 L 155.59375 179.882812 L 155.5 179.867188 L 155.398438 179.867188 L 155.351562 179.875 L 155.324219 179.878906 L 155.300781 179.886719 L 155.277344 179.890625 L 155.257812 179.902344 L 155.234375 179.910156 L 155.214844 179.917969 L 155.175781 179.941406 L 155.15625 179.957031 L 155.140625 179.972656 L 155.121094 179.988281 L 155.105469 180.003906 L 155.089844 180.023438 L 155.074219 180.046875 L 155.058594 180.066406 L 155.046875 180.089844 L 155.03125 180.117188 L 155.007812 180.171875 L 154.984375 180.234375 L 154.976562 180.265625 L 154.964844 180.300781 L 154.957031 180.339844 L 154.949219 180.375 L 154.941406 180.417969 L 154.9375 180.457031 L 154.929688 180.503906 L 154.925781 180.546875 L 154.921875 180.59375 L 154.914062 180.695312 L 154.910156 180.75 L 154.910156 181.09375 L 154.921875 181.246094 L 154.929688 181.339844 L 154.9375 181.382812 L 154.941406 181.421875 L 154.949219 181.464844 L 154.957031 181.5 L 154.96875 181.539062 L 154.976562 181.574219 L 154.988281 181.605469 L 154.996094 181.640625 L 155.007812 181.667969 L 155.019531 181.699219 L 155.03125 181.726562 L 155.046875 181.75 L 155.058594 181.773438 L 155.089844 181.820312 L 155.105469 181.839844 L 155.121094 181.855469 L 155.140625 181.871094 L 155.15625 181.886719 L 155.175781 181.902344 L 155.234375 181.9375 L 155.253906 181.945312 L 155.300781 181.960938 L 155.324219 181.964844 L 155.347656 181.972656 L 155.371094 181.976562 L 155.394531 181.976562 L 155.421875 181.980469 L 155.46875 181.980469 L 155.492188 181.976562 L 155.515625 181.976562 L 155.539062 181.972656 L 155.558594 181.964844 L 155.582031 181.960938 L 155.640625 181.9375 L 155.699219 181.902344 L 155.71875 181.886719 L 155.75 181.855469 L 155.769531 181.839844 L 155.785156 181.820312 L 155.796875 181.796875 L 155.828125 181.75 L 155.839844 181.726562 L 155.851562 181.699219 L 155.867188 181.667969 L 155.878906 181.640625 L 155.886719 181.605469 L 155.898438 181.574219 L 155.910156 181.539062 L 155.917969 181.5 L 155.925781 181.464844 L 155.933594 181.421875 L 155.941406 181.382812 L 155.945312 181.339844 L 155.953125 181.292969 L 155.957031 181.246094 L 155.96875 181.09375 L 155.96875 180.980469 Z M 155.972656 180.921875 "/>
<path style=" stroke:none;fill-rule:evenodd;fill:rgb(0%,0%,0%);fill-opacity:1;" d="M 29.75 121.8125 L 29.75 121.875 L 29.746094 121.941406 L 29.742188 122.003906 L 29.726562 122.128906 L 29.703125 122.246094 L 29.6875 122.304688 L 29.667969 122.363281 L 29.652344 122.417969 L 29.628906 122.472656 L 29.582031 122.574219 L 29.527344 122.675781 L 29.496094 122.722656 L 29.464844 122.765625 L 29.429688 122.808594 L 29.390625 122.851562 L 29.355469 122.894531 L 29.3125 122.929688 L 29.269531 122.96875 L 29.226562 123.003906 L 29.132812 123.066406 L 29.082031 123.097656 L 29.03125 123.125 L 28.976562 123.152344 L 28.921875 123.175781 L 28.863281 123.199219 L 28.804688 123.21875 L 28.742188 123.238281 L 28.617188 123.269531 L 28.550781 123.28125 L 28.339844 123.304688 L 28.265625 123.308594 L 28.121094 123.308594 L 28.050781 123.304688 L 27.925781 123.296875 L 27.863281 123.289062 L 27.804688 123.277344 L 27.746094 123.269531 L 27.6875 123.257812 L 27.632812 123.242188 L 27.53125 123.210938 L 27.480469 123.191406 L 27.433594 123.171875 L 27.390625 123.152344 L 27.34375 123.132812 L 27.300781 123.109375 L 27.261719 123.085938 L 27.183594 123.03125 L 27.113281 122.976562 L 27.078125 122.945312 L 27.015625 122.882812 L 26.988281 122.851562 L 26.90625 122.746094 L 26.882812 122.707031 L 26.863281 122.671875 L 26.804688 122.554688 L 26.789062 122.515625 L 26.773438 122.472656 L 26.761719 122.433594 L 26.746094 122.390625 L 26.734375 122.347656 L 26.726562 122.304688 L 26.714844 122.261719 L 27.285156 122.195312 L 27.292969 122.21875 L 27.300781 122.246094 L 27.316406 122.292969 L 27.324219 122.320312 L 27.371094 122.414062 L 27.382812 122.441406 L 27.394531 122.460938 L 27.40625 122.484375 L 27.421875 122.507812 L 27.4375 122.527344 L 27.453125 122.550781 L 27.492188 122.589844 L 27.507812 122.609375 L 27.53125 122.628906 L 27.550781 122.648438 L 27.574219 122.667969 L 27.644531 122.714844 L 27.699219 122.746094 L 27.726562 122.757812 L 27.753906 122.773438 L 27.816406 122.796875 L 27.847656 122.804688 L 27.882812 122.816406 L 27.917969 122.824219 L 27.953125 122.828125 L 27.992188 122.835938 L 28.070312 122.84375 L 28.113281 122.847656 L 28.285156 122.847656 L 28.328125 122.84375 L 28.367188 122.839844 L 28.410156 122.832031 L 28.488281 122.816406 L 28.523438 122.808594 L 28.5625 122.796875 L 28.597656 122.785156 L 28.667969 122.753906 L 28.699219 122.738281 L 28.792969 122.679688 L 28.875 122.609375 L 28.902344 122.582031 L 28.972656 122.5 L 28.992188 122.46875 L 29.015625 122.4375 L 29.03125 122.40625 L 29.050781 122.371094 L 29.082031 122.300781 L 29.097656 122.261719 L 29.121094 122.183594 L 29.132812 122.140625 L 29.140625 122.101562 L 29.148438 122.054688 L 29.15625 122.011719 L 29.160156 121.964844 L 29.164062 121.921875 L 29.164062 121.871094 L 29.167969 121.824219 L 29.164062 121.785156 L 29.164062 121.742188 L 29.160156 121.703125 L 29.15625 121.667969 L 29.148438 121.628906 L 29.144531 121.59375 L 29.132812 121.554688 L 29.125 121.519531 L 29.113281 121.484375 L 29.101562 121.453125 L 29.085938 121.417969 L 29.070312 121.386719 L 29.054688 121.351562 L 29.039062 121.320312 L 29.019531 121.292969 L 29 121.261719 L 28.960938 121.207031 L 28.9375 121.183594 L 28.914062 121.15625 L 28.886719 121.132812 L 28.863281 121.109375 L 28.835938 121.089844 L 28.804688 121.066406 L 28.777344 121.046875 L 28.746094 121.027344 L 28.714844 121.011719 L 28.683594 120.992188 L 28.648438 120.976562 L 28.613281 120.964844 L 28.578125 120.949219 L 28.542969 120.9375 L 28.386719 120.90625 L 28.257812 120.894531 L 28.15625 120.894531 L 28.128906 120.898438 L 28.105469 120.898438 L 28.050781 120.90625 L 28.027344 120.90625 L 28 120.910156 L 27.976562 120.914062 L 27.953125 120.921875 L 27.90625 120.929688 L 27.882812 120.9375 L 27.859375 120.941406 L 27.839844 120.949219 L 27.792969 120.964844 L 27.753906 120.980469 L 27.730469 120.988281 L 27.710938 120.996094 L 27.691406 121.007812 L 27.671875 121.015625 L 27.652344 121.027344 L 27.636719 121.035156 L 27.597656 121.058594 L 27.582031 121.070312 L 27.5625 121.082031 L 27.53125 121.105469 L 27.515625 121.113281 L 27.453125 121.160156 L 27.4375 121.175781 L 27.421875 121.1875 L 27.410156 121.199219 L 27.394531 121.210938 L 26.84375 121.210938 L 26.992188 118.839844 L 29.496094 118.839844 L 29.496094 119.320312 L 27.503906 119.320312 L 27.417969 120.71875 L 27.480469 120.671875 L 27.515625 120.652344 L 27.550781 120.628906 L 27.585938 120.609375 L 27.664062 120.570312 L 27.707031 120.554688 L 27.75 120.535156 L 27.792969 120.519531 L 27.886719 120.488281 L 27.988281 120.464844 L 28.039062 120.457031 L 28.09375 120.449219 L 28.152344 120.445312 L 28.207031 120.4375 L 28.394531 120.4375 L 28.519531 120.445312 L 28.582031 120.453125 L 28.640625 120.460938 L 28.757812 120.484375 L 28.867188 120.515625 L 28.917969 120.535156 L 28.972656 120.558594 L 29.019531 120.578125 L 29.070312 120.601562 L 29.164062 120.65625 L 29.25 120.71875 L 29.289062 120.75 L 29.367188 120.820312 L 29.402344 120.855469 L 29.4375 120.894531 L 29.46875 120.933594 L 29.53125 121.019531 L 29.558594 121.0625 L 29.582031 121.109375 L 29.609375 121.15625 L 29.628906 121.203125 L 29.652344 121.253906 L 29.667969 121.304688 L 29.6875 121.359375 L 29.703125 121.410156 L 29.726562 121.519531 L 29.734375 121.578125 L 29.742188 121.632812 L 29.75 121.75 Z M 29.75 121.8125 "/>
<path style=" stroke:none;fill-rule:evenodd;fill:rgb(0%,0%,0%);fill-opacity:1;" d="M 30.507812 123.246094 L 30.507812 122.769531 L 31.628906 122.769531 L 31.628906 119.378906 L 30.636719 120.089844 L 30.636719 119.558594 L 31.675781 118.839844 L 32.195312 118.839844 L 32.195312 122.769531 L 33.265625 122.769531 L 33.265625 123.246094 Z M 30.507812 123.246094 "/>
<path style=" stroke:none;fill-rule:evenodd;fill:rgb(0%,0%,0%);fill-opacity:1;" d="M 39.042969 121.890625 L 39.042969 121.964844 L 39.035156 122.113281 L 39.03125 122.183594 L 39.023438 122.25 L 39.015625 122.3125 L 38.992188 122.4375 L 38.976562 122.492188 L 38.964844 122.550781 L 38.945312 122.601562 L 38.929688 122.652344 L 38.890625 122.746094 L 38.871094 122.789062 L 38.847656 122.832031 L 38.800781 122.910156 L 38.746094 122.980469 L 38.691406 123.042969 L 38.664062 123.070312 L 38.632812 123.097656 L 38.570312 123.144531 L 38.535156 123.164062 L 38.503906 123.183594 L 38.46875 123.199219 L 38.429688 123.214844 L 38.359375 123.238281 L 38.320312 123.25 L 38.203125 123.273438 L 38.125 123.28125 L 38.085938 123.28125 L 38.042969 123.285156 L 38.003906 123.28125 L 37.960938 123.28125 L 37.882812 123.273438 L 37.765625 123.25 L 37.730469 123.238281 L 37.691406 123.226562 L 37.65625 123.214844 L 37.585938 123.183594 L 37.554688 123.164062 L 37.519531 123.144531 L 37.457031 123.097656 L 37.429688 123.070312 L 37.398438 123.042969 L 37.34375 122.980469 L 37.316406 122.945312 L 37.269531 122.875 L 37.246094 122.832031 L 37.226562 122.792969 L 37.207031 122.75 L 37.1875 122.703125 L 37.167969 122.652344 L 37.152344 122.605469 L 37.132812 122.550781 L 37.121094 122.496094 L 37.105469 122.441406 L 37.097656 122.378906 L 37.085938 122.316406 L 37.070312 122.183594 L 37.0625 122.042969 L 37.058594 121.96875 L 37.058594 121.808594 L 37.066406 121.652344 L 37.070312 121.578125 L 37.078125 121.507812 L 37.085938 121.441406 L 37.097656 121.378906 L 37.105469 121.316406 L 37.121094 121.257812 L 37.132812 121.203125 L 37.148438 121.148438 L 37.167969 121.097656 L 37.183594 121.046875 L 37.203125 121.003906 L 37.222656 120.957031 L 37.246094 120.914062 L 37.269531 120.875 L 37.316406 120.804688 L 37.34375 120.769531 L 37.371094 120.738281 L 37.398438 120.710938 L 37.429688 120.683594 L 37.457031 120.65625 L 37.488281 120.632812 L 37.523438 120.609375 L 37.554688 120.589844 L 37.625 120.558594 L 37.660156 120.546875 L 37.695312 120.53125 L 37.734375 120.523438 L 37.773438 120.511719 L 37.890625 120.488281 L 37.929688 120.484375 L 37.972656 120.480469 L 38.136719 120.480469 L 38.175781 120.484375 L 38.21875 120.488281 L 38.253906 120.496094 L 38.332031 120.511719 L 38.367188 120.523438 L 38.40625 120.53125 L 38.441406 120.546875 L 38.476562 120.558594 L 38.546875 120.589844 L 38.578125 120.609375 L 38.640625 120.65625 L 38.671875 120.683594 L 38.726562 120.738281 L 38.753906 120.769531 L 38.78125 120.804688 L 38.828125 120.875 L 38.851562 120.914062 L 38.875 120.957031 L 38.894531 121.003906 L 38.914062 121.046875 L 38.933594 121.097656 L 38.949219 121.148438 L 38.980469 121.257812 L 38.996094 121.316406 L 39.007812 121.378906 L 39.015625 121.441406 L 39.023438 121.507812 L 39.03125 121.578125 L 39.039062 121.652344 L 39.042969 121.730469 Z M 35.226562 123.246094 L 34.742188 123.246094 L 37.625 118.839844 L 38.117188 118.839844 Z M 34.8125 118.804688 L 34.851562 118.804688 L 34.890625 118.808594 L 34.929688 118.808594 L 34.96875 118.816406 L 35.007812 118.820312 L 35.042969 118.828125 L 35.082031 118.835938 L 35.117188 118.847656 L 35.152344 118.855469 L 35.191406 118.871094 L 35.226562 118.882812 L 35.257812 118.898438 L 35.292969 118.914062 L 35.324219 118.933594 L 35.417969 119.003906 L 35.503906 119.089844 L 35.527344 119.125 L 35.554688 119.160156 L 35.578125 119.195312 L 35.601562 119.238281 L 35.621094 119.277344 L 35.640625 119.324219 L 35.660156 119.367188 L 35.679688 119.417969 L 35.710938 119.519531 L 35.726562 119.574219 L 35.738281 119.632812 L 35.761719 119.757812 L 35.769531 119.824219 L 35.777344 119.894531 L 35.78125 119.964844 L 35.785156 120.039062 L 35.789062 120.117188 L 35.789062 120.277344 L 35.785156 120.351562 L 35.777344 120.492188 L 35.769531 120.5625 L 35.761719 120.625 L 35.738281 120.75 L 35.726562 120.804688 L 35.695312 120.914062 L 35.679688 120.964844 L 35.621094 121.105469 L 35.597656 121.148438 L 35.527344 121.265625 L 35.5 121.296875 L 35.472656 121.332031 L 35.445312 121.359375 L 35.417969 121.390625 L 35.386719 121.417969 L 35.324219 121.464844 L 35.292969 121.484375 L 35.257812 121.503906 L 35.1875 121.535156 L 35.148438 121.550781 L 35.113281 121.5625 L 35.074219 121.574219 L 35.039062 121.582031 L 34.960938 121.597656 L 34.921875 121.601562 L 34.878906 121.605469 L 34.839844 121.605469 L 34.800781 121.609375 L 34.757812 121.605469 L 34.714844 121.605469 L 34.636719 121.597656 L 34.519531 121.574219 L 34.480469 121.5625 L 34.445312 121.550781 L 34.410156 121.535156 L 34.371094 121.519531 L 34.335938 121.503906 L 34.304688 121.484375 L 34.269531 121.464844 L 34.207031 121.417969 L 34.175781 121.390625 L 34.148438 121.359375 L 34.121094 121.332031 L 34.09375 121.296875 L 34.066406 121.265625 L 34.042969 121.226562 L 34.019531 121.191406 L 33.996094 121.148438 L 33.976562 121.105469 L 33.953125 121.0625 L 33.933594 121.015625 L 33.917969 120.96875 L 33.898438 120.917969 L 33.867188 120.808594 L 33.84375 120.691406 L 33.835938 120.628906 L 33.820312 120.496094 L 33.816406 120.425781 L 33.808594 120.277344 L 33.808594 120.117188 L 33.8125 120.039062 L 33.816406 119.964844 L 33.820312 119.894531 L 33.828125 119.824219 L 33.835938 119.757812 L 33.84375 119.695312 L 33.855469 119.632812 L 33.867188 119.574219 L 33.882812 119.519531 L 33.898438 119.46875 L 33.917969 119.417969 L 33.933594 119.367188 L 33.953125 119.324219 L 33.996094 119.238281 L 34.019531 119.195312 L 34.042969 119.160156 L 34.097656 119.089844 L 34.125 119.0625 L 34.152344 119.03125 L 34.179688 119.003906 L 34.273438 118.933594 L 34.308594 118.914062 L 34.378906 118.882812 L 34.414062 118.871094 L 34.453125 118.855469 L 34.488281 118.847656 L 34.527344 118.835938 L 34.605469 118.820312 L 34.644531 118.816406 L 34.6875 118.808594 L 34.726562 118.808594 L 34.769531 118.804688 Z M 38.582031 121.890625 L 38.582031 121.769531 L 38.574219 121.660156 L 38.574219 121.605469 L 38.570312 121.554688 L 38.566406 121.507812 L 38.558594 121.460938 L 38.554688 121.417969 L 38.546875 121.375 L 38.53125 121.296875 L 38.515625 121.226562 L 38.503906 121.191406 L 38.480469 121.128906 L 38.445312 121.046875 L 38.429688 121.023438 L 38.417969 121.003906 L 38.402344 120.980469 L 38.386719 120.960938 L 38.371094 120.945312 L 38.351562 120.929688 L 38.335938 120.914062 L 38.316406 120.898438 L 38.277344 120.875 L 38.21875 120.851562 L 38.195312 120.84375 L 38.175781 120.839844 L 38.105469 120.828125 L 38.003906 120.828125 L 37.910156 120.84375 L 37.886719 120.851562 L 37.867188 120.859375 L 37.84375 120.871094 L 37.824219 120.878906 L 37.785156 120.902344 L 37.769531 120.917969 L 37.75 120.929688 L 37.734375 120.949219 L 37.714844 120.964844 L 37.683594 121.003906 L 37.671875 121.027344 L 37.65625 121.050781 L 37.644531 121.078125 L 37.628906 121.105469 L 37.617188 121.132812 L 37.605469 121.164062 L 37.597656 121.195312 L 37.585938 121.226562 L 37.578125 121.261719 L 37.566406 121.300781 L 37.558594 121.339844 L 37.554688 121.378906 L 37.539062 121.464844 L 37.53125 121.558594 L 37.523438 121.660156 L 37.523438 121.714844 L 37.519531 121.769531 L 37.519531 122.003906 L 37.523438 122.058594 L 37.523438 122.113281 L 37.527344 122.160156 L 37.53125 122.210938 L 37.535156 122.257812 L 37.539062 122.300781 L 37.554688 122.386719 L 37.570312 122.464844 L 37.585938 122.535156 L 37.632812 122.660156 L 37.644531 122.6875 L 37.65625 122.710938 L 37.671875 122.734375 L 37.683594 122.757812 L 37.730469 122.816406 L 37.75 122.832031 L 37.765625 122.847656 L 37.785156 122.863281 L 37.804688 122.875 L 37.820312 122.886719 L 37.84375 122.898438 L 37.882812 122.914062 L 37.90625 122.921875 L 38 122.9375 L 38.023438 122.9375 L 38.050781 122.941406 L 38.074219 122.9375 L 38.097656 122.9375 L 38.144531 122.929688 L 38.164062 122.925781 L 38.1875 122.921875 L 38.207031 122.914062 L 38.230469 122.90625 L 38.25 122.898438 L 38.308594 122.863281 L 38.328125 122.847656 L 38.378906 122.796875 L 38.410156 122.757812 L 38.421875 122.734375 L 38.453125 122.6875 L 38.464844 122.660156 L 38.5 122.566406 L 38.507812 122.535156 L 38.519531 122.5 L 38.527344 122.464844 L 38.542969 122.386719 L 38.558594 122.300781 L 38.5625 122.257812 L 38.566406 122.210938 L 38.570312 122.160156 L 38.574219 122.113281 L 38.582031 122.003906 Z M 35.332031 120.199219 L 35.332031 120.136719 L 35.328125 120.078125 L 35.328125 120.023438 L 35.324219 119.96875 L 35.316406 119.867188 L 35.308594 119.773438 L 35.304688 119.730469 L 35.296875 119.6875 L 35.28125 119.609375 L 35.265625 119.539062 L 35.253906 119.503906 L 35.242188 119.472656 L 35.234375 119.445312 L 35.222656 119.414062 L 35.210938 119.390625 L 35.195312 119.363281 L 35.183594 119.339844 L 35.167969 119.316406 L 35.152344 119.296875 L 35.140625 119.277344 L 35.089844 119.226562 L 35.070312 119.214844 L 35.054688 119.203125 L 35.035156 119.191406 L 35.015625 119.183594 L 34.992188 119.171875 L 34.972656 119.167969 L 34.953125 119.160156 L 34.929688 119.152344 L 34.882812 119.144531 L 34.859375 119.144531 L 34.835938 119.140625 L 34.785156 119.140625 L 34.757812 119.144531 L 34.734375 119.144531 L 34.710938 119.148438 L 34.683594 119.15625 L 34.660156 119.160156 L 34.640625 119.167969 L 34.59375 119.183594 L 34.515625 119.230469 L 34.5 119.246094 L 34.480469 119.261719 L 34.433594 119.320312 L 34.417969 119.34375 L 34.40625 119.367188 L 34.390625 119.390625 L 34.367188 119.445312 L 34.34375 119.507812 L 34.335938 119.542969 L 34.324219 119.578125 L 34.316406 119.613281 L 34.300781 119.691406 L 34.296875 119.734375 L 34.289062 119.777344 L 34.28125 119.871094 L 34.269531 120.023438 L 34.269531 120.367188 L 34.273438 120.421875 L 34.277344 120.472656 L 34.289062 120.613281 L 34.296875 120.65625 L 34.300781 120.699219 L 34.316406 120.777344 L 34.328125 120.8125 L 34.335938 120.847656 L 34.347656 120.882812 L 34.355469 120.914062 L 34.367188 120.945312 L 34.390625 121 L 34.40625 121.027344 L 34.417969 121.050781 L 34.433594 121.074219 L 34.480469 121.132812 L 34.5 121.148438 L 34.515625 121.164062 L 34.535156 121.175781 L 34.554688 121.191406 L 34.574219 121.203125 L 34.59375 121.210938 L 34.617188 121.222656 L 34.636719 121.230469 L 34.660156 121.234375 L 34.683594 121.242188 L 34.753906 121.253906 L 34.851562 121.253906 L 34.898438 121.246094 L 34.917969 121.242188 L 34.941406 121.234375 L 34.960938 121.230469 L 34.980469 121.222656 L 35 121.210938 L 35.019531 121.203125 L 35.039062 121.191406 L 35.058594 121.175781 L 35.078125 121.164062 L 35.128906 121.113281 L 35.160156 121.074219 L 35.171875 121.050781 L 35.1875 121.027344 L 35.199219 121 L 35.214844 120.972656 L 35.226562 120.945312 L 35.238281 120.914062 L 35.246094 120.882812 L 35.269531 120.8125 L 35.277344 120.777344 L 35.292969 120.699219 L 35.300781 120.65625 L 35.304688 120.613281 L 35.3125 120.566406 L 35.320312 120.472656 L 35.324219 120.421875 L 35.328125 120.367188 L 35.328125 120.3125 L 35.332031 120.257812 Z M 35.332031 120.199219 "/>
<path style=" stroke:none;fill-rule:evenodd;fill:rgb(0%,0%,0%);fill-opacity:1;" d="M 92.613281 20.96875 L 92.613281 14.300781 L 91.445312 14.300781 L 91.445312 18.917969 L 88.035156 14.300781 L 86.835938 14.300781 L 86.835938 20.96875 L 88.003906 20.96875 L 88.003906 16.199219 L 91.484375 20.96875 Z M 92.613281 20.96875 "/>
<path style=" stroke:none;fill-rule:evenodd;fill:rgb(0%,0%,0%);fill-opacity:1;" d="M 96.246094 21.089844 L 96.472656 21.082031 L 96.695312 21.058594 L 96.910156 21.023438 L 97.121094 20.972656 L 97.328125 20.90625 L 97.523438 20.828125 L 97.710938 20.734375 L 97.886719 20.628906 L 98.050781 20.511719 L 98.203125 20.378906 L 97.726562 19.6875 L 97.613281 19.789062 L 97.492188 19.878906 L 97.363281 19.960938 L 97.226562 20.03125 L 97.082031 20.089844 L 96.9375 20.140625 L 96.789062 20.179688 L 96.640625 20.207031 L 96.492188 20.222656 L 96.34375 20.230469 L 96.082031 20.210938 L 95.84375 20.160156 L 95.628906 20.078125 L 95.4375 19.96875 L 95.269531 19.835938 L 95.125 19.679688 L 95.007812 19.503906 L 94.917969 19.3125 L 94.851562 19.113281 L 94.816406 18.898438 L 98.535156 18.898438 L 98.535156 18.640625 L 98.507812 18.195312 L 98.425781 17.785156 L 98.296875 17.402344 L 98.117188 17.0625 L 97.894531 16.757812 L 97.625 16.503906 L 97.316406 16.296875 L 96.96875 16.144531 L 96.582031 16.050781 L 96.164062 16.019531 L 95.75 16.050781 L 95.359375 16.148438 L 95.003906 16.300781 L 94.683594 16.507812 L 94.402344 16.757812 L 94.164062 17.054688 L 93.972656 17.386719 L 93.832031 17.75 L 93.746094 18.136719 L 93.714844 18.550781 L 93.746094 18.992188 L 93.839844 19.402344 L 93.984375 19.773438 L 94.183594 20.105469 L 94.433594 20.394531 L 94.722656 20.636719 L 95.054688 20.828125 L 95.421875 20.972656 L 95.820312 21.058594 Z M 97.523438 18.148438 L 94.804688 18.148438 L 94.828125 17.972656 L 94.875 17.792969 L 94.945312 17.621094 L 95.042969 17.453125 L 95.160156 17.296875 L 95.308594 17.160156 L 95.476562 17.042969 L 95.675781 16.957031 L 95.902344 16.898438 L 96.15625 16.878906 L 96.421875 16.898438 L 96.660156 16.957031 L 96.863281 17.046875 L 97.039062 17.164062 L 97.183594 17.300781 L 97.304688 17.457031 L 97.394531 17.625 L 97.460938 17.796875 L 97.503906 17.976562 Z M 97.523438 18.148438 "/>
<path style=" stroke:none;fill-rule:evenodd;fill:rgb(0%,0%,0%);fill-opacity:1;" d="M 104.894531 20.96875 L 106.394531 16.140625 L 105.296875 16.140625 L 104.273438 19.648438 L 103.136719 16.140625 L 102.203125 16.140625 L 101.054688 19.648438 L 100.035156 16.140625 L 98.945312 16.140625 L 100.445312 20.96875 L 101.546875 20.96875 L 102.664062 17.429688 L 103.796875 20.96875 Z M 104.894531 20.96875 "/>
<path style=" stroke:none;fill-rule:evenodd;fill:rgb(0%,0%,0%);fill-opacity:1;" d="M 112.804688 20.96875 L 112.804688 18.199219 L 115.386719 14.300781 L 114.046875 14.300781 L 112.214844 17.148438 L 110.386719 14.300781 L 109.046875 14.300781 L 111.636719 18.199219 L 111.636719 20.96875 Z M 112.804688 20.96875 "/>
<path style=" stroke:none;fill-rule:evenodd;fill:rgb(0%,0%,0%);fill-opacity:1;" d="M 118.265625 21.089844 L 118.707031 21.054688 L 119.113281 20.957031 L 119.480469 20.800781 L 119.804688 20.59375 L 120.082031 20.335938 L 120.316406 20.039062 L 120.5 19.707031 L 120.636719 19.34375 L 120.71875 18.957031 L 120.746094 18.550781 L 120.71875 18.140625 L 120.636719 17.753906 L 120.5 17.390625 L 120.316406 17.058594 L 120.082031 16.761719 L 119.804688 16.507812 L 119.480469 16.304688 L 119.113281 16.148438 L 118.707031 16.054688 L 118.265625 16.019531 L 117.820312 16.054688 L 117.414062 16.148438 L 117.050781 16.304688 L 116.726562 16.507812 L 116.449219 16.761719 L 116.214844 17.058594 L 116.03125 17.390625 L 115.894531 17.753906 L 115.8125 18.140625 L 115.785156 18.550781 L 115.8125 18.957031 L 115.894531 19.34375 L 116.03125 19.707031 L 116.214844 20.039062 L 116.449219 20.335938 L 116.726562 20.59375 L 117.050781 20.800781 L 117.414062 20.957031 L 117.820312 21.054688 Z M 118.265625 20.160156 L 118.011719 20.136719 L 117.777344 20.074219 L 117.574219 19.972656 L 117.390625 19.839844 L 117.234375 19.675781 L 117.109375 19.488281 L 117.007812 19.277344 L 116.933594 19.046875 L 116.890625 18.804688 L 116.875 18.550781 L 116.890625 18.296875 L 116.933594 18.058594 L 117.007812 17.828125 L 117.109375 17.617188 L 117.234375 17.429688 L 117.390625 17.269531 L 117.574219 17.132812 L 117.777344 17.035156 L 118.011719 16.972656 L 118.265625 16.949219 L 118.523438 16.972656 L 118.753906 17.035156 L 118.960938 17.132812 L 119.144531 17.269531 L 119.296875 17.429688 L 119.425781 17.617188 L 119.523438 17.828125 L 119.597656 18.058594 L 119.640625 18.296875 L 119.65625 18.550781 L 119.640625 18.804688 L 119.597656 19.046875 L 119.523438 19.277344 L 119.425781 19.488281 L 119.296875 19.675781 L 119.144531 19.839844 L 118.960938 19.972656 L 118.753906 20.074219 L 118.523438 20.136719 Z M 118.265625 20.160156 "/>
<path style=" stroke:none;fill-rule:evenodd;fill:rgb(0%,0%,0%);fill-opacity:1;" d="M 122.863281 20.96875 L 122.863281 17.679688 L 122.9375 17.578125 L 123.03125 17.476562 L 123.140625 17.382812 L 123.265625 17.300781 L 123.398438 17.222656 L 123.542969 17.15625 L 123.6875 17.105469 L 123.832031 17.0625 L 123.976562 17.039062 L 124.113281 17.03125 L 124.222656 17.03125 L 124.257812 17.035156 L 124.289062 17.035156 L 124.351562 17.042969 L 124.378906 17.046875 L 124.40625 17.054688 L 124.433594 17.058594 L 124.433594 16.019531 L 124.25 16.03125 L 124.070312 16.0625 L 123.890625 16.109375 L 123.722656 16.175781 L 123.554688 16.257812 L 123.398438 16.351562 L 123.25 16.460938 L 123.109375 16.578125 L 122.980469 16.703125 L 122.863281 16.839844 L 122.863281 16.140625 L 121.816406 16.140625 L 121.816406 20.96875 Z M 122.863281 20.96875 "/>
<path style=" stroke:none;fill-rule:evenodd;fill:rgb(0%,0%,0%);fill-opacity:1;" d="M 129.804688 20.96875 L 127.765625 18.328125 L 129.765625 16.140625 L 128.464844 16.140625 L 126.335938 18.46875 L 126.335938 14.300781 L 125.285156 14.300781 L 125.285156 20.96875 L 126.335938 20.96875 L 126.335938 19.667969 L 127.015625 18.96875 L 128.484375 20.96875 Z M 129.804688 20.96875 "/>
</g>
</svg>
