<?xml version="1.0" encoding="UTF-8"?>
<svg xmlns="http://www.w3.org/2000/svg" xmlns:xlink="http://www.w3.org/1999/xlink" width="594pt" height="36pt" viewBox="0 0 594 36" version="1.1">
<g id="surface437">
<path style="fill:none;stroke-width:0.75;stroke-linecap:round;stroke-linejoin:round;stroke:rgb(81.568627%,81.176471%,83.137255%);stroke-opacity:1;stroke-miterlimit:10;" d="M 100.800781 9 L 100.597656 9 L 100.527344 9.003906 L 100.460938 9.003906 L 100.394531 9.007812 L 100.324219 9.011719 L 100.257812 9.011719 L 100.191406 9.015625 L 100.121094 9.019531 L 100.054688 9.027344 L 99.988281 9.03125 L 99.917969 9.035156 L 99.851562 9.042969 L 99.785156 9.046875 L 99.714844 9.054688 L 99.515625 9.078125 L 99.445312 9.085938 L 99.3125 9.101562 L 99.246094 9.113281 L 99.175781 9.121094 L 98.710938 9.203125 L 98.644531 9.21875 L 98.578125 9.230469 L 98.445312 9.261719 L 98.378906 9.273438 L 98.246094 9.304688 L 98.179688 9.324219 L 98.046875 9.355469 L 97.984375 9.375 L 97.917969 9.390625 L 97.785156 9.429688 L 97.722656 9.449219 L 97.65625 9.46875 L 97.59375 9.488281 L 97.460938 9.527344 L 97.398438 9.550781 L 97.332031 9.570312 L 97.207031 9.617188 L 97.140625 9.636719 L 97.015625 9.683594 L 96.949219 9.710938 L 96.824219 9.757812 L 96.761719 9.785156 L 96.699219 9.808594 L 96.574219 9.863281 L 96.511719 9.886719 L 96.386719 9.941406 L 96.324219 9.972656 L 96.261719 10 L 96.203125 10.027344 L 96.140625 10.058594 L 96.078125 10.085938 L 96.019531 10.117188 L 95.957031 10.148438 L 95.898438 10.175781 L 95.835938 10.207031 L 95.777344 10.238281 L 95.714844 10.269531 L 95.65625 10.304688 L 95.539062 10.367188 L 95.480469 10.402344 L 95.417969 10.4375 L 95.359375 10.46875 L 95.242188 10.539062 L 95.1875 10.574219 L 95.011719 10.679688 L 94.957031 10.71875 L 94.898438 10.753906 L 94.84375 10.792969 L 94.785156 10.828125 L 94.730469 10.867188 L 94.671875 10.90625 L 94.398438 11.101562 L 94.34375 11.144531 L 94.289062 11.183594 L 94.234375 11.226562 L 94.179688 11.265625 L 94.128906 11.308594 L 94.019531 11.394531 L 93.96875 11.433594 L 93.914062 11.476562 L 93.863281 11.523438 L 93.761719 11.609375 L 93.707031 11.652344 L 93.65625 11.699219 L 93.605469 11.742188 L 93.554688 11.789062 L 93.507812 11.835938 L 93.457031 11.878906 L 93.40625 11.925781 L 93.359375 11.972656 L 93.308594 12.019531 L 93.019531 12.308594 L 92.972656 12.359375 L 92.925781 12.40625 L 92.878906 12.457031 L 92.835938 12.507812 L 92.789062 12.554688 L 92.742188 12.605469 L 92.699219 12.65625 L 92.652344 12.707031 L 92.609375 12.761719 L 92.523438 12.863281 L 92.476562 12.914062 L 92.433594 12.96875 L 92.394531 13.019531 L 92.308594 13.128906 L 92.265625 13.179688 L 92.226562 13.234375 L 92.183594 13.289062 L 92.144531 13.34375 L 92.101562 13.398438 L 91.90625 13.671875 L 91.867188 13.730469 L 91.828125 13.785156 L 91.792969 13.84375 L 91.753906 13.898438 L 91.71875 13.957031 L 91.679688 14.011719 L 91.574219 14.1875 L 91.539062 14.242188 L 91.46875 14.359375 L 91.4375 14.417969 L 91.402344 14.480469 L 91.367188 14.539062 L 91.304688 14.65625 L 91.269531 14.714844 L 91.238281 14.777344 L 91.207031 14.835938 L 91.175781 14.898438 L 91.148438 14.957031 L 91.117188 15.019531 L 91.085938 15.078125 L 91.058594 15.140625 L 91.027344 15.203125 L 91 15.261719 L 90.972656 15.324219 L 90.941406 15.386719 L 90.886719 15.511719 L 90.863281 15.574219 L 90.808594 15.699219 L 90.785156 15.761719 L 90.757812 15.824219 L 90.710938 15.949219 L 90.683594 16.015625 L 90.636719 16.140625 L 90.617188 16.207031 L 90.570312 16.332031 L 90.550781 16.398438 L 90.527344 16.460938 L 90.488281 16.59375 L 90.46875 16.65625 L 90.449219 16.722656 L 90.429688 16.785156 L 90.390625 16.917969 L 90.375 16.984375 L 90.355469 17.046875 L 90.324219 17.179688 L 90.304688 17.246094 L 90.273438 17.378906 L 90.261719 17.445312 L 90.230469 17.578125 L 90.21875 17.644531 L 90.203125 17.710938 L 90.121094 18.175781 L 90.113281 18.246094 L 90.101562 18.3125 L 90.085938 18.445312 L 90.078125 18.515625 L 90.054688 18.714844 L 90.046875 18.785156 L 90.042969 18.851562 L 90.035156 18.917969 L 90.03125 18.988281 L 90.027344 19.054688 L 90.019531 19.121094 L 90.015625 19.191406 L 90.011719 19.257812 L 90.011719 19.324219 L 90.007812 19.394531 L 90.003906 19.460938 L 90.003906 19.527344 L 90 19.597656 L 90 20.003906 L 90.003906 20.070312 L 90.003906 20.140625 L 90.011719 20.273438 L 90.011719 20.34375 L 90.019531 20.476562 L 90.027344 20.546875 L 90.035156 20.679688 L 90.042969 20.75 L 90.046875 20.816406 L 90.054688 20.882812 L 90.0625 20.953125 L 90.085938 21.152344 L 90.09375 21.222656 L 90.101562 21.289062 L 90.113281 21.355469 L 90.121094 21.421875 L 90.144531 21.554688 L 90.15625 21.625 L 90.203125 21.890625 L 90.21875 21.957031 L 90.230469 22.023438 L 90.261719 22.15625 L 90.273438 22.222656 L 90.304688 22.355469 L 90.324219 22.421875 L 90.339844 22.484375 L 90.355469 22.550781 L 90.375 22.617188 L 90.390625 22.683594 L 90.410156 22.746094 L 90.449219 22.878906 L 90.46875 22.941406 L 90.507812 23.074219 L 90.527344 23.136719 L 90.550781 23.203125 L 90.570312 23.265625 L 90.59375 23.332031 L 90.617188 23.394531 L 90.636719 23.457031 L 90.660156 23.523438 L 90.683594 23.585938 L 90.710938 23.648438 L 90.734375 23.710938 L 90.757812 23.777344 L 90.785156 23.839844 L 90.808594 23.902344 L 90.863281 24.027344 L 90.886719 24.089844 L 90.941406 24.214844 L 90.972656 24.273438 L 91.027344 24.398438 L 91.058594 24.460938 L 91.085938 24.519531 L 91.117188 24.582031 L 91.148438 24.640625 L 91.175781 24.703125 L 91.207031 24.761719 L 91.238281 24.824219 L 91.269531 24.882812 L 91.304688 24.945312 L 91.367188 25.0625 L 91.4375 25.179688 L 91.46875 25.238281 L 91.644531 25.53125 L 91.679688 25.585938 L 91.71875 25.644531 L 91.753906 25.699219 L 91.792969 25.757812 L 91.828125 25.8125 L 91.867188 25.871094 L 91.945312 25.980469 L 91.984375 26.039062 L 92.101562 26.203125 L 92.144531 26.257812 L 92.183594 26.3125 L 92.226562 26.367188 L 92.265625 26.417969 L 92.351562 26.527344 L 92.394531 26.578125 L 92.433594 26.632812 L 92.476562 26.683594 L 92.523438 26.738281 L 92.652344 26.890625 L 92.699219 26.941406 L 92.742188 26.992188 L 92.835938 27.09375 L 92.878906 27.144531 L 92.925781 27.191406 L 93.019531 27.292969 L 93.066406 27.339844 L 93.117188 27.386719 L 93.164062 27.4375 L 93.210938 27.484375 L 93.261719 27.53125 L 93.308594 27.578125 L 93.359375 27.625 L 93.40625 27.671875 L 93.507812 27.765625 L 93.554688 27.8125 L 93.605469 27.855469 L 93.65625 27.902344 L 93.707031 27.945312 L 93.761719 27.992188 L 93.914062 28.121094 L 93.96875 28.164062 L 94.019531 28.207031 L 94.128906 28.292969 L 94.179688 28.332031 L 94.289062 28.417969 L 94.398438 28.496094 L 94.453125 28.539062 L 94.671875 28.695312 L 94.730469 28.734375 L 94.785156 28.769531 L 94.84375 28.808594 L 94.898438 28.84375 L 94.957031 28.882812 L 95.011719 28.917969 L 95.070312 28.953125 L 95.128906 28.992188 L 95.1875 29.027344 L 95.242188 29.0625 L 95.300781 29.097656 L 95.359375 29.128906 L 95.417969 29.164062 L 95.480469 29.199219 L 95.539062 29.230469 L 95.597656 29.265625 L 95.714844 29.328125 L 95.777344 29.359375 L 95.835938 29.390625 L 95.898438 29.421875 L 95.957031 29.453125 L 96.019531 29.484375 L 96.078125 29.511719 L 96.140625 29.542969 L 96.203125 29.570312 L 96.261719 29.601562 L 96.636719 29.765625 L 96.699219 29.789062 L 96.761719 29.816406 L 96.824219 29.839844 L 96.886719 29.867188 L 96.949219 29.890625 L 97.015625 29.914062 L 97.140625 29.960938 L 97.207031 29.984375 L 97.269531 30.007812 L 97.332031 30.027344 L 97.398438 30.050781 L 97.460938 30.070312 L 97.527344 30.09375 L 97.59375 30.113281 L 97.65625 30.132812 L 97.722656 30.152344 L 97.785156 30.171875 L 97.851562 30.191406 L 97.917969 30.207031 L 97.984375 30.226562 L 98.046875 30.242188 L 98.113281 30.261719 L 98.511719 30.355469 L 98.578125 30.367188 L 98.644531 30.382812 L 98.710938 30.394531 L 98.777344 30.410156 L 99.109375 30.46875 L 99.175781 30.476562 L 99.246094 30.488281 L 99.3125 30.496094 L 99.378906 30.507812 L 99.445312 30.515625 L 99.515625 30.523438 L 99.714844 30.546875 L 99.785156 30.550781 L 99.851562 30.558594 L 99.917969 30.5625 L 99.988281 30.570312 L 100.121094 30.578125 L 100.191406 30.582031 L 100.324219 30.589844 L 100.394531 30.59375 L 100.460938 30.59375 L 100.527344 30.597656 L 100.664062 30.597656 L 100.730469 30.601562 L 289.589844 30.601562 L 289.65625 30.597656 L 289.792969 30.597656 L 289.863281 30.59375 L 289.929688 30.59375 L 289.996094 30.589844 L 290.066406 30.585938 L 290.199219 30.578125 L 290.269531 30.574219 L 290.335938 30.570312 L 290.402344 30.5625 L 290.472656 30.558594 L 290.539062 30.550781 L 290.605469 30.546875 L 290.671875 30.539062 L 290.742188 30.53125 L 290.941406 30.507812 L 291.011719 30.496094 L 291.078125 30.488281 L 291.144531 30.476562 L 291.210938 30.46875 L 291.277344 30.457031 L 291.347656 30.445312 L 291.546875 30.410156 L 291.613281 30.394531 L 291.679688 30.382812 L 291.746094 30.367188 L 291.8125 30.355469 L 292.078125 30.292969 L 292.140625 30.277344 L 292.207031 30.261719 L 292.273438 30.242188 L 292.339844 30.226562 L 292.40625 30.207031 L 292.46875 30.191406 L 292.601562 30.152344 L 292.664062 30.132812 L 292.796875 30.09375 L 292.859375 30.070312 L 292.925781 30.050781 L 292.988281 30.027344 L 293.054688 30.007812 L 293.179688 29.960938 L 293.246094 29.9375 L 293.433594 29.867188 L 293.5 29.839844 L 293.5625 29.816406 L 293.625 29.789062 L 293.6875 29.765625 L 293.9375 29.65625 L 293.996094 29.628906 L 294.058594 29.601562 L 294.121094 29.570312 L 294.183594 29.542969 L 294.242188 29.511719 L 294.304688 29.484375 L 294.363281 29.453125 L 294.425781 29.421875 L 294.484375 29.390625 L 294.546875 29.359375 L 294.664062 29.296875 L 294.726562 29.265625 L 294.785156 29.230469 L 294.84375 29.199219 L 294.960938 29.128906 L 295.019531 29.097656 L 295.195312 28.992188 L 295.25 28.953125 L 295.367188 28.882812 L 295.421875 28.84375 L 295.480469 28.808594 L 295.535156 28.769531 L 295.59375 28.734375 L 295.703125 28.65625 L 295.761719 28.617188 L 295.871094 28.539062 L 295.925781 28.496094 L 296.035156 28.417969 L 296.089844 28.375 L 296.140625 28.332031 L 296.195312 28.292969 L 296.25 28.25 L 296.300781 28.207031 L 296.355469 28.164062 L 296.457031 28.078125 L 296.511719 28.035156 L 296.5625 27.992188 L 296.613281 27.945312 L 296.664062 27.902344 L 296.714844 27.855469 L 296.765625 27.8125 L 296.867188 27.71875 L 296.914062 27.671875 L 297.015625 27.578125 L 297.109375 27.484375 L 297.160156 27.4375 L 297.207031 27.386719 L 297.300781 27.292969 L 297.394531 27.191406 L 297.441406 27.144531 L 297.488281 27.09375 L 297.53125 27.042969 L 297.578125 26.992188 L 297.621094 26.945312 L 297.667969 26.992188 L 297.710938 27.042969 L 297.804688 27.144531 L 297.847656 27.191406 L 297.941406 27.292969 L 297.992188 27.339844 L 298.039062 27.386719 L 298.085938 27.4375 L 298.132812 27.484375 L 298.183594 27.53125 L 298.230469 27.578125 L 298.28125 27.625 L 298.328125 27.671875 L 298.480469 27.8125 L 298.53125 27.855469 L 298.582031 27.902344 L 298.632812 27.945312 L 298.683594 27.992188 L 298.785156 28.078125 L 298.839844 28.121094 L 298.941406 28.207031 L 299.050781 28.292969 L 299.101562 28.332031 L 299.210938 28.417969 L 299.320312 28.496094 L 299.375 28.539062 L 299.539062 28.65625 L 299.597656 28.695312 L 299.652344 28.734375 L 299.707031 28.769531 L 299.765625 28.808594 L 299.820312 28.84375 L 299.878906 28.882812 L 299.933594 28.917969 L 299.992188 28.953125 L 300.050781 28.992188 L 300.226562 29.097656 L 300.285156 29.128906 L 300.402344 29.199219 L 300.460938 29.230469 L 300.519531 29.265625 L 300.578125 29.296875 L 300.640625 29.328125 L 300.757812 29.390625 L 300.820312 29.421875 L 300.878906 29.453125 L 300.941406 29.484375 L 301 29.511719 L 301.0625 29.542969 L 301.125 29.570312 L 301.183594 29.601562 L 301.558594 29.765625 L 301.621094 29.789062 L 301.683594 29.816406 L 301.746094 29.839844 L 301.808594 29.867188 L 301.875 29.890625 L 302.0625 29.960938 L 302.128906 29.984375 L 302.191406 30.007812 L 302.257812 30.027344 L 302.320312 30.050781 L 302.386719 30.070312 L 302.449219 30.09375 L 302.515625 30.113281 L 302.578125 30.132812 L 302.710938 30.171875 L 302.773438 30.191406 L 302.839844 30.207031 L 302.90625 30.226562 L 302.972656 30.242188 L 303.035156 30.261719 L 303.433594 30.355469 L 303.5 30.367188 L 303.566406 30.382812 L 303.632812 30.394531 L 303.699219 30.410156 L 304.03125 30.46875 L 304.101562 30.476562 L 304.167969 30.488281 L 304.234375 30.496094 L 304.300781 30.507812 L 304.367188 30.515625 L 304.4375 30.523438 L 304.636719 30.546875 L 304.707031 30.550781 L 304.773438 30.558594 L 304.839844 30.5625 L 304.910156 30.570312 L 305.042969 30.578125 L 305.113281 30.582031 L 305.246094 30.589844 L 305.316406 30.59375 L 305.382812 30.59375 L 305.449219 30.597656 L 305.585938 30.597656 L 305.65625 30.601562 L 493.269531 30.601562 L 493.335938 30.597656 L 493.472656 30.597656 L 493.539062 30.59375 L 493.605469 30.59375 L 493.675781 30.589844 L 493.808594 30.582031 L 493.878906 30.578125 L 494.011719 30.570312 L 494.082031 30.5625 L 494.148438 30.558594 L 494.214844 30.550781 L 494.285156 30.546875 L 494.484375 30.523438 L 494.554688 30.515625 L 494.621094 30.507812 L 494.6875 30.496094 L 494.753906 30.488281 L 494.824219 30.476562 L 494.890625 30.46875 L 495.222656 30.410156 L 495.289062 30.394531 L 495.355469 30.382812 L 495.421875 30.367188 L 495.488281 30.355469 L 495.886719 30.261719 L 495.953125 30.242188 L 496.015625 30.226562 L 496.082031 30.207031 L 496.148438 30.191406 L 496.214844 30.171875 L 496.277344 30.152344 L 496.34375 30.132812 L 496.40625 30.113281 L 496.472656 30.09375 L 496.539062 30.070312 L 496.601562 30.050781 L 496.667969 30.027344 L 496.730469 30.007812 L 496.792969 29.984375 L 496.859375 29.960938 L 496.984375 29.914062 L 497.050781 29.890625 L 497.113281 29.867188 L 497.175781 29.839844 L 497.238281 29.816406 L 497.300781 29.789062 L 497.363281 29.765625 L 497.738281 29.601562 L 497.796875 29.570312 L 497.859375 29.542969 L 497.921875 29.511719 L 497.980469 29.484375 L 498.042969 29.453125 L 498.101562 29.421875 L 498.164062 29.390625 L 498.222656 29.359375 L 498.285156 29.328125 L 498.402344 29.265625 L 498.460938 29.230469 L 498.519531 29.199219 L 498.582031 29.164062 L 498.640625 29.128906 L 498.699219 29.097656 L 498.757812 29.0625 L 498.8125 29.027344 L 498.871094 28.992188 L 498.929688 28.953125 L 498.988281 28.917969 L 499.042969 28.882812 L 499.101562 28.84375 L 499.15625 28.808594 L 499.214844 28.769531 L 499.269531 28.734375 L 499.328125 28.695312 L 499.546875 28.539062 L 499.601562 28.496094 L 499.710938 28.417969 L 499.820312 28.332031 L 499.871094 28.292969 L 499.980469 28.207031 L 500.03125 28.164062 L 500.085938 28.121094 L 500.238281 27.992188 L 500.292969 27.945312 L 500.34375 27.902344 L 500.394531 27.855469 L 500.445312 27.8125 L 500.492188 27.765625 L 500.59375 27.671875 L 500.640625 27.625 L 500.691406 27.578125 L 500.738281 27.53125 L 500.789062 27.484375 L 500.835938 27.4375 L 500.882812 27.386719 L 500.933594 27.339844 L 500.980469 27.292969 L 501.074219 27.191406 L 501.121094 27.144531 L 501.164062 27.09375 L 501.257812 26.992188 L 501.300781 26.941406 L 501.347656 26.890625 L 501.476562 26.738281 L 501.523438 26.683594 L 501.566406 26.632812 L 501.605469 26.578125 L 501.648438 26.527344 L 501.734375 26.417969 L 501.773438 26.367188 L 501.816406 26.3125 L 501.855469 26.257812 L 501.898438 26.203125 L 502.015625 26.039062 L 502.054688 25.980469 L 502.132812 25.871094 L 502.171875 25.8125 L 502.207031 25.757812 L 502.246094 25.699219 L 502.28125 25.644531 L 502.320312 25.585938 L 502.355469 25.53125 L 502.53125 25.238281 L 502.5625 25.179688 L 502.632812 25.0625 L 502.695312 24.945312 L 502.730469 24.882812 L 502.761719 24.824219 L 502.792969 24.761719 L 502.824219 24.703125 L 502.851562 24.640625 L 502.882812 24.582031 L 502.914062 24.519531 L 502.941406 24.460938 L 502.972656 24.398438 L 503.027344 24.273438 L 503.058594 24.214844 L 503.113281 24.089844 L 503.136719 24.027344 L 503.191406 23.902344 L 503.214844 23.839844 L 503.242188 23.777344 L 503.265625 23.710938 L 503.289062 23.648438 L 503.316406 23.585938 L 503.339844 23.523438 L 503.363281 23.457031 L 503.382812 23.394531 L 503.40625 23.332031 L 503.429688 23.265625 L 503.449219 23.203125 L 503.472656 23.136719 L 503.492188 23.074219 L 503.53125 22.941406 L 503.550781 22.878906 L 503.589844 22.746094 L 503.609375 22.683594 L 503.625 22.617188 L 503.644531 22.550781 L 503.660156 22.484375 L 503.675781 22.421875 L 503.695312 22.355469 L 503.726562 22.222656 L 503.738281 22.15625 L 503.769531 22.023438 L 503.78125 21.957031 L 503.796875 21.890625 L 503.84375 21.625 L 503.855469 21.554688 L 503.878906 21.421875 L 503.886719 21.355469 L 503.898438 21.289062 L 503.90625 21.222656 L 503.914062 21.152344 L 503.9375 20.953125 L 503.945312 20.882812 L 503.953125 20.816406 L 503.957031 20.75 L 503.964844 20.679688 L 503.972656 20.546875 L 503.980469 20.476562 L 503.988281 20.34375 L 503.988281 20.273438 L 503.996094 20.140625 L 503.996094 20.070312 L 504 20.003906 L 504 19.597656 L 503.996094 19.527344 L 503.996094 19.460938 L 503.992188 19.394531 L 503.988281 19.324219 L 503.988281 19.257812 L 503.984375 19.191406 L 503.980469 19.121094 L 503.972656 19.054688 L 503.96875 18.988281 L 503.964844 18.917969 L 503.957031 18.851562 L 503.953125 18.785156 L 503.945312 18.714844 L 503.921875 18.515625 L 503.914062 18.445312 L 503.898438 18.3125 L 503.886719 18.246094 L 503.878906 18.175781 L 503.796875 17.710938 L 503.78125 17.644531 L 503.769531 17.578125 L 503.738281 17.445312 L 503.726562 17.378906 L 503.695312 17.246094 L 503.675781 17.179688 L 503.644531 17.046875 L 503.625 16.984375 L 503.609375 16.917969 L 503.570312 16.785156 L 503.550781 16.722656 L 503.53125 16.65625 L 503.511719 16.59375 L 503.472656 16.460938 L 503.449219 16.398438 L 503.429688 16.332031 L 503.382812 16.207031 L 503.363281 16.140625 L 503.316406 16.015625 L 503.289062 15.949219 L 503.242188 15.824219 L 503.214844 15.761719 L 503.191406 15.699219 L 503.136719 15.574219 L 503.113281 15.511719 L 503.058594 15.386719 L 503.027344 15.324219 L 503 15.261719 L 502.972656 15.203125 L 502.941406 15.140625 L 502.914062 15.078125 L 502.882812 15.019531 L 502.851562 14.957031 L 502.824219 14.898438 L 502.792969 14.835938 L 502.761719 14.777344 L 502.730469 14.714844 L 502.695312 14.65625 L 502.632812 14.539062 L 502.597656 14.480469 L 502.5625 14.417969 L 502.53125 14.359375 L 502.460938 14.242188 L 502.425781 14.1875 L 502.320312 14.011719 L 502.28125 13.957031 L 502.246094 13.898438 L 502.207031 13.84375 L 502.171875 13.785156 L 502.132812 13.730469 L 502.09375 13.671875 L 501.898438 13.398438 L 501.855469 13.34375 L 501.816406 13.289062 L 501.773438 13.234375 L 501.734375 13.179688 L 501.691406 13.128906 L 501.605469 13.019531 L 501.566406 12.96875 L 501.523438 12.914062 L 501.476562 12.863281 L 501.390625 12.761719 L 501.347656 12.707031 L 501.300781 12.65625 L 501.257812 12.605469 L 501.210938 12.554688 L 501.164062 12.507812 L 501.121094 12.457031 L 501.074219 12.40625 L 501.027344 12.359375 L 500.980469 12.308594 L 500.691406 12.019531 L 500.640625 11.972656 L 500.59375 11.925781 L 500.542969 11.878906 L 500.492188 11.835938 L 500.445312 11.789062 L 500.394531 11.742188 L 500.34375 11.699219 L 500.292969 11.652344 L 500.238281 11.609375 L 500.136719 11.523438 L 500.085938 11.476562 L 500.03125 11.433594 L 499.980469 11.394531 L 499.871094 11.308594 L 499.820312 11.265625 L 499.765625 11.226562 L 499.710938 11.183594 L 499.65625 11.144531 L 499.601562 11.101562 L 499.328125 10.90625 L 499.269531 10.867188 L 499.214844 10.828125 L 499.15625 10.792969 L 499.101562 10.753906 L 499.042969 10.71875 L 498.988281 10.679688 L 498.8125 10.574219 L 498.757812 10.539062 L 498.640625 10.46875 L 498.582031 10.4375 L 498.519531 10.402344 L 498.460938 10.367188 L 498.34375 10.304688 L 498.285156 10.269531 L 498.222656 10.238281 L 498.164062 10.207031 L 498.101562 10.175781 L 498.042969 10.148438 L 497.980469 10.117188 L 497.921875 10.085938 L 497.859375 10.058594 L 497.796875 10.027344 L 497.738281 10 L 497.675781 9.972656 L 497.613281 9.941406 L 497.488281 9.886719 L 497.425781 9.863281 L 497.300781 9.808594 L 497.238281 9.785156 L 497.175781 9.757812 L 497.050781 9.710938 L 496.984375 9.683594 L 496.859375 9.636719 L 496.792969 9.617188 L 496.667969 9.570312 L 496.601562 9.550781 L 496.539062 9.527344 L 496.40625 9.488281 L 496.34375 9.46875 L 496.277344 9.449219 L 496.214844 9.429688 L 496.082031 9.390625 L 496.015625 9.375 L 495.953125 9.355469 L 495.820312 9.324219 L 495.753906 9.304688 L 495.621094 9.273438 L 495.554688 9.261719 L 495.421875 9.230469 L 495.355469 9.21875 L 495.289062 9.203125 L 494.824219 9.121094 L 494.753906 9.113281 L 494.6875 9.101562 L 494.554688 9.085938 L 494.484375 9.078125 L 494.285156 9.054688 L 494.214844 9.046875 L 494.148438 9.042969 L 494.082031 9.035156 L 494.011719 9.03125 L 493.945312 9.027344 L 493.878906 9.019531 L 493.808594 9.015625 L 493.742188 9.011719 L 493.675781 9.011719 L 493.605469 9.007812 L 493.539062 9.003906 L 493.472656 9.003906 L 493.402344 9 L 305.519531 9 L 305.449219 9.003906 L 305.382812 9.003906 L 305.316406 9.007812 L 305.246094 9.011719 L 305.179688 9.011719 L 305.113281 9.015625 L 305.042969 9.019531 L 304.976562 9.027344 L 304.910156 9.03125 L 304.839844 9.035156 L 304.773438 9.042969 L 304.707031 9.046875 L 304.636719 9.054688 L 304.4375 9.078125 L 304.367188 9.085938 L 304.234375 9.101562 L 304.167969 9.113281 L 304.101562 9.121094 L 304.03125 9.132812 L 303.632812 9.203125 L 303.566406 9.21875 L 303.5 9.230469 L 303.367188 9.261719 L 303.300781 9.273438 L 303.167969 9.304688 L 303.101562 9.324219 L 303.035156 9.339844 L 302.972656 9.355469 L 302.90625 9.375 L 302.839844 9.390625 L 302.773438 9.410156 L 302.710938 9.429688 L 302.578125 9.46875 L 302.515625 9.488281 L 302.449219 9.507812 L 302.386719 9.527344 L 302.320312 9.550781 L 302.257812 9.570312 L 302.191406 9.59375 L 302.128906 9.617188 L 302.0625 9.636719 L 301.9375 9.683594 L 301.875 9.710938 L 301.808594 9.734375 L 301.746094 9.757812 L 301.683594 9.785156 L 301.621094 9.808594 L 301.496094 9.863281 L 301.433594 9.886719 L 301.308594 9.941406 L 301.246094 9.972656 L 301.183594 10 L 301.125 10.027344 L 301.0625 10.058594 L 301 10.085938 L 300.941406 10.117188 L 300.878906 10.148438 L 300.820312 10.175781 L 300.757812 10.207031 L 300.640625 10.269531 L 300.578125 10.304688 L 300.460938 10.367188 L 300.34375 10.4375 L 300.285156 10.46875 L 299.933594 10.679688 L 299.878906 10.71875 L 299.820312 10.753906 L 299.765625 10.792969 L 299.707031 10.828125 L 299.597656 10.90625 L 299.539062 10.945312 L 299.320312 11.101562 L 299.265625 11.144531 L 299.210938 11.183594 L 299.15625 11.226562 L 299.101562 11.265625 L 299.050781 11.308594 L 298.941406 11.394531 L 298.890625 11.433594 L 298.839844 11.476562 L 298.785156 11.523438 L 298.632812 11.652344 L 298.582031 11.699219 L 298.53125 11.742188 L 298.429688 11.835938 L 298.378906 11.878906 L 298.328125 11.925781 L 298.28125 11.972656 L 298.230469 12.019531 L 298.039062 12.210938 L 297.992188 12.261719 L 297.941406 12.308594 L 297.894531 12.359375 L 297.847656 12.40625 L 297.804688 12.457031 L 297.757812 12.507812 L 297.710938 12.554688 L 297.667969 12.605469 L 297.621094 12.65625 L 297.578125 12.605469 L 297.53125 12.554688 L 297.488281 12.507812 L 297.394531 12.40625 L 297.347656 12.359375 L 297.300781 12.308594 L 297.253906 12.261719 L 297.207031 12.210938 L 297.160156 12.164062 L 297.109375 12.117188 L 297.0625 12.066406 L 297.015625 12.019531 L 296.914062 11.925781 L 296.867188 11.878906 L 296.816406 11.835938 L 296.714844 11.742188 L 296.664062 11.699219 L 296.613281 11.652344 L 296.511719 11.566406 L 296.457031 11.523438 L 296.40625 11.476562 L 296.355469 11.433594 L 296.300781 11.394531 L 296.25 11.351562 L 296.140625 11.265625 L 296.089844 11.226562 L 296.035156 11.183594 L 295.980469 11.144531 L 295.925781 11.101562 L 295.761719 10.984375 L 295.703125 10.945312 L 295.59375 10.867188 L 295.535156 10.828125 L 295.480469 10.792969 L 295.421875 10.753906 L 295.367188 10.71875 L 295.308594 10.679688 L 295.25 10.644531 L 295.195312 10.609375 L 294.960938 10.46875 L 294.902344 10.4375 L 294.785156 10.367188 L 294.726562 10.335938 L 294.664062 10.304688 L 294.605469 10.269531 L 294.546875 10.238281 L 294.484375 10.207031 L 294.425781 10.175781 L 294.363281 10.148438 L 294.304688 10.117188 L 294.242188 10.085938 L 294.183594 10.058594 L 294.121094 10.027344 L 293.996094 9.972656 L 293.9375 9.941406 L 293.8125 9.886719 L 293.75 9.863281 L 293.625 9.808594 L 293.5625 9.785156 L 293.5 9.757812 L 293.433594 9.734375 L 293.371094 9.710938 L 293.308594 9.683594 L 293.246094 9.660156 L 293.179688 9.636719 L 293.117188 9.617188 L 293.054688 9.59375 L 292.988281 9.570312 L 292.925781 9.550781 L 292.859375 9.527344 L 292.796875 9.507812 L 292.664062 9.46875 L 292.601562 9.449219 L 292.46875 9.410156 L 292.40625 9.390625 L 292.339844 9.375 L 292.273438 9.355469 L 292.140625 9.324219 L 292.078125 9.304688 L 291.945312 9.273438 L 291.878906 9.261719 L 291.746094 9.230469 L 291.679688 9.21875 L 291.613281 9.203125 L 291.347656 9.15625 L 291.277344 9.144531 L 291.144531 9.121094 L 291.078125 9.113281 L 291.011719 9.101562 L 290.941406 9.09375 L 290.742188 9.070312 L 290.671875 9.0625 L 290.539062 9.046875 L 290.472656 9.042969 L 290.402344 9.035156 L 290.269531 9.027344 L 290.199219 9.019531 L 290.066406 9.011719 L 289.996094 9.011719 L 289.863281 9.003906 L 289.792969 9.003906 L 289.726562 9 L 100.800781 9 "/>
</g>
</svg>
